ISO-10303-21;
HEADER;
/* Generated by software containing ST-Developer
 * from STEP Tools, Inc. (www.steptools.com) 
 */
/* OPTION: using custom renumber hook */

FILE_DESCRIPTION(
/* description */ ('STEP AP242 Edition 2',
'CAx-IF Rec.Pracs.---Representation and Presentation of Product Manufa
cturing Information (PMI)---4.0---2014-10-13',
'CAx-IF Rec.Pracs.---3D Tessellated Geometry---0.4---2014-09-14','2;1',
'CAx-IF Rec.Pracs.---User Defined Attributes---1.5---2016-08-15'),
/* implementation_level */ '2;1');

FILE_NAME(
/* name */ 'Assembly 2 - Part 3 (1)',
/* time_stamp */ '2026-06-30T13:00:18Z',
/* author */ (''),
/* organization */ (''),
/* preprocessor_version */ 'ST-DEVELOPER v20',
/* originating_system */ 'ONSHAPE BY PTC INC, 1.217',
/* authorisation */ '  ');

FILE_SCHEMA (('AP242_MANAGED_MODEL_BASED_3D_ENGINEERING_MIM_LF { 1 0 10303 442 3 1 4 }'));
ENDSEC;

DATA;
#10=SHAPE_REPRESENTATION_RELATIONSHIP('','',#285,#11);
#11=ADVANCED_BREP_SHAPE_REPRESENTATION('',(#283),#455);
#12=PLANE('',#292);
#13=PLANE('',#293);
#14=PLANE('',#294);
#15=PLANE('',#295);
#16=PLANE('',#296);
#17=PLANE('',#297);
#18=PLANE('',#298);
#19=PLANE('',#299);
#20=PLANE('',#300);
#21=PLANE('',#301);
#22=PLANE('',#302);
#23=PLANE('',#303);
#24=PLANE('',#304);
#25=PLANE('',#305);
#26=CIRCLE('',#288,0.0025);
#27=CIRCLE('',#289,0.0025);
#28=CIRCLE('',#290,0.0025);
#29=CIRCLE('',#291,0.0025);
#30=ORIENTED_EDGE('',*,*,#102,.F.);
#31=ORIENTED_EDGE('',*,*,#103,.F.);
#32=ORIENTED_EDGE('',*,*,#104,.F.);
#33=ORIENTED_EDGE('',*,*,#105,.T.);
#34=ORIENTED_EDGE('',*,*,#106,.F.);
#35=ORIENTED_EDGE('',*,*,#107,.T.);
#36=ORIENTED_EDGE('',*,*,#108,.T.);
#37=ORIENTED_EDGE('',*,*,#109,.T.);
#38=ORIENTED_EDGE('',*,*,#105,.F.);
#39=ORIENTED_EDGE('',*,*,#110,.T.);
#40=ORIENTED_EDGE('',*,*,#111,.T.);
#41=ORIENTED_EDGE('',*,*,#112,.F.);
#42=ORIENTED_EDGE('',*,*,#113,.F.);
#43=ORIENTED_EDGE('',*,*,#114,.T.);
#44=ORIENTED_EDGE('',*,*,#106,.T.);
#45=ORIENTED_EDGE('',*,*,#115,.F.);
#46=ORIENTED_EDGE('',*,*,#116,.T.);
#47=ORIENTED_EDGE('',*,*,#117,.T.);
#48=ORIENTED_EDGE('',*,*,#118,.F.);
#49=ORIENTED_EDGE('',*,*,#119,.F.);
#50=ORIENTED_EDGE('',*,*,#120,.T.);
#51=ORIENTED_EDGE('',*,*,#102,.T.);
#52=ORIENTED_EDGE('',*,*,#114,.F.);
#53=ORIENTED_EDGE('',*,*,#121,.F.);
#54=ORIENTED_EDGE('',*,*,#110,.F.);
#55=ORIENTED_EDGE('',*,*,#104,.T.);
#56=ORIENTED_EDGE('',*,*,#122,.T.);
#57=ORIENTED_EDGE('',*,*,#123,.T.);
#58=ORIENTED_EDGE('',*,*,#113,.T.);
#59=ORIENTED_EDGE('',*,*,#124,.F.);
#60=ORIENTED_EDGE('',*,*,#125,.F.);
#61=ORIENTED_EDGE('',*,*,#121,.T.);
#62=ORIENTED_EDGE('',*,*,#112,.T.);
#63=ORIENTED_EDGE('',*,*,#126,.F.);
#64=ORIENTED_EDGE('',*,*,#127,.F.);
#65=ORIENTED_EDGE('',*,*,#124,.T.);
#66=ORIENTED_EDGE('',*,*,#111,.F.);
#67=ORIENTED_EDGE('',*,*,#123,.F.);
#68=ORIENTED_EDGE('',*,*,#128,.T.);
#69=ORIENTED_EDGE('',*,*,#126,.T.);
#70=ORIENTED_EDGE('',*,*,#122,.F.);
#71=ORIENTED_EDGE('',*,*,#103,.T.);
#72=ORIENTED_EDGE('',*,*,#120,.F.);
#73=ORIENTED_EDGE('',*,*,#125,.T.);
#74=ORIENTED_EDGE('',*,*,#127,.T.);
#75=ORIENTED_EDGE('',*,*,#128,.F.);
#76=ORIENTED_EDGE('',*,*,#107,.F.);
#77=ORIENTED_EDGE('',*,*,#119,.T.);
#78=ORIENTED_EDGE('',*,*,#129,.F.);
#79=ORIENTED_EDGE('',*,*,#130,.F.);
#80=ORIENTED_EDGE('',*,*,#109,.F.);
#81=ORIENTED_EDGE('',*,*,#131,.F.);
#82=ORIENTED_EDGE('',*,*,#132,.T.);
#83=ORIENTED_EDGE('',*,*,#115,.T.);
#84=ORIENTED_EDGE('',*,*,#116,.F.);
#85=ORIENTED_EDGE('',*,*,#132,.F.);
#86=ORIENTED_EDGE('',*,*,#133,.T.);
#87=ORIENTED_EDGE('',*,*,#134,.T.);
#88=ORIENTED_EDGE('',*,*,#117,.F.);
#89=ORIENTED_EDGE('',*,*,#134,.F.);
#90=ORIENTED_EDGE('',*,*,#135,.T.);
#91=ORIENTED_EDGE('',*,*,#136,.T.);
#92=ORIENTED_EDGE('',*,*,#118,.T.);
#93=ORIENTED_EDGE('',*,*,#136,.F.);
#94=ORIENTED_EDGE('',*,*,#137,.F.);
#95=ORIENTED_EDGE('',*,*,#129,.T.);
#96=ORIENTED_EDGE('',*,*,#108,.F.);
#97=ORIENTED_EDGE('',*,*,#130,.T.);
#98=ORIENTED_EDGE('',*,*,#137,.T.);
#99=ORIENTED_EDGE('',*,*,#135,.F.);
#100=ORIENTED_EDGE('',*,*,#133,.F.);
#101=ORIENTED_EDGE('',*,*,#131,.T.);
#102=EDGE_CURVE('',#138,#139,#162,.F.);
#103=EDGE_CURVE('',#140,#138,#26,.F.);
#104=EDGE_CURVE('',#141,#140,#163,.T.);
#105=EDGE_CURVE('',#141,#139,#27,.T.);
#106=EDGE_CURVE('',#142,#143,#28,.T.);
#107=EDGE_CURVE('',#142,#144,#164,.F.);
#108=EDGE_CURVE('',#144,#145,#29,.F.);
#109=EDGE_CURVE('',#145,#143,#165,.T.);
#110=EDGE_CURVE('',#141,#146,#166,.T.);
#111=EDGE_CURVE('',#146,#147,#167,.T.);
#112=EDGE_CURVE('',#148,#147,#168,.T.);
#113=EDGE_CURVE('',#149,#148,#169,.T.);
#114=EDGE_CURVE('',#149,#139,#170,.T.);
#115=EDGE_CURVE('',#150,#143,#171,.T.);
#116=EDGE_CURVE('',#150,#151,#172,.T.);
#117=EDGE_CURVE('',#151,#152,#173,.T.);
#118=EDGE_CURVE('',#153,#152,#174,.T.);
#119=EDGE_CURVE('',#142,#153,#175,.T.);
#120=EDGE_CURVE('',#154,#138,#176,.T.);
#121=EDGE_CURVE('',#154,#149,#177,.T.);
#122=EDGE_CURVE('',#140,#155,#178,.T.);
#123=EDGE_CURVE('',#155,#146,#179,.T.);
#124=EDGE_CURVE('',#156,#148,#180,.T.);
#125=EDGE_CURVE('',#154,#156,#181,.T.);
#126=EDGE_CURVE('',#157,#147,#182,.T.);
#127=EDGE_CURVE('',#156,#157,#183,.T.);
#128=EDGE_CURVE('',#155,#157,#184,.T.);
#129=EDGE_CURVE('',#158,#153,#185,.T.);
#130=EDGE_CURVE('',#144,#158,#186,.T.);
#131=EDGE_CURVE('',#159,#145,#187,.T.);
#132=EDGE_CURVE('',#159,#150,#188,.T.);
#133=EDGE_CURVE('',#159,#160,#189,.T.);
#134=EDGE_CURVE('',#160,#151,#190,.T.);
#135=EDGE_CURVE('',#160,#161,#191,.T.);
#136=EDGE_CURVE('',#161,#152,#192,.T.);
#137=EDGE_CURVE('',#158,#161,#193,.T.);
#138=VERTEX_POINT('',#381);
#139=VERTEX_POINT('',#382);
#140=VERTEX_POINT('',#384);
#141=VERTEX_POINT('',#386);
#142=VERTEX_POINT('',#389);
#143=VERTEX_POINT('',#390);
#144=VERTEX_POINT('',#392);
#145=VERTEX_POINT('',#394);
#146=VERTEX_POINT('',#398);
#147=VERTEX_POINT('',#400);
#148=VERTEX_POINT('',#402);
#149=VERTEX_POINT('',#404);
#150=VERTEX_POINT('',#408);
#151=VERTEX_POINT('',#410);
#152=VERTEX_POINT('',#412);
#153=VERTEX_POINT('',#414);
#154=VERTEX_POINT('',#418);
#155=VERTEX_POINT('',#422);
#156=VERTEX_POINT('',#426);
#157=VERTEX_POINT('',#430);
#158=VERTEX_POINT('',#437);
#159=VERTEX_POINT('',#441);
#160=VERTEX_POINT('',#445);
#161=VERTEX_POINT('',#449);
#162=LINE('',#380,#194);
#163=LINE('',#385,#195);
#164=LINE('',#391,#196);
#165=LINE('',#395,#197);
#166=LINE('',#397,#198);
#167=LINE('',#399,#199);
#168=LINE('',#401,#200);
#169=LINE('',#403,#201);
#170=LINE('',#405,#202);
#171=LINE('',#407,#203);
#172=LINE('',#409,#204);
#173=LINE('',#411,#205);
#174=LINE('',#413,#206);
#175=LINE('',#415,#207);
#176=LINE('',#417,#208);
#177=LINE('',#419,#209);
#178=LINE('',#421,#210);
#179=LINE('',#423,#211);
#180=LINE('',#425,#212);
#181=LINE('',#427,#213);
#182=LINE('',#429,#214);
#183=LINE('',#431,#215);
#184=LINE('',#433,#216);
#185=LINE('',#436,#217);
#186=LINE('',#438,#218);
#187=LINE('',#440,#219);
#188=LINE('',#442,#220);
#189=LINE('',#444,#221);
#190=LINE('',#446,#222);
#191=LINE('',#448,#223);
#192=LINE('',#450,#224);
#193=LINE('',#452,#225);
#194=VECTOR('',#310,1.);
#195=VECTOR('',#313,1.);
#196=VECTOR('',#318,1.);
#197=VECTOR('',#321,1.);
#198=VECTOR('',#324,1.);
#199=VECTOR('',#325,1.);
#200=VECTOR('',#326,1.);
#201=VECTOR('',#327,1.);
#202=VECTOR('',#328,1.);
#203=VECTOR('',#331,1.);
#204=VECTOR('',#332,1.);
#205=VECTOR('',#333,1.);
#206=VECTOR('',#334,1.);
#207=VECTOR('',#335,1.);
#208=VECTOR('',#338,1.);
#209=VECTOR('',#339,1.);
#210=VECTOR('',#342,1.);
#211=VECTOR('',#343,1.);
#212=VECTOR('',#346,1.);
#213=VECTOR('',#347,1.);
#214=VECTOR('',#350,1.);
#215=VECTOR('',#351,1.);
#216=VECTOR('',#354,1.);
#217=VECTOR('',#359,1.);
#218=VECTOR('',#360,1.);
#219=VECTOR('',#363,1.);
#220=VECTOR('',#364,1.);
#221=VECTOR('',#367,1.);
#222=VECTOR('',#368,1.);
#223=VECTOR('',#371,1.);
#224=VECTOR('',#372,1.);
#225=VECTOR('',#375,1.);
#226=EDGE_LOOP('',(#30,#31,#32,#33));
#227=EDGE_LOOP('',(#34,#35,#36,#37));
#228=EDGE_LOOP('',(#38,#39,#40,#41,#42,#43));
#229=EDGE_LOOP('',(#44,#45,#46,#47,#48,#49));
#230=EDGE_LOOP('',(#50,#51,#52,#53));
#231=EDGE_LOOP('',(#54,#55,#56,#57));
#232=EDGE_LOOP('',(#58,#59,#60,#61));
#233=EDGE_LOOP('',(#62,#63,#64,#65));
#234=EDGE_LOOP('',(#66,#67,#68,#69));
#235=EDGE_LOOP('',(#70,#71,#72,#73,#74,#75));
#236=EDGE_LOOP('',(#76,#77,#78,#79));
#237=EDGE_LOOP('',(#80,#81,#82,#83));
#238=EDGE_LOOP('',(#84,#85,#86,#87));
#239=EDGE_LOOP('',(#88,#89,#90,#91));
#240=EDGE_LOOP('',(#92,#93,#94,#95));
#241=EDGE_LOOP('',(#96,#97,#98,#99,#100,#101));
#242=FACE_BOUND('',#226,.T.);
#243=FACE_BOUND('',#227,.T.);
#244=FACE_BOUND('',#228,.T.);
#245=FACE_BOUND('',#229,.T.);
#246=FACE_BOUND('',#230,.T.);
#247=FACE_BOUND('',#231,.T.);
#248=FACE_BOUND('',#232,.T.);
#249=FACE_BOUND('',#233,.T.);
#250=FACE_BOUND('',#234,.T.);
#251=FACE_BOUND('',#235,.T.);
#252=FACE_BOUND('',#236,.T.);
#253=FACE_BOUND('',#237,.T.);
#254=FACE_BOUND('',#238,.T.);
#255=FACE_BOUND('',#239,.T.);
#256=FACE_BOUND('',#240,.T.);
#257=FACE_BOUND('',#241,.T.);
#258=CYLINDRICAL_SURFACE('',#287,0.0025);
#259=ADVANCED_FACE('',(#242,#243),#258,.T.);
#260=ADVANCED_FACE('',(#244),#12,.F.);
#261=ADVANCED_FACE('',(#245),#13,.T.);
#262=ADVANCED_FACE('',(#246),#14,.T.);
#263=ADVANCED_FACE('',(#247),#15,.T.);
#264=ADVANCED_FACE('',(#248),#16,.F.);
#265=ADVANCED_FACE('',(#249),#17,.F.);
#266=ADVANCED_FACE('',(#250),#18,.T.);
#267=ADVANCED_FACE('',(#251),#19,.T.);
#268=ADVANCED_FACE('',(#252),#20,.F.);
#269=ADVANCED_FACE('',(#253),#21,.F.);
#270=ADVANCED_FACE('',(#254),#22,.T.);
#271=ADVANCED_FACE('',(#255),#23,.T.);
#272=ADVANCED_FACE('',(#256),#24,.F.);
#273=ADVANCED_FACE('',(#257),#25,.F.);
#274=CLOSED_SHELL('',(#259,#260,#261,#262,#263,#264,#265,#266,#267,#268,
#269,#270,#271,#272,#273));
#275=STYLED_ITEM('',(#276),#283);
#276=PRESENTATION_STYLE_ASSIGNMENT((#277));
#277=SURFACE_STYLE_USAGE(.BOTH.,#278);
#278=SURFACE_SIDE_STYLE('',(#279));
#279=SURFACE_STYLE_FILL_AREA(#280);
#280=FILL_AREA_STYLE('',(#281));
#281=FILL_AREA_STYLE_COLOUR('',#282);
#282=COLOUR_RGB('',0.231372549019608,0.380392156862745,0.705882352941177);
#283=MANIFOLD_SOLID_BREP('Part 3',#274);
#284=SHAPE_DEFINITION_REPRESENTATION(#460,#285);
#285=SHAPE_REPRESENTATION('Part 3',(#286),#455);
#286=AXIS2_PLACEMENT_3D('',#378,#306,#307);
#287=AXIS2_PLACEMENT_3D('',#379,#308,#309);
#288=AXIS2_PLACEMENT_3D('',#383,#311,#312);
#289=AXIS2_PLACEMENT_3D('',#387,#314,#315);
#290=AXIS2_PLACEMENT_3D('',#388,#316,#317);
#291=AXIS2_PLACEMENT_3D('',#393,#319,#320);
#292=AXIS2_PLACEMENT_3D('',#396,#322,#323);
#293=AXIS2_PLACEMENT_3D('',#406,#329,#330);
#294=AXIS2_PLACEMENT_3D('',#416,#336,#337);
#295=AXIS2_PLACEMENT_3D('',#420,#340,#341);
#296=AXIS2_PLACEMENT_3D('',#424,#344,#345);
#297=AXIS2_PLACEMENT_3D('',#428,#348,#349);
#298=AXIS2_PLACEMENT_3D('',#432,#352,#353);
#299=AXIS2_PLACEMENT_3D('',#434,#355,#356);
#300=AXIS2_PLACEMENT_3D('',#435,#357,#358);
#301=AXIS2_PLACEMENT_3D('',#439,#361,#362);
#302=AXIS2_PLACEMENT_3D('',#443,#365,#366);
#303=AXIS2_PLACEMENT_3D('',#447,#369,#370);
#304=AXIS2_PLACEMENT_3D('',#451,#373,#374);
#305=AXIS2_PLACEMENT_3D('',#453,#376,#377);
#306=DIRECTION('',(0.,0.,1.));
#307=DIRECTION('',(1.,0.,0.));
#308=DIRECTION('',(0.,0.,1.));
#309=DIRECTION('',(1.,0.,0.));
#310=DIRECTION('',(0.,0.,1.));
#311=DIRECTION('',(0.,0.,1.));
#312=DIRECTION('',(1.,0.,0.));
#313=DIRECTION('',(0.,0.,1.));
#314=DIRECTION('',(0.,0.,1.));
#315=DIRECTION('',(1.,0.,0.));
#316=DIRECTION('',(0.,0.,1.));
#317=DIRECTION('',(1.,0.,0.));
#318=DIRECTION('',(0.,0.,1.));
#319=DIRECTION('',(0.,0.,1.));
#320=DIRECTION('',(1.,0.,0.));
#321=DIRECTION('',(0.,0.,1.));
#322=DIRECTION('',(0.,0.,1.));
#323=DIRECTION('',(1.,0.,0.));
#324=DIRECTION('',(-1.7347234759768E-16,-1.,0.));
#325=DIRECTION('',(-1.,0.,0.));
#326=DIRECTION('',(-1.7347234759768E-16,-1.,0.));
#327=DIRECTION('',(-1.,0.,0.));
#328=DIRECTION('',(-1.7347234759768E-16,-1.,0.));
#329=DIRECTION('',(0.,0.,1.));
#330=DIRECTION('',(1.,0.,0.));
#331=DIRECTION('',(6.50521303491303E-17,1.,0.));
#332=DIRECTION('',(1.,0.,0.));
#333=DIRECTION('',(5.96311194867028E-17,1.,0.));
#334=DIRECTION('',(1.,0.,0.));
#335=DIRECTION('',(6.50521303491303E-17,1.,0.));
#336=DIRECTION('',(1.,-1.7347234759768E-16,0.));
#337=DIRECTION('',(1.7347234759768E-16,1.,0.));
#338=DIRECTION('',(-1.7347234759768E-16,-1.,0.));
#339=DIRECTION('',(0.,0.,-1.));
#340=DIRECTION('',(1.,-1.7347234759768E-16,0.));
#341=DIRECTION('',(1.7347234759768E-16,1.,0.));
#342=DIRECTION('',(-1.7347234759768E-16,-1.,0.));
#343=DIRECTION('',(0.,0.,-1.));
#344=DIRECTION('',(0.,-1.,0.));
#345=DIRECTION('',(0.,0.,-1.));
#346=DIRECTION('',(0.,0.,-1.));
#347=DIRECTION('',(-1.,0.,0.));
#348=DIRECTION('',(1.,-1.7347234759768E-16,0.));
#349=DIRECTION('',(1.7347234759768E-16,1.,0.));
#350=DIRECTION('',(0.,0.,-1.));
#351=DIRECTION('',(-1.7347234759768E-16,-1.,0.));
#352=DIRECTION('',(0.,-1.,0.));
#353=DIRECTION('',(0.,0.,-1.));
#354=DIRECTION('',(-1.,0.,0.));
#355=DIRECTION('',(0.,0.,1.));
#356=DIRECTION('',(1.,0.,0.));
#357=DIRECTION('',(1.,-6.50521303491303E-17,0.));
#358=DIRECTION('',(6.50521303491303E-17,1.,0.));
#359=DIRECTION('',(0.,0.,1.));
#360=DIRECTION('',(6.50521303491303E-17,1.,0.));
#361=DIRECTION('',(1.,-6.50521303491303E-17,0.));
#362=DIRECTION('',(6.50521303491303E-17,1.,0.));
#363=DIRECTION('',(6.50521303491303E-17,1.,0.));
#364=DIRECTION('',(0.,0.,1.));
#365=DIRECTION('',(0.,-1.,0.));
#366=DIRECTION('',(0.,0.,-1.));
#367=DIRECTION('',(1.,0.,0.));
#368=DIRECTION('',(0.,0.,1.));
#369=DIRECTION('',(1.,-5.96311194867028E-17,0.));
#370=DIRECTION('',(5.96311194867028E-17,1.,0.));
#371=DIRECTION('',(5.96311194867028E-17,1.,0.));
#372=DIRECTION('',(0.,0.,1.));
#373=DIRECTION('',(0.,-1.,0.));
#374=DIRECTION('',(0.,0.,-1.));
#375=DIRECTION('',(1.,0.,0.));
#376=DIRECTION('',(0.,0.,1.));
#377=DIRECTION('',(1.,0.,0.));
#378=CARTESIAN_POINT('',(0.,0.,0.));
#379=CARTESIAN_POINT('',(-0.004,1.53080849893419E-19,0.02));
#380=CARTESIAN_POINT('',(-0.0015037645958364,0.000137145204073057,0.02));
#381=CARTESIAN_POINT('',(-0.0015037645958364,0.000137145204073057,0.025));
#382=CARTESIAN_POINT('',(-0.0015037645958364,0.000137145204073057,0.02));
#383=CARTESIAN_POINT('',(-0.004,1.53080849893419E-19,0.025));
#384=CARTESIAN_POINT('',(-0.0015037645958364,-0.000137145204073058,0.025));
#385=CARTESIAN_POINT('',(-0.0015037645958364,-0.000137145204073058,0.02));
#386=CARTESIAN_POINT('',(-0.0015037645958364,-0.000137145204073058,0.02));
#387=CARTESIAN_POINT('',(-0.004,1.53080849893419E-19,0.02));
#388=CARTESIAN_POINT('',(-0.004,1.53080849893419E-19,0.33));
#389=CARTESIAN_POINT('',(-0.00648965645581484,0.000227179955144476,0.33));
#390=CARTESIAN_POINT('',(-0.00648965645581484,-0.000227179955144476,0.33));
#391=CARTESIAN_POINT('',(-0.00648965645581484,0.000227179955144476,0.02));
#392=CARTESIAN_POINT('',(-0.00648965645581484,0.000227179955144476,0.327));
#393=CARTESIAN_POINT('',(-0.004,1.53080849893419E-19,0.327));
#394=CARTESIAN_POINT('',(-0.00648965645581484,-0.000227179955144476,0.327));
#395=CARTESIAN_POINT('',(-0.00648965645581484,-0.000227179955144476,0.02));
#396=CARTESIAN_POINT('',(-0.00325,-0.000329751521348954,0.02));
#397=CARTESIAN_POINT('',(-0.0015037645958364,-8.67361737988404E-19,0.02));
#398=CARTESIAN_POINT('',(-0.0015037645958364,-0.005,0.02));
#399=CARTESIAN_POINT('',(-0.00400376459583641,-0.005,0.02));
#400=CARTESIAN_POINT('',(-0.0065037645958364,-0.005,0.02));
#401=CARTESIAN_POINT('',(-0.0065037645958364,0.,0.02));
#402=CARTESIAN_POINT('',(-0.0065037645958364,0.005,0.02));
#403=CARTESIAN_POINT('',(-0.0040037645958364,0.005,0.02));
#404=CARTESIAN_POINT('',(-0.0015037645958364,0.005,0.02));
#405=CARTESIAN_POINT('',(-0.0015037645958364,-8.67361737988404E-19,0.02));
#406=CARTESIAN_POINT('',(-0.00325,-0.000329751521348954,0.33));
#407=CARTESIAN_POINT('',(-0.00648965645581484,0.,0.33));
#408=CARTESIAN_POINT('',(-0.00648965645581484,-0.02,0.33));
#409=CARTESIAN_POINT('',(-0.00398965645581484,-0.02,0.33));
#410=CARTESIAN_POINT('',(-0.00148965645581484,-0.02,0.33));
#411=CARTESIAN_POINT('',(-0.00148965645581484,0.,0.33));
#412=CARTESIAN_POINT('',(-0.00148965645581484,0.02,0.33));
#413=CARTESIAN_POINT('',(-0.00398965645581484,0.02,0.33));
#414=CARTESIAN_POINT('',(-0.00648965645581484,0.02,0.33));
#415=CARTESIAN_POINT('',(-0.00648965645581484,0.,0.33));
#416=CARTESIAN_POINT('',(-0.0015037645958364,-8.67361737988404E-19,0.025));
#417=CARTESIAN_POINT('',(-0.0015037645958364,-8.67361737988404E-19,0.025));
#418=CARTESIAN_POINT('',(-0.0015037645958364,0.005,0.025));
#419=CARTESIAN_POINT('',(-0.0015037645958364,0.005,0.025));
#420=CARTESIAN_POINT('',(-0.0015037645958364,-8.67361737988404E-19,0.025));
#421=CARTESIAN_POINT('',(-0.0015037645958364,-8.67361737988404E-19,0.025));
#422=CARTESIAN_POINT('',(-0.0015037645958364,-0.005,0.025));
#423=CARTESIAN_POINT('',(-0.0015037645958364,-0.005,0.025));
#424=CARTESIAN_POINT('',(-0.0040037645958364,0.005,0.025));
#425=CARTESIAN_POINT('',(-0.0065037645958364,0.005,0.025));
#426=CARTESIAN_POINT('',(-0.0065037645958364,0.005,0.025));
#427=CARTESIAN_POINT('',(-0.0040037645958364,0.005,0.025));
#428=CARTESIAN_POINT('',(-0.0065037645958364,0.,0.025));
#429=CARTESIAN_POINT('',(-0.0065037645958364,-0.005,0.025));
#430=CARTESIAN_POINT('',(-0.0065037645958364,-0.005,0.025));
#431=CARTESIAN_POINT('',(-0.0065037645958364,0.,0.025));
#432=CARTESIAN_POINT('',(-0.00400376459583641,-0.005,0.025));
#433=CARTESIAN_POINT('',(-0.00400376459583641,-0.005,0.025));
#434=CARTESIAN_POINT('',(-0.0040037645958364,0.,0.025));
#435=CARTESIAN_POINT('',(-0.00648965645581484,0.,0.327));
#436=CARTESIAN_POINT('',(-0.00648965645581484,0.02,0.327));
#437=CARTESIAN_POINT('',(-0.00648965645581484,0.02,0.327));
#438=CARTESIAN_POINT('',(-0.00648965645581484,0.,0.327));
#439=CARTESIAN_POINT('',(-0.00648965645581484,0.,0.327));
#440=CARTESIAN_POINT('',(-0.00648965645581484,0.,0.327));
#441=CARTESIAN_POINT('',(-0.00648965645581484,-0.02,0.327));
#442=CARTESIAN_POINT('',(-0.00648965645581484,-0.02,0.327));
#443=CARTESIAN_POINT('',(-0.00398965645581484,-0.02,0.327));
#444=CARTESIAN_POINT('',(-0.00398965645581484,-0.02,0.327));
#445=CARTESIAN_POINT('',(-0.00148965645581484,-0.02,0.327));
#446=CARTESIAN_POINT('',(-0.00148965645581484,-0.02,0.327));
#447=CARTESIAN_POINT('',(-0.00148965645581484,0.,0.327));
#448=CARTESIAN_POINT('',(-0.00148965645581484,0.,0.327));
#449=CARTESIAN_POINT('',(-0.00148965645581484,0.02,0.327));
#450=CARTESIAN_POINT('',(-0.00148965645581484,0.02,0.327));
#451=CARTESIAN_POINT('',(-0.00398965645581484,0.02,0.327));
#452=CARTESIAN_POINT('',(-0.00398965645581484,0.02,0.327));
#453=CARTESIAN_POINT('',(-0.000588547746870414,0.0241221041241177,0.327));
#454=MECHANICAL_DESIGN_GEOMETRIC_PRESENTATION_REPRESENTATION('',(#275),
#455);
#455=(
GEOMETRIC_REPRESENTATION_CONTEXT(3)
GLOBAL_UNCERTAINTY_ASSIGNED_CONTEXT((#456))
GLOBAL_UNIT_ASSIGNED_CONTEXT((#459,#458,#457))
REPRESENTATION_CONTEXT('Part 3','TOP_LEVEL_ASSEMBLY_PART')
);
#456=UNCERTAINTY_MEASURE_WITH_UNIT(LENGTH_MEASURE(1.E-8),#459,
'DISTANCE_ACCURACY_VALUE','Maximum Tolerance applied to model');
#457=(
NAMED_UNIT(*)
SI_UNIT($,.STERADIAN.)
SOLID_ANGLE_UNIT()
);
#458=(
NAMED_UNIT(*)
PLANE_ANGLE_UNIT()
SI_UNIT($,.RADIAN.)
);
#459=(
LENGTH_UNIT()
NAMED_UNIT(*)
SI_UNIT($,.METRE.)
);
#460=PRODUCT_DEFINITION_SHAPE('','',#461);
#461=PRODUCT_DEFINITION('','',#463,#462);
#462=PRODUCT_DEFINITION_CONTEXT('',#469,'design');
#463=PRODUCT_DEFINITION_FORMATION_WITH_SPECIFIED_SOURCE('','',#465,
 .NOT_KNOWN.);
#464=PRODUCT_RELATED_PRODUCT_CATEGORY('','',(#465));
#465=PRODUCT('Part 3','Part 3','Part 3',(#467));
#466=PRODUCT_CATEGORY('','');
#467=PRODUCT_CONTEXT('',#469,'mechanical');
#468=APPLICATION_PROTOCOL_DEFINITION('international standard',
'ap242_managed_model_based_3d_engineering',2020,#469);
#469=APPLICATION_CONTEXT('managed model based 3d engineering');
ENDSEC;
END-ISO-10303-21;
