ISO-10303-21;
HEADER;
/* Generated by software containing ST-Developer
 * from STEP Tools, Inc. (www.steptools.com) 
 */
/* OPTION: using custom renumber hook */

FILE_DESCRIPTION(
/* description */ ('STEP AP242 Edition 2',
'CAx-IF Rec.Pracs.---Representation and Presentation of Product Manufa
cturing Information (PMI)---4.0---2014-10-13',
'CAx-IF Rec.Pracs.---3D Tessellated Geometry---0.4---2014-09-14','2;1',
'CAx-IF Rec.Pracs.---User Defined Attributes---1.5---2016-08-15'),
/* implementation_level */ '2;1');

FILE_NAME(
/* name */ 'Assembly 2 - OLED TFT 0.96 inch 64x128 monochrome (7)',
/* time_stamp */ '2026-06-30T13:00:18Z',
/* author */ (''),
/* organization */ (''),
/* preprocessor_version */ 'ST-DEVELOPER v20',
/* originating_system */ 'ONSHAPE BY PTC INC, 1.217',
/* authorisation */ '  ');

FILE_SCHEMA (('AP242_MANAGED_MODEL_BASED_3D_ENGINEERING_MIM_LF { 1 0 10303 442 3 1 4 }'));
ENDSEC;

DATA;
#10=SHAPE_REPRESENTATION_RELATIONSHIP('','',#1149,#11);
#11=ADVANCED_BREP_SHAPE_REPRESENTATION('',(#1147),#1845);
#12=OVER_RIDING_STYLED_ITEM('',(#1048),#1017,#1046);
#13=OVER_RIDING_STYLED_ITEM('',(#1049),#1025,#1046);
#14=OVER_RIDING_STYLED_ITEM('',(#1050),#1026,#1046);
#15=OVER_RIDING_STYLED_ITEM('',(#1051),#1027,#1046);
#16=OVER_RIDING_STYLED_ITEM('',(#1052),#1028,#1046);
#17=OVER_RIDING_STYLED_ITEM('',(#1053),#1029,#1046);
#18=OVER_RIDING_STYLED_ITEM('',(#1054),#1030,#1046);
#19=OVER_RIDING_STYLED_ITEM('',(#1055),#1031,#1046);
#20=OVER_RIDING_STYLED_ITEM('',(#1056),#1032,#1046);
#21=OVER_RIDING_STYLED_ITEM('',(#1057),#1033,#1046);
#22=OVER_RIDING_STYLED_ITEM('',(#1058),#1034,#1046);
#23=OVER_RIDING_STYLED_ITEM('',(#1059),#1041,#1046);
#24=OVER_RIDING_STYLED_ITEM('',(#1060),#1042,#1046);
#25=OVER_RIDING_STYLED_ITEM('',(#1061),#1043,#1046);
#26=OVER_RIDING_STYLED_ITEM('',(#1062),#1044,#1046);
#27=CIRCLE('',#1155,0.001);
#28=CIRCLE('',#1156,0.001);
#29=CIRCLE('',#1158,0.00105);
#30=CIRCLE('',#1159,0.00105);
#31=CIRCLE('',#1161,0.00195);
#32=CIRCLE('',#1162,0.00195);
#33=CIRCLE('',#1164,0.002);
#34=CIRCLE('',#1165,0.002);
#35=CIRCLE('',#1167,0.0184558816666668);
#36=CIRCLE('',#1168,0.0184558816666668);
#37=CIRCLE('',#1170,0.0184058816666668);
#38=CIRCLE('',#1171,0.0184058816666668);
#39=CIRCLE('',#1173,0.00095);
#40=CIRCLE('',#1174,0.00095);
#41=CIRCLE('',#1176,0.000900000000000012);
#42=CIRCLE('',#1177,0.000900000000000012);
#43=CIRCLE('',#1179,0.0002);
#44=CIRCLE('',#1180,0.0002);
#45=CIRCLE('',#1181,0.0002);
#46=CIRCLE('',#1182,0.0002);
#47=CIRCLE('',#1183,0.0002);
#48=CIRCLE('',#1184,0.0002);
#49=CIRCLE('',#1187,0.0002);
#50=CIRCLE('',#1190,0.0002);
#51=CIRCLE('',#1193,0.0002);
#52=CIRCLE('',#1196,0.0002);
#53=CIRCLE('',#1199,0.0002);
#54=CIRCLE('',#1202,0.0002);
#55=CIRCLE('',#1214,0.0002);
#56=CIRCLE('',#1215,0.0002);
#57=CIRCLE('',#1217,0.0002);
#58=CIRCLE('',#1218,0.0002);
#59=CIRCLE('',#1228,0.001);
#60=CIRCLE('',#1229,0.001);
#61=CIRCLE('',#1230,0.001);
#62=CIRCLE('',#1231,0.001);
#63=CIRCLE('',#1233,0.001);
#64=CIRCLE('',#1234,0.001);
#65=CIRCLE('',#1235,0.001);
#66=CIRCLE('',#1236,0.001);
#67=PLANE('',#1153);
#68=PLANE('',#1178);
#69=PLANE('',#1185);
#70=PLANE('',#1188);
#71=PLANE('',#1191);
#72=PLANE('',#1194);
#73=PLANE('',#1197);
#74=PLANE('',#1200);
#75=PLANE('',#1203);
#76=PLANE('',#1204);
#77=PLANE('',#1205);
#78=PLANE('',#1206);
#79=PLANE('',#1207);
#80=PLANE('',#1208);
#81=PLANE('',#1209);
#82=PLANE('',#1210);
#83=PLANE('',#1211);
#84=PLANE('',#1212);
#85=PLANE('',#1219);
#86=PLANE('',#1220);
#87=PLANE('',#1221);
#88=PLANE('',#1222);
#89=PLANE('',#1223);
#90=PLANE('',#1224);
#91=PLANE('',#1225);
#92=PLANE('',#1226);
#93=PLANE('',#1227);
#94=PLANE('',#1232);
#95=PLANE('',#1237);
#96=PLANE('',#1238);
#97=PLANE('',#1239);
#98=PLANE('',#1240);
#99=LINE('',#1543,#199);
#100=LINE('',#1550,#200);
#101=LINE('',#1558,#201);
#102=LINE('',#1565,#202);
#103=LINE('',#1567,#203);
#104=LINE('',#1568,#204);
#105=LINE('',#1570,#205);
#106=LINE('',#1575,#206);
#107=LINE('',#1582,#207);
#108=LINE('',#1586,#208);
#109=LINE('',#1590,#209);
#110=LINE('',#1596,#210);
#111=LINE('',#1602,#211);
#112=LINE('',#1608,#212);
#113=LINE('',#1618,#213);
#114=LINE('',#1622,#214);
#115=LINE('',#1626,#215);
#116=LINE('',#1630,#216);
#117=LINE('',#1634,#217);
#118=LINE('',#1638,#218);
#119=LINE('',#1642,#219);
#120=LINE('',#1644,#220);
#121=LINE('',#1646,#221);
#122=LINE('',#1648,#222);
#123=LINE('',#1652,#223);
#124=LINE('',#1654,#224);
#125=LINE('',#1656,#225);
#126=LINE('',#1660,#226);
#127=LINE('',#1662,#227);
#128=LINE('',#1664,#228);
#129=LINE('',#1668,#229);
#130=LINE('',#1670,#230);
#131=LINE('',#1672,#231);
#132=LINE('',#1676,#232);
#133=LINE('',#1678,#233);
#134=LINE('',#1680,#234);
#135=LINE('',#1684,#235);
#136=LINE('',#1686,#236);
#137=LINE('',#1688,#237);
#138=LINE('',#1692,#238);
#139=LINE('',#1694,#239);
#140=LINE('',#1696,#240);
#141=LINE('',#1698,#241);
#142=LINE('',#1700,#242);
#143=LINE('',#1703,#243);
#144=LINE('',#1705,#244);
#145=LINE('',#1707,#245);
#146=LINE('',#1709,#246);
#147=LINE('',#1712,#247);
#148=LINE('',#1713,#248);
#149=LINE('',#1715,#249);
#150=LINE('',#1717,#250);
#151=LINE('',#1719,#251);
#152=LINE('',#1721,#252);
#153=LINE('',#1723,#253);
#154=LINE('',#1725,#254);
#155=LINE('',#1728,#255);
#156=LINE('',#1730,#256);
#157=LINE('',#1732,#257);
#158=LINE('',#1734,#258);
#159=LINE('',#1736,#259);
#160=LINE('',#1738,#260);
#161=LINE('',#1740,#261);
#162=LINE('',#1742,#262);
#163=LINE('',#1744,#263);
#164=LINE('',#1745,#264);
#165=LINE('',#1750,#265);
#166=LINE('',#1754,#266);
#167=LINE('',#1759,#267);
#168=LINE('',#1763,#268);
#169=LINE('',#1765,#269);
#170=LINE('',#1768,#270);
#171=LINE('',#1770,#271);
#172=LINE('',#1772,#272);
#173=LINE('',#1774,#273);
#174=LINE('',#1776,#274);
#175=LINE('',#1778,#275);
#176=LINE('',#1780,#276);
#177=LINE('',#1782,#277);
#178=LINE('',#1784,#278);
#179=LINE('',#1786,#279);
#180=LINE('',#1787,#280);
#181=LINE('',#1789,#281);
#182=LINE('',#1790,#282);
#183=LINE('',#1792,#283);
#184=LINE('',#1794,#284);
#185=LINE('',#1796,#285);
#186=LINE('',#1798,#286);
#187=LINE('',#1800,#287);
#188=LINE('',#1802,#288);
#189=LINE('',#1804,#289);
#190=LINE('',#1805,#290);
#191=LINE('',#1816,#291);
#192=LINE('',#1818,#292);
#193=LINE('',#1820,#293);
#194=LINE('',#1830,#294);
#195=LINE('',#1832,#295);
#196=LINE('',#1834,#296);
#197=LINE('',#1836,#297);
#198=LINE('',#1838,#298);
#199=VECTOR('',#1249,1.);
#200=VECTOR('',#1250,1.);
#201=VECTOR('',#1253,1.);
#202=VECTOR('',#1254,1.);
#203=VECTOR('',#1257,1.);
#204=VECTOR('',#1258,1.);
#205=VECTOR('',#1261,1.);
#206=VECTOR('',#1264,1.);
#207=VECTOR('',#1271,1.);
#208=VECTOR('',#1274,1.);
#209=VECTOR('',#1279,1.);
#210=VECTOR('',#1286,1.);
#211=VECTOR('',#1293,1.);
#212=VECTOR('',#1300,1.);
#213=VECTOR('',#1317,1.);
#214=VECTOR('',#1320,1.);
#215=VECTOR('',#1323,1.);
#216=VECTOR('',#1326,1.);
#217=VECTOR('',#1329,1.);
#218=VECTOR('',#1332,1.);
#219=VECTOR('',#1335,1.);
#220=VECTOR('',#1338,1.);
#221=VECTOR('',#1339,1.);
#222=VECTOR('',#1340,1.);
#223=VECTOR('',#1345,1.);
#224=VECTOR('',#1348,1.);
#225=VECTOR('',#1349,1.);
#226=VECTOR('',#1354,1.);
#227=VECTOR('',#1357,1.);
#228=VECTOR('',#1358,1.);
#229=VECTOR('',#1363,1.);
#230=VECTOR('',#1366,1.);
#231=VECTOR('',#1367,1.);
#232=VECTOR('',#1372,1.);
#233=VECTOR('',#1375,1.);
#234=VECTOR('',#1376,1.);
#235=VECTOR('',#1381,1.);
#236=VECTOR('',#1384,1.);
#237=VECTOR('',#1385,1.);
#238=VECTOR('',#1390,1.);
#239=VECTOR('',#1393,1.);
#240=VECTOR('',#1394,1.);
#241=VECTOR('',#1397,1.);
#242=VECTOR('',#1400,1.);
#243=VECTOR('',#1401,1.);
#244=VECTOR('',#1402,1.);
#245=VECTOR('',#1403,1.);
#246=VECTOR('',#1406,1.);
#247=VECTOR('',#1407,1.);
#248=VECTOR('',#1408,1.);
#249=VECTOR('',#1411,1.);
#250=VECTOR('',#1412,1.);
#251=VECTOR('',#1415,1.);
#252=VECTOR('',#1416,1.);
#253=VECTOR('',#1419,1.);
#254=VECTOR('',#1422,1.);
#255=VECTOR('',#1423,1.);
#256=VECTOR('',#1424,1.);
#257=VECTOR('',#1425,1.);
#258=VECTOR('',#1428,1.);
#259=VECTOR('',#1429,1.);
#260=VECTOR('',#1430,1.);
#261=VECTOR('',#1433,1.);
#262=VECTOR('',#1434,1.);
#263=VECTOR('',#1435,1.);
#264=VECTOR('',#1436,1.);
#265=VECTOR('',#1441,1.);
#266=VECTOR('',#1444,1.);
#267=VECTOR('',#1449,1.);
#268=VECTOR('',#1452,1.);
#269=VECTOR('',#1455,1.);
#270=VECTOR('',#1456,1.);
#271=VECTOR('',#1457,1.);
#272=VECTOR('',#1458,1.);
#273=VECTOR('',#1461,1.);
#274=VECTOR('',#1462,1.);
#275=VECTOR('',#1463,1.);
#276=VECTOR('',#1466,1.);
#277=VECTOR('',#1467,1.);
#278=VECTOR('',#1468,1.);
#279=VECTOR('',#1471,1.);
#280=VECTOR('',#1472,1.);
#281=VECTOR('',#1475,1.);
#282=VECTOR('',#1476,1.);
#283=VECTOR('',#1479,1.);
#284=VECTOR('',#1480,1.);
#285=VECTOR('',#1481,1.);
#286=VECTOR('',#1484,1.);
#287=VECTOR('',#1485,1.);
#288=VECTOR('',#1486,1.);
#289=VECTOR('',#1489,1.);
#290=VECTOR('',#1490,1.);
#291=VECTOR('',#1503,1.);
#292=VECTOR('',#1504,1.);
#293=VECTOR('',#1505,1.);
#294=VECTOR('',#1516,1.);
#295=VECTOR('',#1517,1.);
#296=VECTOR('',#1520,1.);
#297=VECTOR('',#1521,1.);
#298=VECTOR('',#1524,1.);
#299=ORIENTED_EDGE('',*,*,#587,.F.);
#300=ORIENTED_EDGE('',*,*,#588,.F.);
#301=ORIENTED_EDGE('',*,*,#589,.F.);
#302=ORIENTED_EDGE('',*,*,#590,.F.);
#303=ORIENTED_EDGE('',*,*,#591,.F.);
#304=ORIENTED_EDGE('',*,*,#592,.F.);
#305=ORIENTED_EDGE('',*,*,#593,.F.);
#306=ORIENTED_EDGE('',*,*,#594,.F.);
#307=ORIENTED_EDGE('',*,*,#595,.T.);
#308=ORIENTED_EDGE('',*,*,#594,.T.);
#309=ORIENTED_EDGE('',*,*,#596,.T.);
#310=ORIENTED_EDGE('',*,*,#590,.T.);
#311=ORIENTED_EDGE('',*,*,#597,.F.);
#312=ORIENTED_EDGE('',*,*,#598,.T.);
#313=ORIENTED_EDGE('',*,*,#599,.T.);
#314=ORIENTED_EDGE('',*,*,#600,.F.);
#315=ORIENTED_EDGE('',*,*,#601,.T.);
#316=ORIENTED_EDGE('',*,*,#602,.F.);
#317=ORIENTED_EDGE('',*,*,#603,.F.);
#318=ORIENTED_EDGE('',*,*,#604,.F.);
#319=ORIENTED_EDGE('',*,*,#604,.T.);
#320=ORIENTED_EDGE('',*,*,#605,.T.);
#321=ORIENTED_EDGE('',*,*,#606,.F.);
#322=ORIENTED_EDGE('',*,*,#607,.F.);
#323=ORIENTED_EDGE('',*,*,#597,.T.);
#324=ORIENTED_EDGE('',*,*,#608,.T.);
#325=ORIENTED_EDGE('',*,*,#609,.F.);
#326=ORIENTED_EDGE('',*,*,#610,.F.);
#327=ORIENTED_EDGE('',*,*,#606,.T.);
#328=ORIENTED_EDGE('',*,*,#611,.T.);
#329=ORIENTED_EDGE('',*,*,#612,.F.);
#330=ORIENTED_EDGE('',*,*,#613,.F.);
#331=ORIENTED_EDGE('',*,*,#609,.T.);
#332=ORIENTED_EDGE('',*,*,#614,.T.);
#333=ORIENTED_EDGE('',*,*,#615,.F.);
#334=ORIENTED_EDGE('',*,*,#616,.F.);
#335=ORIENTED_EDGE('',*,*,#596,.F.);
#336=ORIENTED_EDGE('',*,*,#593,.T.);
#337=ORIENTED_EDGE('',*,*,#617,.F.);
#338=ORIENTED_EDGE('',*,*,#612,.T.);
#339=ORIENTED_EDGE('',*,*,#618,.T.);
#340=ORIENTED_EDGE('',*,*,#587,.T.);
#341=ORIENTED_EDGE('',*,*,#619,.T.);
#342=ORIENTED_EDGE('',*,*,#591,.T.);
#343=ORIENTED_EDGE('',*,*,#595,.F.);
#344=ORIENTED_EDGE('',*,*,#589,.T.);
#345=ORIENTED_EDGE('',*,*,#620,.F.);
#346=ORIENTED_EDGE('',*,*,#615,.T.);
#347=ORIENTED_EDGE('',*,*,#602,.T.);
#348=ORIENTED_EDGE('',*,*,#621,.T.);
#349=ORIENTED_EDGE('',*,*,#622,.T.);
#350=ORIENTED_EDGE('',*,*,#623,.T.);
#351=ORIENTED_EDGE('',*,*,#624,.T.);
#352=ORIENTED_EDGE('',*,*,#625,.T.);
#353=ORIENTED_EDGE('',*,*,#626,.T.);
#354=ORIENTED_EDGE('',*,*,#627,.T.);
#355=ORIENTED_EDGE('',*,*,#628,.T.);
#356=ORIENTED_EDGE('',*,*,#629,.T.);
#357=ORIENTED_EDGE('',*,*,#630,.T.);
#358=ORIENTED_EDGE('',*,*,#631,.T.);
#359=ORIENTED_EDGE('',*,*,#632,.T.);
#360=ORIENTED_EDGE('',*,*,#633,.T.);
#361=ORIENTED_EDGE('',*,*,#620,.T.);
#362=ORIENTED_EDGE('',*,*,#588,.T.);
#363=ORIENTED_EDGE('',*,*,#618,.F.);
#364=ORIENTED_EDGE('',*,*,#611,.F.);
#365=ORIENTED_EDGE('',*,*,#605,.F.);
#366=ORIENTED_EDGE('',*,*,#603,.T.);
#367=ORIENTED_EDGE('',*,*,#633,.F.);
#368=ORIENTED_EDGE('',*,*,#634,.T.);
#369=ORIENTED_EDGE('',*,*,#635,.T.);
#370=ORIENTED_EDGE('',*,*,#636,.T.);
#371=ORIENTED_EDGE('',*,*,#598,.F.);
#372=ORIENTED_EDGE('',*,*,#610,.T.);
#373=ORIENTED_EDGE('',*,*,#616,.T.);
#374=ORIENTED_EDGE('',*,*,#637,.T.);
#375=ORIENTED_EDGE('',*,*,#634,.F.);
#376=ORIENTED_EDGE('',*,*,#632,.F.);
#377=ORIENTED_EDGE('',*,*,#638,.T.);
#378=ORIENTED_EDGE('',*,*,#639,.T.);
#379=ORIENTED_EDGE('',*,*,#638,.F.);
#380=ORIENTED_EDGE('',*,*,#631,.F.);
#381=ORIENTED_EDGE('',*,*,#640,.T.);
#382=ORIENTED_EDGE('',*,*,#641,.T.);
#383=ORIENTED_EDGE('',*,*,#640,.F.);
#384=ORIENTED_EDGE('',*,*,#630,.F.);
#385=ORIENTED_EDGE('',*,*,#642,.T.);
#386=ORIENTED_EDGE('',*,*,#643,.T.);
#387=ORIENTED_EDGE('',*,*,#642,.F.);
#388=ORIENTED_EDGE('',*,*,#629,.F.);
#389=ORIENTED_EDGE('',*,*,#644,.T.);
#390=ORIENTED_EDGE('',*,*,#645,.T.);
#391=ORIENTED_EDGE('',*,*,#644,.F.);
#392=ORIENTED_EDGE('',*,*,#628,.F.);
#393=ORIENTED_EDGE('',*,*,#646,.T.);
#394=ORIENTED_EDGE('',*,*,#647,.T.);
#395=ORIENTED_EDGE('',*,*,#646,.F.);
#396=ORIENTED_EDGE('',*,*,#627,.F.);
#397=ORIENTED_EDGE('',*,*,#648,.T.);
#398=ORIENTED_EDGE('',*,*,#649,.T.);
#399=ORIENTED_EDGE('',*,*,#648,.F.);
#400=ORIENTED_EDGE('',*,*,#626,.F.);
#401=ORIENTED_EDGE('',*,*,#650,.T.);
#402=ORIENTED_EDGE('',*,*,#651,.T.);
#403=ORIENTED_EDGE('',*,*,#650,.F.);
#404=ORIENTED_EDGE('',*,*,#625,.F.);
#405=ORIENTED_EDGE('',*,*,#652,.T.);
#406=ORIENTED_EDGE('',*,*,#653,.T.);
#407=ORIENTED_EDGE('',*,*,#652,.F.);
#408=ORIENTED_EDGE('',*,*,#624,.F.);
#409=ORIENTED_EDGE('',*,*,#654,.T.);
#410=ORIENTED_EDGE('',*,*,#655,.T.);
#411=ORIENTED_EDGE('',*,*,#654,.F.);
#412=ORIENTED_EDGE('',*,*,#623,.F.);
#413=ORIENTED_EDGE('',*,*,#656,.T.);
#414=ORIENTED_EDGE('',*,*,#657,.T.);
#415=ORIENTED_EDGE('',*,*,#656,.F.);
#416=ORIENTED_EDGE('',*,*,#622,.F.);
#417=ORIENTED_EDGE('',*,*,#658,.T.);
#418=ORIENTED_EDGE('',*,*,#617,.T.);
#419=ORIENTED_EDGE('',*,*,#592,.T.);
#420=ORIENTED_EDGE('',*,*,#619,.F.);
#421=ORIENTED_EDGE('',*,*,#614,.F.);
#422=ORIENTED_EDGE('',*,*,#608,.F.);
#423=ORIENTED_EDGE('',*,*,#600,.T.);
#424=ORIENTED_EDGE('',*,*,#659,.T.);
#425=ORIENTED_EDGE('',*,*,#660,.T.);
#426=ORIENTED_EDGE('',*,*,#658,.F.);
#427=ORIENTED_EDGE('',*,*,#621,.F.);
#428=ORIENTED_EDGE('',*,*,#601,.F.);
#429=ORIENTED_EDGE('',*,*,#607,.T.);
#430=ORIENTED_EDGE('',*,*,#613,.T.);
#431=ORIENTED_EDGE('',*,*,#661,.T.);
#432=ORIENTED_EDGE('',*,*,#659,.F.);
#433=ORIENTED_EDGE('',*,*,#599,.F.);
#434=ORIENTED_EDGE('',*,*,#636,.F.);
#435=ORIENTED_EDGE('',*,*,#662,.T.);
#436=ORIENTED_EDGE('',*,*,#663,.T.);
#437=ORIENTED_EDGE('',*,*,#664,.T.);
#438=ORIENTED_EDGE('',*,*,#665,.T.);
#439=ORIENTED_EDGE('',*,*,#666,.T.);
#440=ORIENTED_EDGE('',*,*,#667,.F.);
#441=ORIENTED_EDGE('',*,*,#665,.F.);
#442=ORIENTED_EDGE('',*,*,#668,.T.);
#443=ORIENTED_EDGE('',*,*,#669,.T.);
#444=ORIENTED_EDGE('',*,*,#668,.F.);
#445=ORIENTED_EDGE('',*,*,#664,.F.);
#446=ORIENTED_EDGE('',*,*,#670,.T.);
#447=ORIENTED_EDGE('',*,*,#671,.T.);
#448=ORIENTED_EDGE('',*,*,#670,.F.);
#449=ORIENTED_EDGE('',*,*,#663,.F.);
#450=ORIENTED_EDGE('',*,*,#672,.T.);
#451=ORIENTED_EDGE('',*,*,#673,.T.);
#452=ORIENTED_EDGE('',*,*,#672,.F.);
#453=ORIENTED_EDGE('',*,*,#662,.F.);
#454=ORIENTED_EDGE('',*,*,#667,.T.);
#455=ORIENTED_EDGE('',*,*,#674,.T.);
#456=ORIENTED_EDGE('',*,*,#675,.T.);
#457=ORIENTED_EDGE('',*,*,#676,.F.);
#458=ORIENTED_EDGE('',*,*,#677,.F.);
#459=ORIENTED_EDGE('',*,*,#676,.T.);
#460=ORIENTED_EDGE('',*,*,#678,.T.);
#461=ORIENTED_EDGE('',*,*,#679,.F.);
#462=ORIENTED_EDGE('',*,*,#680,.F.);
#463=ORIENTED_EDGE('',*,*,#681,.T.);
#464=ORIENTED_EDGE('',*,*,#674,.F.);
#465=ORIENTED_EDGE('',*,*,#682,.F.);
#466=ORIENTED_EDGE('',*,*,#683,.F.);
#467=ORIENTED_EDGE('',*,*,#661,.F.);
#468=ORIENTED_EDGE('',*,*,#684,.F.);
#469=ORIENTED_EDGE('',*,*,#685,.F.);
#470=ORIENTED_EDGE('',*,*,#686,.F.);
#471=ORIENTED_EDGE('',*,*,#687,.F.);
#472=ORIENTED_EDGE('',*,*,#688,.F.);
#473=ORIENTED_EDGE('',*,*,#689,.F.);
#474=ORIENTED_EDGE('',*,*,#690,.F.);
#475=ORIENTED_EDGE('',*,*,#691,.F.);
#476=ORIENTED_EDGE('',*,*,#692,.F.);
#477=ORIENTED_EDGE('',*,*,#693,.F.);
#478=ORIENTED_EDGE('',*,*,#694,.F.);
#479=ORIENTED_EDGE('',*,*,#695,.T.);
#480=ORIENTED_EDGE('',*,*,#696,.T.);
#481=ORIENTED_EDGE('',*,*,#697,.T.);
#482=ORIENTED_EDGE('',*,*,#696,.F.);
#483=ORIENTED_EDGE('',*,*,#698,.F.);
#484=ORIENTED_EDGE('',*,*,#699,.T.);
#485=ORIENTED_EDGE('',*,*,#700,.T.);
#486=ORIENTED_EDGE('',*,*,#699,.F.);
#487=ORIENTED_EDGE('',*,*,#701,.F.);
#488=ORIENTED_EDGE('',*,*,#702,.T.);
#489=ORIENTED_EDGE('',*,*,#703,.F.);
#490=ORIENTED_EDGE('',*,*,#692,.T.);
#491=ORIENTED_EDGE('',*,*,#704,.T.);
#492=ORIENTED_EDGE('',*,*,#702,.F.);
#493=ORIENTED_EDGE('',*,*,#705,.T.);
#494=ORIENTED_EDGE('',*,*,#690,.T.);
#495=ORIENTED_EDGE('',*,*,#706,.F.);
#496=ORIENTED_EDGE('',*,*,#688,.T.);
#497=ORIENTED_EDGE('',*,*,#707,.T.);
#498=ORIENTED_EDGE('',*,*,#686,.T.);
#499=ORIENTED_EDGE('',*,*,#708,.F.);
#500=ORIENTED_EDGE('',*,*,#709,.T.);
#501=ORIENTED_EDGE('',*,*,#710,.T.);
#502=ORIENTED_EDGE('',*,*,#709,.F.);
#503=ORIENTED_EDGE('',*,*,#711,.F.);
#504=ORIENTED_EDGE('',*,*,#712,.T.);
#505=ORIENTED_EDGE('',*,*,#713,.F.);
#506=ORIENTED_EDGE('',*,*,#712,.F.);
#507=ORIENTED_EDGE('',*,*,#714,.T.);
#508=ORIENTED_EDGE('',*,*,#694,.T.);
#509=ORIENTED_EDGE('',*,*,#713,.T.);
#510=ORIENTED_EDGE('',*,*,#693,.T.);
#511=ORIENTED_EDGE('',*,*,#697,.F.);
#512=ORIENTED_EDGE('',*,*,#700,.F.);
#513=ORIENTED_EDGE('',*,*,#704,.F.);
#514=ORIENTED_EDGE('',*,*,#691,.T.);
#515=ORIENTED_EDGE('',*,*,#705,.F.);
#516=ORIENTED_EDGE('',*,*,#687,.T.);
#517=ORIENTED_EDGE('',*,*,#707,.F.);
#518=ORIENTED_EDGE('',*,*,#710,.F.);
#519=ORIENTED_EDGE('',*,*,#715,.T.);
#520=ORIENTED_EDGE('',*,*,#716,.T.);
#521=ORIENTED_EDGE('',*,*,#717,.T.);
#522=ORIENTED_EDGE('',*,*,#718,.T.);
#523=ORIENTED_EDGE('',*,*,#719,.F.);
#524=ORIENTED_EDGE('',*,*,#679,.T.);
#525=ORIENTED_EDGE('',*,*,#720,.F.);
#526=ORIENTED_EDGE('',*,*,#721,.F.);
#527=ORIENTED_EDGE('',*,*,#698,.T.);
#528=ORIENTED_EDGE('',*,*,#695,.F.);
#529=ORIENTED_EDGE('',*,*,#714,.F.);
#530=ORIENTED_EDGE('',*,*,#711,.T.);
#531=ORIENTED_EDGE('',*,*,#708,.T.);
#532=ORIENTED_EDGE('',*,*,#685,.T.);
#533=ORIENTED_EDGE('',*,*,#706,.T.);
#534=ORIENTED_EDGE('',*,*,#689,.T.);
#535=ORIENTED_EDGE('',*,*,#703,.T.);
#536=ORIENTED_EDGE('',*,*,#701,.T.);
#537=ORIENTED_EDGE('',*,*,#722,.F.);
#538=ORIENTED_EDGE('',*,*,#723,.F.);
#539=ORIENTED_EDGE('',*,*,#724,.F.);
#540=ORIENTED_EDGE('',*,*,#725,.F.);
#541=ORIENTED_EDGE('',*,*,#726,.T.);
#542=ORIENTED_EDGE('',*,*,#720,.T.);
#543=ORIENTED_EDGE('',*,*,#678,.F.);
#544=ORIENTED_EDGE('',*,*,#675,.F.);
#545=ORIENTED_EDGE('',*,*,#681,.F.);
#546=ORIENTED_EDGE('',*,*,#727,.F.);
#547=ORIENTED_EDGE('',*,*,#728,.T.);
#548=ORIENTED_EDGE('',*,*,#721,.T.);
#549=ORIENTED_EDGE('',*,*,#726,.F.);
#550=ORIENTED_EDGE('',*,*,#729,.F.);
#551=ORIENTED_EDGE('',*,*,#677,.T.);
#552=ORIENTED_EDGE('',*,*,#680,.T.);
#553=ORIENTED_EDGE('',*,*,#719,.T.);
#554=ORIENTED_EDGE('',*,*,#728,.F.);
#555=ORIENTED_EDGE('',*,*,#730,.F.);
#556=ORIENTED_EDGE('',*,*,#682,.T.);
#557=ORIENTED_EDGE('',*,*,#657,.F.);
#558=ORIENTED_EDGE('',*,*,#660,.F.);
#559=ORIENTED_EDGE('',*,*,#683,.T.);
#560=ORIENTED_EDGE('',*,*,#730,.T.);
#561=ORIENTED_EDGE('',*,*,#729,.T.);
#562=ORIENTED_EDGE('',*,*,#727,.T.);
#563=ORIENTED_EDGE('',*,*,#684,.T.);
#564=ORIENTED_EDGE('',*,*,#635,.F.);
#565=ORIENTED_EDGE('',*,*,#637,.F.);
#566=ORIENTED_EDGE('',*,*,#639,.F.);
#567=ORIENTED_EDGE('',*,*,#641,.F.);
#568=ORIENTED_EDGE('',*,*,#643,.F.);
#569=ORIENTED_EDGE('',*,*,#645,.F.);
#570=ORIENTED_EDGE('',*,*,#647,.F.);
#571=ORIENTED_EDGE('',*,*,#649,.F.);
#572=ORIENTED_EDGE('',*,*,#651,.F.);
#573=ORIENTED_EDGE('',*,*,#653,.F.);
#574=ORIENTED_EDGE('',*,*,#655,.F.);
#575=ORIENTED_EDGE('',*,*,#671,.F.);
#576=ORIENTED_EDGE('',*,*,#673,.F.);
#577=ORIENTED_EDGE('',*,*,#666,.F.);
#578=ORIENTED_EDGE('',*,*,#669,.F.);
#579=ORIENTED_EDGE('',*,*,#716,.F.);
#580=ORIENTED_EDGE('',*,*,#723,.T.);
#581=ORIENTED_EDGE('',*,*,#717,.F.);
#582=ORIENTED_EDGE('',*,*,#724,.T.);
#583=ORIENTED_EDGE('',*,*,#718,.F.);
#584=ORIENTED_EDGE('',*,*,#722,.T.);
#585=ORIENTED_EDGE('',*,*,#715,.F.);
#586=ORIENTED_EDGE('',*,*,#725,.T.);
#587=EDGE_CURVE('',#731,#732,#829,.T.);
#588=EDGE_CURVE('',#733,#731,#99,.T.);
#589=EDGE_CURVE('',#734,#733,#830,.T.);
#590=EDGE_CURVE('',#732,#734,#100,.T.);
#591=EDGE_CURVE('',#735,#736,#831,.T.);
#592=EDGE_CURVE('',#737,#735,#101,.T.);
#593=EDGE_CURVE('',#738,#737,#832,.T.);
#594=EDGE_CURVE('',#736,#738,#102,.T.);
#595=EDGE_CURVE('',#734,#736,#103,.T.);
#596=EDGE_CURVE('',#738,#732,#104,.T.);
#597=EDGE_CURVE('',#739,#740,#105,.T.);
#598=EDGE_CURVE('',#739,#741,#27,.T.);
#599=EDGE_CURVE('',#741,#742,#106,.T.);
#600=EDGE_CURVE('',#740,#742,#28,.T.);
#601=EDGE_CURVE('',#743,#744,#29,.T.);
#602=EDGE_CURVE('',#745,#744,#107,.T.);
#603=EDGE_CURVE('',#746,#745,#30,.T.);
#604=EDGE_CURVE('',#743,#746,#108,.T.);
#605=EDGE_CURVE('',#746,#747,#31,.T.);
#606=EDGE_CURVE('',#748,#747,#109,.T.);
#607=EDGE_CURVE('',#743,#748,#32,.T.);
#608=EDGE_CURVE('',#740,#749,#33,.T.);
#609=EDGE_CURVE('',#750,#749,#110,.T.);
#610=EDGE_CURVE('',#739,#750,#34,.T.);
#611=EDGE_CURVE('',#747,#751,#35,.T.);
#612=EDGE_CURVE('',#752,#751,#111,.T.);
#613=EDGE_CURVE('',#748,#752,#36,.T.);
#614=EDGE_CURVE('',#749,#753,#37,.T.);
#615=EDGE_CURVE('',#754,#753,#112,.T.);
#616=EDGE_CURVE('',#750,#754,#38,.T.);
#617=EDGE_CURVE('',#752,#737,#39,.T.);
#618=EDGE_CURVE('',#751,#731,#40,.T.);
#619=EDGE_CURVE('',#753,#735,#41,.T.);
#620=EDGE_CURVE('',#754,#733,#42,.T.);
#621=EDGE_CURVE('',#744,#755,#113,.T.);
#622=EDGE_CURVE('',#755,#756,#43,.T.);
#623=EDGE_CURVE('',#756,#757,#114,.T.);
#624=EDGE_CURVE('',#757,#758,#44,.T.);
#625=EDGE_CURVE('',#758,#759,#115,.T.);
#626=EDGE_CURVE('',#759,#760,#45,.T.);
#627=EDGE_CURVE('',#760,#761,#116,.T.);
#628=EDGE_CURVE('',#761,#762,#46,.T.);
#629=EDGE_CURVE('',#762,#763,#117,.T.);
#630=EDGE_CURVE('',#763,#764,#47,.T.);
#631=EDGE_CURVE('',#764,#765,#118,.T.);
#632=EDGE_CURVE('',#765,#766,#48,.T.);
#633=EDGE_CURVE('',#766,#745,#119,.T.);
#634=EDGE_CURVE('',#766,#767,#120,.T.);
#635=EDGE_CURVE('',#767,#768,#121,.T.);
#636=EDGE_CURVE('',#768,#741,#122,.T.);
#637=EDGE_CURVE('',#769,#767,#49,.T.);
#638=EDGE_CURVE('',#765,#769,#123,.T.);
#639=EDGE_CURVE('',#770,#769,#124,.T.);
#640=EDGE_CURVE('',#764,#770,#125,.T.);
#641=EDGE_CURVE('',#771,#770,#50,.T.);
#642=EDGE_CURVE('',#763,#771,#126,.T.);
#643=EDGE_CURVE('',#772,#771,#127,.T.);
#644=EDGE_CURVE('',#762,#772,#128,.T.);
#645=EDGE_CURVE('',#773,#772,#51,.T.);
#646=EDGE_CURVE('',#761,#773,#129,.T.);
#647=EDGE_CURVE('',#774,#773,#130,.T.);
#648=EDGE_CURVE('',#760,#774,#131,.T.);
#649=EDGE_CURVE('',#775,#774,#52,.T.);
#650=EDGE_CURVE('',#759,#775,#132,.T.);
#651=EDGE_CURVE('',#776,#775,#133,.T.);
#652=EDGE_CURVE('',#758,#776,#134,.T.);
#653=EDGE_CURVE('',#777,#776,#53,.T.);
#654=EDGE_CURVE('',#757,#777,#135,.T.);
#655=EDGE_CURVE('',#778,#777,#136,.T.);
#656=EDGE_CURVE('',#756,#778,#137,.T.);
#657=EDGE_CURVE('',#779,#778,#54,.T.);
#658=EDGE_CURVE('',#755,#779,#138,.T.);
#659=EDGE_CURVE('',#742,#780,#139,.T.);
#660=EDGE_CURVE('',#780,#779,#140,.T.);
#661=EDGE_CURVE('',#768,#780,#141,.T.);
#662=EDGE_CURVE('',#781,#782,#142,.T.);
#663=EDGE_CURVE('',#782,#783,#143,.T.);
#664=EDGE_CURVE('',#783,#784,#144,.T.);
#665=EDGE_CURVE('',#784,#781,#145,.T.);
#666=EDGE_CURVE('',#785,#786,#146,.T.);
#667=EDGE_CURVE('',#781,#786,#147,.T.);
#668=EDGE_CURVE('',#784,#785,#148,.T.);
#669=EDGE_CURVE('',#787,#785,#149,.T.);
#670=EDGE_CURVE('',#783,#787,#150,.T.);
#671=EDGE_CURVE('',#788,#787,#151,.T.);
#672=EDGE_CURVE('',#782,#788,#152,.T.);
#673=EDGE_CURVE('',#786,#788,#153,.T.);
#674=EDGE_CURVE('',#789,#790,#154,.T.);
#675=EDGE_CURVE('',#790,#791,#155,.T.);
#676=EDGE_CURVE('',#792,#791,#156,.T.);
#677=EDGE_CURVE('',#789,#792,#157,.T.);
#678=EDGE_CURVE('',#791,#793,#158,.T.);
#679=EDGE_CURVE('',#794,#793,#159,.T.);
#680=EDGE_CURVE('',#792,#794,#160,.T.);
#681=EDGE_CURVE('',#795,#790,#161,.T.);
#682=EDGE_CURVE('',#796,#789,#162,.T.);
#683=EDGE_CURVE('',#780,#796,#163,.T.);
#684=EDGE_CURVE('',#795,#768,#164,.T.);
#685=EDGE_CURVE('',#797,#798,#55,.T.);
#686=EDGE_CURVE('',#799,#797,#165,.T.);
#687=EDGE_CURVE('',#800,#799,#56,.T.);
#688=EDGE_CURVE('',#798,#800,#166,.T.);
#689=EDGE_CURVE('',#801,#802,#57,.T.);
#690=EDGE_CURVE('',#803,#801,#167,.T.);
#691=EDGE_CURVE('',#804,#803,#58,.T.);
#692=EDGE_CURVE('',#802,#804,#168,.T.);
#693=EDGE_CURVE('',#805,#806,#169,.T.);
#694=EDGE_CURVE('',#807,#805,#170,.T.);
#695=EDGE_CURVE('',#807,#808,#171,.T.);
#696=EDGE_CURVE('',#808,#806,#172,.T.);
#697=EDGE_CURVE('',#809,#806,#173,.T.);
#698=EDGE_CURVE('',#810,#808,#174,.T.);
#699=EDGE_CURVE('',#810,#809,#175,.T.);
#700=EDGE_CURVE('',#811,#809,#176,.T.);
#701=EDGE_CURVE('',#812,#810,#177,.T.);
#702=EDGE_CURVE('',#812,#811,#178,.T.);
#703=EDGE_CURVE('',#802,#812,#179,.T.);
#704=EDGE_CURVE('',#804,#811,#180,.T.);
#705=EDGE_CURVE('',#800,#803,#181,.T.);
#706=EDGE_CURVE('',#798,#801,#182,.T.);
#707=EDGE_CURVE('',#813,#799,#183,.T.);
#708=EDGE_CURVE('',#814,#797,#184,.T.);
#709=EDGE_CURVE('',#814,#813,#185,.T.);
#710=EDGE_CURVE('',#815,#813,#186,.T.);
#711=EDGE_CURVE('',#816,#814,#187,.T.);
#712=EDGE_CURVE('',#816,#815,#188,.T.);
#713=EDGE_CURVE('',#815,#805,#189,.T.);
#714=EDGE_CURVE('',#816,#807,#190,.T.);
#715=EDGE_CURVE('',#817,#817,#59,.T.);
#716=EDGE_CURVE('',#818,#818,#60,.T.);
#717=EDGE_CURVE('',#819,#819,#61,.T.);
#718=EDGE_CURVE('',#820,#820,#62,.T.);
#719=EDGE_CURVE('',#794,#821,#191,.T.);
#720=EDGE_CURVE('',#822,#793,#192,.T.);
#721=EDGE_CURVE('',#821,#822,#193,.T.);
#722=EDGE_CURVE('',#823,#823,#63,.T.);
#723=EDGE_CURVE('',#824,#824,#64,.T.);
#724=EDGE_CURVE('',#825,#825,#65,.T.);
#725=EDGE_CURVE('',#826,#826,#66,.T.);
#726=EDGE_CURVE('',#827,#822,#194,.T.);
#727=EDGE_CURVE('',#827,#795,#195,.T.);
#728=EDGE_CURVE('',#828,#821,#196,.T.);
#729=EDGE_CURVE('',#828,#827,#197,.T.);
#730=EDGE_CURVE('',#796,#828,#198,.T.);
#731=VERTEX_POINT('',#1541);
#732=VERTEX_POINT('',#1542);
#733=VERTEX_POINT('',#1544);
#734=VERTEX_POINT('',#1549);
#735=VERTEX_POINT('',#1556);
#736=VERTEX_POINT('',#1557);
#737=VERTEX_POINT('',#1559);
#738=VERTEX_POINT('',#1564);
#739=VERTEX_POINT('',#1571);
#740=VERTEX_POINT('',#1572);
#741=VERTEX_POINT('',#1574);
#742=VERTEX_POINT('',#1576);
#743=VERTEX_POINT('',#1580);
#744=VERTEX_POINT('',#1581);
#745=VERTEX_POINT('',#1583);
#746=VERTEX_POINT('',#1585);
#747=VERTEX_POINT('',#1589);
#748=VERTEX_POINT('',#1591);
#749=VERTEX_POINT('',#1595);
#750=VERTEX_POINT('',#1597);
#751=VERTEX_POINT('',#1601);
#752=VERTEX_POINT('',#1603);
#753=VERTEX_POINT('',#1607);
#754=VERTEX_POINT('',#1609);
#755=VERTEX_POINT('',#1619);
#756=VERTEX_POINT('',#1621);
#757=VERTEX_POINT('',#1623);
#758=VERTEX_POINT('',#1625);
#759=VERTEX_POINT('',#1627);
#760=VERTEX_POINT('',#1629);
#761=VERTEX_POINT('',#1631);
#762=VERTEX_POINT('',#1633);
#763=VERTEX_POINT('',#1635);
#764=VERTEX_POINT('',#1637);
#765=VERTEX_POINT('',#1639);
#766=VERTEX_POINT('',#1641);
#767=VERTEX_POINT('',#1645);
#768=VERTEX_POINT('',#1647);
#769=VERTEX_POINT('',#1651);
#770=VERTEX_POINT('',#1655);
#771=VERTEX_POINT('',#1659);
#772=VERTEX_POINT('',#1663);
#773=VERTEX_POINT('',#1667);
#774=VERTEX_POINT('',#1671);
#775=VERTEX_POINT('',#1675);
#776=VERTEX_POINT('',#1679);
#777=VERTEX_POINT('',#1683);
#778=VERTEX_POINT('',#1687);
#779=VERTEX_POINT('',#1691);
#780=VERTEX_POINT('',#1695);
#781=VERTEX_POINT('',#1701);
#782=VERTEX_POINT('',#1702);
#783=VERTEX_POINT('',#1704);
#784=VERTEX_POINT('',#1706);
#785=VERTEX_POINT('',#1710);
#786=VERTEX_POINT('',#1711);
#787=VERTEX_POINT('',#1716);
#788=VERTEX_POINT('',#1720);
#789=VERTEX_POINT('',#1726);
#790=VERTEX_POINT('',#1727);
#791=VERTEX_POINT('',#1729);
#792=VERTEX_POINT('',#1731);
#793=VERTEX_POINT('',#1735);
#794=VERTEX_POINT('',#1737);
#795=VERTEX_POINT('',#1741);
#796=VERTEX_POINT('',#1743);
#797=VERTEX_POINT('',#1748);
#798=VERTEX_POINT('',#1749);
#799=VERTEX_POINT('',#1751);
#800=VERTEX_POINT('',#1753);
#801=VERTEX_POINT('',#1757);
#802=VERTEX_POINT('',#1758);
#803=VERTEX_POINT('',#1760);
#804=VERTEX_POINT('',#1762);
#805=VERTEX_POINT('',#1766);
#806=VERTEX_POINT('',#1767);
#807=VERTEX_POINT('',#1769);
#808=VERTEX_POINT('',#1771);
#809=VERTEX_POINT('',#1775);
#810=VERTEX_POINT('',#1777);
#811=VERTEX_POINT('',#1781);
#812=VERTEX_POINT('',#1783);
#813=VERTEX_POINT('',#1793);
#814=VERTEX_POINT('',#1795);
#815=VERTEX_POINT('',#1799);
#816=VERTEX_POINT('',#1801);
#817=VERTEX_POINT('',#1808);
#818=VERTEX_POINT('',#1810);
#819=VERTEX_POINT('',#1812);
#820=VERTEX_POINT('',#1814);
#821=VERTEX_POINT('',#1817);
#822=VERTEX_POINT('',#1819);
#823=VERTEX_POINT('',#1822);
#824=VERTEX_POINT('',#1824);
#825=VERTEX_POINT('',#1826);
#826=VERTEX_POINT('',#1828);
#827=VERTEX_POINT('',#1831);
#828=VERTEX_POINT('',#1835);
#829=B_SPLINE_CURVE_WITH_KNOTS('',3,(#1537,#1538,#1539,#1540),
 .UNSPECIFIED.,.F.,.F.,(4,4),(0.,0.000313877581012833),.UNSPECIFIED.);
#830=B_SPLINE_CURVE_WITH_KNOTS('',3,(#1545,#1546,#1547,#1548),
 .UNSPECIFIED.,.F.,.F.,(4,4),(0.,0.000314026000511626),.UNSPECIFIED.);
#831=B_SPLINE_CURVE_WITH_KNOTS('',3,(#1552,#1553,#1554,#1555),
 .UNSPECIFIED.,.F.,.F.,(4,4),(0.,0.000314046973423733),.UNSPECIFIED.);
#832=B_SPLINE_CURVE_WITH_KNOTS('',3,(#1560,#1561,#1562,#1563),
 .UNSPECIFIED.,.F.,.F.,(4,4),(0.,0.000313858941617159),.UNSPECIFIED.);
#833=EDGE_LOOP('',(#299,#300,#301,#302));
#834=EDGE_LOOP('',(#303,#304,#305,#306));
#835=EDGE_LOOP('',(#307,#308,#309,#310));
#836=EDGE_LOOP('',(#311,#312,#313,#314));
#837=EDGE_LOOP('',(#315,#316,#317,#318));
#838=EDGE_LOOP('',(#319,#320,#321,#322));
#839=EDGE_LOOP('',(#323,#324,#325,#326));
#840=EDGE_LOOP('',(#327,#328,#329,#330));
#841=EDGE_LOOP('',(#331,#332,#333,#334));
#842=EDGE_LOOP('',(#335,#336,#337,#338,#339,#340));
#843=EDGE_LOOP('',(#341,#342,#343,#344,#345,#346));
#844=EDGE_LOOP('',(#347,#348,#349,#350,#351,#352,#353,#354,#355,#356,#357,
#358,#359,#360));
#845=EDGE_LOOP('',(#361,#362,#363,#364,#365,#366,#367,#368,#369,#370,#371,
#372,#373));
#846=EDGE_LOOP('',(#374,#375,#376,#377));
#847=EDGE_LOOP('',(#378,#379,#380,#381));
#848=EDGE_LOOP('',(#382,#383,#384,#385));
#849=EDGE_LOOP('',(#386,#387,#388,#389));
#850=EDGE_LOOP('',(#390,#391,#392,#393));
#851=EDGE_LOOP('',(#394,#395,#396,#397));
#852=EDGE_LOOP('',(#398,#399,#400,#401));
#853=EDGE_LOOP('',(#402,#403,#404,#405));
#854=EDGE_LOOP('',(#406,#407,#408,#409));
#855=EDGE_LOOP('',(#410,#411,#412,#413));
#856=EDGE_LOOP('',(#414,#415,#416,#417));
#857=EDGE_LOOP('',(#418,#419,#420,#421,#422,#423,#424,#425,#426,#427,#428,
#429,#430));
#858=EDGE_LOOP('',(#431,#432,#433,#434));
#859=EDGE_LOOP('',(#435,#436,#437,#438));
#860=EDGE_LOOP('',(#439,#440,#441,#442));
#861=EDGE_LOOP('',(#443,#444,#445,#446));
#862=EDGE_LOOP('',(#447,#448,#449,#450));
#863=EDGE_LOOP('',(#451,#452,#453,#454));
#864=EDGE_LOOP('',(#455,#456,#457,#458));
#865=EDGE_LOOP('',(#459,#460,#461,#462));
#866=EDGE_LOOP('',(#463,#464,#465,#466,#467,#468));
#867=EDGE_LOOP('',(#469,#470,#471,#472));
#868=EDGE_LOOP('',(#473,#474,#475,#476));
#869=EDGE_LOOP('',(#477,#478,#479,#480));
#870=EDGE_LOOP('',(#481,#482,#483,#484));
#871=EDGE_LOOP('',(#485,#486,#487,#488));
#872=EDGE_LOOP('',(#489,#490,#491,#492));
#873=EDGE_LOOP('',(#493,#494,#495,#496));
#874=EDGE_LOOP('',(#497,#498,#499,#500));
#875=EDGE_LOOP('',(#501,#502,#503,#504));
#876=EDGE_LOOP('',(#505,#506,#507,#508));
#877=EDGE_LOOP('',(#509,#510,#511,#512,#513,#514,#515,#516,#517,#518));
#878=EDGE_LOOP('',(#519));
#879=EDGE_LOOP('',(#520));
#880=EDGE_LOOP('',(#521));
#881=EDGE_LOOP('',(#522));
#882=EDGE_LOOP('',(#523,#524,#525,#526));
#883=EDGE_LOOP('',(#527,#528,#529,#530,#531,#532,#533,#534,#535,#536));
#884=EDGE_LOOP('',(#537));
#885=EDGE_LOOP('',(#538));
#886=EDGE_LOOP('',(#539));
#887=EDGE_LOOP('',(#540));
#888=EDGE_LOOP('',(#541,#542,#543,#544,#545,#546));
#889=EDGE_LOOP('',(#547,#548,#549,#550));
#890=EDGE_LOOP('',(#551,#552,#553,#554,#555,#556));
#891=EDGE_LOOP('',(#557,#558,#559,#560,#561,#562,#563,#564,#565,#566,#567,
#568,#569,#570,#571,#572,#573,#574));
#892=EDGE_LOOP('',(#575,#576,#577,#578));
#893=EDGE_LOOP('',(#579));
#894=EDGE_LOOP('',(#580));
#895=EDGE_LOOP('',(#581));
#896=EDGE_LOOP('',(#582));
#897=EDGE_LOOP('',(#583));
#898=EDGE_LOOP('',(#584));
#899=EDGE_LOOP('',(#585));
#900=EDGE_LOOP('',(#586));
#901=FACE_BOUND('',#833,.T.);
#902=FACE_BOUND('',#834,.T.);
#903=FACE_BOUND('',#835,.T.);
#904=FACE_BOUND('',#836,.T.);
#905=FACE_BOUND('',#837,.T.);
#906=FACE_BOUND('',#838,.T.);
#907=FACE_BOUND('',#839,.T.);
#908=FACE_BOUND('',#840,.T.);
#909=FACE_BOUND('',#841,.T.);
#910=FACE_BOUND('',#842,.T.);
#911=FACE_BOUND('',#843,.T.);
#912=FACE_BOUND('',#844,.T.);
#913=FACE_BOUND('',#845,.T.);
#914=FACE_BOUND('',#846,.T.);
#915=FACE_BOUND('',#847,.T.);
#916=FACE_BOUND('',#848,.T.);
#917=FACE_BOUND('',#849,.T.);
#918=FACE_BOUND('',#850,.T.);
#919=FACE_BOUND('',#851,.T.);
#920=FACE_BOUND('',#852,.T.);
#921=FACE_BOUND('',#853,.T.);
#922=FACE_BOUND('',#854,.T.);
#923=FACE_BOUND('',#855,.T.);
#924=FACE_BOUND('',#856,.T.);
#925=FACE_BOUND('',#857,.T.);
#926=FACE_BOUND('',#858,.T.);
#927=FACE_BOUND('',#859,.T.);
#928=FACE_BOUND('',#860,.T.);
#929=FACE_BOUND('',#861,.T.);
#930=FACE_BOUND('',#862,.T.);
#931=FACE_BOUND('',#863,.T.);
#932=FACE_BOUND('',#864,.T.);
#933=FACE_BOUND('',#865,.T.);
#934=FACE_BOUND('',#866,.T.);
#935=FACE_BOUND('',#867,.T.);
#936=FACE_BOUND('',#868,.T.);
#937=FACE_BOUND('',#869,.T.);
#938=FACE_BOUND('',#870,.T.);
#939=FACE_BOUND('',#871,.T.);
#940=FACE_BOUND('',#872,.T.);
#941=FACE_BOUND('',#873,.T.);
#942=FACE_BOUND('',#874,.T.);
#943=FACE_BOUND('',#875,.T.);
#944=FACE_BOUND('',#876,.T.);
#945=FACE_BOUND('',#877,.T.);
#946=FACE_BOUND('',#878,.T.);
#947=FACE_BOUND('',#879,.T.);
#948=FACE_BOUND('',#880,.T.);
#949=FACE_BOUND('',#881,.T.);
#950=FACE_BOUND('',#882,.T.);
#951=FACE_BOUND('',#883,.T.);
#952=FACE_BOUND('',#884,.T.);
#953=FACE_BOUND('',#885,.T.);
#954=FACE_BOUND('',#886,.T.);
#955=FACE_BOUND('',#887,.T.);
#956=FACE_BOUND('',#888,.T.);
#957=FACE_BOUND('',#889,.T.);
#958=FACE_BOUND('',#890,.T.);
#959=FACE_BOUND('',#891,.T.);
#960=FACE_BOUND('',#892,.T.);
#961=FACE_BOUND('',#893,.T.);
#962=FACE_BOUND('',#894,.T.);
#963=FACE_BOUND('',#895,.T.);
#964=FACE_BOUND('',#896,.T.);
#965=FACE_BOUND('',#897,.T.);
#966=FACE_BOUND('',#898,.T.);
#967=FACE_BOUND('',#899,.T.);
#968=FACE_BOUND('',#900,.T.);
#969=CYLINDRICAL_SURFACE('',#1151,0.0002);
#970=CYLINDRICAL_SURFACE('',#1152,0.0002);
#971=CYLINDRICAL_SURFACE('',#1154,0.001);
#972=CYLINDRICAL_SURFACE('',#1157,0.00105);
#973=CYLINDRICAL_SURFACE('',#1160,0.00195);
#974=CYLINDRICAL_SURFACE('',#1163,0.002);
#975=CYLINDRICAL_SURFACE('',#1166,0.0184558816666668);
#976=CYLINDRICAL_SURFACE('',#1169,0.0184058816666668);
#977=CYLINDRICAL_SURFACE('',#1172,0.00095);
#978=CYLINDRICAL_SURFACE('',#1175,0.000900000000000012);
#979=CYLINDRICAL_SURFACE('',#1186,0.0002);
#980=CYLINDRICAL_SURFACE('',#1189,0.0002);
#981=CYLINDRICAL_SURFACE('',#1192,0.0002);
#982=CYLINDRICAL_SURFACE('',#1195,0.0002);
#983=CYLINDRICAL_SURFACE('',#1198,0.0002);
#984=CYLINDRICAL_SURFACE('',#1201,0.0002);
#985=CYLINDRICAL_SURFACE('',#1213,0.0002);
#986=CYLINDRICAL_SURFACE('',#1216,0.0002);
#987=CYLINDRICAL_SURFACE('',#1241,0.001);
#988=CYLINDRICAL_SURFACE('',#1242,0.001);
#989=CYLINDRICAL_SURFACE('',#1243,0.001);
#990=CYLINDRICAL_SURFACE('',#1244,0.001);
#991=ADVANCED_FACE('',(#901),#969,.T.);
#992=ADVANCED_FACE('',(#902),#970,.T.);
#993=ADVANCED_FACE('',(#903),#67,.F.);
#994=ADVANCED_FACE('',(#904),#971,.F.);
#995=ADVANCED_FACE('',(#905),#972,.T.);
#996=ADVANCED_FACE('',(#906),#973,.F.);
#997=ADVANCED_FACE('',(#907),#974,.T.);
#998=ADVANCED_FACE('',(#908),#975,.T.);
#999=ADVANCED_FACE('',(#909),#976,.F.);
#1000=ADVANCED_FACE('',(#910),#977,.T.);
#1001=ADVANCED_FACE('',(#911),#978,.F.);
#1002=ADVANCED_FACE('',(#912),#68,.F.);
#1003=ADVANCED_FACE('',(#913),#69,.F.);
#1004=ADVANCED_FACE('',(#914),#979,.F.);
#1005=ADVANCED_FACE('',(#915),#70,.F.);
#1006=ADVANCED_FACE('',(#916),#980,.T.);
#1007=ADVANCED_FACE('',(#917),#71,.F.);
#1008=ADVANCED_FACE('',(#918),#981,.T.);
#1009=ADVANCED_FACE('',(#919),#72,.F.);
#1010=ADVANCED_FACE('',(#920),#982,.T.);
#1011=ADVANCED_FACE('',(#921),#73,.F.);
#1012=ADVANCED_FACE('',(#922),#983,.T.);
#1013=ADVANCED_FACE('',(#923),#74,.F.);
#1014=ADVANCED_FACE('',(#924),#984,.F.);
#1015=ADVANCED_FACE('',(#925),#75,.F.);
#1016=ADVANCED_FACE('',(#926),#76,.F.);
#1017=ADVANCED_FACE('',(#927),#77,.F.);
#1018=ADVANCED_FACE('',(#928),#78,.F.);
#1019=ADVANCED_FACE('',(#929),#79,.F.);
#1020=ADVANCED_FACE('',(#930),#80,.F.);
#1021=ADVANCED_FACE('',(#931),#81,.F.);
#1022=ADVANCED_FACE('',(#932),#82,.F.);
#1023=ADVANCED_FACE('',(#933),#83,.F.);
#1024=ADVANCED_FACE('',(#934),#84,.F.);
#1025=ADVANCED_FACE('',(#935),#985,.F.);
#1026=ADVANCED_FACE('',(#936),#986,.F.);
#1027=ADVANCED_FACE('',(#937),#85,.T.);
#1028=ADVANCED_FACE('',(#938),#86,.F.);
#1029=ADVANCED_FACE('',(#939),#87,.F.);
#1030=ADVANCED_FACE('',(#940),#88,.F.);
#1031=ADVANCED_FACE('',(#941),#89,.F.);
#1032=ADVANCED_FACE('',(#942),#90,.F.);
#1033=ADVANCED_FACE('',(#943),#91,.F.);
#1034=ADVANCED_FACE('',(#944),#92,.T.);
#1035=ADVANCED_FACE('',(#945,#946,#947,#948,#949),#93,.T.);
#1036=ADVANCED_FACE('',(#950,#951,#952,#953,#954,#955),#94,.F.);
#1037=ADVANCED_FACE('',(#956),#95,.F.);
#1038=ADVANCED_FACE('',(#957),#96,.F.);
#1039=ADVANCED_FACE('',(#958),#97,.F.);
#1040=ADVANCED_FACE('',(#959,#960),#98,.T.);
#1041=ADVANCED_FACE('',(#961,#962),#987,.F.);
#1042=ADVANCED_FACE('',(#963,#964),#988,.F.);
#1043=ADVANCED_FACE('',(#965,#966),#989,.F.);
#1044=ADVANCED_FACE('',(#967,#968),#990,.F.);
#1045=CLOSED_SHELL('',(#991,#992,#993,#994,#995,#996,#997,#998,#999,#1000,
#1001,#1002,#1003,#1004,#1005,#1006,#1007,#1008,#1009,#1010,#1011,#1012,
#1013,#1014,#1015,#1016,#1017,#1018,#1019,#1020,#1021,#1022,#1023,#1024,
#1025,#1026,#1027,#1028,#1029,#1030,#1031,#1032,#1033,#1034,#1035,#1036,
#1037,#1038,#1039,#1040,#1041,#1042,#1043,#1044));
#1046=STYLED_ITEM('',(#1047),#1147);
#1047=PRESENTATION_STYLE_ASSIGNMENT((#1063));
#1048=PRESENTATION_STYLE_ASSIGNMENT((#1064));
#1049=PRESENTATION_STYLE_ASSIGNMENT((#1065));
#1050=PRESENTATION_STYLE_ASSIGNMENT((#1066));
#1051=PRESENTATION_STYLE_ASSIGNMENT((#1067));
#1052=PRESENTATION_STYLE_ASSIGNMENT((#1068));
#1053=PRESENTATION_STYLE_ASSIGNMENT((#1069));
#1054=PRESENTATION_STYLE_ASSIGNMENT((#1070));
#1055=PRESENTATION_STYLE_ASSIGNMENT((#1071));
#1056=PRESENTATION_STYLE_ASSIGNMENT((#1072));
#1057=PRESENTATION_STYLE_ASSIGNMENT((#1073));
#1058=PRESENTATION_STYLE_ASSIGNMENT((#1074));
#1059=PRESENTATION_STYLE_ASSIGNMENT((#1075));
#1060=PRESENTATION_STYLE_ASSIGNMENT((#1076));
#1061=PRESENTATION_STYLE_ASSIGNMENT((#1077));
#1062=PRESENTATION_STYLE_ASSIGNMENT((#1078));
#1063=SURFACE_STYLE_USAGE(.BOTH.,#1079);
#1064=SURFACE_STYLE_USAGE(.BOTH.,#1080);
#1065=SURFACE_STYLE_USAGE(.BOTH.,#1081);
#1066=SURFACE_STYLE_USAGE(.BOTH.,#1082);
#1067=SURFACE_STYLE_USAGE(.BOTH.,#1083);
#1068=SURFACE_STYLE_USAGE(.BOTH.,#1084);
#1069=SURFACE_STYLE_USAGE(.BOTH.,#1085);
#1070=SURFACE_STYLE_USAGE(.BOTH.,#1086);
#1071=SURFACE_STYLE_USAGE(.BOTH.,#1087);
#1072=SURFACE_STYLE_USAGE(.BOTH.,#1088);
#1073=SURFACE_STYLE_USAGE(.BOTH.,#1089);
#1074=SURFACE_STYLE_USAGE(.BOTH.,#1090);
#1075=SURFACE_STYLE_USAGE(.BOTH.,#1091);
#1076=SURFACE_STYLE_USAGE(.BOTH.,#1092);
#1077=SURFACE_STYLE_USAGE(.BOTH.,#1093);
#1078=SURFACE_STYLE_USAGE(.BOTH.,#1094);
#1079=SURFACE_SIDE_STYLE('',(#1095));
#1080=SURFACE_SIDE_STYLE('',(#1096));
#1081=SURFACE_SIDE_STYLE('',(#1097));
#1082=SURFACE_SIDE_STYLE('',(#1098));
#1083=SURFACE_SIDE_STYLE('',(#1099));
#1084=SURFACE_SIDE_STYLE('',(#1100));
#1085=SURFACE_SIDE_STYLE('',(#1101));
#1086=SURFACE_SIDE_STYLE('',(#1102));
#1087=SURFACE_SIDE_STYLE('',(#1103));
#1088=SURFACE_SIDE_STYLE('',(#1104));
#1089=SURFACE_SIDE_STYLE('',(#1105));
#1090=SURFACE_SIDE_STYLE('',(#1106));
#1091=SURFACE_SIDE_STYLE('',(#1107));
#1092=SURFACE_SIDE_STYLE('',(#1108));
#1093=SURFACE_SIDE_STYLE('',(#1109));
#1094=SURFACE_SIDE_STYLE('',(#1110));
#1095=SURFACE_STYLE_FILL_AREA(#1111);
#1096=SURFACE_STYLE_FILL_AREA(#1112);
#1097=SURFACE_STYLE_FILL_AREA(#1113);
#1098=SURFACE_STYLE_FILL_AREA(#1114);
#1099=SURFACE_STYLE_FILL_AREA(#1115);
#1100=SURFACE_STYLE_FILL_AREA(#1116);
#1101=SURFACE_STYLE_FILL_AREA(#1117);
#1102=SURFACE_STYLE_FILL_AREA(#1118);
#1103=SURFACE_STYLE_FILL_AREA(#1119);
#1104=SURFACE_STYLE_FILL_AREA(#1120);
#1105=SURFACE_STYLE_FILL_AREA(#1121);
#1106=SURFACE_STYLE_FILL_AREA(#1122);
#1107=SURFACE_STYLE_FILL_AREA(#1123);
#1108=SURFACE_STYLE_FILL_AREA(#1124);
#1109=SURFACE_STYLE_FILL_AREA(#1125);
#1110=SURFACE_STYLE_FILL_AREA(#1126);
#1111=FILL_AREA_STYLE('',(#1127));
#1112=FILL_AREA_STYLE('',(#1128));
#1113=FILL_AREA_STYLE('',(#1129));
#1114=FILL_AREA_STYLE('',(#1130));
#1115=FILL_AREA_STYLE('',(#1131));
#1116=FILL_AREA_STYLE('',(#1132));
#1117=FILL_AREA_STYLE('',(#1133));
#1118=FILL_AREA_STYLE('',(#1134));
#1119=FILL_AREA_STYLE('',(#1135));
#1120=FILL_AREA_STYLE('',(#1136));
#1121=FILL_AREA_STYLE('',(#1137));
#1122=FILL_AREA_STYLE('',(#1138));
#1123=FILL_AREA_STYLE('',(#1139));
#1124=FILL_AREA_STYLE('',(#1140));
#1125=FILL_AREA_STYLE('',(#1141));
#1126=FILL_AREA_STYLE('',(#1142));
#1127=FILL_AREA_STYLE_COLOUR('',#1143);
#1128=FILL_AREA_STYLE_COLOUR('',#1144);
#1129=FILL_AREA_STYLE_COLOUR('',#1145);
#1130=FILL_AREA_STYLE_COLOUR('',#1145);
#1131=FILL_AREA_STYLE_COLOUR('',#1145);
#1132=FILL_AREA_STYLE_COLOUR('',#1145);
#1133=FILL_AREA_STYLE_COLOUR('',#1145);
#1134=FILL_AREA_STYLE_COLOUR('',#1145);
#1135=FILL_AREA_STYLE_COLOUR('',#1145);
#1136=FILL_AREA_STYLE_COLOUR('',#1145);
#1137=FILL_AREA_STYLE_COLOUR('',#1145);
#1138=FILL_AREA_STYLE_COLOUR('',#1145);
#1139=FILL_AREA_STYLE_COLOUR('',#1146);
#1140=FILL_AREA_STYLE_COLOUR('',#1146);
#1141=FILL_AREA_STYLE_COLOUR('',#1146);
#1142=FILL_AREA_STYLE_COLOUR('',#1146);
#1143=COLOUR_RGB('',0.109803921568627,0.109803921568627,0.109803921568627);
#1144=COLOUR_RGB('',0.16078431372549,0.0588235294117647,0.137254901960784);
#1145=COLOUR_RGB('',0.0549019607843137,0.0784313725490196,0.458823529411765);
#1146=COLOUR_RGB('',0.831372549019608,0.83921568627451,0.831372549019608);
#1147=MANIFOLD_SOLID_BREP('OLED TFT 0.96 inch 64x128 monochrome',#1045);
#1148=SHAPE_DEFINITION_REPRESENTATION(#1850,#1149);
#1149=SHAPE_REPRESENTATION('OLED TFT 0.96 inch 64x128 monochrome',(#1150),
#1845);
#1150=AXIS2_PLACEMENT_3D('',#1535,#1245,#1246);
#1151=AXIS2_PLACEMENT_3D('',#1536,#1247,#1248);
#1152=AXIS2_PLACEMENT_3D('',#1551,#1251,#1252);
#1153=AXIS2_PLACEMENT_3D('',#1566,#1255,#1256);
#1154=AXIS2_PLACEMENT_3D('',#1569,#1259,#1260);
#1155=AXIS2_PLACEMENT_3D('',#1573,#1262,#1263);
#1156=AXIS2_PLACEMENT_3D('',#1577,#1265,#1266);
#1157=AXIS2_PLACEMENT_3D('',#1578,#1267,#1268);
#1158=AXIS2_PLACEMENT_3D('',#1579,#1269,#1270);
#1159=AXIS2_PLACEMENT_3D('',#1584,#1272,#1273);
#1160=AXIS2_PLACEMENT_3D('',#1587,#1275,#1276);
#1161=AXIS2_PLACEMENT_3D('',#1588,#1277,#1278);
#1162=AXIS2_PLACEMENT_3D('',#1592,#1280,#1281);
#1163=AXIS2_PLACEMENT_3D('',#1593,#1282,#1283);
#1164=AXIS2_PLACEMENT_3D('',#1594,#1284,#1285);
#1165=AXIS2_PLACEMENT_3D('',#1598,#1287,#1288);
#1166=AXIS2_PLACEMENT_3D('',#1599,#1289,#1290);
#1167=AXIS2_PLACEMENT_3D('',#1600,#1291,#1292);
#1168=AXIS2_PLACEMENT_3D('',#1604,#1294,#1295);
#1169=AXIS2_PLACEMENT_3D('',#1605,#1296,#1297);
#1170=AXIS2_PLACEMENT_3D('',#1606,#1298,#1299);
#1171=AXIS2_PLACEMENT_3D('',#1610,#1301,#1302);
#1172=AXIS2_PLACEMENT_3D('',#1611,#1303,#1304);
#1173=AXIS2_PLACEMENT_3D('',#1612,#1305,#1306);
#1174=AXIS2_PLACEMENT_3D('',#1613,#1307,#1308);
#1175=AXIS2_PLACEMENT_3D('',#1614,#1309,#1310);
#1176=AXIS2_PLACEMENT_3D('',#1615,#1311,#1312);
#1177=AXIS2_PLACEMENT_3D('',#1616,#1313,#1314);
#1178=AXIS2_PLACEMENT_3D('',#1617,#1315,#1316);
#1179=AXIS2_PLACEMENT_3D('',#1620,#1318,#1319);
#1180=AXIS2_PLACEMENT_3D('',#1624,#1321,#1322);
#1181=AXIS2_PLACEMENT_3D('',#1628,#1324,#1325);
#1182=AXIS2_PLACEMENT_3D('',#1632,#1327,#1328);
#1183=AXIS2_PLACEMENT_3D('',#1636,#1330,#1331);
#1184=AXIS2_PLACEMENT_3D('',#1640,#1333,#1334);
#1185=AXIS2_PLACEMENT_3D('',#1643,#1336,#1337);
#1186=AXIS2_PLACEMENT_3D('',#1649,#1341,#1342);
#1187=AXIS2_PLACEMENT_3D('',#1650,#1343,#1344);
#1188=AXIS2_PLACEMENT_3D('',#1653,#1346,#1347);
#1189=AXIS2_PLACEMENT_3D('',#1657,#1350,#1351);
#1190=AXIS2_PLACEMENT_3D('',#1658,#1352,#1353);
#1191=AXIS2_PLACEMENT_3D('',#1661,#1355,#1356);
#1192=AXIS2_PLACEMENT_3D('',#1665,#1359,#1360);
#1193=AXIS2_PLACEMENT_3D('',#1666,#1361,#1362);
#1194=AXIS2_PLACEMENT_3D('',#1669,#1364,#1365);
#1195=AXIS2_PLACEMENT_3D('',#1673,#1368,#1369);
#1196=AXIS2_PLACEMENT_3D('',#1674,#1370,#1371);
#1197=AXIS2_PLACEMENT_3D('',#1677,#1373,#1374);
#1198=AXIS2_PLACEMENT_3D('',#1681,#1377,#1378);
#1199=AXIS2_PLACEMENT_3D('',#1682,#1379,#1380);
#1200=AXIS2_PLACEMENT_3D('',#1685,#1382,#1383);
#1201=AXIS2_PLACEMENT_3D('',#1689,#1386,#1387);
#1202=AXIS2_PLACEMENT_3D('',#1690,#1388,#1389);
#1203=AXIS2_PLACEMENT_3D('',#1693,#1391,#1392);
#1204=AXIS2_PLACEMENT_3D('',#1697,#1395,#1396);
#1205=AXIS2_PLACEMENT_3D('',#1699,#1398,#1399);
#1206=AXIS2_PLACEMENT_3D('',#1708,#1404,#1405);
#1207=AXIS2_PLACEMENT_3D('',#1714,#1409,#1410);
#1208=AXIS2_PLACEMENT_3D('',#1718,#1413,#1414);
#1209=AXIS2_PLACEMENT_3D('',#1722,#1417,#1418);
#1210=AXIS2_PLACEMENT_3D('',#1724,#1420,#1421);
#1211=AXIS2_PLACEMENT_3D('',#1733,#1426,#1427);
#1212=AXIS2_PLACEMENT_3D('',#1739,#1431,#1432);
#1213=AXIS2_PLACEMENT_3D('',#1746,#1437,#1438);
#1214=AXIS2_PLACEMENT_3D('',#1747,#1439,#1440);
#1215=AXIS2_PLACEMENT_3D('',#1752,#1442,#1443);
#1216=AXIS2_PLACEMENT_3D('',#1755,#1445,#1446);
#1217=AXIS2_PLACEMENT_3D('',#1756,#1447,#1448);
#1218=AXIS2_PLACEMENT_3D('',#1761,#1450,#1451);
#1219=AXIS2_PLACEMENT_3D('',#1764,#1453,#1454);
#1220=AXIS2_PLACEMENT_3D('',#1773,#1459,#1460);
#1221=AXIS2_PLACEMENT_3D('',#1779,#1464,#1465);
#1222=AXIS2_PLACEMENT_3D('',#1785,#1469,#1470);
#1223=AXIS2_PLACEMENT_3D('',#1788,#1473,#1474);
#1224=AXIS2_PLACEMENT_3D('',#1791,#1477,#1478);
#1225=AXIS2_PLACEMENT_3D('',#1797,#1482,#1483);
#1226=AXIS2_PLACEMENT_3D('',#1803,#1487,#1488);
#1227=AXIS2_PLACEMENT_3D('',#1806,#1491,#1492);
#1228=AXIS2_PLACEMENT_3D('',#1807,#1493,#1494);
#1229=AXIS2_PLACEMENT_3D('',#1809,#1495,#1496);
#1230=AXIS2_PLACEMENT_3D('',#1811,#1497,#1498);
#1231=AXIS2_PLACEMENT_3D('',#1813,#1499,#1500);
#1232=AXIS2_PLACEMENT_3D('',#1815,#1501,#1502);
#1233=AXIS2_PLACEMENT_3D('',#1821,#1506,#1507);
#1234=AXIS2_PLACEMENT_3D('',#1823,#1508,#1509);
#1235=AXIS2_PLACEMENT_3D('',#1825,#1510,#1511);
#1236=AXIS2_PLACEMENT_3D('',#1827,#1512,#1513);
#1237=AXIS2_PLACEMENT_3D('',#1829,#1514,#1515);
#1238=AXIS2_PLACEMENT_3D('',#1833,#1518,#1519);
#1239=AXIS2_PLACEMENT_3D('',#1837,#1522,#1523);
#1240=AXIS2_PLACEMENT_3D('',#1839,#1525,#1526);
#1241=AXIS2_PLACEMENT_3D('',#1840,#1527,#1528);
#1242=AXIS2_PLACEMENT_3D('',#1841,#1529,#1530);
#1243=AXIS2_PLACEMENT_3D('',#1842,#1531,#1532);
#1244=AXIS2_PLACEMENT_3D('',#1843,#1533,#1534);
#1245=DIRECTION('',(0.,0.,1.));
#1246=DIRECTION('',(1.,0.,0.));
#1247=DIRECTION('',(0.,-0.458122847290852,-0.888888888888888));
#1248=DIRECTION('',(0.,0.888888888888889,-0.458122847290851));
#1249=DIRECTION('',(0.,0.458122847290852,0.888888888888888));
#1250=DIRECTION('',(0.,-0.458122847290852,-0.888888888888888));
#1251=DIRECTION('',(0.,0.458122847290852,0.888888888888888));
#1252=DIRECTION('',(0.,-0.888888888888889,0.458122847290851));
#1253=DIRECTION('',(0.,-0.458122847290852,-0.888888888888888));
#1254=DIRECTION('',(0.,0.458122847290852,0.888888888888888));
#1255=DIRECTION('',(0.,0.888888888888888,-0.458122847290852));
#1256=DIRECTION('',(-1.,0.,0.));
#1257=DIRECTION('',(1.,0.,0.));
#1258=DIRECTION('',(-1.,0.,0.));
#1259=DIRECTION('',(-1.,0.,0.));
#1260=DIRECTION('',(0.,0.,1.));
#1261=DIRECTION('',(1.,0.,0.));
#1262=DIRECTION('',(-1.,0.,0.));
#1263=DIRECTION('',(0.,0.,1.));
#1264=DIRECTION('',(1.,0.,0.));
#1265=DIRECTION('',(-1.,0.,0.));
#1266=DIRECTION('',(0.,0.,1.));
#1267=DIRECTION('',(-1.,0.,0.));
#1268=DIRECTION('',(0.,0.,1.));
#1269=DIRECTION('',(-1.,0.,0.));
#1270=DIRECTION('',(0.,0.,1.));
#1271=DIRECTION('',(1.,0.,0.));
#1272=DIRECTION('',(-1.,0.,0.));
#1273=DIRECTION('',(0.,0.,1.));
#1274=DIRECTION('',(-1.,0.,0.));
#1275=DIRECTION('',(-1.,0.,0.));
#1276=DIRECTION('',(0.,0.,1.));
#1277=DIRECTION('',(-1.,0.,0.));
#1278=DIRECTION('',(0.,0.,1.));
#1279=DIRECTION('',(-1.,0.,0.));
#1280=DIRECTION('',(-1.,0.,0.));
#1281=DIRECTION('',(0.,0.,1.));
#1282=DIRECTION('',(-1.,0.,0.));
#1283=DIRECTION('',(0.,0.,1.));
#1284=DIRECTION('',(-1.,0.,0.));
#1285=DIRECTION('',(0.,0.,1.));
#1286=DIRECTION('',(1.,0.,0.));
#1287=DIRECTION('',(-1.,0.,0.));
#1288=DIRECTION('',(0.,0.,1.));
#1289=DIRECTION('',(1.,0.,0.));
#1290=DIRECTION('',(0.,0.,-1.));
#1291=DIRECTION('',(1.,0.,0.));
#1292=DIRECTION('',(0.,0.,-1.));
#1293=DIRECTION('',(-1.,0.,0.));
#1294=DIRECTION('',(1.,0.,0.));
#1295=DIRECTION('',(0.,0.,-1.));
#1296=DIRECTION('',(1.,0.,0.));
#1297=DIRECTION('',(0.,0.,-1.));
#1298=DIRECTION('',(1.,0.,0.));
#1299=DIRECTION('',(0.,0.,-1.));
#1300=DIRECTION('',(1.,0.,0.));
#1301=DIRECTION('',(1.,0.,0.));
#1302=DIRECTION('',(0.,0.,-1.));
#1303=DIRECTION('',(1.,0.,0.));
#1304=DIRECTION('',(0.,0.,-1.));
#1305=DIRECTION('',(1.,0.,0.));
#1306=DIRECTION('',(0.,0.,-1.));
#1307=DIRECTION('',(1.,0.,0.));
#1308=DIRECTION('',(0.,0.,-1.));
#1309=DIRECTION('',(1.,0.,0.));
#1310=DIRECTION('',(0.,0.,-1.));
#1311=DIRECTION('',(1.,0.,0.));
#1312=DIRECTION('',(0.,0.,-1.));
#1313=DIRECTION('',(1.,0.,0.));
#1314=DIRECTION('',(0.,0.,-1.));
#1315=DIRECTION('',(0.,-1.,0.));
#1316=DIRECTION('',(0.,0.,-1.));
#1317=DIRECTION('',(0.,0.,-1.));
#1318=DIRECTION('',(0.,-1.,0.));
#1319=DIRECTION('',(0.,0.,-1.));
#1320=DIRECTION('',(1.,0.,0.));
#1321=DIRECTION('',(0.,1.,0.));
#1322=DIRECTION('',(0.,0.,1.));
#1323=DIRECTION('',(0.,0.,-1.));
#1324=DIRECTION('',(0.,1.,0.));
#1325=DIRECTION('',(0.,0.,-1.));
#1326=DIRECTION('',(-1.,0.,0.));
#1327=DIRECTION('',(0.,1.,0.));
#1328=DIRECTION('',(0.,0.,-1.));
#1329=DIRECTION('',(0.,0.,1.));
#1330=DIRECTION('',(0.,1.,0.));
#1331=DIRECTION('',(0.,0.,-1.));
#1332=DIRECTION('',(1.,0.,0.));
#1333=DIRECTION('',(0.,-1.,0.));
#1334=DIRECTION('',(0.,0.,1.));
#1335=DIRECTION('',(0.,0.,1.));
#1336=DIRECTION('',(1.,0.,0.));
#1337=DIRECTION('',(0.,0.,-1.));
#1338=DIRECTION('',(0.,-1.,0.));
#1339=DIRECTION('',(0.,0.,1.));
#1340=DIRECTION('',(0.,0.,1.));
#1341=DIRECTION('',(0.,-1.,0.));
#1342=DIRECTION('',(0.,0.,-1.));
#1343=DIRECTION('',(0.,-1.,0.));
#1344=DIRECTION('',(0.,0.,1.));
#1345=DIRECTION('',(0.,-1.,0.));
#1346=DIRECTION('',(0.,0.,-1.));
#1347=DIRECTION('',(-1.,0.,0.));
#1348=DIRECTION('',(1.,0.,0.));
#1349=DIRECTION('',(0.,-1.,0.));
#1350=DIRECTION('',(0.,-1.,0.));
#1351=DIRECTION('',(0.,0.,-1.));
#1352=DIRECTION('',(0.,1.,0.));
#1353=DIRECTION('',(0.,0.,-1.));
#1354=DIRECTION('',(0.,-1.,0.));
#1355=DIRECTION('',(1.,0.,0.));
#1356=DIRECTION('',(0.,0.,-1.));
#1357=DIRECTION('',(0.,0.,1.));
#1358=DIRECTION('',(0.,-1.,0.));
#1359=DIRECTION('',(0.,-1.,0.));
#1360=DIRECTION('',(0.,0.,-1.));
#1361=DIRECTION('',(0.,1.,0.));
#1362=DIRECTION('',(0.,0.,-1.));
#1363=DIRECTION('',(0.,-1.,0.));
#1364=DIRECTION('',(0.,0.,1.));
#1365=DIRECTION('',(1.,0.,0.));
#1366=DIRECTION('',(-1.,0.,0.));
#1367=DIRECTION('',(0.,-1.,0.));
#1368=DIRECTION('',(0.,-1.,0.));
#1369=DIRECTION('',(0.,0.,-1.));
#1370=DIRECTION('',(0.,1.,0.));
#1371=DIRECTION('',(0.,0.,-1.));
#1372=DIRECTION('',(0.,-1.,0.));
#1373=DIRECTION('',(-1.,0.,0.));
#1374=DIRECTION('',(0.,0.,1.));
#1375=DIRECTION('',(0.,0.,-1.));
#1376=DIRECTION('',(0.,-1.,0.));
#1377=DIRECTION('',(0.,-1.,0.));
#1378=DIRECTION('',(0.,0.,-1.));
#1379=DIRECTION('',(0.,1.,0.));
#1380=DIRECTION('',(0.,0.,1.));
#1381=DIRECTION('',(0.,-1.,0.));
#1382=DIRECTION('',(0.,0.,-1.));
#1383=DIRECTION('',(-1.,0.,0.));
#1384=DIRECTION('',(1.,0.,0.));
#1385=DIRECTION('',(0.,-1.,0.));
#1386=DIRECTION('',(0.,-1.,0.));
#1387=DIRECTION('',(0.,0.,-1.));
#1388=DIRECTION('',(0.,-1.,0.));
#1389=DIRECTION('',(0.,0.,-1.));
#1390=DIRECTION('',(0.,-1.,0.));
#1391=DIRECTION('',(-1.,0.,0.));
#1392=DIRECTION('',(0.,0.,1.));
#1393=DIRECTION('',(0.,0.,-1.));
#1394=DIRECTION('',(0.,0.,-1.));
#1395=DIRECTION('',(0.,1.,0.));
#1396=DIRECTION('',(0.,0.,1.));
#1397=DIRECTION('',(1.,0.,-1.29941833406502E-16));
#1398=DIRECTION('',(0.,-1.,0.));
#1399=DIRECTION('',(0.,0.,-1.));
#1400=DIRECTION('',(-1.20466908053945E-16,0.,-1.));
#1401=DIRECTION('',(-1.,0.,1.34997935873681E-16));
#1402=DIRECTION('',(1.20466908053945E-16,0.,1.));
#1403=DIRECTION('',(1.,0.,-1.34997935873681E-16));
#1404=DIRECTION('',(0.,0.,-1.));
#1405=DIRECTION('',(-1.,0.,0.));
#1406=DIRECTION('',(1.,0.,-1.34997935873681E-16));
#1407=DIRECTION('',(0.,-1.,0.));
#1408=DIRECTION('',(0.,-1.,0.));
#1409=DIRECTION('',(1.,0.,0.));
#1410=DIRECTION('',(0.,0.,-1.));
#1411=DIRECTION('',(1.20466908053945E-16,0.,1.));
#1412=DIRECTION('',(0.,-1.,0.));
#1413=DIRECTION('',(0.,0.,1.));
#1414=DIRECTION('',(1.,0.,0.));
#1415=DIRECTION('',(-1.,0.,1.34997935873681E-16));
#1416=DIRECTION('',(0.,-1.,0.));
#1417=DIRECTION('',(-1.,0.,0.));
#1418=DIRECTION('',(0.,0.,1.));
#1419=DIRECTION('',(-1.20466908053945E-16,0.,-1.));
#1420=DIRECTION('',(0.,1.,0.));
#1421=DIRECTION('',(0.,0.,1.));
#1422=DIRECTION('',(-1.,0.,1.11917643611407E-16));
#1423=DIRECTION('',(-4.33680868994202E-16,-1.62630325872825E-16,-1.));
#1424=DIRECTION('',(-1.,0.,1.11917643611407E-16));
#1425=DIRECTION('',(-9.00687163020149E-17,-1.62630325872825E-16,-1.));
#1426=DIRECTION('',(0.,0.,-1.));
#1427=DIRECTION('',(-1.,0.,0.));
#1428=DIRECTION('',(0.,-1.,0.));
#1429=DIRECTION('',(-1.,0.,1.11917643611407E-16));
#1430=DIRECTION('',(0.,-1.,0.));
#1431=DIRECTION('',(0.,0.,-1.));
#1432=DIRECTION('',(-1.,0.,0.));
#1433=DIRECTION('',(0.,-1.,0.));
#1434=DIRECTION('',(0.,-1.,0.));
#1435=DIRECTION('',(1.,0.,-1.29941833406502E-16));
#1436=DIRECTION('',(1.,0.,-1.29941833406502E-16));
#1437=DIRECTION('',(0.,1.,0.));
#1438=DIRECTION('',(0.,0.,1.));
#1439=DIRECTION('',(0.,-1.,0.));
#1440=DIRECTION('',(0.,0.,-1.));
#1441=DIRECTION('',(0.,1.,0.));
#1442=DIRECTION('',(0.,1.,0.));
#1443=DIRECTION('',(0.,0.,-1.));
#1444=DIRECTION('',(0.,-1.,0.));
#1445=DIRECTION('',(0.,1.,0.));
#1446=DIRECTION('',(0.,0.,1.));
#1447=DIRECTION('',(0.,-1.,0.));
#1448=DIRECTION('',(0.,0.,-1.));
#1449=DIRECTION('',(0.,1.,0.));
#1450=DIRECTION('',(0.,1.,0.));
#1451=DIRECTION('',(1.30104260698261E-14,0.,-1.));
#1452=DIRECTION('',(0.,-1.,0.));
#1453=DIRECTION('',(0.,0.,-1.));
#1454=DIRECTION('',(-1.,0.,0.));
#1455=DIRECTION('',(1.,0.,0.));
#1456=DIRECTION('',(0.,-1.,0.));
#1457=DIRECTION('',(1.,0.,0.));
#1458=DIRECTION('',(0.,-1.,0.));
#1459=DIRECTION('',(-1.,0.,0.));
#1460=DIRECTION('',(0.,0.,1.));
#1461=DIRECTION('',(0.,0.,-1.));
#1462=DIRECTION('',(0.,0.,-1.));
#1463=DIRECTION('',(0.,-1.,0.));
#1464=DIRECTION('',(0.,0.,-1.));
#1465=DIRECTION('',(-1.,0.,0.));
#1466=DIRECTION('',(1.,0.,0.));
#1467=DIRECTION('',(1.,0.,0.));
#1468=DIRECTION('',(0.,-1.,0.));
#1469=DIRECTION('',(1.,0.,0.));
#1470=DIRECTION('',(0.,0.,-1.));
#1471=DIRECTION('',(0.,0.,1.));
#1472=DIRECTION('',(0.,0.,1.));
#1473=DIRECTION('',(0.,0.,-1.));
#1474=DIRECTION('',(-1.,0.,0.));
#1475=DIRECTION('',(1.,0.,0.));
#1476=DIRECTION('',(1.,0.,0.));
#1477=DIRECTION('',(-1.,0.,0.));
#1478=DIRECTION('',(0.,0.,1.));
#1479=DIRECTION('',(0.,0.,-1.));
#1480=DIRECTION('',(0.,0.,-1.));
#1481=DIRECTION('',(0.,-1.,0.));
#1482=DIRECTION('',(0.,0.,-1.));
#1483=DIRECTION('',(-1.,0.,0.));
#1484=DIRECTION('',(1.,0.,0.));
#1485=DIRECTION('',(1.,0.,0.));
#1486=DIRECTION('',(0.,-1.,0.));
#1487=DIRECTION('',(-1.,0.,0.));
#1488=DIRECTION('',(0.,0.,1.));
#1489=DIRECTION('',(0.,0.,-1.));
#1490=DIRECTION('',(0.,0.,-1.));
#1491=DIRECTION('',(0.,-1.,0.));
#1492=DIRECTION('',(0.,0.,-1.));
#1493=DIRECTION('',(0.,1.,0.));
#1494=DIRECTION('',(0.,0.,1.));
#1495=DIRECTION('',(0.,1.,0.));
#1496=DIRECTION('',(0.,0.,1.));
#1497=DIRECTION('',(0.,1.,0.));
#1498=DIRECTION('',(0.,0.,1.));
#1499=DIRECTION('',(0.,1.,0.));
#1500=DIRECTION('',(0.,0.,1.));
#1501=DIRECTION('',(0.,-1.,0.));
#1502=DIRECTION('',(0.,0.,-1.));
#1503=DIRECTION('',(-9.00687163020149E-17,0.,-1.));
#1504=DIRECTION('',(9.00687163020149E-17,0.,1.));
#1505=DIRECTION('',(-1.,0.,0.));
#1506=DIRECTION('',(0.,1.,0.));
#1507=DIRECTION('',(0.,0.,1.));
#1508=DIRECTION('',(0.,1.,0.));
#1509=DIRECTION('',(0.,0.,1.));
#1510=DIRECTION('',(0.,1.,0.));
#1511=DIRECTION('',(0.,0.,1.));
#1512=DIRECTION('',(0.,1.,0.));
#1513=DIRECTION('',(0.,0.,1.));
#1514=DIRECTION('',(1.,0.,-9.00687163020149E-17));
#1515=DIRECTION('',(-9.00687163020149E-17,0.,-1.));
#1516=DIRECTION('',(0.,-1.,0.));
#1517=DIRECTION('',(9.00687163020149E-17,0.,1.));
#1518=DIRECTION('',(0.,0.,1.));
#1519=DIRECTION('',(1.,0.,0.));
#1520=DIRECTION('',(0.,-1.,0.));
#1521=DIRECTION('',(-1.,0.,0.));
#1522=DIRECTION('',(-1.,0.,9.00687163020149E-17));
#1523=DIRECTION('',(9.00687163020149E-17,0.,1.));
#1524=DIRECTION('',(-9.00687163020149E-17,0.,-1.));
#1525=DIRECTION('',(0.,1.,0.));
#1526=DIRECTION('',(0.,0.,1.));
#1527=DIRECTION('',(0.,-1.,0.));
#1528=DIRECTION('',(0.,0.,-1.));
#1529=DIRECTION('',(0.,-1.,0.));
#1530=DIRECTION('',(0.,0.,-1.));
#1531=DIRECTION('',(0.,-1.,0.));
#1532=DIRECTION('',(0.,0.,-1.));
#1533=DIRECTION('',(0.,-1.,0.));
#1534=DIRECTION('',(0.,0.,-1.));
#1535=CARTESIAN_POINT('',(0.,0.,0.));
#1536=CARTESIAN_POINT('',(-0.0048,0.000194781222112421,0.0253931532083197));
#1537=CARTESIAN_POINT('',(-0.005,0.00135324048885658,0.027640894347031));
#1538=CARTESIAN_POINT('',(-0.005,0.00127127622686183,0.0277082666625074));
#1539=CARTESIAN_POINT('',(-0.00490612135488711,0.00118521670492632,0.0277514444444444));
#1540=CARTESIAN_POINT('',(-0.0048,0.00118521670492632,0.0277514444444445));
#1541=CARTESIAN_POINT('',(-0.005,0.00135324048885658,0.027640894347031));
#1542=CARTESIAN_POINT('',(-0.0048,0.00118521670492632,0.0277514444444445));
#1543=CARTESIAN_POINT('',(-0.005,-1.26165837159909E-5,0.0249907423565776));
#1544=CARTESIAN_POINT('',(-0.005,0.00132977894478057,0.0275953722649767));
#1545=CARTESIAN_POINT('',(-0.0048,0.00116231056256177,0.027707));
#1546=CARTESIAN_POINT('',(-0.00490618113756211,0.00116231056256177,0.027707));
#1547=CARTESIAN_POINT('',(-0.00500000000000028,0.00124857229751968,0.0276637682574559));
#1548=CARTESIAN_POINT('',(-0.0050000000000003,0.00132977894478062,0.0275953722649769));
#1549=CARTESIAN_POINT('',(-0.0048,0.00116231056256177,0.027707));
#1550=CARTESIAN_POINT('',(-0.0048,1.70034443346435E-5,0.0254847777777778));
#1551=CARTESIAN_POINT('',(0.0048,0.000194781222112421,0.0253931532083197));
#1552=CARTESIAN_POINT('',(0.005,0.00132977894478057,0.0275953722649767));
#1553=CARTESIAN_POINT('',(0.00500000000000001,0.00124858659605138,0.0276637562145713));
#1554=CARTESIAN_POINT('',(0.00490617741072104,0.00116231056256177,0.027707));
#1555=CARTESIAN_POINT('',(0.0048,0.00116231056256177,0.027707));
#1556=CARTESIAN_POINT('',(0.005,0.00132977894478057,0.0275953722649767));
#1557=CARTESIAN_POINT('',(0.0048,0.00116231056256177,0.027707));
#1558=CARTESIAN_POINT('',(0.005,8.51162903727264E-5,0.0251803719862072));
#1559=CARTESIAN_POINT('',(0.005,0.00135324048885658,0.027640894347031));
#1560=CARTESIAN_POINT('',(0.0048,0.00118521670492631,0.0277514444444445));
#1561=CARTESIAN_POINT('',(0.004906124783286,0.00118521670492631,0.0277514444444445));
#1562=CARTESIAN_POINT('',(0.00500000000000035,0.00127126312025302,0.027708277435771));
#1563=CARTESIAN_POINT('',(0.00500000000000037,0.00135324048885661,0.0276408943470312));
#1564=CARTESIAN_POINT('',(0.0048,0.00118521670492632,0.0277514444444445));
#1565=CARTESIAN_POINT('',(0.0048,1.70034443346435E-5,0.0254847777777778));
#1566=CARTESIAN_POINT('',(0.,1.70034443346435E-5,0.0254847777777778));
#1567=CARTESIAN_POINT('',(-0.005,0.00116231056256177,0.027707));
#1568=CARTESIAN_POINT('',(-0.005,0.00118521670492632,0.0277514444444445));
#1569=CARTESIAN_POINT('',(-0.005,0.0015,0.02391));
#1570=CARTESIAN_POINT('',(-0.005,0.00228034257889224,0.0245353522683798));
#1571=CARTESIAN_POINT('',(-0.005,0.00228034257889224,0.0245353522683798));
#1572=CARTESIAN_POINT('',(0.005,0.00228034257889224,0.0245353522683798));
#1573=CARTESIAN_POINT('',(-0.005,0.0015,0.02391));
#1574=CARTESIAN_POINT('',(-0.005,0.0025,0.02391));
#1575=CARTESIAN_POINT('',(-0.005,0.0025,0.02391));
#1576=CARTESIAN_POINT('',(0.005,0.0025,0.02391));
#1577=CARTESIAN_POINT('',(0.005,0.0015,0.02391));
#1578=CARTESIAN_POINT('',(-0.005,0.0015,0.02391));
#1579=CARTESIAN_POINT('',(0.005,0.0015,0.02391));
#1580=CARTESIAN_POINT('',(0.005,0.00231935970783685,0.0245666198817989));
#1581=CARTESIAN_POINT('',(0.005,0.00255,0.02391));
#1582=CARTESIAN_POINT('',(-0.005,0.00255,0.02391));
#1583=CARTESIAN_POINT('',(-0.005,0.00255,0.02391));
#1584=CARTESIAN_POINT('',(-0.005,0.0015,0.02391));
#1585=CARTESIAN_POINT('',(-0.005,0.00231935970783685,0.0245666198817989));
#1586=CARTESIAN_POINT('',(-0.005,0.00231935970783685,0.0245666198817989));
#1587=CARTESIAN_POINT('',(-0.005,0.00384102773667671,0.0257860568051395));
#1588=CARTESIAN_POINT('',(-0.005,0.00384102773667671,0.0257860568051395));
#1589=CARTESIAN_POINT('',(-0.005,0.00190144120064517,0.0255848005772976));
#1590=CARTESIAN_POINT('',(-0.005,0.00190144120064517,0.0255848005772976));
#1591=CARTESIAN_POINT('',(0.005,0.00190144120064517,0.0255848005772976));
#1592=CARTESIAN_POINT('',(0.005,0.00384102773667671,0.0257860568051395));
#1593=CARTESIAN_POINT('',(-0.005,0.00384102773667671,0.0257860568051395));
#1594=CARTESIAN_POINT('',(0.005,0.00384102773667671,0.0257860568051395));
#1595=CARTESIAN_POINT('',(0.005,0.00185170821254179,0.0255796401611991));
#1596=CARTESIAN_POINT('',(-0.005,0.00185170821254179,0.0255796401611991));
#1597=CARTESIAN_POINT('',(-0.005,0.00185170821254179,0.0255796401611991));
#1598=CARTESIAN_POINT('',(-0.005,0.00384102773667671,0.0257860568051395));
#1599=CARTESIAN_POINT('',(-0.005,-0.0164558816666668,0.02368));
#1600=CARTESIAN_POINT('',(-0.005,-0.0164558816666668,0.02368));
#1601=CARTESIAN_POINT('',(-0.005,0.0016837197574263,0.0270821211426179));
#1602=CARTESIAN_POINT('',(-0.005,0.0016837197574263,0.0270821211426179));
#1603=CARTESIAN_POINT('',(0.005,0.0016837197574263,0.0270821211426179));
#1604=CARTESIAN_POINT('',(0.005,-0.0164558816666668,0.02368));
#1605=CARTESIAN_POINT('',(-0.005,-0.0164558816666668,0.02368));
#1606=CARTESIAN_POINT('',(0.005,-0.0164558816666668,0.02368));
#1607=CARTESIAN_POINT('',(0.005,0.0016345766122986,0.0270729042403749));
#1608=CARTESIAN_POINT('',(-0.005,0.0016345766122986,0.0270729042403749));
#1609=CARTESIAN_POINT('',(-0.005,0.0016345766122986,0.0270729042403749));
#1610=CARTESIAN_POINT('',(-0.005,-0.0164558816666668,0.02368));
#1611=CARTESIAN_POINT('',(-0.005,0.00075,0.026907));
#1612=CARTESIAN_POINT('',(0.005,0.00075,0.026907));
#1613=CARTESIAN_POINT('',(-0.005,0.00075,0.026907));
#1614=CARTESIAN_POINT('',(-0.005,0.00075,0.026907));
#1615=CARTESIAN_POINT('',(0.005,0.00075,0.026907));
#1616=CARTESIAN_POINT('',(-0.005,0.00075,0.026907));
#1617=CARTESIAN_POINT('',(0.0052,0.00255,0.02367));
#1618=CARTESIAN_POINT('',(0.005,0.00255,0.02391));
#1619=CARTESIAN_POINT('',(0.005,0.00255,0.02367));
#1620=CARTESIAN_POINT('',(0.0052,0.00255,0.02367));
#1621=CARTESIAN_POINT('',(0.0052,0.00255,0.02347));
#1622=CARTESIAN_POINT('',(0.0052,0.00255,0.02347));
#1623=CARTESIAN_POINT('',(0.0073,0.00255,0.02347));
#1624=CARTESIAN_POINT('',(0.0073,0.00255,0.02327));
#1625=CARTESIAN_POINT('',(0.0075,0.00255,0.02327));
#1626=CARTESIAN_POINT('',(0.0075,0.00255,0.02327));
#1627=CARTESIAN_POINT('',(0.0075,0.00255,0.01967));
#1628=CARTESIAN_POINT('',(0.0073,0.00255,0.01967));
#1629=CARTESIAN_POINT('',(0.0073,0.00255,0.01947));
#1630=CARTESIAN_POINT('',(-0.0073,0.00255,0.01947));
#1631=CARTESIAN_POINT('',(-0.0073,0.00255,0.01947));
#1632=CARTESIAN_POINT('',(-0.0073,0.00255,0.01967));
#1633=CARTESIAN_POINT('',(-0.0075,0.00255,0.01967));
#1634=CARTESIAN_POINT('',(-0.0075,0.00255,0.02327));
#1635=CARTESIAN_POINT('',(-0.0075,0.00255,0.02327));
#1636=CARTESIAN_POINT('',(-0.0073,0.00255,0.02327));
#1637=CARTESIAN_POINT('',(-0.0073,0.00255,0.02347));
#1638=CARTESIAN_POINT('',(-0.0073,0.00255,0.02347));
#1639=CARTESIAN_POINT('',(-0.0052,0.00255,0.02347));
#1640=CARTESIAN_POINT('',(-0.0052,0.00255,0.02367));
#1641=CARTESIAN_POINT('',(-0.005,0.00255,0.02367));
#1642=CARTESIAN_POINT('',(-0.005,0.00255,0.02367));
#1643=CARTESIAN_POINT('',(-0.005,0.00255,0.02367));
#1644=CARTESIAN_POINT('',(-0.005,0.00255,0.02367));
#1645=CARTESIAN_POINT('',(-0.005,0.0025,0.02367));
#1646=CARTESIAN_POINT('',(-0.005,0.0025,0.02367));
#1647=CARTESIAN_POINT('',(-0.005,0.0025,0.02368));
#1648=CARTESIAN_POINT('',(-0.005,0.0025,0.02367));
#1649=CARTESIAN_POINT('',(-0.0052,0.00255,0.02367));
#1650=CARTESIAN_POINT('',(-0.0052,0.0025,0.02367));
#1651=CARTESIAN_POINT('',(-0.0052,0.0025,0.02347));
#1652=CARTESIAN_POINT('',(-0.0052,0.00255,0.02347));
#1653=CARTESIAN_POINT('',(-0.0073,0.00255,0.02347));
#1654=CARTESIAN_POINT('',(-0.0073,0.0025,0.02347));
#1655=CARTESIAN_POINT('',(-0.0073,0.0025,0.02347));
#1656=CARTESIAN_POINT('',(-0.0073,0.00255,0.02347));
#1657=CARTESIAN_POINT('',(-0.0073,0.00255,0.02327));
#1658=CARTESIAN_POINT('',(-0.0073,0.0025,0.02327));
#1659=CARTESIAN_POINT('',(-0.0075,0.0025,0.02327));
#1660=CARTESIAN_POINT('',(-0.0075,0.00255,0.02327));
#1661=CARTESIAN_POINT('',(-0.0075,0.00255,0.02327));
#1662=CARTESIAN_POINT('',(-0.0075,0.0025,0.02327));
#1663=CARTESIAN_POINT('',(-0.0075,0.0025,0.01967));
#1664=CARTESIAN_POINT('',(-0.0075,0.00255,0.01967));
#1665=CARTESIAN_POINT('',(-0.0073,0.00255,0.01967));
#1666=CARTESIAN_POINT('',(-0.0073,0.0025,0.01967));
#1667=CARTESIAN_POINT('',(-0.0073,0.0025,0.01947));
#1668=CARTESIAN_POINT('',(-0.0073,0.00255,0.01947));
#1669=CARTESIAN_POINT('',(-0.0073,0.00255,0.01947));
#1670=CARTESIAN_POINT('',(-0.0073,0.0025,0.01947));
#1671=CARTESIAN_POINT('',(0.0073,0.0025,0.01947));
#1672=CARTESIAN_POINT('',(0.0073,0.00255,0.01947));
#1673=CARTESIAN_POINT('',(0.0073,0.00255,0.01967));
#1674=CARTESIAN_POINT('',(0.0073,0.0025,0.01967));
#1675=CARTESIAN_POINT('',(0.0075,0.0025,0.01967));
#1676=CARTESIAN_POINT('',(0.0075,0.00255,0.01967));
#1677=CARTESIAN_POINT('',(0.0075,0.00255,0.02327));
#1678=CARTESIAN_POINT('',(0.0075,0.0025,0.02327));
#1679=CARTESIAN_POINT('',(0.0075,0.0025,0.02327));
#1680=CARTESIAN_POINT('',(0.0075,0.00255,0.02327));
#1681=CARTESIAN_POINT('',(0.0073,0.00255,0.02327));
#1682=CARTESIAN_POINT('',(0.0073,0.0025,0.02327));
#1683=CARTESIAN_POINT('',(0.0073,0.0025,0.02347));
#1684=CARTESIAN_POINT('',(0.0073,0.00255,0.02347));
#1685=CARTESIAN_POINT('',(-0.0073,0.00255,0.02347));
#1686=CARTESIAN_POINT('',(0.0052,0.0025,0.02347));
#1687=CARTESIAN_POINT('',(0.0052,0.0025,0.02347));
#1688=CARTESIAN_POINT('',(0.0052,0.00255,0.02347));
#1689=CARTESIAN_POINT('',(0.0052,0.00255,0.02367));
#1690=CARTESIAN_POINT('',(0.0052,0.0025,0.02367));
#1691=CARTESIAN_POINT('',(0.005,0.0025,0.02367));
#1692=CARTESIAN_POINT('',(0.005,0.00255,0.02367));
#1693=CARTESIAN_POINT('',(0.005,0.00255,0.02391));
#1694=CARTESIAN_POINT('',(0.005,0.0025,0.02391));
#1695=CARTESIAN_POINT('',(0.005,0.0025,0.02368));
#1696=CARTESIAN_POINT('',(0.005,0.0025,0.02391));
#1697=CARTESIAN_POINT('',(0.,0.0025,0.));
#1698=CARTESIAN_POINT('',(-0.01335,0.0025,0.02368));
#1699=CARTESIAN_POINT('',(0.,0.0026,0.));
#1700=CARTESIAN_POINT('',(0.01285,0.0026,0.00462));
#1701=CARTESIAN_POINT('',(0.01285,0.0026,0.01902));
#1702=CARTESIAN_POINT('',(0.01285,0.0026,0.00462));
#1703=CARTESIAN_POINT('',(0.01285,0.0026,0.00462));
#1704=CARTESIAN_POINT('',(-0.01285,0.0026,0.00462));
#1705=CARTESIAN_POINT('',(-0.01285,0.0026,0.00462));
#1706=CARTESIAN_POINT('',(-0.01285,0.0026,0.01902));
#1707=CARTESIAN_POINT('',(0.01285,0.0026,0.01902));
#1708=CARTESIAN_POINT('',(0.01285,0.0026,0.01902));
#1709=CARTESIAN_POINT('',(0.01285,0.0025,0.01902));
#1710=CARTESIAN_POINT('',(-0.01285,0.0025,0.01902));
#1711=CARTESIAN_POINT('',(0.01285,0.0025,0.01902));
#1712=CARTESIAN_POINT('',(0.01285,0.0026,0.01902));
#1713=CARTESIAN_POINT('',(-0.01285,0.0026,0.01902));
#1714=CARTESIAN_POINT('',(-0.01285,0.0026,0.00462));
#1715=CARTESIAN_POINT('',(-0.01285,0.0025,0.00462));
#1716=CARTESIAN_POINT('',(-0.01285,0.0025,0.00462));
#1717=CARTESIAN_POINT('',(-0.01285,0.0026,0.00462));
#1718=CARTESIAN_POINT('',(0.01285,0.0026,0.00462));
#1719=CARTESIAN_POINT('',(0.01285,0.0025,0.00462));
#1720=CARTESIAN_POINT('',(0.01285,0.0025,0.00462));
#1721=CARTESIAN_POINT('',(0.01285,0.0026,0.00462));
#1722=CARTESIAN_POINT('',(0.01285,0.0026,0.00462));
#1723=CARTESIAN_POINT('',(0.01285,0.0025,0.00462));
#1724=CARTESIAN_POINT('',(0.01695,0.00185,0.02368));
#1725=CARTESIAN_POINT('',(0.01695,0.00185,0.02368));
#1726=CARTESIAN_POINT('',(0.01335,0.00185,0.02368));
#1727=CARTESIAN_POINT('',(-0.01335,0.00185,0.02368));
#1728=CARTESIAN_POINT('',(-0.01335,0.00185,0.02368));
#1729=CARTESIAN_POINT('',(-0.01335,0.00185,0.01968));
#1730=CARTESIAN_POINT('',(0.01695,0.00185,0.01968));
#1731=CARTESIAN_POINT('',(0.01335,0.00185,0.01968));
#1732=CARTESIAN_POINT('',(0.01335,0.00185,0.00442));
#1733=CARTESIAN_POINT('',(0.01695,0.0012,0.01968));
#1734=CARTESIAN_POINT('',(-0.01335,0.0012,0.01968));
#1735=CARTESIAN_POINT('',(-0.01335,0.0012,0.01968));
#1736=CARTESIAN_POINT('',(0.01695,0.0012,0.01968));
#1737=CARTESIAN_POINT('',(0.01335,0.0012,0.01968));
#1738=CARTESIAN_POINT('',(0.01335,0.0025,0.01968));
#1739=CARTESIAN_POINT('',(-0.01335,0.0025,0.02368));
#1740=CARTESIAN_POINT('',(-0.01335,0.0025,0.02368));
#1741=CARTESIAN_POINT('',(-0.01335,0.0025,0.02368));
#1742=CARTESIAN_POINT('',(0.01335,0.0025,0.02368));
#1743=CARTESIAN_POINT('',(0.01335,0.0025,0.02368));
#1744=CARTESIAN_POINT('',(-0.01335,0.0025,0.02368));
#1745=CARTESIAN_POINT('',(-0.01335,0.0025,0.02368));
#1746=CARTESIAN_POINT('',(-0.0068,0.0012,0.026));
#1747=CARTESIAN_POINT('',(-0.0068,0.0012,0.026));
#1748=CARTESIAN_POINT('',(-0.007,0.0012,0.026));
#1749=CARTESIAN_POINT('',(-0.0068,0.0012,0.0258));
#1750=CARTESIAN_POINT('',(-0.007,0.0012,0.026));
#1751=CARTESIAN_POINT('',(-0.007,0.,0.026));
#1752=CARTESIAN_POINT('',(-0.0068,0.,0.026));
#1753=CARTESIAN_POINT('',(-0.0068,0.,0.0258));
#1754=CARTESIAN_POINT('',(-0.0068,0.,0.0258));
#1755=CARTESIAN_POINT('',(0.0068,0.0012,0.026));
#1756=CARTESIAN_POINT('',(0.0068,0.0012,0.026));
#1757=CARTESIAN_POINT('',(0.0068,0.0012,0.0258));
#1758=CARTESIAN_POINT('',(0.007,0.0012,0.026));
#1759=CARTESIAN_POINT('',(0.0068,0.0012,0.0258));
#1760=CARTESIAN_POINT('',(0.0068,0.,0.0258));
#1761=CARTESIAN_POINT('',(0.0068,0.,0.026));
#1762=CARTESIAN_POINT('',(0.007,0.,0.026));
#1763=CARTESIAN_POINT('',(0.007,0.,0.026));
#1764=CARTESIAN_POINT('',(-0.01365,0.0012,0.));
#1765=CARTESIAN_POINT('',(-0.01365,0.,0.));
#1766=CARTESIAN_POINT('',(-0.01365,0.,0.));
#1767=CARTESIAN_POINT('',(0.01365,0.,0.));
#1768=CARTESIAN_POINT('',(-0.01365,0.0012,0.));
#1769=CARTESIAN_POINT('',(-0.01365,0.0012,0.));
#1770=CARTESIAN_POINT('',(-0.01365,0.0012,0.));
#1771=CARTESIAN_POINT('',(0.01365,0.0012,0.));
#1772=CARTESIAN_POINT('',(0.01365,0.0012,0.));
#1773=CARTESIAN_POINT('',(0.01365,0.0012,0.0278));
#1774=CARTESIAN_POINT('',(0.01365,0.,0.0278));
#1775=CARTESIAN_POINT('',(0.01365,0.,0.0278));
#1776=CARTESIAN_POINT('',(0.01365,0.0012,0.0278));
#1777=CARTESIAN_POINT('',(0.01365,0.0012,0.0278));
#1778=CARTESIAN_POINT('',(0.01365,0.0012,0.0278));
#1779=CARTESIAN_POINT('',(-0.01365,0.0012,0.0278));
#1780=CARTESIAN_POINT('',(0.007,0.,0.0278));
#1781=CARTESIAN_POINT('',(0.007,0.,0.0278));
#1782=CARTESIAN_POINT('',(0.007,0.0012,0.0278));
#1783=CARTESIAN_POINT('',(0.007,0.0012,0.0278));
#1784=CARTESIAN_POINT('',(0.007,0.0012,0.0278));
#1785=CARTESIAN_POINT('',(0.007,0.0012,0.0258));
#1786=CARTESIAN_POINT('',(0.007,0.0012,0.0258));
#1787=CARTESIAN_POINT('',(0.007,0.,0.0258));
#1788=CARTESIAN_POINT('',(-0.007,0.0012,0.0258));
#1789=CARTESIAN_POINT('',(-0.007,0.,0.0258));
#1790=CARTESIAN_POINT('',(-0.007,0.0012,0.0258));
#1791=CARTESIAN_POINT('',(-0.007,0.0012,0.0278));
#1792=CARTESIAN_POINT('',(-0.007,0.,0.0278));
#1793=CARTESIAN_POINT('',(-0.007,0.,0.0278));
#1794=CARTESIAN_POINT('',(-0.007,0.0012,0.0278));
#1795=CARTESIAN_POINT('',(-0.007,0.0012,0.0278));
#1796=CARTESIAN_POINT('',(-0.007,0.0012,0.0278));
#1797=CARTESIAN_POINT('',(-0.01365,0.0012,0.0278));
#1798=CARTESIAN_POINT('',(-0.01365,0.,0.0278));
#1799=CARTESIAN_POINT('',(-0.01365,0.,0.0278));
#1800=CARTESIAN_POINT('',(-0.01365,0.0012,0.0278));
#1801=CARTESIAN_POINT('',(-0.01365,0.0012,0.0278));
#1802=CARTESIAN_POINT('',(-0.01365,0.0012,0.0278));
#1803=CARTESIAN_POINT('',(-0.01365,0.0012,0.0278));
#1804=CARTESIAN_POINT('',(-0.01365,0.,0.0278));
#1805=CARTESIAN_POINT('',(-0.01365,0.0012,0.0278));
#1806=CARTESIAN_POINT('',(0.,0.,0.));
#1807=CARTESIAN_POINT('',(-0.01165,0.,0.0258));
#1808=CARTESIAN_POINT('',(-0.01165,0.,0.0268));
#1809=CARTESIAN_POINT('',(-0.01165,0.,0.002));
#1810=CARTESIAN_POINT('',(-0.01165,0.,0.003));
#1811=CARTESIAN_POINT('',(0.01165,0.,0.002));
#1812=CARTESIAN_POINT('',(0.01165,0.,0.003));
#1813=CARTESIAN_POINT('',(0.01165,0.,0.0258));
#1814=CARTESIAN_POINT('',(0.01165,0.,0.0268));
#1815=CARTESIAN_POINT('',(0.,0.0012,0.));
#1816=CARTESIAN_POINT('',(0.01335,0.0012,0.00442));
#1817=CARTESIAN_POINT('',(0.01335,0.0012,0.00442));
#1818=CARTESIAN_POINT('',(-0.01335,0.0012,0.00442));
#1819=CARTESIAN_POINT('',(-0.01335,0.0012,0.00442));
#1820=CARTESIAN_POINT('',(-0.01335,0.0012,0.00442));
#1821=CARTESIAN_POINT('',(0.01165,0.0012,0.0258));
#1822=CARTESIAN_POINT('',(0.01165,0.0012,0.0268));
#1823=CARTESIAN_POINT('',(-0.01165,0.0012,0.002));
#1824=CARTESIAN_POINT('',(-0.01165,0.0012,0.003));
#1825=CARTESIAN_POINT('',(0.01165,0.0012,0.002));
#1826=CARTESIAN_POINT('',(0.01165,0.0012,0.003));
#1827=CARTESIAN_POINT('',(-0.01165,0.0012,0.0258));
#1828=CARTESIAN_POINT('',(-0.01165,0.0012,0.0268));
#1829=CARTESIAN_POINT('',(-0.01335,0.0025,0.00442));
#1830=CARTESIAN_POINT('',(-0.01335,0.0025,0.00442));
#1831=CARTESIAN_POINT('',(-0.01335,0.0025,0.00442));
#1832=CARTESIAN_POINT('',(-0.01335,0.0025,0.00442));
#1833=CARTESIAN_POINT('',(-0.01335,0.0025,0.00442));
#1834=CARTESIAN_POINT('',(0.01335,0.0025,0.00442));
#1835=CARTESIAN_POINT('',(0.01335,0.0025,0.00442));
#1836=CARTESIAN_POINT('',(-0.01335,0.0025,0.00442));
#1837=CARTESIAN_POINT('',(0.01335,0.0025,0.00442));
#1838=CARTESIAN_POINT('',(0.01335,0.0025,0.00442));
#1839=CARTESIAN_POINT('',(0.,0.0025,0.));
#1840=CARTESIAN_POINT('',(-0.01165,0.0012,0.002));
#1841=CARTESIAN_POINT('',(0.01165,0.0012,0.002));
#1842=CARTESIAN_POINT('',(0.01165,0.0012,0.0258));
#1843=CARTESIAN_POINT('',(-0.01165,0.0012,0.0258));
#1844=MECHANICAL_DESIGN_GEOMETRIC_PRESENTATION_REPRESENTATION('',(#1046,
#12,#13,#14,#15,#16,#17,#18,#19,#20,#21,#22,#23,#24,#25,#26),#1845);
#1845=(
GEOMETRIC_REPRESENTATION_CONTEXT(3)
GLOBAL_UNCERTAINTY_ASSIGNED_CONTEXT((#1846))
GLOBAL_UNIT_ASSIGNED_CONTEXT((#1849,#1848,#1847))
REPRESENTATION_CONTEXT('OLED TFT 0.96 inch 64x128 monochrome',
'TOP_LEVEL_ASSEMBLY_PART')
);
#1846=UNCERTAINTY_MEASURE_WITH_UNIT(LENGTH_MEASURE(2.E-5),#1849,
'DISTANCE_ACCURACY_VALUE','Maximum Tolerance applied to model');
#1847=(
NAMED_UNIT(*)
SI_UNIT($,.STERADIAN.)
SOLID_ANGLE_UNIT()
);
#1848=(
NAMED_UNIT(*)
PLANE_ANGLE_UNIT()
SI_UNIT($,.RADIAN.)
);
#1849=(
LENGTH_UNIT()
NAMED_UNIT(*)
SI_UNIT($,.METRE.)
);
#1850=PRODUCT_DEFINITION_SHAPE('','',#1851);
#1851=PRODUCT_DEFINITION('','',#1853,#1852);
#1852=PRODUCT_DEFINITION_CONTEXT('',#1859,'design');
#1853=PRODUCT_DEFINITION_FORMATION_WITH_SPECIFIED_SOURCE('','',#1855,
 .NOT_KNOWN.);
#1854=PRODUCT_RELATED_PRODUCT_CATEGORY('','',(#1855));
#1855=PRODUCT('OLED TFT 0.96 inch 64x128 monochrome',
'OLED TFT 0.96 inch 64x128 monochrome',
'OLED TFT 0.96 inch 64x128 monochrome',(#1857));
#1856=PRODUCT_CATEGORY('','');
#1857=PRODUCT_CONTEXT('',#1859,'mechanical');
#1858=APPLICATION_PROTOCOL_DEFINITION('international standard',
'ap242_managed_model_based_3d_engineering',2020,#1859);
#1859=APPLICATION_CONTEXT('managed model based 3d engineering');
ENDSEC;
END-ISO-10303-21;
