ISO-10303-21;
HEADER;
/* Generated by software containing ST-Developer
 * from STEP Tools, Inc. (www.steptools.com) 
 */
/* OPTION: using custom renumber hook */

FILE_DESCRIPTION(
/* description */ ('STEP AP242 Edition 2',
'CAx-IF Rec.Pracs.---Representation and Presentation of Product Manufa
cturing Information (PMI)---4.0---2014-10-13',
'CAx-IF Rec.Pracs.---3D Tessellated Geometry---0.4---2014-09-14','2;1',
'CAx-IF Rec.Pracs.---User Defined Attributes---1.5---2016-08-15'),
/* implementation_level */ '2;1');

FILE_NAME(
/* name */ 'Part Studio 1 - Part 2',
/* time_stamp */ '2026-06-30T12:59:53Z',
/* author */ (''),
/* organization */ (''),
/* preprocessor_version */ 'ST-DEVELOPER v20',
/* originating_system */ 'ONSHAPE BY PTC INC, 1.217',
/* authorisation */ '  ');

FILE_SCHEMA (('AP242_MANAGED_MODEL_BASED_3D_ENGINEERING_MIM_LF { 1 0 10303 442 3 1 4 }'));
ENDSEC;

DATA;
#10=SHAPE_REPRESENTATION_RELATIONSHIP('','',#422,#11);
#11=ADVANCED_BREP_SHAPE_REPRESENTATION('',(#420),#735);
#12=PLANE('',#433);
#13=PLANE('',#439);
#14=PLANE('',#443);
#15=PLANE('',#444);
#16=PLANE('',#445);
#17=PLANE('',#449);
#18=PLANE('',#450);
#19=PLANE('',#451);
#20=PLANE('',#452);
#21=PLANE('',#456);
#22=PLANE('',#458);
#23=PLANE('',#461);
#24=PLANE('',#465);
#25=PLANE('',#466);
#26=B_SPLINE_CURVE_WITH_KNOTS('',3,(#596,#597,#598,#599),.UNSPECIFIED.,
 .F.,.F.,(4,4),(0.,0.00238502695088253),.UNSPECIFIED.);
#27=B_SPLINE_CURVE_WITH_KNOTS('',3,(#603,#604,#605,#606),.UNSPECIFIED.,
 .F.,.F.,(4,4),(0.00239018600019381,0.00519437269287439),.UNSPECIFIED.);
#28=B_SPLINE_CURVE_WITH_KNOTS('',3,(#610,#611,#612,#613,#614),
 .UNSPECIFIED.,.F.,.F.,(4,1,4),(0.,0.0025971835541045,0.00519436710820899),
 .UNSPECIFIED.);
#29=B_SPLINE_CURVE_WITH_KNOTS('',3,(#618,#619,#620,#621,#622,#623,#624),
 .UNSPECIFIED.,.F.,.F.,(4,1,1,1,4),(0.,0.00297521132133876,0.00595042264267752,
0.00892563396401628,0.011900845285355),.UNSPECIFIED.);
#30=B_SPLINE_CURVE_WITH_KNOTS('',3,(#630,#631,#632,#633,#634),
 .UNSPECIFIED.,.F.,.F.,(4,1,4),(0.,0.00259718385996891,0.00519436771993782),
 .UNSPECIFIED.);
#31=B_SPLINE_CURVE_WITH_KNOTS('',3,(#643,#644,#645,#646,#647,#648,#649),
 .UNSPECIFIED.,.F.,.F.,(4,1,1,1,4),(1.97813354480546E-17,0.00297521382641794,
0.00595042765283585,0.00892564147925377,0.0119008553056717),
 .UNSPECIFIED.);
#32=LINE('',#593,#60);
#33=LINE('',#601,#61);
#34=LINE('',#608,#62);
#35=LINE('',#616,#63);
#36=LINE('',#626,#64);
#37=LINE('',#637,#65);
#38=LINE('',#641,#66);
#39=LINE('',#651,#67);
#40=LINE('',#657,#68);
#41=LINE('',#661,#69);
#42=LINE('',#665,#70);
#43=LINE('',#667,#71);
#44=LINE('',#672,#72);
#45=LINE('',#676,#73);
#46=LINE('',#682,#74);
#47=LINE('',#685,#75);
#48=LINE('',#687,#76);
#49=LINE('',#688,#77);
#50=LINE('',#690,#78);
#51=LINE('',#692,#79);
#52=LINE('',#693,#80);
#53=LINE('',#697,#81);
#54=LINE('',#701,#82);
#55=LINE('',#703,#83);
#56=LINE('',#705,#84);
#57=LINE('',#707,#85);
#58=LINE('',#708,#86);
#59=LINE('',#710,#87);
#60=VECTOR('',#475,1.);
#61=VECTOR('',#476,1.);
#62=VECTOR('',#477,1.);
#63=VECTOR('',#478,1.);
#64=VECTOR('',#479,1.);
#65=VECTOR('',#484,1.);
#66=VECTOR('',#487,1.);
#67=VECTOR('',#488,1.);
#68=VECTOR('',#495,1.);
#69=VECTOR('',#500,1.);
#70=VECTOR('',#503,1.);
#71=VECTOR('',#504,1.);
#72=VECTOR('',#511,1.);
#73=VECTOR('',#514,1.);
#74=VECTOR('',#525,1.);
#75=VECTOR('',#526,1.);
#76=VECTOR('',#527,1.);
#77=VECTOR('',#528,1.);
#78=VECTOR('',#531,1.);
#79=VECTOR('',#532,1.);
#80=VECTOR('',#533,1.);
#81=VECTOR('',#538,1.);
#82=VECTOR('',#543,1.);
#83=VECTOR('',#546,1.);
#84=VECTOR('',#549,1.);
#85=VECTOR('',#550,1.);
#86=VECTOR('',#551,1.);
#87=VECTOR('',#552,1.);
#88=ORIENTED_EDGE('',*,*,#198,.T.);
#89=ORIENTED_EDGE('',*,*,#199,.F.);
#90=ORIENTED_EDGE('',*,*,#200,.F.);
#91=ORIENTED_EDGE('',*,*,#201,.T.);
#92=ORIENTED_EDGE('',*,*,#202,.T.);
#93=ORIENTED_EDGE('',*,*,#203,.T.);
#94=ORIENTED_EDGE('',*,*,#204,.F.);
#95=ORIENTED_EDGE('',*,*,#205,.F.);
#96=ORIENTED_EDGE('',*,*,#206,.T.);
#97=ORIENTED_EDGE('',*,*,#207,.T.);
#98=ORIENTED_EDGE('',*,*,#208,.F.);
#99=ORIENTED_EDGE('',*,*,#209,.F.);
#100=ORIENTED_EDGE('',*,*,#210,.T.);
#101=ORIENTED_EDGE('',*,*,#211,.T.);
#102=ORIENTED_EDGE('',*,*,#212,.F.);
#103=ORIENTED_EDGE('',*,*,#213,.T.);
#104=ORIENTED_EDGE('',*,*,#214,.F.);
#105=ORIENTED_EDGE('',*,*,#215,.T.);
#106=ORIENTED_EDGE('',*,*,#202,.F.);
#107=ORIENTED_EDGE('',*,*,#216,.T.);
#108=ORIENTED_EDGE('',*,*,#217,.T.);
#109=ORIENTED_EDGE('',*,*,#218,.F.);
#110=ORIENTED_EDGE('',*,*,#219,.F.);
#111=ORIENTED_EDGE('',*,*,#220,.F.);
#112=ORIENTED_EDGE('',*,*,#199,.T.);
#113=ORIENTED_EDGE('',*,*,#221,.F.);
#114=ORIENTED_EDGE('',*,*,#222,.T.);
#115=ORIENTED_EDGE('',*,*,#223,.T.);
#116=ORIENTED_EDGE('',*,*,#206,.F.);
#117=ORIENTED_EDGE('',*,*,#224,.T.);
#118=ORIENTED_EDGE('',*,*,#213,.F.);
#119=ORIENTED_EDGE('',*,*,#225,.T.);
#120=ORIENTED_EDGE('',*,*,#226,.F.);
#121=ORIENTED_EDGE('',*,*,#227,.F.);
#122=ORIENTED_EDGE('',*,*,#224,.F.);
#123=ORIENTED_EDGE('',*,*,#205,.T.);
#124=ORIENTED_EDGE('',*,*,#228,.T.);
#125=ORIENTED_EDGE('',*,*,#214,.T.);
#126=ORIENTED_EDGE('',*,*,#228,.F.);
#127=ORIENTED_EDGE('',*,*,#204,.T.);
#128=ORIENTED_EDGE('',*,*,#229,.T.);
#129=ORIENTED_EDGE('',*,*,#209,.T.);
#130=ORIENTED_EDGE('',*,*,#230,.F.);
#131=ORIENTED_EDGE('',*,*,#231,.T.);
#132=ORIENTED_EDGE('',*,*,#232,.T.);
#133=ORIENTED_EDGE('',*,*,#210,.F.);
#134=ORIENTED_EDGE('',*,*,#229,.F.);
#135=ORIENTED_EDGE('',*,*,#203,.F.);
#136=ORIENTED_EDGE('',*,*,#218,.T.);
#137=ORIENTED_EDGE('',*,*,#233,.T.);
#138=ORIENTED_EDGE('',*,*,#207,.F.);
#139=ORIENTED_EDGE('',*,*,#227,.T.);
#140=ORIENTED_EDGE('',*,*,#234,.T.);
#141=ORIENTED_EDGE('',*,*,#235,.F.);
#142=ORIENTED_EDGE('',*,*,#222,.F.);
#143=ORIENTED_EDGE('',*,*,#236,.T.);
#144=ORIENTED_EDGE('',*,*,#232,.F.);
#145=ORIENTED_EDGE('',*,*,#237,.T.);
#146=ORIENTED_EDGE('',*,*,#238,.T.);
#147=ORIENTED_EDGE('',*,*,#211,.F.);
#148=ORIENTED_EDGE('',*,*,#239,.T.);
#149=ORIENTED_EDGE('',*,*,#240,.F.);
#150=ORIENTED_EDGE('',*,*,#223,.F.);
#151=ORIENTED_EDGE('',*,*,#235,.T.);
#152=ORIENTED_EDGE('',*,*,#226,.T.);
#153=ORIENTED_EDGE('',*,*,#241,.T.);
#154=ORIENTED_EDGE('',*,*,#239,.F.);
#155=ORIENTED_EDGE('',*,*,#234,.F.);
#156=ORIENTED_EDGE('',*,*,#242,.F.);
#157=ORIENTED_EDGE('',*,*,#243,.T.);
#158=ORIENTED_EDGE('',*,*,#233,.F.);
#159=ORIENTED_EDGE('',*,*,#217,.F.);
#160=ORIENTED_EDGE('',*,*,#244,.T.);
#161=ORIENTED_EDGE('',*,*,#245,.F.);
#162=ORIENTED_EDGE('',*,*,#219,.T.);
#163=ORIENTED_EDGE('',*,*,#240,.T.);
#164=ORIENTED_EDGE('',*,*,#241,.F.);
#165=ORIENTED_EDGE('',*,*,#225,.F.);
#166=ORIENTED_EDGE('',*,*,#212,.T.);
#167=ORIENTED_EDGE('',*,*,#238,.F.);
#168=ORIENTED_EDGE('',*,*,#236,.F.);
#169=ORIENTED_EDGE('',*,*,#221,.T.);
#170=ORIENTED_EDGE('',*,*,#208,.T.);
#171=ORIENTED_EDGE('',*,*,#246,.F.);
#172=ORIENTED_EDGE('',*,*,#215,.F.);
#173=ORIENTED_EDGE('',*,*,#246,.T.);
#174=ORIENTED_EDGE('',*,*,#247,.F.);
#175=ORIENTED_EDGE('',*,*,#248,.F.);
#176=ORIENTED_EDGE('',*,*,#247,.T.);
#177=ORIENTED_EDGE('',*,*,#230,.T.);
#178=ORIENTED_EDGE('',*,*,#243,.F.);
#179=ORIENTED_EDGE('',*,*,#249,.T.);
#180=ORIENTED_EDGE('',*,*,#248,.T.);
#181=ORIENTED_EDGE('',*,*,#249,.F.);
#182=ORIENTED_EDGE('',*,*,#242,.T.);
#183=ORIENTED_EDGE('',*,*,#237,.F.);
#184=ORIENTED_EDGE('',*,*,#231,.F.);
#185=ORIENTED_EDGE('',*,*,#250,.F.);
#186=ORIENTED_EDGE('',*,*,#198,.F.);
#187=ORIENTED_EDGE('',*,*,#251,.T.);
#188=ORIENTED_EDGE('',*,*,#250,.T.);
#189=ORIENTED_EDGE('',*,*,#251,.F.);
#190=ORIENTED_EDGE('',*,*,#201,.F.);
#191=ORIENTED_EDGE('',*,*,#252,.T.);
#192=ORIENTED_EDGE('',*,*,#244,.F.);
#193=ORIENTED_EDGE('',*,*,#216,.F.);
#194=ORIENTED_EDGE('',*,*,#252,.F.);
#195=ORIENTED_EDGE('',*,*,#200,.T.);
#196=ORIENTED_EDGE('',*,*,#220,.T.);
#197=ORIENTED_EDGE('',*,*,#245,.T.);
#198=EDGE_CURVE('',#253,#253,#292,.T.);
#199=EDGE_CURVE('',#254,#255,#32,.F.);
#200=EDGE_CURVE('',#256,#254,#26,.T.);
#201=EDGE_CURVE('',#256,#257,#33,.F.);
#202=EDGE_CURVE('',#257,#258,#27,.T.);
#203=EDGE_CURVE('',#258,#259,#34,.T.);
#204=EDGE_CURVE('',#260,#259,#28,.T.);
#205=EDGE_CURVE('',#261,#260,#35,.F.);
#206=EDGE_CURVE('',#261,#262,#29,.T.);
#207=EDGE_CURVE('',#262,#263,#36,.F.);
#208=EDGE_CURVE('',#255,#263,#293,.T.);
#209=EDGE_CURVE('',#264,#265,#30,.T.);
#210=EDGE_CURVE('',#264,#266,#37,.F.);
#211=EDGE_CURVE('',#266,#267,#294,.T.);
#212=EDGE_CURVE('',#268,#267,#38,.F.);
#213=EDGE_CURVE('',#268,#269,#31,.T.);
#214=EDGE_CURVE('',#265,#269,#39,.T.);
#215=EDGE_CURVE('',#270,#270,#295,.F.);
#216=EDGE_CURVE('',#257,#271,#296,.T.);
#217=EDGE_CURVE('',#271,#272,#40,.T.);
#218=EDGE_CURVE('',#258,#272,#297,.T.);
#219=EDGE_CURVE('',#273,#274,#41,.T.);
#220=EDGE_CURVE('',#254,#273,#298,.T.);
#221=EDGE_CURVE('',#275,#255,#42,.T.);
#222=EDGE_CURVE('',#275,#276,#43,.T.);
#223=EDGE_CURVE('',#276,#274,#299,.T.);
#224=EDGE_CURVE('',#261,#269,#300,.T.);
#225=EDGE_CURVE('',#268,#277,#44,.T.);
#226=EDGE_CURVE('',#278,#277,#301,.T.);
#227=EDGE_CURVE('',#262,#278,#45,.T.);
#228=EDGE_CURVE('',#260,#265,#302,.T.);
#229=EDGE_CURVE('',#259,#264,#303,.T.);
#230=EDGE_CURVE('',#279,#280,#46,.T.);
#231=EDGE_CURVE('',#279,#281,#47,.T.);
#232=EDGE_CURVE('',#281,#266,#48,.T.);
#233=EDGE_CURVE('',#272,#280,#49,.T.);
#234=EDGE_CURVE('',#278,#282,#50,.T.);
#235=EDGE_CURVE('',#276,#282,#51,.T.);
#236=EDGE_CURVE('',#275,#263,#52,.T.);
#237=EDGE_CURVE('',#281,#283,#304,.T.);
#238=EDGE_CURVE('',#283,#267,#53,.T.);
#239=EDGE_CURVE('',#282,#284,#305,.T.);
#240=EDGE_CURVE('',#274,#284,#54,.T.);
#241=EDGE_CURVE('',#277,#284,#55,.T.);
#242=EDGE_CURVE('',#285,#283,#56,.T.);
#243=EDGE_CURVE('',#285,#280,#57,.T.);
#244=EDGE_CURVE('',#271,#286,#58,.T.);
#245=EDGE_CURVE('',#273,#286,#59,.T.);
#246=EDGE_CURVE('',#287,#287,#306,.T.);
#247=EDGE_CURVE('',#288,#288,#307,.T.);
#248=EDGE_CURVE('',#289,#289,#308,.T.);
#249=EDGE_CURVE('',#285,#279,#309,.T.);
#250=EDGE_CURVE('',#290,#290,#310,.F.);
#251=EDGE_CURVE('',#291,#291,#311,.T.);
#252=EDGE_CURVE('',#256,#286,#312,.T.);
#253=VERTEX_POINT('',#592);
#254=VERTEX_POINT('',#594);
#255=VERTEX_POINT('',#595);
#256=VERTEX_POINT('',#600);
#257=VERTEX_POINT('',#602);
#258=VERTEX_POINT('',#607);
#259=VERTEX_POINT('',#609);
#260=VERTEX_POINT('',#615);
#261=VERTEX_POINT('',#617);
#262=VERTEX_POINT('',#625);
#263=VERTEX_POINT('',#627);
#264=VERTEX_POINT('',#635);
#265=VERTEX_POINT('',#636);
#266=VERTEX_POINT('',#638);
#267=VERTEX_POINT('',#640);
#268=VERTEX_POINT('',#642);
#269=VERTEX_POINT('',#650);
#270=VERTEX_POINT('',#653);
#271=VERTEX_POINT('',#656);
#272=VERTEX_POINT('',#658);
#273=VERTEX_POINT('',#662);
#274=VERTEX_POINT('',#663);
#275=VERTEX_POINT('',#666);
#276=VERTEX_POINT('',#668);
#277=VERTEX_POINT('',#673);
#278=VERTEX_POINT('',#675);
#279=VERTEX_POINT('',#683);
#280=VERTEX_POINT('',#684);
#281=VERTEX_POINT('',#686);
#282=VERTEX_POINT('',#691);
#283=VERTEX_POINT('',#696);
#284=VERTEX_POINT('',#700);
#285=VERTEX_POINT('',#706);
#286=VERTEX_POINT('',#709);
#287=VERTEX_POINT('',#714);
#288=VERTEX_POINT('',#717);
#289=VERTEX_POINT('',#720);
#290=VERTEX_POINT('',#726);
#291=VERTEX_POINT('',#729);
#292=CIRCLE('',#425,0.004);
#293=CIRCLE('',#426,0.004);
#294=CIRCLE('',#428,0.004);
#295=CIRCLE('',#429,0.004);
#296=CIRCLE('',#431,0.162885629296303);
#297=CIRCLE('',#432,0.162885629296303);
#298=CIRCLE('',#434,0.163851179061769);
#299=CIRCLE('',#435,0.161212570930953);
#300=CIRCLE('',#437,0.166212570930953);
#301=CIRCLE('',#438,0.166212570930953);
#302=CIRCLE('',#440,0.164885629296303);
#303=CIRCLE('',#442,0.164885629296303);
#304=CIRCLE('',#446,0.00125);
#305=CIRCLE('',#448,0.161212570930953);
#306=CIRCLE('',#453,0.0025);
#307=CIRCLE('',#455,0.0025);
#308=CIRCLE('',#457,0.00125);
#309=CIRCLE('',#459,0.00125);
#310=CIRCLE('',#462,0.00249681990288865);
#311=CIRCLE('',#464,0.00249681990288865);
#312=CIRCLE('',#467,0.163851179061769);
#313=EDGE_LOOP('',(#88));
#314=EDGE_LOOP('',(#89,#90,#91,#92,#93,#94,#95,#96,#97,#98));
#315=EDGE_LOOP('',(#99,#100,#101,#102,#103,#104));
#316=EDGE_LOOP('',(#105));
#317=EDGE_LOOP('',(#106,#107,#108,#109));
#318=EDGE_LOOP('',(#110,#111,#112,#113,#114,#115));
#319=EDGE_LOOP('',(#116,#117,#118,#119,#120,#121));
#320=EDGE_LOOP('',(#122,#123,#124,#125));
#321=EDGE_LOOP('',(#126,#127,#128,#129));
#322=EDGE_LOOP('',(#130,#131,#132,#133,#134,#135,#136,#137));
#323=EDGE_LOOP('',(#138,#139,#140,#141,#142,#143));
#324=EDGE_LOOP('',(#144,#145,#146,#147));
#325=EDGE_LOOP('',(#148,#149,#150,#151));
#326=EDGE_LOOP('',(#152,#153,#154,#155));
#327=EDGE_LOOP('',(#156,#157,#158,#159,#160,#161,#162,#163,#164,#165,#166,
#167));
#328=EDGE_LOOP('',(#168,#169,#170));
#329=EDGE_LOOP('',(#171));
#330=EDGE_LOOP('',(#172));
#331=EDGE_LOOP('',(#173));
#332=EDGE_LOOP('',(#174));
#333=EDGE_LOOP('',(#175));
#334=EDGE_LOOP('',(#176));
#335=EDGE_LOOP('',(#177,#178,#179));
#336=EDGE_LOOP('',(#180));
#337=EDGE_LOOP('',(#181,#182,#183,#184));
#338=EDGE_LOOP('',(#185));
#339=EDGE_LOOP('',(#186));
#340=EDGE_LOOP('',(#187));
#341=EDGE_LOOP('',(#188));
#342=EDGE_LOOP('',(#189));
#343=EDGE_LOOP('',(#190,#191,#192,#193));
#344=EDGE_LOOP('',(#194,#195,#196,#197));
#345=FACE_BOUND('',#313,.T.);
#346=FACE_BOUND('',#314,.T.);
#347=FACE_BOUND('',#315,.T.);
#348=FACE_BOUND('',#316,.T.);
#349=FACE_BOUND('',#317,.T.);
#350=FACE_BOUND('',#318,.T.);
#351=FACE_BOUND('',#319,.T.);
#352=FACE_BOUND('',#320,.T.);
#353=FACE_BOUND('',#321,.T.);
#354=FACE_BOUND('',#322,.T.);
#355=FACE_BOUND('',#323,.T.);
#356=FACE_BOUND('',#324,.T.);
#357=FACE_BOUND('',#325,.T.);
#358=FACE_BOUND('',#326,.T.);
#359=FACE_BOUND('',#327,.T.);
#360=FACE_BOUND('',#328,.T.);
#361=FACE_BOUND('',#329,.T.);
#362=FACE_BOUND('',#330,.T.);
#363=FACE_BOUND('',#331,.T.);
#364=FACE_BOUND('',#332,.T.);
#365=FACE_BOUND('',#333,.T.);
#366=FACE_BOUND('',#334,.T.);
#367=FACE_BOUND('',#335,.T.);
#368=FACE_BOUND('',#336,.T.);
#369=FACE_BOUND('',#337,.T.);
#370=FACE_BOUND('',#338,.T.);
#371=FACE_BOUND('',#339,.T.);
#372=FACE_BOUND('',#340,.T.);
#373=FACE_BOUND('',#341,.T.);
#374=FACE_BOUND('',#342,.T.);
#375=FACE_BOUND('',#343,.T.);
#376=FACE_BOUND('',#344,.T.);
#377=CYLINDRICAL_SURFACE('',#424,0.004);
#378=CYLINDRICAL_SURFACE('',#427,0.004);
#379=CYLINDRICAL_SURFACE('',#430,0.162885629296303);
#380=CYLINDRICAL_SURFACE('',#436,0.166212570930953);
#381=CYLINDRICAL_SURFACE('',#441,0.164885629296303);
#382=CYLINDRICAL_SURFACE('',#447,0.161212570930953);
#383=CYLINDRICAL_SURFACE('',#454,0.0025);
#384=CYLINDRICAL_SURFACE('',#460,0.00125);
#385=CYLINDRICAL_SURFACE('',#463,0.00249681990288865);
#386=CYLINDRICAL_SURFACE('',#468,0.163851179061769);
#387=ADVANCED_FACE('',(#345,#346),#377,.T.);
#388=ADVANCED_FACE('',(#347,#348),#378,.T.);
#389=ADVANCED_FACE('',(#349),#379,.T.);
#390=ADVANCED_FACE('',(#350),#12,.T.);
#391=ADVANCED_FACE('',(#351),#380,.T.);
#392=ADVANCED_FACE('',(#352),#13,.T.);
#393=ADVANCED_FACE('',(#353),#381,.F.);
#394=ADVANCED_FACE('',(#354),#14,.F.);
#395=ADVANCED_FACE('',(#355),#15,.F.);
#396=ADVANCED_FACE('',(#356),#16,.F.);
#397=ADVANCED_FACE('',(#357),#382,.F.);
#398=ADVANCED_FACE('',(#358),#17,.F.);
#399=ADVANCED_FACE('',(#359),#18,.T.);
#400=ADVANCED_FACE('',(#360),#19,.T.);
#401=ADVANCED_FACE('',(#361,#362),#20,.T.);
#402=ADVANCED_FACE('',(#363,#364),#383,.F.);
#403=ADVANCED_FACE('',(#365,#366),#21,.T.);
#404=ADVANCED_FACE('',(#367),#22,.T.);
#405=ADVANCED_FACE('',(#368,#369),#384,.F.);
#406=ADVANCED_FACE('',(#370,#371),#23,.F.);
#407=ADVANCED_FACE('',(#372,#373),#385,.F.);
#408=ADVANCED_FACE('',(#374),#24,.F.);
#409=ADVANCED_FACE('',(#375),#25,.T.);
#410=ADVANCED_FACE('',(#376),#386,.T.);
#411=CLOSED_SHELL('',(#387,#388,#389,#390,#391,#392,#393,#394,#395,#396,
#397,#398,#399,#400,#401,#402,#403,#404,#405,#406,#407,#408,#409,#410));
#412=STYLED_ITEM('',(#413),#420);
#413=PRESENTATION_STYLE_ASSIGNMENT((#414));
#414=SURFACE_STYLE_USAGE(.BOTH.,#415);
#415=SURFACE_SIDE_STYLE('',(#416));
#416=SURFACE_STYLE_FILL_AREA(#417);
#417=FILL_AREA_STYLE('',(#418));
#418=FILL_AREA_STYLE_COLOUR('',#419);
#419=COLOUR_RGB('',0.647058823529412,0.647058823529412,0.647058823529412);
#420=MANIFOLD_SOLID_BREP('Part 2',#411);
#421=SHAPE_DEFINITION_REPRESENTATION(#740,#422);
#422=SHAPE_REPRESENTATION('Part 2',(#423),#735);
#423=AXIS2_PLACEMENT_3D('',#589,#469,#470);
#424=AXIS2_PLACEMENT_3D('',#590,#471,#472);
#425=AXIS2_PLACEMENT_3D('',#591,#473,#474);
#426=AXIS2_PLACEMENT_3D('',#628,#480,#481);
#427=AXIS2_PLACEMENT_3D('',#629,#482,#483);
#428=AXIS2_PLACEMENT_3D('',#639,#485,#486);
#429=AXIS2_PLACEMENT_3D('',#652,#489,#490);
#430=AXIS2_PLACEMENT_3D('',#654,#491,#492);
#431=AXIS2_PLACEMENT_3D('',#655,#493,#494);
#432=AXIS2_PLACEMENT_3D('',#659,#496,#497);
#433=AXIS2_PLACEMENT_3D('',#660,#498,#499);
#434=AXIS2_PLACEMENT_3D('',#664,#501,#502);
#435=AXIS2_PLACEMENT_3D('',#669,#505,#506);
#436=AXIS2_PLACEMENT_3D('',#670,#507,#508);
#437=AXIS2_PLACEMENT_3D('',#671,#509,#510);
#438=AXIS2_PLACEMENT_3D('',#674,#512,#513);
#439=AXIS2_PLACEMENT_3D('',#677,#515,#516);
#440=AXIS2_PLACEMENT_3D('',#678,#517,#518);
#441=AXIS2_PLACEMENT_3D('',#679,#519,#520);
#442=AXIS2_PLACEMENT_3D('',#680,#521,#522);
#443=AXIS2_PLACEMENT_3D('',#681,#523,#524);
#444=AXIS2_PLACEMENT_3D('',#689,#529,#530);
#445=AXIS2_PLACEMENT_3D('',#694,#534,#535);
#446=AXIS2_PLACEMENT_3D('',#695,#536,#537);
#447=AXIS2_PLACEMENT_3D('',#698,#539,#540);
#448=AXIS2_PLACEMENT_3D('',#699,#541,#542);
#449=AXIS2_PLACEMENT_3D('',#702,#544,#545);
#450=AXIS2_PLACEMENT_3D('',#704,#547,#548);
#451=AXIS2_PLACEMENT_3D('',#711,#553,#554);
#452=AXIS2_PLACEMENT_3D('',#712,#555,#556);
#453=AXIS2_PLACEMENT_3D('',#713,#557,#558);
#454=AXIS2_PLACEMENT_3D('',#715,#559,#560);
#455=AXIS2_PLACEMENT_3D('',#716,#561,#562);
#456=AXIS2_PLACEMENT_3D('',#718,#563,#564);
#457=AXIS2_PLACEMENT_3D('',#719,#565,#566);
#458=AXIS2_PLACEMENT_3D('',#721,#567,#568);
#459=AXIS2_PLACEMENT_3D('',#722,#569,#570);
#460=AXIS2_PLACEMENT_3D('',#723,#571,#572);
#461=AXIS2_PLACEMENT_3D('',#724,#573,#574);
#462=AXIS2_PLACEMENT_3D('',#725,#575,#576);
#463=AXIS2_PLACEMENT_3D('',#727,#577,#578);
#464=AXIS2_PLACEMENT_3D('',#728,#579,#580);
#465=AXIS2_PLACEMENT_3D('',#730,#581,#582);
#466=AXIS2_PLACEMENT_3D('',#731,#583,#584);
#467=AXIS2_PLACEMENT_3D('',#732,#585,#586);
#468=AXIS2_PLACEMENT_3D('',#733,#587,#588);
#469=DIRECTION('',(0.,0.,1.));
#470=DIRECTION('',(1.,0.,0.));
#471=DIRECTION('',(-1.,0.,0.));
#472=DIRECTION('',(0.,0.,1.));
#473=DIRECTION('',(1.,0.,0.));
#474=DIRECTION('',(0.,0.,-1.));
#475=DIRECTION('',(-1.,0.,0.));
#476=DIRECTION('',(-1.,0.,0.));
#477=DIRECTION('',(-1.,0.,0.));
#478=DIRECTION('',(-1.,0.,0.));
#479=DIRECTION('',(-1.,0.,0.));
#480=DIRECTION('',(1.,0.,0.));
#481=DIRECTION('',(0.,0.,-1.));
#482=DIRECTION('',(1.,0.,0.));
#483=DIRECTION('',(0.,0.,-1.));
#484=DIRECTION('',(1.,0.,0.));
#485=DIRECTION('',(1.,0.,0.));
#486=DIRECTION('',(0.,0.,-1.));
#487=DIRECTION('',(1.,0.,0.));
#488=DIRECTION('',(1.,0.,0.));
#489=DIRECTION('',(1.,0.,0.));
#490=DIRECTION('',(0.,0.,-1.));
#491=DIRECTION('',(0.,0.,-1.));
#492=DIRECTION('',(-1.,0.,0.));
#493=DIRECTION('',(0.,0.,-1.));
#494=DIRECTION('',(-1.,0.,0.));
#495=DIRECTION('',(0.,0.,-1.));
#496=DIRECTION('',(0.,0.,-1.));
#497=DIRECTION('',(-1.,0.,0.));
#498=DIRECTION('',(0.,0.,1.));
#499=DIRECTION('',(1.,0.,0.));
#500=DIRECTION('',(-1.,0.,0.));
#501=DIRECTION('',(0.,0.,-1.));
#502=DIRECTION('',(-1.,0.,0.));
#503=DIRECTION('',(0.,1.,0.));
#504=DIRECTION('',(1.,-1.22464679914735E-16,0.));
#505=DIRECTION('',(0.,0.,-1.));
#506=DIRECTION('',(-1.,0.,0.));
#507=DIRECTION('',(0.,0.,-1.));
#508=DIRECTION('',(-1.,0.,0.));
#509=DIRECTION('',(0.,0.,-1.));
#510=DIRECTION('',(-1.,0.,0.));
#511=DIRECTION('',(0.,0.,-1.));
#512=DIRECTION('',(0.,0.,-1.));
#513=DIRECTION('',(-1.,0.,0.));
#514=DIRECTION('',(0.,0.,-1.));
#515=DIRECTION('',(0.,0.,1.));
#516=DIRECTION('',(1.,0.,0.));
#517=DIRECTION('',(0.,0.,-1.));
#518=DIRECTION('',(-1.,0.,0.));
#519=DIRECTION('',(0.,0.,-1.));
#520=DIRECTION('',(-1.,0.,0.));
#521=DIRECTION('',(0.,0.,-1.));
#522=DIRECTION('',(-1.,0.,0.));
#523=DIRECTION('',(0.,0.,-1.));
#524=DIRECTION('',(-1.,0.,0.));
#525=DIRECTION('',(0.,-1.,0.));
#526=DIRECTION('',(1.,0.,0.));
#527=DIRECTION('',(0.,1.,0.));
#528=DIRECTION('',(1.,0.,0.));
#529=DIRECTION('',(1.22464679914735E-16,1.,0.));
#530=DIRECTION('',(-1.,1.22464679914735E-16,0.));
#531=DIRECTION('',(1.,-1.22464679914735E-16,0.));
#532=DIRECTION('',(0.,0.,-1.));
#533=DIRECTION('',(0.,0.,-1.));
#534=DIRECTION('',(1.,0.,0.));
#535=DIRECTION('',(0.,1.,0.));
#536=DIRECTION('',(1.,0.,0.));
#537=DIRECTION('',(0.,0.,-1.));
#538=DIRECTION('',(0.,0.,-1.));
#539=DIRECTION('',(0.,0.,-1.));
#540=DIRECTION('',(-1.,0.,0.));
#541=DIRECTION('',(0.,0.,-1.));
#542=DIRECTION('',(-1.,0.,0.));
#543=DIRECTION('',(0.,0.,-1.));
#544=DIRECTION('',(0.,0.,1.));
#545=DIRECTION('',(1.,0.,0.));
#546=DIRECTION('',(-1.,0.,0.));
#547=DIRECTION('',(0.,-1.,0.));
#548=DIRECTION('',(1.,0.,0.));
#549=DIRECTION('',(1.,0.,0.));
#550=DIRECTION('',(0.,0.,1.));
#551=DIRECTION('',(1.,0.,0.));
#552=DIRECTION('',(0.,0.,-1.));
#553=DIRECTION('',(1.,0.,0.));
#554=DIRECTION('',(0.,1.,0.));
#555=DIRECTION('',(1.,0.,0.));
#556=DIRECTION('',(0.,1.,0.));
#557=DIRECTION('',(1.,0.,0.));
#558=DIRECTION('',(0.,0.,-1.));
#559=DIRECTION('',(1.,0.,0.));
#560=DIRECTION('',(0.,0.,-1.));
#561=DIRECTION('',(1.,0.,0.));
#562=DIRECTION('',(0.,0.,-1.));
#563=DIRECTION('',(1.,0.,0.));
#564=DIRECTION('',(0.,1.,0.));
#565=DIRECTION('',(1.,0.,0.));
#566=DIRECTION('',(0.,0.,-1.));
#567=DIRECTION('',(1.,0.,0.));
#568=DIRECTION('',(0.,1.,0.));
#569=DIRECTION('',(1.,0.,0.));
#570=DIRECTION('',(0.,0.,-1.));
#571=DIRECTION('',(1.,0.,0.));
#572=DIRECTION('',(0.,0.,-1.));
#573=DIRECTION('',(1.,0.,0.));
#574=DIRECTION('',(0.,1.,0.));
#575=DIRECTION('',(1.,0.,0.));
#576=DIRECTION('',(0.,0.,-1.));
#577=DIRECTION('',(-1.,0.,0.));
#578=DIRECTION('',(0.,0.,1.));
#579=DIRECTION('',(1.,0.,0.));
#580=DIRECTION('',(0.,0.,-1.));
#581=DIRECTION('',(1.,0.,0.));
#582=DIRECTION('',(0.,1.,0.));
#583=DIRECTION('',(0.,0.,-1.));
#584=DIRECTION('',(-1.,0.,0.));
#585=DIRECTION('',(0.,0.,-1.));
#586=DIRECTION('',(-1.,0.,0.));
#587=DIRECTION('',(0.,0.,-1.));
#588=DIRECTION('',(-1.,0.,0.));
#589=CARTESIAN_POINT('',(0.,0.,0.));
#590=CARTESIAN_POINT('',(-0.1602,5.72458747072346E-17,0.175883623719215));
#591=CARTESIAN_POINT('',(-0.1657,5.72458747072346E-17,0.175883623719215));
#592=CARTESIAN_POINT('',(-0.1657,5.72458747072346E-17,0.171883623719215));
#593=CARTESIAN_POINT('',(-0.1602,0.000604171934600009,0.179837732502929));
#594=CARTESIAN_POINT('',(-0.161850065169975,0.000604171934600009,0.179837732502929));
#595=CARTESIAN_POINT('',(-0.1602,0.000604171934600009,0.179837732502929));
#596=CARTESIAN_POINT('',(-0.161828410147672,0.00273146634938571,0.178805796127232));
#597=CARTESIAN_POINT('',(-0.161838232134609,0.00214236134183575,0.179356455116401));
#598=CARTESIAN_POINT('',(-0.161847125624763,0.00140136996229599,0.179715923847427));
#599=CARTESIAN_POINT('',(-0.161850065169975,0.000604171934600013,0.179837732502929));
#600=CARTESIAN_POINT('',(-0.161828410147672,0.00273146634938571,0.178805796127232));
#601=CARTESIAN_POINT('',(-0.1602,0.00273146634938571,0.178805796127232));
#602=CARTESIAN_POINT('',(-0.160862725394225,0.00273146634938619,0.178805796127232));
#603=CARTESIAN_POINT('',(-0.160862725394225,0.00273146634938583,0.178805796127232));
#604=CARTESIAN_POINT('',(-0.160851222718425,0.0034173093694156,0.178164712416691));
#605=CARTESIAN_POINT('',(-0.160839768008421,0.00386649460789653,0.177279788817686));
#606=CARTESIAN_POINT('',(-0.160837140867924,0.00397413955625045,0.176337732502929));
#607=CARTESIAN_POINT('',(-0.160837140867924,0.00397413955625045,0.176337732502929));
#608=CARTESIAN_POINT('',(-0.1602,0.00397413955625045,0.176337732502929));
#609=CARTESIAN_POINT('',(-0.162837729186085,0.00397413955625045,0.176337732502929));
#610=CARTESIAN_POINT('',(-0.162884522392828,0.000604171934600009,0.179837732502929));
#611=CARTESIAN_POINT('',(-0.162881341436679,0.00147228646538994,0.179705088090696));
#612=CARTESIAN_POINT('',(-0.162860213167789,0.00308666373869662,0.178861344015821));
#613=CARTESIAN_POINT('',(-0.162840132861774,0.00387444088270916,0.177210246879299));
#614=CARTESIAN_POINT('',(-0.162837729186085,0.00397413955625045,0.176337732502929));
#615=CARTESIAN_POINT('',(-0.162884522392828,0.000604171934600009,0.179837732502929));
#616=CARTESIAN_POINT('',(-0.1602,0.000604171934600009,0.179837732502929));
#617=CARTESIAN_POINT('',(-0.164211472864392,0.000604171934600009,0.179837732502929));
#618=CARTESIAN_POINT('',(-0.164211472864392,0.000604171934600009,0.179837732502929));
#619=CARTESIAN_POINT('',(-0.164207858001998,0.0015986431575339,0.179685781295836));
#620=CARTESIAN_POINT('',(-0.16418072183639,0.00343180732748487,0.178615485632649));
#621=CARTESIAN_POINT('',(-0.164154110568609,0.0043791990709329,0.175551809552822));
#622=CARTESIAN_POINT('',(-0.164191079125303,0.00298290963206825,0.172667203390695));
#623=CARTESIAN_POINT('',(-0.164212570930953,0.00100601955184859,0.171883623719216));
#624=CARTESIAN_POINT('',(-0.164212570930953,1.92918012305639E-17,0.171883623719216));
#625=CARTESIAN_POINT('',(-0.164212570930953,1.986377108217E-17,0.171883623719215));
#626=CARTESIAN_POINT('',(-0.1602,1.986377108217E-17,0.171883623719215));
#627=CARTESIAN_POINT('',(-0.1602,1.986377108217E-17,0.171883623719215));
#628=CARTESIAN_POINT('',(-0.1602,5.72458747072346E-17,0.175883623719215));
#629=CARTESIAN_POINT('',(0.166,0.,0.175883623719215));
#630=CARTESIAN_POINT('',(0.166837729186086,0.0039741395562504,0.176337732502929));
#631=CARTESIAN_POINT('',(0.166840132862804,0.00387444083998707,0.177210247253182));
#632=CARTESIAN_POINT('',(0.166860113296953,0.00309237802753667,0.178855409348311));
#633=CARTESIAN_POINT('',(0.16688134143882,0.00147228588111663,0.17970508817997));
#634=CARTESIAN_POINT('',(0.166884522392829,0.000604171934599948,0.179837732502929));
#635=CARTESIAN_POINT('',(0.166837729186085,0.0039741395562504,0.176337732502929));
#636=CARTESIAN_POINT('',(0.166884522392828,0.000604171934599952,0.179837732502929));
#637=CARTESIAN_POINT('',(0.166,0.0039741395562504,0.176337732502929));
#638=CARTESIAN_POINT('',(0.166,0.0039741395562504,0.176337732502929));
#639=CARTESIAN_POINT('',(0.166,0.,0.175883623719215));
#640=CARTESIAN_POINT('',(0.166,0.,0.171883623719215));
#641=CARTESIAN_POINT('',(0.166,0.,0.171883623719215));
#642=CARTESIAN_POINT('',(0.168212570930953,0.,0.171883623719215));
#643=CARTESIAN_POINT('',(0.168212570930953,2.03551692968644E-17,0.171883623719215));
#644=CARTESIAN_POINT('',(0.168212570930953,0.00100601969824609,0.171883623719215));
#645=CARTESIAN_POINT('',(0.168191127929923,0.00297986022812112,0.172664813632828));
#646=CARTESIAN_POINT('',(0.168154116531427,0.00437907267247833,0.175550154905048));
#647=CARTESIAN_POINT('',(0.168180670756151,0.00343446346540196,0.178612660183989));
#648=CARTESIAN_POINT('',(0.168207858004796,0.0015986423879166,0.17968578141343));
#649=CARTESIAN_POINT('',(0.168211472864392,0.000604171934599959,0.179837732502929));
#650=CARTESIAN_POINT('',(0.168211472864392,0.000604171934599952,0.179837732502929));
#651=CARTESIAN_POINT('',(0.166,0.000604171934599952,0.179837732502929));
#652=CARTESIAN_POINT('',(0.1694,0.,0.175883623719215));
#653=CARTESIAN_POINT('',(0.1694,0.,0.171883623719215));
#654=CARTESIAN_POINT('',(0.002,0.,0.132337599992752));
#655=CARTESIAN_POINT('',(0.002,0.,0.178805796127232));
#656=CARTESIAN_POINT('',(0.164885629296303,0.,0.178805796127232));
#657=CARTESIAN_POINT('',(0.164885629296303,0.,0.179588034246917));
#658=CARTESIAN_POINT('',(0.164885629296303,0.,0.176337732502929));
#659=CARTESIAN_POINT('',(0.002,0.,0.176337732502929));
#660=CARTESIAN_POINT('',(-0.160049100113628,1.98452911758864E-17,0.179837732502929));
#661=CARTESIAN_POINT('',(0.164049100113628,0.,0.179837732502929));
#662=CARTESIAN_POINT('',(0.165851179061768,0.,0.179837732502929));
#663=CARTESIAN_POINT('',(0.163212570930953,0.,0.179837732502929));
#664=CARTESIAN_POINT('',(0.002,0.,0.179837732502929));
#665=CARTESIAN_POINT('',(-0.1602,1.98452911758864E-17,0.179837732502929));
#666=CARTESIAN_POINT('',(-0.1602,1.986377108217E-17,0.179837732502929));
#667=CARTESIAN_POINT('',(-0.160049100113628,1.98452911758864E-17,0.179837732502929));
#668=CARTESIAN_POINT('',(-0.159212570930953,1.97428458972907E-17,0.179837732502929));
#669=CARTESIAN_POINT('',(0.002,0.,0.179837732502929));
#670=CARTESIAN_POINT('',(0.002,0.,0.132337599992752));
#671=CARTESIAN_POINT('',(0.002,0.,0.179837732502929));
#672=CARTESIAN_POINT('',(0.168212570930953,0.,0.175837732502929));
#673=CARTESIAN_POINT('',(0.168212570930953,0.,0.171837732502929));
#674=CARTESIAN_POINT('',(0.002,0.,0.171837732502929));
#675=CARTESIAN_POINT('',(-0.164212570930953,2.03551692968644E-17,0.171837732502929));
#676=CARTESIAN_POINT('',(-0.164212570930953,2.03551692968644E-17,0.175837732502929));
#677=CARTESIAN_POINT('',(-0.163549100113628,2.02739175555879E-17,0.179837732502929));
#678=CARTESIAN_POINT('',(0.002,0.,0.179837732502929));
#679=CARTESIAN_POINT('',(0.002,0.,0.132337599992752));
#680=CARTESIAN_POINT('',(0.002,0.,0.176337732502929));
#681=CARTESIAN_POINT('',(-0.161885629296303,2.00702011343967E-17,0.176337732502929));
#682=CARTESIAN_POINT('',(0.16499,2.00702011343967E-17,0.176337732502929));
#683=CARTESIAN_POINT('',(0.16499,0.00116459658790247,0.176337732502929));
#684=CARTESIAN_POINT('',(0.16499,0.,0.176337732502929));
#685=CARTESIAN_POINT('',(0.16499,0.00116459658790247,0.176337732502929));
#686=CARTESIAN_POINT('',(0.166,0.00116459658790247,0.176337732502929));
#687=CARTESIAN_POINT('',(0.166,0.,0.176337732502929));
#688=CARTESIAN_POINT('',(0.165885629296303,0.,0.176337732502929));
#689=CARTESIAN_POINT('',(-0.0811062854654764,1.01775846484322E-17,0.132337599992752));
#690=CARTESIAN_POINT('',(-0.161712570930953,2.00490075970775E-17,0.171837732502929));
#691=CARTESIAN_POINT('',(-0.159212570930953,1.97428458972907E-17,0.171837732502929));
#692=CARTESIAN_POINT('',(-0.159212570930953,1.97428458972907E-17,0.175837732502929));
#693=CARTESIAN_POINT('',(-0.1602,1.986377108217E-17,0.132337599992752));
#694=CARTESIAN_POINT('',(0.166,0.,0.175883623719215));
#695=CARTESIAN_POINT('',(0.166,-2.16840434497101E-19,0.175883623719215));
#696=CARTESIAN_POINT('',(0.166,0.,0.174633623719215));
#697=CARTESIAN_POINT('',(0.166,0.,0.175883623719215));
#698=CARTESIAN_POINT('',(0.002,0.,0.132337599992752));
#699=CARTESIAN_POINT('',(0.002,0.,0.171837732502929));
#700=CARTESIAN_POINT('',(0.163212570930953,0.,0.171837732502929));
#701=CARTESIAN_POINT('',(0.163212570930953,0.,0.175837732502929));
#702=CARTESIAN_POINT('',(-0.161712570930953,2.00490075970775E-17,0.171837732502929));
#703=CARTESIAN_POINT('',(0.165712570930953,0.,0.171837732502929));
#704=CARTESIAN_POINT('',(0.0851062854654764,0.,0.132337599992752));
#705=CARTESIAN_POINT('',(0.16499,0.,0.174633623719215));
#706=CARTESIAN_POINT('',(0.16499,0.,0.174633623719215));
#707=CARTESIAN_POINT('',(0.16499,0.,0.132337599992752));
#708=CARTESIAN_POINT('',(0.165368404179036,0.,0.178805796127232));
#709=CARTESIAN_POINT('',(0.165851179061768,0.,0.178805796127232));
#710=CARTESIAN_POINT('',(0.165851179061768,0.,0.17932176431508));
#711=CARTESIAN_POINT('',(-0.1602,5.72458747072346E-17,0.175883623719215));
#712=CARTESIAN_POINT('',(0.1694,-2.25514051876985E-17,0.169883623719216));
#713=CARTESIAN_POINT('',(0.1694,0.,0.175883623719215));
#714=CARTESIAN_POINT('',(0.1694,0.,0.173383623719215));
#715=CARTESIAN_POINT('',(0.168,0.,0.175883623719215));
#716=CARTESIAN_POINT('',(0.168,0.,0.175883623719215));
#717=CARTESIAN_POINT('',(0.168,0.,0.173383623719215));
#718=CARTESIAN_POINT('',(0.168,0.,0.175883623719215));
#719=CARTESIAN_POINT('',(0.168,-2.16840434497101E-19,0.175883623719215));
#720=CARTESIAN_POINT('',(0.168,-2.16840434497101E-19,0.174633623719215));
#721=CARTESIAN_POINT('',(0.16499,0.,0.175883623719215));
#722=CARTESIAN_POINT('',(0.16499,-2.16840434497101E-19,0.175883623719215));
#723=CARTESIAN_POINT('',(0.16499,-2.16840434497101E-19,0.175883623719215));
#724=CARTESIAN_POINT('',(-0.1657,6.93889390390723E-18,0.169883623719216));
#725=CARTESIAN_POINT('',(-0.1657,2.34776234719902E-5,0.175872981548309));
#726=CARTESIAN_POINT('',(-0.1657,2.34776234719902E-5,0.173376161645421));
#727=CARTESIAN_POINT('',(-0.1628,2.34776234719902E-5,0.175872981548309));
#728=CARTESIAN_POINT('',(-0.1628,2.34776234719902E-5,0.175872981548309));
#729=CARTESIAN_POINT('',(-0.1628,2.34776234719902E-5,0.173376161645421));
#730=CARTESIAN_POINT('',(-0.1628,2.34776234719902E-5,0.175872981548309));
#731=CARTESIAN_POINT('',(-0.161368404179036,2.00068593259667E-17,0.178805796127232));
#732=CARTESIAN_POINT('',(0.002,0.,0.178805796127232));
#733=CARTESIAN_POINT('',(0.002,0.,0.132337599992752));
#734=MECHANICAL_DESIGN_GEOMETRIC_PRESENTATION_REPRESENTATION('',(#412),
#735);
#735=(
GEOMETRIC_REPRESENTATION_CONTEXT(3)
GLOBAL_UNCERTAINTY_ASSIGNED_CONTEXT((#736))
GLOBAL_UNIT_ASSIGNED_CONTEXT((#739,#738,#737))
REPRESENTATION_CONTEXT('Part 2','TOP_LEVEL_ASSEMBLY_PART')
);
#736=UNCERTAINTY_MEASURE_WITH_UNIT(LENGTH_MEASURE(2.E-5),#739,
'DISTANCE_ACCURACY_VALUE','Maximum Tolerance applied to model');
#737=(
NAMED_UNIT(*)
SI_UNIT($,.STERADIAN.)
SOLID_ANGLE_UNIT()
);
#738=(
NAMED_UNIT(*)
PLANE_ANGLE_UNIT()
SI_UNIT($,.RADIAN.)
);
#739=(
LENGTH_UNIT()
NAMED_UNIT(*)
SI_UNIT($,.METRE.)
);
#740=PRODUCT_DEFINITION_SHAPE('','',#741);
#741=PRODUCT_DEFINITION('','',#743,#742);
#742=PRODUCT_DEFINITION_CONTEXT('',#749,'design');
#743=PRODUCT_DEFINITION_FORMATION_WITH_SPECIFIED_SOURCE('','',#745,
 .NOT_KNOWN.);
#744=PRODUCT_RELATED_PRODUCT_CATEGORY('','',(#745));
#745=PRODUCT('Part 2','Part 2','Part 2',(#747));
#746=PRODUCT_CATEGORY('','');
#747=PRODUCT_CONTEXT('',#749,'mechanical');
#748=APPLICATION_PROTOCOL_DEFINITION('international standard',
'ap242_managed_model_based_3d_engineering',2020,#749);
#749=APPLICATION_CONTEXT('managed model based 3d engineering');
ENDSEC;
END-ISO-10303-21;
