ISO-10303-21;
HEADER;
/* Generated by software containing ST-Developer
 * from STEP Tools, Inc. (www.steptools.com) 
 */
/* OPTION: using custom renumber hook */

FILE_DESCRIPTION(
/* description */ ('STEP AP242 Edition 2',
'CAx-IF Rec.Pracs.---Representation and Presentation of Product Manufa
cturing Information (PMI)---4.0---2014-10-13',
'CAx-IF Rec.Pracs.---3D Tessellated Geometry---0.4---2014-09-14','2;1',
'CAx-IF Rec.Pracs.---User Defined Attributes---1.5---2016-08-15'),
/* implementation_level */ '2;1');

FILE_NAME(
/* name */ 'Assembly 2 - OLED TFT 0.96 inch 64x128 monochrome (17)',
/* time_stamp */ '2026-07-06T02:05:30Z',
/* author */ (''),
/* organization */ (''),
/* preprocessor_version */ 'ST-DEVELOPER v20',
/* originating_system */ 'ONSHAPE BY PTC INC, 1.217',
/* authorisation */ '  ');

FILE_SCHEMA (('AP242_MANAGED_MODEL_BASED_3D_ENGINEERING_MIM_LF { 1 0 10303 442 3 1 4 }'));
ENDSEC;

DATA;
#10=SHAPE_REPRESENTATION_RELATIONSHIP('','',#810,#11);
#11=ADVANCED_BREP_SHAPE_REPRESENTATION('',(#808),#1228);
#12=B_SPLINE_CURVE_WITH_KNOTS('',3,(#999,#1000,#1001,#1002,#1003),
 .UNSPECIFIED.,.F.,.F.,(4,1,4),(0.,0.00078110789116772,0.00156221578233544),
 .UNSPECIFIED.);
#13=B_SPLINE_CURVE_WITH_KNOTS('',3,(#1006,#1007,#1008,#1009),
 .UNSPECIFIED.,.F.,.F.,(4,4),(0.,1.),.UNSPECIFIED.);
#14=B_SPLINE_CURVE_WITH_KNOTS('',3,(#1010,#1011,#1012,#1013),
 .UNSPECIFIED.,.F.,.F.,(4,4),(0.,1.),.UNSPECIFIED.);
#15=B_SPLINE_CURVE_WITH_KNOTS('',3,(#1030,#1031,#1032,#1033,#1034),
 .UNSPECIFIED.,.F.,.F.,(4,1,4),(5.42101086242752E-19,0.000781107891167723,
0.00156221578233545),.UNSPECIFIED.);
#16=B_SPLINE_CURVE_WITH_KNOTS('',3,(#1036,#1037,#1038,#1039),
 .UNSPECIFIED.,.F.,.F.,(4,4),(0.,1.),.UNSPECIFIED.);
#17=B_SPLINE_CURVE_WITH_KNOTS('',3,(#1056,#1057,#1058,#1059,#1060),
 .UNSPECIFIED.,.F.,.F.,(4,1,4),(0.,0.000781107891167724,0.00156221578233545),
 .UNSPECIFIED.);
#18=B_SPLINE_CURVE_WITH_KNOTS('',3,(#1062,#1063,#1064,#1065),
 .UNSPECIFIED.,.F.,.F.,(4,4),(0.,1.),.UNSPECIFIED.);
#19=B_SPLINE_CURVE_WITH_KNOTS('',3,(#1082,#1083,#1084,#1085,#1086),
 .UNSPECIFIED.,.F.,.F.,(4,1,4),(0.,0.000781107891167722,0.00156221578233544),
 .UNSPECIFIED.);
#20=B_SPLINE_SURFACE_WITH_KNOTS('',3,3,((#983,#984,#985,#986),(#987,#988,
#989,#990),(#991,#992,#993,#994),(#995,#996,#997,#998)),.UNSPECIFIED.,.F.,
 .F.,.F.,(4,4),(4,4),(0.,1.),(0.,1.),.PIECEWISE_BEZIER_KNOTS.);
#21=B_SPLINE_SURFACE_WITH_KNOTS('',3,3,((#1014,#1015,#1016,#1017),(#1018,
#1019,#1020,#1021),(#1022,#1023,#1024,#1025),(#1026,#1027,#1028,#1029)),
 .UNSPECIFIED.,.F.,.F.,.F.,(4,4),(4,4),(0.,1.),(0.,1.),
 .PIECEWISE_BEZIER_KNOTS.);
#22=B_SPLINE_SURFACE_WITH_KNOTS('',3,3,((#1040,#1041,#1042,#1043),(#1044,
#1045,#1046,#1047),(#1048,#1049,#1050,#1051),(#1052,#1053,#1054,#1055)),
 .UNSPECIFIED.,.F.,.F.,.F.,(4,4),(4,4),(0.,1.),(0.,1.),
 .PIECEWISE_BEZIER_KNOTS.);
#23=B_SPLINE_SURFACE_WITH_KNOTS('',3,3,((#1066,#1067,#1068,#1069),(#1070,
#1071,#1072,#1073),(#1074,#1075,#1076,#1077),(#1078,#1079,#1080,#1081)),
 .UNSPECIFIED.,.F.,.F.,.F.,(4,4),(4,4),(0.,1.),(0.,1.),
 .PIECEWISE_BEZIER_KNOTS.);
#24=ORIENTED_EDGE('',*,*,#184,.T.);
#25=ORIENTED_EDGE('',*,*,#185,.T.);
#26=ORIENTED_EDGE('',*,*,#186,.T.);
#27=ORIENTED_EDGE('',*,*,#187,.T.);
#28=ORIENTED_EDGE('',*,*,#188,.T.);
#29=ORIENTED_EDGE('',*,*,#189,.T.);
#30=ORIENTED_EDGE('',*,*,#187,.F.);
#31=ORIENTED_EDGE('',*,*,#190,.F.);
#32=ORIENTED_EDGE('',*,*,#191,.T.);
#33=ORIENTED_EDGE('',*,*,#192,.F.);
#34=ORIENTED_EDGE('',*,*,#184,.F.);
#35=ORIENTED_EDGE('',*,*,#189,.F.);
#36=ORIENTED_EDGE('',*,*,#193,.T.);
#37=ORIENTED_EDGE('',*,*,#190,.T.);
#38=ORIENTED_EDGE('',*,*,#186,.F.);
#39=ORIENTED_EDGE('',*,*,#194,.F.);
#40=ORIENTED_EDGE('',*,*,#195,.T.);
#41=ORIENTED_EDGE('',*,*,#194,.T.);
#42=ORIENTED_EDGE('',*,*,#185,.F.);
#43=ORIENTED_EDGE('',*,*,#192,.T.);
#44=ORIENTED_EDGE('',*,*,#195,.F.);
#45=ORIENTED_EDGE('',*,*,#191,.F.);
#46=ORIENTED_EDGE('',*,*,#188,.F.);
#47=ORIENTED_EDGE('',*,*,#193,.F.);
#48=ORIENTED_EDGE('',*,*,#196,.F.);
#49=ORIENTED_EDGE('',*,*,#197,.F.);
#50=ORIENTED_EDGE('',*,*,#198,.F.);
#51=ORIENTED_EDGE('',*,*,#199,.F.);
#52=ORIENTED_EDGE('',*,*,#200,.T.);
#53=ORIENTED_EDGE('',*,*,#201,.F.);
#54=ORIENTED_EDGE('',*,*,#202,.T.);
#55=ORIENTED_EDGE('',*,*,#203,.F.);
#56=ORIENTED_EDGE('',*,*,#204,.T.);
#57=ORIENTED_EDGE('',*,*,#205,.F.);
#58=ORIENTED_EDGE('',*,*,#202,.F.);
#59=ORIENTED_EDGE('',*,*,#206,.F.);
#60=ORIENTED_EDGE('',*,*,#207,.T.);
#61=ORIENTED_EDGE('',*,*,#208,.F.);
#62=ORIENTED_EDGE('',*,*,#200,.F.);
#63=ORIENTED_EDGE('',*,*,#209,.F.);
#64=ORIENTED_EDGE('',*,*,#204,.F.);
#65=ORIENTED_EDGE('',*,*,#210,.F.);
#66=ORIENTED_EDGE('',*,*,#207,.F.);
#67=ORIENTED_EDGE('',*,*,#211,.F.);
#68=ORIENTED_EDGE('',*,*,#209,.T.);
#69=ORIENTED_EDGE('',*,*,#203,.T.);
#70=ORIENTED_EDGE('',*,*,#205,.T.);
#71=ORIENTED_EDGE('',*,*,#211,.T.);
#72=ORIENTED_EDGE('',*,*,#212,.T.);
#73=ORIENTED_EDGE('',*,*,#201,.T.);
#74=ORIENTED_EDGE('',*,*,#213,.F.);
#75=ORIENTED_EDGE('',*,*,#214,.F.);
#76=ORIENTED_EDGE('',*,*,#215,.T.);
#77=ORIENTED_EDGE('',*,*,#206,.T.);
#78=ORIENTED_EDGE('',*,*,#212,.F.);
#79=ORIENTED_EDGE('',*,*,#216,.F.);
#80=ORIENTED_EDGE('',*,*,#217,.T.);
#81=ORIENTED_EDGE('',*,*,#210,.T.);
#82=ORIENTED_EDGE('',*,*,#215,.F.);
#83=ORIENTED_EDGE('',*,*,#218,.F.);
#84=ORIENTED_EDGE('',*,*,#213,.T.);
#85=ORIENTED_EDGE('',*,*,#208,.T.);
#86=ORIENTED_EDGE('',*,*,#217,.F.);
#87=ORIENTED_EDGE('',*,*,#219,.F.);
#88=ORIENTED_EDGE('',*,*,#220,.F.);
#89=ORIENTED_EDGE('',*,*,#221,.F.);
#90=ORIENTED_EDGE('',*,*,#222,.F.);
#91=ORIENTED_EDGE('',*,*,#223,.T.);
#92=ORIENTED_EDGE('',*,*,#224,.F.);
#93=ORIENTED_EDGE('',*,*,#225,.T.);
#94=ORIENTED_EDGE('',*,*,#226,.T.);
#95=ORIENTED_EDGE('',*,*,#227,.F.);
#96=ORIENTED_EDGE('',*,*,#223,.F.);
#97=ORIENTED_EDGE('',*,*,#228,.F.);
#98=ORIENTED_EDGE('',*,*,#229,.F.);
#99=ORIENTED_EDGE('',*,*,#230,.F.);
#100=ORIENTED_EDGE('',*,*,#231,.F.);
#101=ORIENTED_EDGE('',*,*,#232,.F.);
#102=ORIENTED_EDGE('',*,*,#225,.F.);
#103=ORIENTED_EDGE('',*,*,#233,.F.);
#104=ORIENTED_EDGE('',*,*,#234,.T.);
#105=ORIENTED_EDGE('',*,*,#235,.F.);
#106=ORIENTED_EDGE('',*,*,#236,.F.);
#107=ORIENTED_EDGE('',*,*,#237,.F.);
#108=ORIENTED_EDGE('',*,*,#234,.F.);
#109=ORIENTED_EDGE('',*,*,#238,.F.);
#110=ORIENTED_EDGE('',*,*,#226,.F.);
#111=ORIENTED_EDGE('',*,*,#239,.F.);
#112=ORIENTED_EDGE('',*,*,#240,.F.);
#113=ORIENTED_EDGE('',*,*,#241,.F.);
#114=ORIENTED_EDGE('',*,*,#242,.F.);
#115=ORIENTED_EDGE('',*,*,#243,.F.);
#116=ORIENTED_EDGE('',*,*,#244,.F.);
#117=ORIENTED_EDGE('',*,*,#245,.F.);
#118=ORIENTED_EDGE('',*,*,#246,.F.);
#119=ORIENTED_EDGE('',*,*,#247,.F.);
#120=ORIENTED_EDGE('',*,*,#248,.F.);
#121=ORIENTED_EDGE('',*,*,#249,.F.);
#122=ORIENTED_EDGE('',*,*,#250,.F.);
#123=ORIENTED_EDGE('',*,*,#251,.F.);
#124=ORIENTED_EDGE('',*,*,#233,.T.);
#125=ORIENTED_EDGE('',*,*,#224,.T.);
#126=ORIENTED_EDGE('',*,*,#227,.T.);
#127=ORIENTED_EDGE('',*,*,#238,.T.);
#128=ORIENTED_EDGE('',*,*,#214,.T.);
#129=ORIENTED_EDGE('',*,*,#219,.T.);
#130=ORIENTED_EDGE('',*,*,#218,.T.);
#131=ORIENTED_EDGE('',*,*,#216,.T.);
#132=ORIENTED_EDGE('',*,*,#252,.F.);
#133=ORIENTED_EDGE('',*,*,#221,.T.);
#134=ORIENTED_EDGE('',*,*,#253,.T.);
#135=ORIENTED_EDGE('',*,*,#241,.T.);
#136=ORIENTED_EDGE('',*,*,#253,.F.);
#137=ORIENTED_EDGE('',*,*,#220,.T.);
#138=ORIENTED_EDGE('',*,*,#232,.T.);
#139=ORIENTED_EDGE('',*,*,#254,.T.);
#140=ORIENTED_EDGE('',*,*,#242,.T.);
#141=ORIENTED_EDGE('',*,*,#254,.F.);
#142=ORIENTED_EDGE('',*,*,#231,.T.);
#143=ORIENTED_EDGE('',*,*,#255,.T.);
#144=ORIENTED_EDGE('',*,*,#243,.T.);
#145=ORIENTED_EDGE('',*,*,#255,.F.);
#146=ORIENTED_EDGE('',*,*,#235,.T.);
#147=ORIENTED_EDGE('',*,*,#237,.T.);
#148=ORIENTED_EDGE('',*,*,#256,.T.);
#149=ORIENTED_EDGE('',*,*,#244,.T.);
#150=ORIENTED_EDGE('',*,*,#256,.F.);
#151=ORIENTED_EDGE('',*,*,#236,.T.);
#152=ORIENTED_EDGE('',*,*,#257,.T.);
#153=ORIENTED_EDGE('',*,*,#245,.T.);
#154=ORIENTED_EDGE('',*,*,#257,.F.);
#155=ORIENTED_EDGE('',*,*,#239,.T.);
#156=ORIENTED_EDGE('',*,*,#230,.T.);
#157=ORIENTED_EDGE('',*,*,#258,.T.);
#158=ORIENTED_EDGE('',*,*,#246,.T.);
#159=ORIENTED_EDGE('',*,*,#258,.F.);
#160=ORIENTED_EDGE('',*,*,#229,.T.);
#161=ORIENTED_EDGE('',*,*,#259,.T.);
#162=ORIENTED_EDGE('',*,*,#247,.T.);
#163=ORIENTED_EDGE('',*,*,#228,.T.);
#164=ORIENTED_EDGE('',*,*,#222,.T.);
#165=ORIENTED_EDGE('',*,*,#252,.T.);
#166=ORIENTED_EDGE('',*,*,#240,.T.);
#167=ORIENTED_EDGE('',*,*,#259,.F.);
#168=ORIENTED_EDGE('',*,*,#260,.F.);
#169=ORIENTED_EDGE('',*,*,#197,.T.);
#170=ORIENTED_EDGE('',*,*,#261,.T.);
#171=ORIENTED_EDGE('',*,*,#248,.T.);
#172=ORIENTED_EDGE('',*,*,#262,.F.);
#173=ORIENTED_EDGE('',*,*,#198,.T.);
#174=ORIENTED_EDGE('',*,*,#260,.T.);
#175=ORIENTED_EDGE('',*,*,#251,.T.);
#176=ORIENTED_EDGE('',*,*,#263,.F.);
#177=ORIENTED_EDGE('',*,*,#199,.T.);
#178=ORIENTED_EDGE('',*,*,#262,.T.);
#179=ORIENTED_EDGE('',*,*,#250,.T.);
#180=ORIENTED_EDGE('',*,*,#261,.F.);
#181=ORIENTED_EDGE('',*,*,#196,.T.);
#182=ORIENTED_EDGE('',*,*,#263,.T.);
#183=ORIENTED_EDGE('',*,*,#249,.T.);
#184=EDGE_CURVE('',#264,#265,#316,.T.);
#185=EDGE_CURVE('',#265,#266,#317,.T.);
#186=EDGE_CURVE('',#266,#267,#318,.T.);
#187=EDGE_CURVE('',#267,#264,#319,.T.);
#188=EDGE_CURVE('',#268,#269,#12,.T.);
#189=EDGE_CURVE('',#269,#264,#13,.T.);
#190=EDGE_CURVE('',#268,#267,#14,.T.);
#191=EDGE_CURVE('',#269,#270,#15,.T.);
#192=EDGE_CURVE('',#265,#270,#16,.T.);
#193=EDGE_CURVE('',#271,#268,#17,.T.);
#194=EDGE_CURVE('',#271,#266,#18,.T.);
#195=EDGE_CURVE('',#270,#271,#19,.T.);
#196=EDGE_CURVE('',#272,#273,#320,.T.);
#197=EDGE_CURVE('',#274,#272,#321,.T.);
#198=EDGE_CURVE('',#275,#274,#322,.T.);
#199=EDGE_CURVE('',#273,#275,#323,.T.);
#200=EDGE_CURVE('',#276,#277,#324,.T.);
#201=EDGE_CURVE('',#278,#277,#325,.T.);
#202=EDGE_CURVE('',#278,#279,#326,.T.);
#203=EDGE_CURVE('',#276,#279,#327,.T.);
#204=EDGE_CURVE('',#280,#281,#328,.T.);
#205=EDGE_CURVE('',#279,#281,#329,.T.);
#206=EDGE_CURVE('',#280,#278,#330,.T.);
#207=EDGE_CURVE('',#282,#283,#331,.T.);
#208=EDGE_CURVE('',#277,#283,#332,.T.);
#209=EDGE_CURVE('',#282,#276,#333,.T.);
#210=EDGE_CURVE('',#283,#280,#334,.T.);
#211=EDGE_CURVE('',#281,#282,#335,.T.);
#212=EDGE_CURVE('',#284,#278,#336,.T.);
#213=EDGE_CURVE('',#285,#277,#337,.T.);
#214=EDGE_CURVE('',#284,#285,#338,.T.);
#215=EDGE_CURVE('',#286,#280,#339,.T.);
#216=EDGE_CURVE('',#286,#284,#340,.T.);
#217=EDGE_CURVE('',#287,#283,#341,.T.);
#218=EDGE_CURVE('',#287,#286,#342,.T.);
#219=EDGE_CURVE('',#285,#287,#343,.T.);
#220=EDGE_CURVE('',#288,#289,#344,.T.);
#221=EDGE_CURVE('',#290,#288,#345,.T.);
#222=EDGE_CURVE('',#291,#290,#346,.T.);
#223=EDGE_CURVE('',#291,#292,#347,.T.);
#224=EDGE_CURVE('',#293,#292,#348,.T.);
#225=EDGE_CURVE('',#293,#289,#349,.T.);
#226=EDGE_CURVE('',#294,#295,#350,.T.);
#227=EDGE_CURVE('',#292,#295,#351,.T.);
#228=EDGE_CURVE('',#296,#291,#352,.T.);
#229=EDGE_CURVE('',#297,#296,#353,.T.);
#230=EDGE_CURVE('',#294,#297,#354,.T.);
#231=EDGE_CURVE('',#298,#299,#355,.T.);
#232=EDGE_CURVE('',#289,#298,#356,.T.);
#233=EDGE_CURVE('',#300,#293,#357,.T.);
#234=EDGE_CURVE('',#300,#301,#358,.T.);
#235=EDGE_CURVE('',#299,#301,#359,.T.);
#236=EDGE_CURVE('',#302,#303,#360,.T.);
#237=EDGE_CURVE('',#301,#302,#361,.T.);
#238=EDGE_CURVE('',#295,#300,#362,.T.);
#239=EDGE_CURVE('',#303,#294,#363,.T.);
#240=EDGE_CURVE('',#304,#305,#364,.T.);
#241=EDGE_CURVE('',#306,#304,#365,.T.);
#242=EDGE_CURVE('',#307,#306,#366,.T.);
#243=EDGE_CURVE('',#308,#307,#367,.T.);
#244=EDGE_CURVE('',#309,#308,#368,.T.);
#245=EDGE_CURVE('',#310,#309,#369,.T.);
#246=EDGE_CURVE('',#311,#310,#370,.T.);
#247=EDGE_CURVE('',#305,#311,#371,.T.);
#248=EDGE_CURVE('',#312,#313,#372,.T.);
#249=EDGE_CURVE('',#314,#312,#373,.T.);
#250=EDGE_CURVE('',#315,#314,#374,.T.);
#251=EDGE_CURVE('',#313,#315,#375,.T.);
#252=EDGE_CURVE('',#290,#304,#376,.T.);
#253=EDGE_CURVE('',#288,#306,#377,.T.);
#254=EDGE_CURVE('',#298,#307,#378,.T.);
#255=EDGE_CURVE('',#299,#308,#379,.T.);
#256=EDGE_CURVE('',#302,#309,#380,.T.);
#257=EDGE_CURVE('',#303,#310,#381,.T.);
#258=EDGE_CURVE('',#297,#311,#382,.T.);
#259=EDGE_CURVE('',#296,#305,#383,.T.);
#260=EDGE_CURVE('',#274,#313,#384,.T.);
#261=EDGE_CURVE('',#272,#312,#385,.T.);
#262=EDGE_CURVE('',#275,#315,#386,.T.);
#263=EDGE_CURVE('',#273,#314,#387,.T.);
#264=VERTEX_POINT('',#976);
#265=VERTEX_POINT('',#977);
#266=VERTEX_POINT('',#979);
#267=VERTEX_POINT('',#981);
#268=VERTEX_POINT('',#1004);
#269=VERTEX_POINT('',#1005);
#270=VERTEX_POINT('',#1035);
#271=VERTEX_POINT('',#1061);
#272=VERTEX_POINT('',#1089);
#273=VERTEX_POINT('',#1090);
#274=VERTEX_POINT('',#1092);
#275=VERTEX_POINT('',#1094);
#276=VERTEX_POINT('',#1098);
#277=VERTEX_POINT('',#1099);
#278=VERTEX_POINT('',#1101);
#279=VERTEX_POINT('',#1103);
#280=VERTEX_POINT('',#1107);
#281=VERTEX_POINT('',#1108);
#282=VERTEX_POINT('',#1113);
#283=VERTEX_POINT('',#1114);
#284=VERTEX_POINT('',#1123);
#285=VERTEX_POINT('',#1125);
#286=VERTEX_POINT('',#1129);
#287=VERTEX_POINT('',#1133);
#288=VERTEX_POINT('',#1139);
#289=VERTEX_POINT('',#1140);
#290=VERTEX_POINT('',#1142);
#291=VERTEX_POINT('',#1144);
#292=VERTEX_POINT('',#1146);
#293=VERTEX_POINT('',#1148);
#294=VERTEX_POINT('',#1152);
#295=VERTEX_POINT('',#1153);
#296=VERTEX_POINT('',#1156);
#297=VERTEX_POINT('',#1158);
#298=VERTEX_POINT('',#1162);
#299=VERTEX_POINT('',#1163);
#300=VERTEX_POINT('',#1166);
#301=VERTEX_POINT('',#1168);
#302=VERTEX_POINT('',#1172);
#303=VERTEX_POINT('',#1173);
#304=VERTEX_POINT('',#1179);
#305=VERTEX_POINT('',#1180);
#306=VERTEX_POINT('',#1182);
#307=VERTEX_POINT('',#1184);
#308=VERTEX_POINT('',#1186);
#309=VERTEX_POINT('',#1188);
#310=VERTEX_POINT('',#1190);
#311=VERTEX_POINT('',#1192);
#312=VERTEX_POINT('',#1195);
#313=VERTEX_POINT('',#1196);
#314=VERTEX_POINT('',#1198);
#315=VERTEX_POINT('',#1200);
#316=LINE('',#975,#388);
#317=LINE('',#978,#389);
#318=LINE('',#980,#390);
#319=LINE('',#982,#391);
#320=LINE('',#1088,#392);
#321=LINE('',#1091,#393);
#322=LINE('',#1093,#394);
#323=LINE('',#1095,#395);
#324=LINE('',#1097,#396);
#325=LINE('',#1100,#397);
#326=LINE('',#1102,#398);
#327=LINE('',#1104,#399);
#328=LINE('',#1106,#400);
#329=LINE('',#1109,#401);
#330=LINE('',#1110,#402);
#331=LINE('',#1112,#403);
#332=LINE('',#1115,#404);
#333=LINE('',#1116,#405);
#334=LINE('',#1118,#406);
#335=LINE('',#1119,#407);
#336=LINE('',#1122,#408);
#337=LINE('',#1124,#409);
#338=LINE('',#1126,#410);
#339=LINE('',#1128,#411);
#340=LINE('',#1130,#412);
#341=LINE('',#1132,#413);
#342=LINE('',#1134,#414);
#343=LINE('',#1136,#415);
#344=LINE('',#1138,#416);
#345=LINE('',#1141,#417);
#346=LINE('',#1143,#418);
#347=LINE('',#1145,#419);
#348=LINE('',#1147,#420);
#349=LINE('',#1149,#421);
#350=LINE('',#1151,#422);
#351=LINE('',#1154,#423);
#352=LINE('',#1155,#424);
#353=LINE('',#1157,#425);
#354=LINE('',#1159,#426);
#355=LINE('',#1161,#427);
#356=LINE('',#1164,#428);
#357=LINE('',#1165,#429);
#358=LINE('',#1167,#430);
#359=LINE('',#1169,#431);
#360=LINE('',#1171,#432);
#361=LINE('',#1174,#433);
#362=LINE('',#1175,#434);
#363=LINE('',#1176,#435);
#364=LINE('',#1178,#436);
#365=LINE('',#1181,#437);
#366=LINE('',#1183,#438);
#367=LINE('',#1185,#439);
#368=LINE('',#1187,#440);
#369=LINE('',#1189,#441);
#370=LINE('',#1191,#442);
#371=LINE('',#1193,#443);
#372=LINE('',#1194,#444);
#373=LINE('',#1197,#445);
#374=LINE('',#1199,#446);
#375=LINE('',#1201,#447);
#376=LINE('',#1204,#448);
#377=LINE('',#1205,#449);
#378=LINE('',#1207,#450);
#379=LINE('',#1209,#451);
#380=LINE('',#1211,#452);
#381=LINE('',#1213,#453);
#382=LINE('',#1215,#454);
#383=LINE('',#1217,#455);
#384=LINE('',#1220,#456);
#385=LINE('',#1221,#457);
#386=LINE('',#1223,#458);
#387=LINE('',#1225,#459);
#388=VECTOR('',#845,1.);
#389=VECTOR('',#846,1.);
#390=VECTOR('',#847,1.);
#391=VECTOR('',#848,1.);
#392=VECTOR('',#851,1.);
#393=VECTOR('',#852,1.);
#394=VECTOR('',#853,1.);
#395=VECTOR('',#854,1.);
#396=VECTOR('',#857,1.);
#397=VECTOR('',#858,1.);
#398=VECTOR('',#859,1.);
#399=VECTOR('',#860,1.);
#400=VECTOR('',#863,1.);
#401=VECTOR('',#864,1.);
#402=VECTOR('',#865,1.);
#403=VECTOR('',#868,1.);
#404=VECTOR('',#869,1.);
#405=VECTOR('',#870,1.);
#406=VECTOR('',#873,1.);
#407=VECTOR('',#874,1.);
#408=VECTOR('',#879,1.);
#409=VECTOR('',#880,1.);
#410=VECTOR('',#881,1.);
#411=VECTOR('',#884,1.);
#412=VECTOR('',#885,1.);
#413=VECTOR('',#888,1.);
#414=VECTOR('',#889,1.);
#415=VECTOR('',#892,1.);
#416=VECTOR('',#895,1.);
#417=VECTOR('',#896,1.);
#418=VECTOR('',#897,1.);
#419=VECTOR('',#898,1.);
#420=VECTOR('',#899,1.);
#421=VECTOR('',#900,1.);
#422=VECTOR('',#903,1.);
#423=VECTOR('',#904,1.);
#424=VECTOR('',#905,1.);
#425=VECTOR('',#906,1.);
#426=VECTOR('',#907,1.);
#427=VECTOR('',#910,1.);
#428=VECTOR('',#911,1.);
#429=VECTOR('',#912,1.);
#430=VECTOR('',#913,1.);
#431=VECTOR('',#914,1.);
#432=VECTOR('',#917,1.);
#433=VECTOR('',#918,1.);
#434=VECTOR('',#919,1.);
#435=VECTOR('',#920,1.);
#436=VECTOR('',#923,1.);
#437=VECTOR('',#924,1.);
#438=VECTOR('',#925,1.);
#439=VECTOR('',#926,1.);
#440=VECTOR('',#927,1.);
#441=VECTOR('',#928,1.);
#442=VECTOR('',#929,1.);
#443=VECTOR('',#930,1.);
#444=VECTOR('',#931,1.);
#445=VECTOR('',#932,1.);
#446=VECTOR('',#933,1.);
#447=VECTOR('',#934,1.);
#448=VECTOR('',#939,1.);
#449=VECTOR('',#940,1.);
#450=VECTOR('',#943,1.);
#451=VECTOR('',#946,1.);
#452=VECTOR('',#949,1.);
#453=VECTOR('',#952,1.);
#454=VECTOR('',#955,1.);
#455=VECTOR('',#958,1.);
#456=VECTOR('',#963,1.);
#457=VECTOR('',#964,1.);
#458=VECTOR('',#967,1.);
#459=VECTOR('',#970,1.);
#460=EDGE_LOOP('',(#24,#25,#26,#27));
#461=EDGE_LOOP('',(#28,#29,#30,#31));
#462=EDGE_LOOP('',(#32,#33,#34,#35));
#463=EDGE_LOOP('',(#36,#37,#38,#39));
#464=EDGE_LOOP('',(#40,#41,#42,#43));
#465=EDGE_LOOP('',(#44,#45,#46,#47));
#466=EDGE_LOOP('',(#48,#49,#50,#51));
#467=EDGE_LOOP('',(#52,#53,#54,#55));
#468=EDGE_LOOP('',(#56,#57,#58,#59));
#469=EDGE_LOOP('',(#60,#61,#62,#63));
#470=EDGE_LOOP('',(#64,#65,#66,#67));
#471=EDGE_LOOP('',(#68,#69,#70,#71));
#472=EDGE_LOOP('',(#72,#73,#74,#75));
#473=EDGE_LOOP('',(#76,#77,#78,#79));
#474=EDGE_LOOP('',(#80,#81,#82,#83));
#475=EDGE_LOOP('',(#84,#85,#86,#87));
#476=EDGE_LOOP('',(#88,#89,#90,#91,#92,#93));
#477=EDGE_LOOP('',(#94,#95,#96,#97,#98,#99));
#478=EDGE_LOOP('',(#100,#101,#102,#103,#104,#105));
#479=EDGE_LOOP('',(#106,#107,#108,#109,#110,#111));
#480=EDGE_LOOP('',(#112,#113,#114,#115,#116,#117,#118,#119));
#481=EDGE_LOOP('',(#120,#121,#122,#123));
#482=EDGE_LOOP('',(#124,#125,#126,#127));
#483=EDGE_LOOP('',(#128,#129,#130,#131));
#484=EDGE_LOOP('',(#132,#133,#134,#135));
#485=EDGE_LOOP('',(#136,#137,#138,#139,#140));
#486=EDGE_LOOP('',(#141,#142,#143,#144));
#487=EDGE_LOOP('',(#145,#146,#147,#148,#149));
#488=EDGE_LOOP('',(#150,#151,#152,#153));
#489=EDGE_LOOP('',(#154,#155,#156,#157,#158));
#490=EDGE_LOOP('',(#159,#160,#161,#162));
#491=EDGE_LOOP('',(#163,#164,#165,#166,#167));
#492=EDGE_LOOP('',(#168,#169,#170,#171));
#493=EDGE_LOOP('',(#172,#173,#174,#175));
#494=EDGE_LOOP('',(#176,#177,#178,#179));
#495=EDGE_LOOP('',(#180,#181,#182,#183));
#496=FACE_BOUND('',#460,.T.);
#497=FACE_BOUND('',#461,.T.);
#498=FACE_BOUND('',#462,.T.);
#499=FACE_BOUND('',#463,.T.);
#500=FACE_BOUND('',#464,.T.);
#501=FACE_BOUND('',#465,.T.);
#502=FACE_BOUND('',#466,.T.);
#503=FACE_BOUND('',#467,.T.);
#504=FACE_BOUND('',#468,.T.);
#505=FACE_BOUND('',#469,.T.);
#506=FACE_BOUND('',#470,.T.);
#507=FACE_BOUND('',#471,.T.);
#508=FACE_BOUND('',#472,.T.);
#509=FACE_BOUND('',#473,.T.);
#510=FACE_BOUND('',#474,.T.);
#511=FACE_BOUND('',#475,.T.);
#512=FACE_BOUND('',#476,.T.);
#513=FACE_BOUND('',#477,.T.);
#514=FACE_BOUND('',#478,.T.);
#515=FACE_BOUND('',#479,.T.);
#516=FACE_BOUND('',#480,.T.);
#517=FACE_BOUND('',#481,.T.);
#518=FACE_BOUND('',#482,.T.);
#519=FACE_BOUND('',#483,.T.);
#520=FACE_BOUND('',#484,.T.);
#521=FACE_BOUND('',#485,.T.);
#522=FACE_BOUND('',#486,.T.);
#523=FACE_BOUND('',#487,.T.);
#524=FACE_BOUND('',#488,.T.);
#525=FACE_BOUND('',#489,.T.);
#526=FACE_BOUND('',#490,.T.);
#527=FACE_BOUND('',#491,.T.);
#528=FACE_BOUND('',#492,.T.);
#529=FACE_BOUND('',#493,.T.);
#530=FACE_BOUND('',#494,.T.);
#531=FACE_BOUND('',#495,.T.);
#532=PLANE('',#812);
#533=PLANE('',#813);
#534=PLANE('',#814);
#535=PLANE('',#815);
#536=PLANE('',#816);
#537=PLANE('',#817);
#538=PLANE('',#818);
#539=PLANE('',#819);
#540=PLANE('',#820);
#541=PLANE('',#821);
#542=PLANE('',#822);
#543=PLANE('',#823);
#544=PLANE('',#824);
#545=PLANE('',#825);
#546=PLANE('',#826);
#547=PLANE('',#827);
#548=PLANE('',#828);
#549=PLANE('',#829);
#550=PLANE('',#830);
#551=PLANE('',#831);
#552=PLANE('',#832);
#553=PLANE('',#833);
#554=PLANE('',#834);
#555=PLANE('',#835);
#556=PLANE('',#836);
#557=PLANE('',#837);
#558=PLANE('',#838);
#559=PLANE('',#839);
#560=PLANE('',#840);
#561=OVER_RIDING_STYLED_ITEM('',(#626),#590,#624);
#562=OVER_RIDING_STYLED_ITEM('',(#627),#591,#624);
#563=OVER_RIDING_STYLED_ITEM('',(#628),#592,#624);
#564=OVER_RIDING_STYLED_ITEM('',(#629),#593,#624);
#565=OVER_RIDING_STYLED_ITEM('',(#630),#594,#624);
#566=OVER_RIDING_STYLED_ITEM('',(#631),#595,#624);
#567=OVER_RIDING_STYLED_ITEM('',(#632),#596,#624);
#568=OVER_RIDING_STYLED_ITEM('',(#633),#597,#624);
#569=OVER_RIDING_STYLED_ITEM('',(#634),#598,#624);
#570=OVER_RIDING_STYLED_ITEM('',(#635),#599,#624);
#571=OVER_RIDING_STYLED_ITEM('',(#636),#600,#624);
#572=OVER_RIDING_STYLED_ITEM('',(#637),#601,#624);
#573=OVER_RIDING_STYLED_ITEM('',(#638),#602,#624);
#574=OVER_RIDING_STYLED_ITEM('',(#639),#603,#624);
#575=OVER_RIDING_STYLED_ITEM('',(#640),#604,#624);
#576=OVER_RIDING_STYLED_ITEM('',(#641),#609,#624);
#577=OVER_RIDING_STYLED_ITEM('',(#642),#610,#624);
#578=OVER_RIDING_STYLED_ITEM('',(#643),#611,#624);
#579=OVER_RIDING_STYLED_ITEM('',(#644),#612,#624);
#580=OVER_RIDING_STYLED_ITEM('',(#645),#613,#624);
#581=OVER_RIDING_STYLED_ITEM('',(#646),#614,#624);
#582=OVER_RIDING_STYLED_ITEM('',(#647),#615,#624);
#583=OVER_RIDING_STYLED_ITEM('',(#648),#616,#624);
#584=OVER_RIDING_STYLED_ITEM('',(#649),#617,#624);
#585=OVER_RIDING_STYLED_ITEM('',(#650),#618,#624);
#586=OVER_RIDING_STYLED_ITEM('',(#651),#619,#624);
#587=OVER_RIDING_STYLED_ITEM('',(#652),#620,#624);
#588=OVER_RIDING_STYLED_ITEM('',(#653),#621,#624);
#589=OVER_RIDING_STYLED_ITEM('',(#654),#622,#624);
#590=ADVANCED_FACE('',(#496),#532,.F.);
#591=ADVANCED_FACE('',(#497),#20,.T.);
#592=ADVANCED_FACE('',(#498),#21,.T.);
#593=ADVANCED_FACE('',(#499),#22,.T.);
#594=ADVANCED_FACE('',(#500),#23,.T.);
#595=ADVANCED_FACE('',(#501,#502),#533,.F.);
#596=ADVANCED_FACE('',(#503),#534,.T.);
#597=ADVANCED_FACE('',(#504),#535,.T.);
#598=ADVANCED_FACE('',(#505),#536,.T.);
#599=ADVANCED_FACE('',(#506),#537,.T.);
#600=ADVANCED_FACE('',(#507),#538,.F.);
#601=ADVANCED_FACE('',(#508),#539,.T.);
#602=ADVANCED_FACE('',(#509),#540,.T.);
#603=ADVANCED_FACE('',(#510),#541,.T.);
#604=ADVANCED_FACE('',(#511),#542,.T.);
#605=ADVANCED_FACE('',(#512),#543,.F.);
#606=ADVANCED_FACE('',(#513),#544,.F.);
#607=ADVANCED_FACE('',(#514),#545,.F.);
#608=ADVANCED_FACE('',(#515),#546,.F.);
#609=ADVANCED_FACE('',(#516,#517),#547,.T.);
#610=ADVANCED_FACE('',(#518,#519),#548,.F.);
#611=ADVANCED_FACE('',(#520),#549,.F.);
#612=ADVANCED_FACE('',(#521),#550,.F.);
#613=ADVANCED_FACE('',(#522),#551,.F.);
#614=ADVANCED_FACE('',(#523),#552,.F.);
#615=ADVANCED_FACE('',(#524),#553,.F.);
#616=ADVANCED_FACE('',(#525),#554,.F.);
#617=ADVANCED_FACE('',(#526),#555,.F.);
#618=ADVANCED_FACE('',(#527),#556,.F.);
#619=ADVANCED_FACE('',(#528),#557,.T.);
#620=ADVANCED_FACE('',(#529),#558,.T.);
#621=ADVANCED_FACE('',(#530),#559,.T.);
#622=ADVANCED_FACE('',(#531),#560,.T.);
#623=CLOSED_SHELL('',(#590,#591,#592,#593,#594,#595,#596,#597,#598,#599,
#600,#601,#602,#603,#604,#605,#606,#607,#608,#609,#610,#611,#612,#613,#614,
#615,#616,#617,#618,#619,#620,#621,#622));
#624=STYLED_ITEM('',(#625),#808);
#625=PRESENTATION_STYLE_ASSIGNMENT((#655));
#626=PRESENTATION_STYLE_ASSIGNMENT((#656));
#627=PRESENTATION_STYLE_ASSIGNMENT((#657));
#628=PRESENTATION_STYLE_ASSIGNMENT((#658));
#629=PRESENTATION_STYLE_ASSIGNMENT((#659));
#630=PRESENTATION_STYLE_ASSIGNMENT((#660));
#631=PRESENTATION_STYLE_ASSIGNMENT((#661));
#632=PRESENTATION_STYLE_ASSIGNMENT((#662));
#633=PRESENTATION_STYLE_ASSIGNMENT((#663));
#634=PRESENTATION_STYLE_ASSIGNMENT((#664));
#635=PRESENTATION_STYLE_ASSIGNMENT((#665));
#636=PRESENTATION_STYLE_ASSIGNMENT((#666));
#637=PRESENTATION_STYLE_ASSIGNMENT((#667));
#638=PRESENTATION_STYLE_ASSIGNMENT((#668));
#639=PRESENTATION_STYLE_ASSIGNMENT((#669));
#640=PRESENTATION_STYLE_ASSIGNMENT((#670));
#641=PRESENTATION_STYLE_ASSIGNMENT((#671));
#642=PRESENTATION_STYLE_ASSIGNMENT((#672));
#643=PRESENTATION_STYLE_ASSIGNMENT((#673));
#644=PRESENTATION_STYLE_ASSIGNMENT((#674));
#645=PRESENTATION_STYLE_ASSIGNMENT((#675));
#646=PRESENTATION_STYLE_ASSIGNMENT((#676));
#647=PRESENTATION_STYLE_ASSIGNMENT((#677));
#648=PRESENTATION_STYLE_ASSIGNMENT((#678));
#649=PRESENTATION_STYLE_ASSIGNMENT((#679));
#650=PRESENTATION_STYLE_ASSIGNMENT((#680));
#651=PRESENTATION_STYLE_ASSIGNMENT((#681));
#652=PRESENTATION_STYLE_ASSIGNMENT((#682));
#653=PRESENTATION_STYLE_ASSIGNMENT((#683));
#654=PRESENTATION_STYLE_ASSIGNMENT((#684));
#655=SURFACE_STYLE_USAGE(.BOTH.,#685);
#656=SURFACE_STYLE_USAGE(.BOTH.,#686);
#657=SURFACE_STYLE_USAGE(.BOTH.,#687);
#658=SURFACE_STYLE_USAGE(.BOTH.,#688);
#659=SURFACE_STYLE_USAGE(.BOTH.,#689);
#660=SURFACE_STYLE_USAGE(.BOTH.,#690);
#661=SURFACE_STYLE_USAGE(.BOTH.,#691);
#662=SURFACE_STYLE_USAGE(.BOTH.,#692);
#663=SURFACE_STYLE_USAGE(.BOTH.,#693);
#664=SURFACE_STYLE_USAGE(.BOTH.,#694);
#665=SURFACE_STYLE_USAGE(.BOTH.,#695);
#666=SURFACE_STYLE_USAGE(.BOTH.,#696);
#667=SURFACE_STYLE_USAGE(.BOTH.,#697);
#668=SURFACE_STYLE_USAGE(.BOTH.,#698);
#669=SURFACE_STYLE_USAGE(.BOTH.,#699);
#670=SURFACE_STYLE_USAGE(.BOTH.,#700);
#671=SURFACE_STYLE_USAGE(.BOTH.,#701);
#672=SURFACE_STYLE_USAGE(.BOTH.,#702);
#673=SURFACE_STYLE_USAGE(.BOTH.,#703);
#674=SURFACE_STYLE_USAGE(.BOTH.,#704);
#675=SURFACE_STYLE_USAGE(.BOTH.,#705);
#676=SURFACE_STYLE_USAGE(.BOTH.,#706);
#677=SURFACE_STYLE_USAGE(.BOTH.,#707);
#678=SURFACE_STYLE_USAGE(.BOTH.,#708);
#679=SURFACE_STYLE_USAGE(.BOTH.,#709);
#680=SURFACE_STYLE_USAGE(.BOTH.,#710);
#681=SURFACE_STYLE_USAGE(.BOTH.,#711);
#682=SURFACE_STYLE_USAGE(.BOTH.,#712);
#683=SURFACE_STYLE_USAGE(.BOTH.,#713);
#684=SURFACE_STYLE_USAGE(.BOTH.,#714);
#685=SURFACE_SIDE_STYLE('',(#715));
#686=SURFACE_SIDE_STYLE('',(#716));
#687=SURFACE_SIDE_STYLE('',(#717));
#688=SURFACE_SIDE_STYLE('',(#718));
#689=SURFACE_SIDE_STYLE('',(#719));
#690=SURFACE_SIDE_STYLE('',(#720));
#691=SURFACE_SIDE_STYLE('',(#721));
#692=SURFACE_SIDE_STYLE('',(#722));
#693=SURFACE_SIDE_STYLE('',(#723));
#694=SURFACE_SIDE_STYLE('',(#724));
#695=SURFACE_SIDE_STYLE('',(#725));
#696=SURFACE_SIDE_STYLE('',(#726));
#697=SURFACE_SIDE_STYLE('',(#727));
#698=SURFACE_SIDE_STYLE('',(#728));
#699=SURFACE_SIDE_STYLE('',(#729));
#700=SURFACE_SIDE_STYLE('',(#730));
#701=SURFACE_SIDE_STYLE('',(#731));
#702=SURFACE_SIDE_STYLE('',(#732));
#703=SURFACE_SIDE_STYLE('',(#733));
#704=SURFACE_SIDE_STYLE('',(#734));
#705=SURFACE_SIDE_STYLE('',(#735));
#706=SURFACE_SIDE_STYLE('',(#736));
#707=SURFACE_SIDE_STYLE('',(#737));
#708=SURFACE_SIDE_STYLE('',(#738));
#709=SURFACE_SIDE_STYLE('',(#739));
#710=SURFACE_SIDE_STYLE('',(#740));
#711=SURFACE_SIDE_STYLE('',(#741));
#712=SURFACE_SIDE_STYLE('',(#742));
#713=SURFACE_SIDE_STYLE('',(#743));
#714=SURFACE_SIDE_STYLE('',(#744));
#715=SURFACE_STYLE_FILL_AREA(#745);
#716=SURFACE_STYLE_FILL_AREA(#746);
#717=SURFACE_STYLE_FILL_AREA(#747);
#718=SURFACE_STYLE_FILL_AREA(#748);
#719=SURFACE_STYLE_FILL_AREA(#749);
#720=SURFACE_STYLE_FILL_AREA(#750);
#721=SURFACE_STYLE_FILL_AREA(#751);
#722=SURFACE_STYLE_FILL_AREA(#752);
#723=SURFACE_STYLE_FILL_AREA(#753);
#724=SURFACE_STYLE_FILL_AREA(#754);
#725=SURFACE_STYLE_FILL_AREA(#755);
#726=SURFACE_STYLE_FILL_AREA(#756);
#727=SURFACE_STYLE_FILL_AREA(#757);
#728=SURFACE_STYLE_FILL_AREA(#758);
#729=SURFACE_STYLE_FILL_AREA(#759);
#730=SURFACE_STYLE_FILL_AREA(#760);
#731=SURFACE_STYLE_FILL_AREA(#761);
#732=SURFACE_STYLE_FILL_AREA(#762);
#733=SURFACE_STYLE_FILL_AREA(#763);
#734=SURFACE_STYLE_FILL_AREA(#764);
#735=SURFACE_STYLE_FILL_AREA(#765);
#736=SURFACE_STYLE_FILL_AREA(#766);
#737=SURFACE_STYLE_FILL_AREA(#767);
#738=SURFACE_STYLE_FILL_AREA(#768);
#739=SURFACE_STYLE_FILL_AREA(#769);
#740=SURFACE_STYLE_FILL_AREA(#770);
#741=SURFACE_STYLE_FILL_AREA(#771);
#742=SURFACE_STYLE_FILL_AREA(#772);
#743=SURFACE_STYLE_FILL_AREA(#773);
#744=SURFACE_STYLE_FILL_AREA(#774);
#745=FILL_AREA_STYLE('',(#775));
#746=FILL_AREA_STYLE('',(#776));
#747=FILL_AREA_STYLE('',(#777));
#748=FILL_AREA_STYLE('',(#778));
#749=FILL_AREA_STYLE('',(#779));
#750=FILL_AREA_STYLE('',(#780));
#751=FILL_AREA_STYLE('',(#781));
#752=FILL_AREA_STYLE('',(#782));
#753=FILL_AREA_STYLE('',(#783));
#754=FILL_AREA_STYLE('',(#784));
#755=FILL_AREA_STYLE('',(#785));
#756=FILL_AREA_STYLE('',(#786));
#757=FILL_AREA_STYLE('',(#787));
#758=FILL_AREA_STYLE('',(#788));
#759=FILL_AREA_STYLE('',(#789));
#760=FILL_AREA_STYLE('',(#790));
#761=FILL_AREA_STYLE('',(#791));
#762=FILL_AREA_STYLE('',(#792));
#763=FILL_AREA_STYLE('',(#793));
#764=FILL_AREA_STYLE('',(#794));
#765=FILL_AREA_STYLE('',(#795));
#766=FILL_AREA_STYLE('',(#796));
#767=FILL_AREA_STYLE('',(#797));
#768=FILL_AREA_STYLE('',(#798));
#769=FILL_AREA_STYLE('',(#799));
#770=FILL_AREA_STYLE('',(#800));
#771=FILL_AREA_STYLE('',(#801));
#772=FILL_AREA_STYLE('',(#802));
#773=FILL_AREA_STYLE('',(#803));
#774=FILL_AREA_STYLE('',(#804));
#775=FILL_AREA_STYLE_COLOUR('',#805);
#776=FILL_AREA_STYLE_COLOUR('',#806);
#777=FILL_AREA_STYLE_COLOUR('',#806);
#778=FILL_AREA_STYLE_COLOUR('',#806);
#779=FILL_AREA_STYLE_COLOUR('',#806);
#780=FILL_AREA_STYLE_COLOUR('',#806);
#781=FILL_AREA_STYLE_COLOUR('',#806);
#782=FILL_AREA_STYLE_COLOUR('',#806);
#783=FILL_AREA_STYLE_COLOUR('',#806);
#784=FILL_AREA_STYLE_COLOUR('',#806);
#785=FILL_AREA_STYLE_COLOUR('',#806);
#786=FILL_AREA_STYLE_COLOUR('',#806);
#787=FILL_AREA_STYLE_COLOUR('',#806);
#788=FILL_AREA_STYLE_COLOUR('',#806);
#789=FILL_AREA_STYLE_COLOUR('',#806);
#790=FILL_AREA_STYLE_COLOUR('',#806);
#791=FILL_AREA_STYLE_COLOUR('',#807);
#792=FILL_AREA_STYLE_COLOUR('',#807);
#793=FILL_AREA_STYLE_COLOUR('',#807);
#794=FILL_AREA_STYLE_COLOUR('',#807);
#795=FILL_AREA_STYLE_COLOUR('',#807);
#796=FILL_AREA_STYLE_COLOUR('',#807);
#797=FILL_AREA_STYLE_COLOUR('',#807);
#798=FILL_AREA_STYLE_COLOUR('',#807);
#799=FILL_AREA_STYLE_COLOUR('',#807);
#800=FILL_AREA_STYLE_COLOUR('',#807);
#801=FILL_AREA_STYLE_COLOUR('',#806);
#802=FILL_AREA_STYLE_COLOUR('',#806);
#803=FILL_AREA_STYLE_COLOUR('',#806);
#804=FILL_AREA_STYLE_COLOUR('',#806);
#805=COLOUR_RGB('',0.647058823529412,0.619607843137255,0.588235294117647);
#806=COLOUR_RGB('',0.894117647058824,0.913725490196078,0.929411764705882);
#807=COLOUR_RGB('',0.298039215686275,0.298039215686275,0.298039215686275);
#808=MANIFOLD_SOLID_BREP('OLED TFT 0.96 inch 64x128 monochrome',#623);
#809=SHAPE_DEFINITION_REPRESENTATION(#1233,#810);
#810=SHAPE_REPRESENTATION('OLED TFT 0.96 inch 64x128 monochrome',(#811),
#1228);
#811=AXIS2_PLACEMENT_3D('',#973,#841,#842);
#812=AXIS2_PLACEMENT_3D('',#974,#843,#844);
#813=AXIS2_PLACEMENT_3D('',#1087,#849,#850);
#814=AXIS2_PLACEMENT_3D('',#1096,#855,#856);
#815=AXIS2_PLACEMENT_3D('',#1105,#861,#862);
#816=AXIS2_PLACEMENT_3D('',#1111,#866,#867);
#817=AXIS2_PLACEMENT_3D('',#1117,#871,#872);
#818=AXIS2_PLACEMENT_3D('',#1120,#875,#876);
#819=AXIS2_PLACEMENT_3D('',#1121,#877,#878);
#820=AXIS2_PLACEMENT_3D('',#1127,#882,#883);
#821=AXIS2_PLACEMENT_3D('',#1131,#886,#887);
#822=AXIS2_PLACEMENT_3D('',#1135,#890,#891);
#823=AXIS2_PLACEMENT_3D('',#1137,#893,#894);
#824=AXIS2_PLACEMENT_3D('',#1150,#901,#902);
#825=AXIS2_PLACEMENT_3D('',#1160,#908,#909);
#826=AXIS2_PLACEMENT_3D('',#1170,#915,#916);
#827=AXIS2_PLACEMENT_3D('',#1177,#921,#922);
#828=AXIS2_PLACEMENT_3D('',#1202,#935,#936);
#829=AXIS2_PLACEMENT_3D('',#1203,#937,#938);
#830=AXIS2_PLACEMENT_3D('',#1206,#941,#942);
#831=AXIS2_PLACEMENT_3D('',#1208,#944,#945);
#832=AXIS2_PLACEMENT_3D('',#1210,#947,#948);
#833=AXIS2_PLACEMENT_3D('',#1212,#950,#951);
#834=AXIS2_PLACEMENT_3D('',#1214,#953,#954);
#835=AXIS2_PLACEMENT_3D('',#1216,#956,#957);
#836=AXIS2_PLACEMENT_3D('',#1218,#959,#960);
#837=AXIS2_PLACEMENT_3D('',#1219,#961,#962);
#838=AXIS2_PLACEMENT_3D('',#1222,#965,#966);
#839=AXIS2_PLACEMENT_3D('',#1224,#968,#969);
#840=AXIS2_PLACEMENT_3D('',#1226,#971,#972);
#841=DIRECTION('',(0.,0.,1.));
#842=DIRECTION('',(1.,0.,0.));
#843=DIRECTION('',(0.,-1.,0.));
#844=DIRECTION('',(0.,0.,-1.));
#845=DIRECTION('',(0.,0.,-1.));
#846=DIRECTION('',(-1.,0.,0.));
#847=DIRECTION('',(0.,0.,1.));
#848=DIRECTION('',(1.,0.,0.));
#849=DIRECTION('',(0.,1.,0.));
#850=DIRECTION('',(0.,0.,1.));
#851=DIRECTION('',(-1.,0.,0.));
#852=DIRECTION('',(0.,0.,1.));
#853=DIRECTION('',(1.,0.,0.));
#854=DIRECTION('',(0.,0.,-1.));
#855=DIRECTION('',(0.,-0.5,0.866025403784439));
#856=DIRECTION('',(1.,0.,0.));
#857=DIRECTION('',(0.447213595499958,0.774596669241483,0.447213595499958));
#858=DIRECTION('',(1.,0.,0.));
#859=DIRECTION('',(0.447213595499958,-0.774596669241483,-0.447213595499958));
#860=DIRECTION('',(-1.,0.,0.));
#861=DIRECTION('',(-0.866025403784439,-0.5,0.));
#862=DIRECTION('',(0.,0.,1.));
#863=DIRECTION('',(0.447213595499958,-0.774596669241483,0.447213595499958));
#864=DIRECTION('',(0.,0.,-1.));
#865=DIRECTION('',(0.,0.,1.));
#866=DIRECTION('',(0.866025403784439,-0.5,0.));
#867=DIRECTION('',(0.,0.,-1.));
#868=DIRECTION('',(0.447213595499958,0.774596669241483,-0.447213595499958));
#869=DIRECTION('',(0.,0.,-1.));
#870=DIRECTION('',(0.,0.,1.));
#871=DIRECTION('',(0.,-0.5,-0.866025403784439));
#872=DIRECTION('',(-1.,0.,0.));
#873=DIRECTION('',(-1.,0.,0.));
#874=DIRECTION('',(1.,0.,0.));
#875=DIRECTION('',(0.,1.,0.));
#876=DIRECTION('',(0.,0.,1.));
#877=DIRECTION('',(0.,0.,1.));
#878=DIRECTION('',(1.,0.,0.));
#879=DIRECTION('',(0.,-1.,0.));
#880=DIRECTION('',(0.,-1.,0.));
#881=DIRECTION('',(1.,0.,0.));
#882=DIRECTION('',(-1.,0.,0.));
#883=DIRECTION('',(0.,0.,1.));
#884=DIRECTION('',(0.,-1.,0.));
#885=DIRECTION('',(0.,0.,1.));
#886=DIRECTION('',(0.,0.,-1.));
#887=DIRECTION('',(-1.,0.,0.));
#888=DIRECTION('',(0.,-1.,0.));
#889=DIRECTION('',(-1.,0.,0.));
#890=DIRECTION('',(1.,0.,0.));
#891=DIRECTION('',(0.,0.,-1.));
#892=DIRECTION('',(0.,0.,-1.));
#893=DIRECTION('',(0.,0.707106781186548,0.707106781186548));
#894=DIRECTION('',(1.,-9.26668523491884E-17,9.26668523491884E-17));
#895=DIRECTION('',(-0.577350269189624,-0.577350269189628,0.577350269189625));
#896=DIRECTION('',(-1.,0.,-1.85333704698377E-16));
#897=DIRECTION('',(-0.577350269189626,0.577350269189627,-0.577350269189625));
#898=DIRECTION('',(-0.577350269189625,-0.577350269189627,0.577350269189625));
#899=DIRECTION('',(1.,0.,1.85333704698377E-16));
#900=DIRECTION('',(-0.577350269189625,0.577350269189627,-0.577350269189625));
#901=DIRECTION('',(-0.707106781186548,0.707106781186548,0.));
#902=DIRECTION('',(0.,0.,1.));
#903=DIRECTION('',(-0.577350269189625,-0.577350269189627,-0.577350269189625));
#904=DIRECTION('',(0.,0.,1.));
#905=DIRECTION('',(-0.577350269189626,-0.577350269189628,-0.577350269189624));
#906=DIRECTION('',(0.,0.,-1.));
#907=DIRECTION('',(0.577350269189625,0.577350269189627,-0.577350269189625));
#908=DIRECTION('',(0.707106781186548,0.707106781186548,0.));
#909=DIRECTION('',(0.,0.,-1.));
#910=DIRECTION('',(0.,0.,1.));
#911=DIRECTION('',(-0.577350269189625,0.577350269189627,0.577350269189626));
#912=DIRECTION('',(0.,0.,-1.));
#913=DIRECTION('',(-0.577350269189625,0.577350269189628,0.577350269189625));
#914=DIRECTION('',(0.577350269189625,-0.577350269189627,0.577350269189625));
#915=DIRECTION('',(0.,0.707106781186548,-0.707106781186548));
#916=DIRECTION('',(-1.,-1.85333704698377E-16,-1.85333704698377E-16));
#917=DIRECTION('',(1.,0.,3.70667409396754E-16));
#918=DIRECTION('',(0.577350269189625,0.577350269189628,0.577350269189625));
#919=DIRECTION('',(-1.,0.,-3.70667409396754E-16));
#920=DIRECTION('',(0.577350269189625,-0.577350269189628,-0.577350269189625));
#921=DIRECTION('',(0.,1.,0.));
#922=DIRECTION('',(0.,0.,1.));
#923=DIRECTION('',(0.707106781186549,0.,0.707106781186547));
#924=DIRECTION('',(1.,0.,1.85333704698377E-16));
#925=DIRECTION('',(0.707106781186547,0.,-0.707106781186548));
#926=DIRECTION('',(0.,0.,-1.));
#927=DIRECTION('',(-0.707106781186548,0.,-0.707106781186548));
#928=DIRECTION('',(-1.,0.,-3.70667409396754E-16));
#929=DIRECTION('',(-0.707106781186548,0.,0.707106781186548));
#930=DIRECTION('',(0.,0.,1.));
#931=DIRECTION('',(0.,0.,-1.));
#932=DIRECTION('',(1.,0.,0.));
#933=DIRECTION('',(0.,0.,1.));
#934=DIRECTION('',(-1.,0.,0.));
#935=DIRECTION('',(0.,1.,0.));
#936=DIRECTION('',(0.,0.,1.));
#937=DIRECTION('',(0.,0.,1.));
#938=DIRECTION('',(1.,0.,0.));
#939=DIRECTION('',(0.,1.,0.));
#940=DIRECTION('',(0.,1.,0.));
#941=DIRECTION('',(0.707106781186548,0.,0.707106781186548));
#942=DIRECTION('',(0.707106781186548,0.,-0.707106781186548));
#943=DIRECTION('',(0.,1.,0.));
#944=DIRECTION('',(1.,0.,0.));
#945=DIRECTION('',(0.,0.,-1.));
#946=DIRECTION('',(0.,1.,0.));
#947=DIRECTION('',(0.707106781186548,0.,-0.707106781186548));
#948=DIRECTION('',(-0.707106781186548,0.,-0.707106781186548));
#949=DIRECTION('',(0.,1.,0.));
#950=DIRECTION('',(0.,0.,-1.));
#951=DIRECTION('',(-1.,0.,0.));
#952=DIRECTION('',(0.,1.,0.));
#953=DIRECTION('',(-0.707106781186548,0.,-0.707106781186548));
#954=DIRECTION('',(-0.707106781186548,0.,0.707106781186548));
#955=DIRECTION('',(0.,1.,0.));
#956=DIRECTION('',(-1.,0.,0.));
#957=DIRECTION('',(0.,0.,1.));
#958=DIRECTION('',(0.,1.,0.));
#959=DIRECTION('',(-0.707106781186548,0.,0.707106781186548));
#960=DIRECTION('',(0.707106781186548,0.,0.707106781186548));
#961=DIRECTION('',(1.,0.,0.));
#962=DIRECTION('',(0.,0.,-1.));
#963=DIRECTION('',(0.,-1.,0.));
#964=DIRECTION('',(0.,-1.,0.));
#965=DIRECTION('',(0.,0.,-1.));
#966=DIRECTION('',(-1.,0.,0.));
#967=DIRECTION('',(0.,-1.,0.));
#968=DIRECTION('',(-1.,0.,0.));
#969=DIRECTION('',(0.,0.,1.));
#970=DIRECTION('',(0.,-1.,0.));
#971=DIRECTION('',(0.,0.,1.));
#972=DIRECTION('',(1.,0.,0.));
#973=CARTESIAN_POINT('',(0.,0.,0.));
#974=CARTESIAN_POINT('',(-0.00508,0.0031,0.));
#975=CARTESIAN_POINT('',(-0.00097,0.0031,0.0015));
#976=CARTESIAN_POINT('',(-0.00097,0.0031,0.0018));
#977=CARTESIAN_POINT('',(-0.00097,0.0031,0.0012));
#978=CARTESIAN_POINT('',(-0.00127,0.0031,0.0012));
#979=CARTESIAN_POINT('',(-0.00157,0.0031,0.0012));
#980=CARTESIAN_POINT('',(-0.00157,0.0031,0.0015));
#981=CARTESIAN_POINT('',(-0.00157,0.0031,0.0018));
#982=CARTESIAN_POINT('',(-0.00127,0.0031,0.0018));
#983=CARTESIAN_POINT('',(-0.00197710678118655,0.0012,0.00220710678118656));
#984=CARTESIAN_POINT('',(-0.00177355339059327,0.00181911432561079,0.00200355339059328));
#985=CARTESIAN_POINT('',(-0.00157,0.00243822865122158,0.0018));
#986=CARTESIAN_POINT('',(-0.00157,0.0031,0.0018));
#987=CARTESIAN_POINT('',(-0.00158684393503129,0.0012,0.00259736962734182));
#988=CARTESIAN_POINT('',(-0.00147842196751564,0.00181911432561079,0.00219868481367091));
#989=CARTESIAN_POINT('',(-0.00137,0.00243822865122158,0.0018));
#990=CARTESIAN_POINT('',(-0.00137,0.0031,0.0018));
#991=CARTESIAN_POINT('',(-0.000953156064968718,0.0012,0.00259736962734182));
#992=CARTESIAN_POINT('',(-0.00106157803248436,0.00181911432561079,0.00219868481367091));
#993=CARTESIAN_POINT('',(-0.00117,0.00243822865122158,0.0018));
#994=CARTESIAN_POINT('',(-0.00117,0.0031,0.0018));
#995=CARTESIAN_POINT('',(-0.000562893218813452,0.0012,0.00220710678118656));
#996=CARTESIAN_POINT('',(-0.000766446609406727,0.00181911432561079,0.00200355339059328));
#997=CARTESIAN_POINT('',(-0.00097,0.00243822865122158,0.0018));
#998=CARTESIAN_POINT('',(-0.00097,0.0031,0.0018));
#999=CARTESIAN_POINT('',(-0.00197710678118655,0.0012,0.00220710678118656));
#1000=CARTESIAN_POINT('',(-0.00179037675884477,0.0012,0.00239383680352834));
#1001=CARTESIAN_POINT('',(-0.00127067550383773,0.0012,0.00260575757218573));
#1002=CARTESIAN_POINT('',(-0.00074964991744662,0.0012,0.00239386347981972));
#1003=CARTESIAN_POINT('',(-0.000562893218813452,0.0012,0.00220710678118656));
#1004=CARTESIAN_POINT('',(-0.00197710678118655,0.0012,0.00220710678118656));
#1005=CARTESIAN_POINT('',(-0.000562893218813452,0.0012,0.00220710678118656));
#1006=CARTESIAN_POINT('',(-0.000562893218813452,0.0012,0.00220710678118656));
#1007=CARTESIAN_POINT('',(-0.000766446609406727,0.00181911432561079,0.00200355339059328));
#1008=CARTESIAN_POINT('',(-0.00097,0.00243822865122158,0.0018));
#1009=CARTESIAN_POINT('',(-0.00097,0.0031,0.0018));
#1010=CARTESIAN_POINT('',(-0.00197710678118655,0.0012,0.00220710678118656));
#1011=CARTESIAN_POINT('',(-0.00177355339059327,0.00181911432561079,0.00200355339059328));
#1012=CARTESIAN_POINT('',(-0.00157,0.00243822865122158,0.0018));
#1013=CARTESIAN_POINT('',(-0.00157,0.0031,0.0018));
#1014=CARTESIAN_POINT('',(-0.000562893218813451,0.0012,0.00220710678118656));
#1015=CARTESIAN_POINT('',(-0.000766446609406726,0.00181911432561079,0.00200355339059328));
#1016=CARTESIAN_POINT('',(-0.00097,0.00243822865122158,0.0018));
#1017=CARTESIAN_POINT('',(-0.00097,0.0031,0.0018));
#1018=CARTESIAN_POINT('',(-0.000172630372658185,0.0012,0.00181684393503129));
#1019=CARTESIAN_POINT('',(-0.000571315186329093,0.00181911432561079,0.00170842196751564));
#1020=CARTESIAN_POINT('',(-0.00097,0.00243822865122158,0.0016));
#1021=CARTESIAN_POINT('',(-0.00097,0.0031,0.0016));
#1022=CARTESIAN_POINT('',(-0.000172630372658186,0.0012,0.00118315606496872));
#1023=CARTESIAN_POINT('',(-0.000571315186329094,0.00181911432561079,0.00129157803248436));
#1024=CARTESIAN_POINT('',(-0.00097,0.00243822865122158,0.0014));
#1025=CARTESIAN_POINT('',(-0.00097,0.0031,0.0014));
#1026=CARTESIAN_POINT('',(-0.000562893218813451,0.0012,0.000792893218813454));
#1027=CARTESIAN_POINT('',(-0.000766446609406726,0.00181911432561079,0.000996446609406729));
#1028=CARTESIAN_POINT('',(-0.00097,0.00243822865122158,0.0012));
#1029=CARTESIAN_POINT('',(-0.00097,0.0031,0.0012));
#1030=CARTESIAN_POINT('',(-0.000562893218813451,0.0012,0.00220710678118656));
#1031=CARTESIAN_POINT('',(-0.00037616319647167,0.0012,0.00202037675884477));
#1032=CARTESIAN_POINT('',(-0.000164242427814273,0.0012,0.00150067550383773));
#1033=CARTESIAN_POINT('',(-0.000376136520180283,0.0012,0.000979649917446622));
#1034=CARTESIAN_POINT('',(-0.000562893218813451,0.0012,0.000792893218813454));
#1035=CARTESIAN_POINT('',(-0.000562893218813451,0.0012,0.000792893218813454));
#1036=CARTESIAN_POINT('',(-0.00097,0.0031,0.0012));
#1037=CARTESIAN_POINT('',(-0.00097,0.00243822865122158,0.0012));
#1038=CARTESIAN_POINT('',(-0.000766446609406726,0.00181911432561079,0.000996446609406729));
#1039=CARTESIAN_POINT('',(-0.000562893218813451,0.0012,0.000792893218813454));
#1040=CARTESIAN_POINT('',(-0.00197710678118655,0.0012,0.000792893218813454));
#1041=CARTESIAN_POINT('',(-0.00177355339059327,0.00181911432561079,0.000996446609406729));
#1042=CARTESIAN_POINT('',(-0.00157,0.00243822865122158,0.0012));
#1043=CARTESIAN_POINT('',(-0.00157,0.0031,0.0012));
#1044=CARTESIAN_POINT('',(-0.00236736962734182,0.0012,0.00118315606496872));
#1045=CARTESIAN_POINT('',(-0.00196868481367091,0.00181911432561079,0.00129157803248436));
#1046=CARTESIAN_POINT('',(-0.00157,0.00243822865122158,0.0014));
#1047=CARTESIAN_POINT('',(-0.00157,0.0031,0.0014));
#1048=CARTESIAN_POINT('',(-0.00236736962734182,0.0012,0.00181684393503129));
#1049=CARTESIAN_POINT('',(-0.00196868481367091,0.00181911432561079,0.00170842196751564));
#1050=CARTESIAN_POINT('',(-0.00157,0.00243822865122158,0.0016));
#1051=CARTESIAN_POINT('',(-0.00157,0.0031,0.0016));
#1052=CARTESIAN_POINT('',(-0.00197710678118655,0.0012,0.00220710678118656));
#1053=CARTESIAN_POINT('',(-0.00177355339059327,0.00181911432561079,0.00200355339059328));
#1054=CARTESIAN_POINT('',(-0.00157,0.00243822865122158,0.0018));
#1055=CARTESIAN_POINT('',(-0.00157,0.0031,0.0018));
#1056=CARTESIAN_POINT('',(-0.00197710678118655,0.0012,0.000792893218813454));
#1057=CARTESIAN_POINT('',(-0.00216383680352833,0.0012,0.000979623241155236));
#1058=CARTESIAN_POINT('',(-0.00237575757218573,0.0012,0.00149932449616228));
#1059=CARTESIAN_POINT('',(-0.00216386347981972,0.0012,0.00202035008255339));
#1060=CARTESIAN_POINT('',(-0.00197710678118655,0.0012,0.00220710678118656));
#1061=CARTESIAN_POINT('',(-0.00197710678118655,0.0012,0.000792893218813454));
#1062=CARTESIAN_POINT('',(-0.00197710678118655,0.0012,0.000792893218813454));
#1063=CARTESIAN_POINT('',(-0.00177355339059327,0.00181911432561079,0.000996446609406729));
#1064=CARTESIAN_POINT('',(-0.00157,0.00243822865122158,0.0012));
#1065=CARTESIAN_POINT('',(-0.00157,0.0031,0.0012));
#1066=CARTESIAN_POINT('',(-0.000562893218813451,0.0012,0.000792893218813454));
#1067=CARTESIAN_POINT('',(-0.000766446609406726,0.00181911432561079,0.000996446609406729));
#1068=CARTESIAN_POINT('',(-0.00097,0.00243822865122158,0.0012));
#1069=CARTESIAN_POINT('',(-0.00097,0.0031,0.0012));
#1070=CARTESIAN_POINT('',(-0.000953156064968717,0.0012,0.000402630372658188));
#1071=CARTESIAN_POINT('',(-0.00106157803248436,0.00181911432561079,0.000801315186329096));
#1072=CARTESIAN_POINT('',(-0.00117,0.00243822865122158,0.0012));
#1073=CARTESIAN_POINT('',(-0.00117,0.0031,0.0012));
#1074=CARTESIAN_POINT('',(-0.00158684393503129,0.0012,0.000402630372658187));
#1075=CARTESIAN_POINT('',(-0.00147842196751564,0.00181911432561079,0.000801315186329096));
#1076=CARTESIAN_POINT('',(-0.00137,0.00243822865122158,0.0012));
#1077=CARTESIAN_POINT('',(-0.00137,0.0031,0.0012));
#1078=CARTESIAN_POINT('',(-0.00197710678118655,0.0012,0.000792893218813454));
#1079=CARTESIAN_POINT('',(-0.00177355339059327,0.00181911432561079,0.000996446609406729));
#1080=CARTESIAN_POINT('',(-0.00157,0.00243822865122158,0.0012));
#1081=CARTESIAN_POINT('',(-0.00157,0.0031,0.0012));
#1082=CARTESIAN_POINT('',(-0.000562893218813451,0.0012,0.000792893218813454));
#1083=CARTESIAN_POINT('',(-0.000749623241155232,0.0012,0.000606163196471673));
#1084=CARTESIAN_POINT('',(-0.00126932449616227,0.0012,0.000394242427814276));
#1085=CARTESIAN_POINT('',(-0.00179035008255338,0.0012,0.000606136520180286));
#1086=CARTESIAN_POINT('',(-0.00197710678118655,0.0012,0.000792893218813454));
#1087=CARTESIAN_POINT('',(-0.00127,0.0012,0.0015));
#1088=CARTESIAN_POINT('',(-0.00157,0.0012,0.0018));
#1089=CARTESIAN_POINT('',(-0.00097,0.0012,0.0018));
#1090=CARTESIAN_POINT('',(-0.00157,0.0012,0.0018));
#1091=CARTESIAN_POINT('',(-0.00097,0.0012,0.0012));
#1092=CARTESIAN_POINT('',(-0.00097,0.0012,0.0012));
#1093=CARTESIAN_POINT('',(-0.00157,0.0012,0.0012));
#1094=CARTESIAN_POINT('',(-0.00157,0.0012,0.0012));
#1095=CARTESIAN_POINT('',(-0.00157,0.0012,0.0012));
#1096=CARTESIAN_POINT('',(-0.00508,-0.0092,0.0016));
#1097=CARTESIAN_POINT('',(-0.00149,-0.00975425625842204,0.00128));
#1098=CARTESIAN_POINT('',(-0.00117,-0.0092,0.0016));
#1099=CARTESIAN_POINT('',(-0.00097,-0.00885358983848622,0.0018));
#1100=CARTESIAN_POINT('',(-0.00097,-0.00885358983848622,0.0018));
#1101=CARTESIAN_POINT('',(-0.00157,-0.00885358983848622,0.0018));
#1102=CARTESIAN_POINT('',(-0.00105,-0.00975425625842204,0.00128));
#1103=CARTESIAN_POINT('',(-0.00137,-0.0092,0.0016));
#1104=CARTESIAN_POINT('',(-0.00157,-0.0092,0.0016));
#1105=CARTESIAN_POINT('',(-0.00137,-0.0092,0.));
#1106=CARTESIAN_POINT('',(-0.002112,-0.00791481830078389,0.000658));
#1107=CARTESIAN_POINT('',(-0.00157,-0.00885358983848622,0.0012));
#1108=CARTESIAN_POINT('',(-0.00137,-0.0092,0.0014));
#1109=CARTESIAN_POINT('',(-0.00137,-0.0092,0.0012));
#1110=CARTESIAN_POINT('',(-0.00157,-0.00885358983848622,0.0018));
#1111=CARTESIAN_POINT('',(-0.00117,-0.0092,0.));
#1112=CARTESIAN_POINT('',(-0.001952,-0.0105544637315189,0.002182));
#1113=CARTESIAN_POINT('',(-0.00117,-0.0092,0.0014));
#1114=CARTESIAN_POINT('',(-0.00097,-0.00885358983848622,0.0012));
#1115=CARTESIAN_POINT('',(-0.00097,-0.00885358983848622,0.0012));
#1116=CARTESIAN_POINT('',(-0.00117,-0.0092,0.0018));
#1117=CARTESIAN_POINT('',(-0.00508,-0.0092,0.0014));
#1118=CARTESIAN_POINT('',(-0.00157,-0.00885358983848622,0.0012));
#1119=CARTESIAN_POINT('',(-0.00097,-0.0092,0.0014));
#1120=CARTESIAN_POINT('',(-0.00508,-0.0092,0.));
#1121=CARTESIAN_POINT('',(-0.00157,0.00584852813742386,0.0018));
#1122=CARTESIAN_POINT('',(-0.00157,0.00584852813742386,0.0018));
#1123=CARTESIAN_POINT('',(-0.00157,-0.0025,0.0018));
#1124=CARTESIAN_POINT('',(-0.00097,0.00584852813742386,0.0018));
#1125=CARTESIAN_POINT('',(-0.00097,-0.0025,0.0018));
#1126=CARTESIAN_POINT('',(-0.00508,-0.0025,0.0018));
#1127=CARTESIAN_POINT('',(-0.00157,0.00584852813742386,0.0012));
#1128=CARTESIAN_POINT('',(-0.00157,0.00584852813742386,0.0012));
#1129=CARTESIAN_POINT('',(-0.00157,-0.0025,0.0012));
#1130=CARTESIAN_POINT('',(-0.00157,-0.0025,0.));
#1131=CARTESIAN_POINT('',(-0.00157,0.00584852813742386,0.0012));
#1132=CARTESIAN_POINT('',(-0.00097,0.00584852813742386,0.0012));
#1133=CARTESIAN_POINT('',(-0.00097,-0.0025,0.0012));
#1134=CARTESIAN_POINT('',(-0.00508,-0.0025,0.0012));
#1135=CARTESIAN_POINT('',(-0.00097,0.00584852813742386,0.0012));
#1136=CARTESIAN_POINT('',(-0.00097,-0.0025,0.));
#1137=CARTESIAN_POINT('',(-0.00508,-0.0025,0.00043));
#1138=CARTESIAN_POINT('',(-0.00345333333333333,-0.00331333333333333,0.00124333333333333));
#1139=CARTESIAN_POINT('',(-0.00244,-0.0023,0.000230000000000004));
#1140=CARTESIAN_POINT('',(-0.00249,-0.00235,0.000280000000000003));
#1141=CARTESIAN_POINT('',(-0.00244,-0.0023,0.000230000000000004));
#1142=CARTESIAN_POINT('',(-0.0001,-0.0023,0.000230000000000004));
#1143=CARTESIAN_POINT('',(-0.00162666666666667,-0.000773333333333329,-0.00129666666666666));
#1144=CARTESIAN_POINT('',(-5.E-5,-0.00235,0.000280000000000004));
#1145=CARTESIAN_POINT('',(-5.66666666666658E-5,-0.00235666666666666,0.00028666666666667));
#1146=CARTESIAN_POINT('',(-0.0002,-0.0025,0.000430000000000005));
#1147=CARTESIAN_POINT('',(-0.00508,-0.0025,0.00043));
#1148=CARTESIAN_POINT('',(-0.00234,-0.0025,0.000430000000000004));
#1149=CARTESIAN_POINT('',(-0.00248333333333333,-0.00235666666666666,0.00028666666666667));
#1150=CARTESIAN_POINT('',(-0.0002,-0.0025,0.));
#1151=CARTESIAN_POINT('',(-0.00105666666666667,-0.00335666666666667,0.00171333333333334));
#1152=CARTESIAN_POINT('',(-5.E-5,-0.00235,0.00272));
#1153=CARTESIAN_POINT('',(-0.0002,-0.0025,0.00257));
#1154=CARTESIAN_POINT('',(-0.0002,-0.0025,0.));
#1155=CARTESIAN_POINT('',(-0.000243333333333335,-0.00254333333333333,8.66666666666696E-5));
#1156=CARTESIAN_POINT('',(4.74338450462408E-20,-0.0023,0.000330000000000004));
#1157=CARTESIAN_POINT('',(0.,-0.0023,0.00267));
#1158=CARTESIAN_POINT('',(0.,-0.0023,0.00267));
#1159=CARTESIAN_POINT('',(0.000756666666666665,-0.00154333333333333,0.00191333333333334));
#1160=CARTESIAN_POINT('',(-0.00234,-0.0025,0.));
#1161=CARTESIAN_POINT('',(-0.00254,-0.0023,0.00267));
#1162=CARTESIAN_POINT('',(-0.00254,-0.0023,0.000330000000000004));
#1163=CARTESIAN_POINT('',(-0.00254,-0.0023,0.00267));
#1164=CARTESIAN_POINT('',(-0.00229666666666667,-0.00254333333333333,8.66666666666685E-5));
#1165=CARTESIAN_POINT('',(-0.00234,-0.0025,0.));
#1166=CARTESIAN_POINT('',(-0.00234,-0.0025,0.00257));
#1167=CARTESIAN_POINT('',(-0.00325333333333333,-0.00158666666666667,0.00348333333333333));
#1168=CARTESIAN_POINT('',(-0.00249,-0.00235,0.00272));
#1169=CARTESIAN_POINT('',(-0.00329666666666667,-0.00154333333333333,0.00191333333333334));
#1170=CARTESIAN_POINT('',(-0.00508,-0.0025,0.00257));
#1171=CARTESIAN_POINT('',(-0.00244,-0.0023,0.00277));
#1172=CARTESIAN_POINT('',(-0.00244,-0.0023,0.00277));
#1173=CARTESIAN_POINT('',(-0.0001,-0.0023,0.00277));
#1174=CARTESIAN_POINT('',(-0.00345333333333333,-0.00331333333333333,0.00175666666666667));
#1175=CARTESIAN_POINT('',(-0.00508,-0.0025,0.00257));
#1176=CARTESIAN_POINT('',(-0.00162666666666666,-0.000773333333333331,0.00429666666666666));
#1177=CARTESIAN_POINT('',(-0.00508,0.,0.));
#1178=CARTESIAN_POINT('',(-0.0001,0.,0.000230000000000004));
#1179=CARTESIAN_POINT('',(-0.0001,-7.2280144832367E-20,0.000230000000000004));
#1180=CARTESIAN_POINT('',(9.14795583034644E-20,0.,0.000330000000000004));
#1181=CARTESIAN_POINT('',(-0.00244,0.,0.000230000000000004));
#1182=CARTESIAN_POINT('',(-0.00244,0.,0.000230000000000004));
#1183=CARTESIAN_POINT('',(-0.00254,0.,0.000330000000000004));
#1184=CARTESIAN_POINT('',(-0.00254,0.,0.000330000000000004));
#1185=CARTESIAN_POINT('',(-0.00254,0.,0.00267));
#1186=CARTESIAN_POINT('',(-0.00254,0.,0.00267));
#1187=CARTESIAN_POINT('',(-0.00254,0.,0.00267));
#1188=CARTESIAN_POINT('',(-0.00244,-1.44560289664734E-19,0.00277));
#1189=CARTESIAN_POINT('',(-0.00244,0.,0.00277));
#1190=CARTESIAN_POINT('',(-0.0001,0.,0.00277));
#1191=CARTESIAN_POINT('',(-0.0001,0.,0.00277));
#1192=CARTESIAN_POINT('',(0.,0.,0.00267));
#1193=CARTESIAN_POINT('',(0.,0.,0.00267));
#1194=CARTESIAN_POINT('',(-0.00097,0.,0.));
#1195=CARTESIAN_POINT('',(-0.00097,0.,0.0018));
#1196=CARTESIAN_POINT('',(-0.00097,0.,0.0012));
#1197=CARTESIAN_POINT('',(-0.00508,0.,0.0018));
#1198=CARTESIAN_POINT('',(-0.00157,0.,0.0018));
#1199=CARTESIAN_POINT('',(-0.00157,0.,0.));
#1200=CARTESIAN_POINT('',(-0.00157,0.,0.0012));
#1201=CARTESIAN_POINT('',(-0.00508,0.,0.0012));
#1202=CARTESIAN_POINT('',(-0.00508,-0.0025,0.));
#1203=CARTESIAN_POINT('',(-0.00244,-0.0025,0.000230000000000004));
#1204=CARTESIAN_POINT('',(-0.0001,-0.0025,0.000230000000000004));
#1205=CARTESIAN_POINT('',(-0.00244,-0.0025,0.000230000000000004));
#1206=CARTESIAN_POINT('',(-0.00254,-0.0025,0.000330000000000004));
#1207=CARTESIAN_POINT('',(-0.00254,-0.0025,0.000330000000000004));
#1208=CARTESIAN_POINT('',(-0.00254,-0.0025,0.00267));
#1209=CARTESIAN_POINT('',(-0.00254,-0.0025,0.00267));
#1210=CARTESIAN_POINT('',(-0.00254,-0.0025,0.00267));
#1211=CARTESIAN_POINT('',(-0.00244,-0.0025,0.00277));
#1212=CARTESIAN_POINT('',(-0.00244,-0.0025,0.00277));
#1213=CARTESIAN_POINT('',(-0.0001,-0.0025,0.00277));
#1214=CARTESIAN_POINT('',(-0.0001,-0.0025,0.00277));
#1215=CARTESIAN_POINT('',(0.,-0.0025,0.00267));
#1216=CARTESIAN_POINT('',(0.,-0.0025,0.00267));
#1217=CARTESIAN_POINT('',(0.,-0.0025,0.000330000000000004));
#1218=CARTESIAN_POINT('',(-0.0001,-0.0025,0.000230000000000004));
#1219=CARTESIAN_POINT('',(-0.00097,0.00584852813742386,0.0012));
#1220=CARTESIAN_POINT('',(-0.00097,0.00584852813742386,0.0012));
#1221=CARTESIAN_POINT('',(-0.00097,0.00584852813742386,0.0018));
#1222=CARTESIAN_POINT('',(-0.00157,0.00584852813742386,0.0012));
#1223=CARTESIAN_POINT('',(-0.00157,0.00584852813742386,0.0012));
#1224=CARTESIAN_POINT('',(-0.00157,0.00584852813742386,0.0012));
#1225=CARTESIAN_POINT('',(-0.00157,0.00584852813742386,0.0018));
#1226=CARTESIAN_POINT('',(-0.00157,0.00584852813742386,0.0018));
#1227=MECHANICAL_DESIGN_GEOMETRIC_PRESENTATION_REPRESENTATION('',(#624,
#561,#562,#563,#564,#565,#566,#567,#568,#569,#570,#571,#572,#573,#574,#575,
#576,#577,#578,#579,#580,#581,#582,#583,#584,#585,#586,#587,#588,#589),
#1228);
#1228=(
GEOMETRIC_REPRESENTATION_CONTEXT(3)
GLOBAL_UNCERTAINTY_ASSIGNED_CONTEXT((#1229))
GLOBAL_UNIT_ASSIGNED_CONTEXT((#1232,#1231,#1230))
REPRESENTATION_CONTEXT('OLED TFT 0.96 inch 64x128 monochrome',
'TOP_LEVEL_ASSEMBLY_PART')
);
#1229=UNCERTAINTY_MEASURE_WITH_UNIT(LENGTH_MEASURE(2.E-5),#1232,
'DISTANCE_ACCURACY_VALUE','Maximum Tolerance applied to model');
#1230=(
NAMED_UNIT(*)
SI_UNIT($,.STERADIAN.)
SOLID_ANGLE_UNIT()
);
#1231=(
NAMED_UNIT(*)
PLANE_ANGLE_UNIT()
SI_UNIT($,.RADIAN.)
);
#1232=(
LENGTH_UNIT()
NAMED_UNIT(*)
SI_UNIT($,.METRE.)
);
#1233=PRODUCT_DEFINITION_SHAPE('','',#1234);
#1234=PRODUCT_DEFINITION('','',#1236,#1235);
#1235=PRODUCT_DEFINITION_CONTEXT('',#1242,'design');
#1236=PRODUCT_DEFINITION_FORMATION_WITH_SPECIFIED_SOURCE('','',#1238,
 .NOT_KNOWN.);
#1237=PRODUCT_RELATED_PRODUCT_CATEGORY('','',(#1238));
#1238=PRODUCT('OLED TFT 0.96 inch 64x128 monochrome',
'OLED TFT 0.96 inch 64x128 monochrome',
'OLED TFT 0.96 inch 64x128 monochrome',(#1240));
#1239=PRODUCT_CATEGORY('','');
#1240=PRODUCT_CONTEXT('',#1242,'mechanical');
#1241=APPLICATION_PROTOCOL_DEFINITION('international standard',
'ap242_managed_model_based_3d_engineering',2020,#1242);
#1242=APPLICATION_CONTEXT('managed model based 3d engineering');
ENDSEC;
END-ISO-10303-21;
