ISO-10303-21;
HEADER;
/* Generated by software containing ST-Developer
 * from STEP Tools, Inc. (www.steptools.com) 
 */
/* OPTION: using custom renumber hook */

FILE_DESCRIPTION(
/* description */ ('STEP AP242 Edition 2',
'CAx-IF Rec.Pracs.---Representation and Presentation of Product Manufa
cturing Information (PMI)---4.0---2014-10-13',
'CAx-IF Rec.Pracs.---3D Tessellated Geometry---0.4---2014-09-14','2;1',
'CAx-IF Rec.Pracs.---User Defined Attributes---1.5---2016-08-15'),
/* implementation_level */ '2;1');

FILE_NAME(
/* name */ 'Assembly 2 - OLED TFT 0.96 inch 64x128 monochrome (5)',
/* time_stamp */ '2026-07-06T02:05:30Z',
/* author */ (''),
/* organization */ (''),
/* preprocessor_version */ 'ST-DEVELOPER v20',
/* originating_system */ 'ONSHAPE BY PTC INC, 1.217',
/* authorisation */ '  ');

FILE_SCHEMA (('AP242_MANAGED_MODEL_BASED_3D_ENGINEERING_MIM_LF { 1 0 10303 442 3 1 4 }'));
ENDSEC;

DATA;
#10=SHAPE_REPRESENTATION_RELATIONSHIP('','',#478,#11);
#11=ADVANCED_BREP_SHAPE_REPRESENTATION('',(#476),#716);
#12=CIRCLE('',#482,0.00075);
#13=CIRCLE('',#483,0.00075);
#14=CIRCLE('',#485,0.0008);
#15=CIRCLE('',#486,0.0008);
#16=CIRCLE('',#488,0.0182558816666668);
#17=CIRCLE('',#489,0.0182558816666668);
#18=CIRCLE('',#491,0.0183058816666668);
#19=CIRCLE('',#492,0.0183058816666668);
#20=CIRCLE('',#494,0.0002);
#21=CIRCLE('',#495,0.000200000000000003);
#22=CIRCLE('',#496,0.0002);
#23=CIRCLE('',#497,0.000199999999999996);
#24=CIRCLE('',#499,0.000199999999999996);
#25=CIRCLE('',#500,0.0002);
#26=CIRCLE('',#501,0.000200000000000003);
#27=CIRCLE('',#502,0.0002);
#28=CYLINDRICAL_SURFACE('',#481,0.00075);
#29=CYLINDRICAL_SURFACE('',#484,0.0008);
#30=CYLINDRICAL_SURFACE('',#487,0.0182558816666668);
#31=CYLINDRICAL_SURFACE('',#490,0.0183058816666668);
#32=CYLINDRICAL_SURFACE('',#503,0.0002);
#33=CYLINDRICAL_SURFACE('',#506,0.000200000000000003);
#34=CYLINDRICAL_SURFACE('',#508,0.0002);
#35=CYLINDRICAL_SURFACE('',#512,0.000199999999999996);
#36=ORIENTED_EDGE('',*,*,#132,.T.);
#37=ORIENTED_EDGE('',*,*,#133,.T.);
#38=ORIENTED_EDGE('',*,*,#134,.T.);
#39=ORIENTED_EDGE('',*,*,#135,.T.);
#40=ORIENTED_EDGE('',*,*,#136,.F.);
#41=ORIENTED_EDGE('',*,*,#137,.T.);
#42=ORIENTED_EDGE('',*,*,#138,.T.);
#43=ORIENTED_EDGE('',*,*,#139,.F.);
#44=ORIENTED_EDGE('',*,*,#140,.F.);
#45=ORIENTED_EDGE('',*,*,#141,.F.);
#46=ORIENTED_EDGE('',*,*,#142,.T.);
#47=ORIENTED_EDGE('',*,*,#143,.F.);
#48=ORIENTED_EDGE('',*,*,#136,.T.);
#49=ORIENTED_EDGE('',*,*,#144,.T.);
#50=ORIENTED_EDGE('',*,*,#135,.F.);
#51=ORIENTED_EDGE('',*,*,#145,.F.);
#52=ORIENTED_EDGE('',*,*,#141,.T.);
#53=ORIENTED_EDGE('',*,*,#146,.T.);
#54=ORIENTED_EDGE('',*,*,#133,.F.);
#55=ORIENTED_EDGE('',*,*,#147,.F.);
#56=ORIENTED_EDGE('',*,*,#148,.T.);
#57=ORIENTED_EDGE('',*,*,#149,.F.);
#58=ORIENTED_EDGE('',*,*,#150,.T.);
#59=ORIENTED_EDGE('',*,*,#138,.F.);
#60=ORIENTED_EDGE('',*,*,#151,.F.);
#61=ORIENTED_EDGE('',*,*,#152,.T.);
#62=ORIENTED_EDGE('',*,*,#153,.F.);
#63=ORIENTED_EDGE('',*,*,#154,.T.);
#64=ORIENTED_EDGE('',*,*,#155,.F.);
#65=ORIENTED_EDGE('',*,*,#156,.T.);
#66=ORIENTED_EDGE('',*,*,#157,.T.);
#67=ORIENTED_EDGE('',*,*,#158,.F.);
#68=ORIENTED_EDGE('',*,*,#159,.F.);
#69=ORIENTED_EDGE('',*,*,#160,.T.);
#70=ORIENTED_EDGE('',*,*,#161,.F.);
#71=ORIENTED_EDGE('',*,*,#162,.F.);
#72=ORIENTED_EDGE('',*,*,#163,.T.);
#73=ORIENTED_EDGE('',*,*,#164,.F.);
#74=ORIENTED_EDGE('',*,*,#165,.T.);
#75=ORIENTED_EDGE('',*,*,#166,.F.);
#76=ORIENTED_EDGE('',*,*,#167,.T.);
#77=ORIENTED_EDGE('',*,*,#143,.T.);
#78=ORIENTED_EDGE('',*,*,#168,.F.);
#79=ORIENTED_EDGE('',*,*,#169,.T.);
#80=ORIENTED_EDGE('',*,*,#149,.T.);
#81=ORIENTED_EDGE('',*,*,#170,.F.);
#82=ORIENTED_EDGE('',*,*,#169,.F.);
#83=ORIENTED_EDGE('',*,*,#171,.T.);
#84=ORIENTED_EDGE('',*,*,#150,.F.);
#85=ORIENTED_EDGE('',*,*,#171,.F.);
#86=ORIENTED_EDGE('',*,*,#168,.T.);
#87=ORIENTED_EDGE('',*,*,#142,.F.);
#88=ORIENTED_EDGE('',*,*,#147,.T.);
#89=ORIENTED_EDGE('',*,*,#132,.F.);
#90=ORIENTED_EDGE('',*,*,#144,.F.);
#91=ORIENTED_EDGE('',*,*,#139,.T.);
#92=ORIENTED_EDGE('',*,*,#151,.T.);
#93=ORIENTED_EDGE('',*,*,#137,.F.);
#94=ORIENTED_EDGE('',*,*,#145,.T.);
#95=ORIENTED_EDGE('',*,*,#134,.F.);
#96=ORIENTED_EDGE('',*,*,#146,.F.);
#97=ORIENTED_EDGE('',*,*,#140,.T.);
#98=ORIENTED_EDGE('',*,*,#167,.F.);
#99=ORIENTED_EDGE('',*,*,#172,.T.);
#100=ORIENTED_EDGE('',*,*,#152,.F.);
#101=ORIENTED_EDGE('',*,*,#172,.F.);
#102=ORIENTED_EDGE('',*,*,#166,.T.);
#103=ORIENTED_EDGE('',*,*,#173,.T.);
#104=ORIENTED_EDGE('',*,*,#153,.T.);
#105=ORIENTED_EDGE('',*,*,#173,.F.);
#106=ORIENTED_EDGE('',*,*,#165,.F.);
#107=ORIENTED_EDGE('',*,*,#174,.T.);
#108=ORIENTED_EDGE('',*,*,#154,.F.);
#109=ORIENTED_EDGE('',*,*,#174,.F.);
#110=ORIENTED_EDGE('',*,*,#164,.T.);
#111=ORIENTED_EDGE('',*,*,#175,.T.);
#112=ORIENTED_EDGE('',*,*,#155,.T.);
#113=ORIENTED_EDGE('',*,*,#175,.F.);
#114=ORIENTED_EDGE('',*,*,#163,.F.);
#115=ORIENTED_EDGE('',*,*,#176,.T.);
#116=ORIENTED_EDGE('',*,*,#156,.F.);
#117=ORIENTED_EDGE('',*,*,#176,.F.);
#118=ORIENTED_EDGE('',*,*,#162,.T.);
#119=ORIENTED_EDGE('',*,*,#177,.T.);
#120=ORIENTED_EDGE('',*,*,#157,.F.);
#121=ORIENTED_EDGE('',*,*,#177,.F.);
#122=ORIENTED_EDGE('',*,*,#161,.T.);
#123=ORIENTED_EDGE('',*,*,#178,.T.);
#124=ORIENTED_EDGE('',*,*,#158,.T.);
#125=ORIENTED_EDGE('',*,*,#178,.F.);
#126=ORIENTED_EDGE('',*,*,#160,.F.);
#127=ORIENTED_EDGE('',*,*,#179,.T.);
#128=ORIENTED_EDGE('',*,*,#148,.F.);
#129=ORIENTED_EDGE('',*,*,#179,.F.);
#130=ORIENTED_EDGE('',*,*,#159,.T.);
#131=ORIENTED_EDGE('',*,*,#170,.T.);
#132=EDGE_CURVE('',#180,#181,#212,.T.);
#133=EDGE_CURVE('',#181,#182,#213,.T.);
#134=EDGE_CURVE('',#182,#183,#214,.T.);
#135=EDGE_CURVE('',#183,#180,#215,.T.);
#136=EDGE_CURVE('',#184,#185,#216,.T.);
#137=EDGE_CURVE('',#184,#186,#12,.T.);
#138=EDGE_CURVE('',#186,#187,#217,.T.);
#139=EDGE_CURVE('',#185,#187,#13,.T.);
#140=EDGE_CURVE('',#188,#189,#14,.T.);
#141=EDGE_CURVE('',#190,#188,#218,.T.);
#142=EDGE_CURVE('',#190,#191,#15,.T.);
#143=EDGE_CURVE('',#189,#191,#219,.T.);
#144=EDGE_CURVE('',#185,#180,#16,.T.);
#145=EDGE_CURVE('',#184,#183,#17,.T.);
#146=EDGE_CURVE('',#188,#182,#18,.T.);
#147=EDGE_CURVE('',#190,#181,#19,.T.);
#148=EDGE_CURVE('',#192,#193,#220,.T.);
#149=EDGE_CURVE('',#194,#193,#20,.T.);
#150=EDGE_CURVE('',#194,#187,#221,.T.);
#151=EDGE_CURVE('',#195,#186,#222,.T.);
#152=EDGE_CURVE('',#195,#196,#21,.T.);
#153=EDGE_CURVE('',#197,#196,#223,.T.);
#154=EDGE_CURVE('',#197,#198,#22,.T.);
#155=EDGE_CURVE('',#199,#198,#224,.T.);
#156=EDGE_CURVE('',#199,#200,#225,.T.);
#157=EDGE_CURVE('',#200,#201,#226,.T.);
#158=EDGE_CURVE('',#192,#201,#23,.T.);
#159=EDGE_CURVE('',#202,#203,#227,.T.);
#160=EDGE_CURVE('',#202,#204,#24,.T.);
#161=EDGE_CURVE('',#205,#204,#228,.T.);
#162=EDGE_CURVE('',#206,#205,#229,.T.);
#163=EDGE_CURVE('',#206,#207,#230,.T.);
#164=EDGE_CURVE('',#208,#207,#25,.T.);
#165=EDGE_CURVE('',#208,#209,#231,.T.);
#166=EDGE_CURVE('',#210,#209,#26,.T.);
#167=EDGE_CURVE('',#210,#189,#232,.T.);
#168=EDGE_CURVE('',#211,#191,#233,.T.);
#169=EDGE_CURVE('',#211,#203,#27,.T.);
#170=EDGE_CURVE('',#203,#193,#234,.T.);
#171=EDGE_CURVE('',#211,#194,#235,.T.);
#172=EDGE_CURVE('',#210,#195,#236,.T.);
#173=EDGE_CURVE('',#209,#196,#237,.T.);
#174=EDGE_CURVE('',#208,#197,#238,.T.);
#175=EDGE_CURVE('',#207,#198,#239,.T.);
#176=EDGE_CURVE('',#206,#199,#240,.T.);
#177=EDGE_CURVE('',#205,#200,#241,.T.);
#178=EDGE_CURVE('',#204,#201,#242,.T.);
#179=EDGE_CURVE('',#202,#192,#243,.T.);
#180=VERTEX_POINT('',#619);
#181=VERTEX_POINT('',#620);
#182=VERTEX_POINT('',#622);
#183=VERTEX_POINT('',#624);
#184=VERTEX_POINT('',#628);
#185=VERTEX_POINT('',#629);
#186=VERTEX_POINT('',#631);
#187=VERTEX_POINT('',#633);
#188=VERTEX_POINT('',#637);
#189=VERTEX_POINT('',#638);
#190=VERTEX_POINT('',#640);
#191=VERTEX_POINT('',#642);
#192=VERTEX_POINT('',#652);
#193=VERTEX_POINT('',#653);
#194=VERTEX_POINT('',#655);
#195=VERTEX_POINT('',#658);
#196=VERTEX_POINT('',#660);
#197=VERTEX_POINT('',#662);
#198=VERTEX_POINT('',#664);
#199=VERTEX_POINT('',#666);
#200=VERTEX_POINT('',#668);
#201=VERTEX_POINT('',#670);
#202=VERTEX_POINT('',#674);
#203=VERTEX_POINT('',#675);
#204=VERTEX_POINT('',#677);
#205=VERTEX_POINT('',#679);
#206=VERTEX_POINT('',#681);
#207=VERTEX_POINT('',#683);
#208=VERTEX_POINT('',#685);
#209=VERTEX_POINT('',#687);
#210=VERTEX_POINT('',#689);
#211=VERTEX_POINT('',#692);
#212=LINE('',#618,#244);
#213=LINE('',#621,#245);
#214=LINE('',#623,#246);
#215=LINE('',#625,#247);
#216=LINE('',#627,#248);
#217=LINE('',#632,#249);
#218=LINE('',#639,#250);
#219=LINE('',#643,#251);
#220=LINE('',#651,#252);
#221=LINE('',#656,#253);
#222=LINE('',#657,#254);
#223=LINE('',#661,#255);
#224=LINE('',#665,#256);
#225=LINE('',#667,#257);
#226=LINE('',#669,#258);
#227=LINE('',#673,#259);
#228=LINE('',#678,#260);
#229=LINE('',#680,#261);
#230=LINE('',#682,#262);
#231=LINE('',#686,#263);
#232=LINE('',#690,#264);
#233=LINE('',#691,#265);
#234=LINE('',#695,#266);
#235=LINE('',#696,#267);
#236=LINE('',#699,#268);
#237=LINE('',#701,#269);
#238=LINE('',#703,#270);
#239=LINE('',#705,#271);
#240=LINE('',#707,#272);
#241=LINE('',#709,#273);
#242=LINE('',#711,#274);
#243=LINE('',#713,#275);
#244=VECTOR('',#518,1.);
#245=VECTOR('',#519,1.);
#246=VECTOR('',#520,1.);
#247=VECTOR('',#521,1.);
#248=VECTOR('',#524,1.);
#249=VECTOR('',#527,1.);
#250=VECTOR('',#534,1.);
#251=VECTOR('',#537,1.);
#252=VECTOR('',#552,1.);
#253=VECTOR('',#555,1.);
#254=VECTOR('',#556,1.);
#255=VECTOR('',#559,1.);
#256=VECTOR('',#562,1.);
#257=VECTOR('',#563,1.);
#258=VECTOR('',#564,1.);
#259=VECTOR('',#569,1.);
#260=VECTOR('',#572,1.);
#261=VECTOR('',#573,1.);
#262=VECTOR('',#574,1.);
#263=VECTOR('',#577,1.);
#264=VECTOR('',#580,1.);
#265=VECTOR('',#581,1.);
#266=VECTOR('',#586,1.);
#267=VECTOR('',#587,1.);
#268=VECTOR('',#592,1.);
#269=VECTOR('',#595,1.);
#270=VECTOR('',#598,1.);
#271=VECTOR('',#601,1.);
#272=VECTOR('',#604,1.);
#273=VECTOR('',#607,1.);
#274=VECTOR('',#610,1.);
#275=VECTOR('',#613,1.);
#276=EDGE_LOOP('',(#36,#37,#38,#39));
#277=EDGE_LOOP('',(#40,#41,#42,#43));
#278=EDGE_LOOP('',(#44,#45,#46,#47));
#279=EDGE_LOOP('',(#48,#49,#50,#51));
#280=EDGE_LOOP('',(#52,#53,#54,#55));
#281=EDGE_LOOP('',(#56,#57,#58,#59,#60,#61,#62,#63,#64,#65,#66,#67));
#282=EDGE_LOOP('',(#68,#69,#70,#71,#72,#73,#74,#75,#76,#77,#78,#79));
#283=EDGE_LOOP('',(#80,#81,#82,#83));
#284=EDGE_LOOP('',(#84,#85,#86,#87,#88,#89,#90,#91));
#285=EDGE_LOOP('',(#92,#93,#94,#95,#96,#97,#98,#99));
#286=EDGE_LOOP('',(#100,#101,#102,#103));
#287=EDGE_LOOP('',(#104,#105,#106,#107));
#288=EDGE_LOOP('',(#108,#109,#110,#111));
#289=EDGE_LOOP('',(#112,#113,#114,#115));
#290=EDGE_LOOP('',(#116,#117,#118,#119));
#291=EDGE_LOOP('',(#120,#121,#122,#123));
#292=EDGE_LOOP('',(#124,#125,#126,#127));
#293=EDGE_LOOP('',(#128,#129,#130,#131));
#294=FACE_BOUND('',#276,.T.);
#295=FACE_BOUND('',#277,.T.);
#296=FACE_BOUND('',#278,.T.);
#297=FACE_BOUND('',#279,.T.);
#298=FACE_BOUND('',#280,.T.);
#299=FACE_BOUND('',#281,.T.);
#300=FACE_BOUND('',#282,.T.);
#301=FACE_BOUND('',#283,.T.);
#302=FACE_BOUND('',#284,.T.);
#303=FACE_BOUND('',#285,.T.);
#304=FACE_BOUND('',#286,.T.);
#305=FACE_BOUND('',#287,.T.);
#306=FACE_BOUND('',#288,.T.);
#307=FACE_BOUND('',#289,.T.);
#308=FACE_BOUND('',#290,.T.);
#309=FACE_BOUND('',#291,.T.);
#310=FACE_BOUND('',#292,.T.);
#311=FACE_BOUND('',#293,.T.);
#312=PLANE('',#480);
#313=PLANE('',#493);
#314=PLANE('',#498);
#315=PLANE('',#504);
#316=PLANE('',#505);
#317=PLANE('',#507);
#318=PLANE('',#509);
#319=PLANE('',#510);
#320=PLANE('',#511);
#321=PLANE('',#513);
#322=OVER_RIDING_STYLED_ITEM('',(#361),#340,#359);
#323=OVER_RIDING_STYLED_ITEM('',(#362),#341,#359);
#324=OVER_RIDING_STYLED_ITEM('',(#363),#342,#359);
#325=OVER_RIDING_STYLED_ITEM('',(#364),#343,#359);
#326=OVER_RIDING_STYLED_ITEM('',(#365),#344,#359);
#327=OVER_RIDING_STYLED_ITEM('',(#366),#345,#359);
#328=OVER_RIDING_STYLED_ITEM('',(#367),#346,#359);
#329=OVER_RIDING_STYLED_ITEM('',(#368),#347,#359);
#330=OVER_RIDING_STYLED_ITEM('',(#369),#348,#359);
#331=OVER_RIDING_STYLED_ITEM('',(#370),#349,#359);
#332=OVER_RIDING_STYLED_ITEM('',(#371),#350,#359);
#333=OVER_RIDING_STYLED_ITEM('',(#372),#351,#359);
#334=OVER_RIDING_STYLED_ITEM('',(#373),#352,#359);
#335=OVER_RIDING_STYLED_ITEM('',(#374),#353,#359);
#336=OVER_RIDING_STYLED_ITEM('',(#375),#354,#359);
#337=OVER_RIDING_STYLED_ITEM('',(#376),#355,#359);
#338=OVER_RIDING_STYLED_ITEM('',(#377),#356,#359);
#339=OVER_RIDING_STYLED_ITEM('',(#378),#357,#359);
#340=ADVANCED_FACE('',(#294),#312,.T.);
#341=ADVANCED_FACE('',(#295),#28,.F.);
#342=ADVANCED_FACE('',(#296),#29,.T.);
#343=ADVANCED_FACE('',(#297),#30,.F.);
#344=ADVANCED_FACE('',(#298),#31,.T.);
#345=ADVANCED_FACE('',(#299),#313,.F.);
#346=ADVANCED_FACE('',(#300),#314,.T.);
#347=ADVANCED_FACE('',(#301),#32,.F.);
#348=ADVANCED_FACE('',(#302),#315,.T.);
#349=ADVANCED_FACE('',(#303),#316,.F.);
#350=ADVANCED_FACE('',(#304),#33,.F.);
#351=ADVANCED_FACE('',(#305),#317,.F.);
#352=ADVANCED_FACE('',(#306),#34,.T.);
#353=ADVANCED_FACE('',(#307),#318,.F.);
#354=ADVANCED_FACE('',(#308),#319,.T.);
#355=ADVANCED_FACE('',(#309),#320,.T.);
#356=ADVANCED_FACE('',(#310),#35,.T.);
#357=ADVANCED_FACE('',(#311),#321,.T.);
#358=CLOSED_SHELL('',(#340,#341,#342,#343,#344,#345,#346,#347,#348,#349,
#350,#351,#352,#353,#354,#355,#356,#357));
#359=STYLED_ITEM('',(#360),#476);
#360=PRESENTATION_STYLE_ASSIGNMENT((#379));
#361=PRESENTATION_STYLE_ASSIGNMENT((#380));
#362=PRESENTATION_STYLE_ASSIGNMENT((#381));
#363=PRESENTATION_STYLE_ASSIGNMENT((#382));
#364=PRESENTATION_STYLE_ASSIGNMENT((#383));
#365=PRESENTATION_STYLE_ASSIGNMENT((#384));
#366=PRESENTATION_STYLE_ASSIGNMENT((#385));
#367=PRESENTATION_STYLE_ASSIGNMENT((#386));
#368=PRESENTATION_STYLE_ASSIGNMENT((#387));
#369=PRESENTATION_STYLE_ASSIGNMENT((#388));
#370=PRESENTATION_STYLE_ASSIGNMENT((#389));
#371=PRESENTATION_STYLE_ASSIGNMENT((#390));
#372=PRESENTATION_STYLE_ASSIGNMENT((#391));
#373=PRESENTATION_STYLE_ASSIGNMENT((#392));
#374=PRESENTATION_STYLE_ASSIGNMENT((#393));
#375=PRESENTATION_STYLE_ASSIGNMENT((#394));
#376=PRESENTATION_STYLE_ASSIGNMENT((#395));
#377=PRESENTATION_STYLE_ASSIGNMENT((#396));
#378=PRESENTATION_STYLE_ASSIGNMENT((#397));
#379=SURFACE_STYLE_USAGE(.BOTH.,#398);
#380=SURFACE_STYLE_USAGE(.BOTH.,#399);
#381=SURFACE_STYLE_USAGE(.BOTH.,#400);
#382=SURFACE_STYLE_USAGE(.BOTH.,#401);
#383=SURFACE_STYLE_USAGE(.BOTH.,#402);
#384=SURFACE_STYLE_USAGE(.BOTH.,#403);
#385=SURFACE_STYLE_USAGE(.BOTH.,#404);
#386=SURFACE_STYLE_USAGE(.BOTH.,#405);
#387=SURFACE_STYLE_USAGE(.BOTH.,#406);
#388=SURFACE_STYLE_USAGE(.BOTH.,#407);
#389=SURFACE_STYLE_USAGE(.BOTH.,#408);
#390=SURFACE_STYLE_USAGE(.BOTH.,#409);
#391=SURFACE_STYLE_USAGE(.BOTH.,#410);
#392=SURFACE_STYLE_USAGE(.BOTH.,#411);
#393=SURFACE_STYLE_USAGE(.BOTH.,#412);
#394=SURFACE_STYLE_USAGE(.BOTH.,#413);
#395=SURFACE_STYLE_USAGE(.BOTH.,#414);
#396=SURFACE_STYLE_USAGE(.BOTH.,#415);
#397=SURFACE_STYLE_USAGE(.BOTH.,#416);
#398=SURFACE_SIDE_STYLE('',(#417));
#399=SURFACE_SIDE_STYLE('',(#418));
#400=SURFACE_SIDE_STYLE('',(#419));
#401=SURFACE_SIDE_STYLE('',(#420));
#402=SURFACE_SIDE_STYLE('',(#421));
#403=SURFACE_SIDE_STYLE('',(#422));
#404=SURFACE_SIDE_STYLE('',(#423));
#405=SURFACE_SIDE_STYLE('',(#424));
#406=SURFACE_SIDE_STYLE('',(#425));
#407=SURFACE_SIDE_STYLE('',(#426));
#408=SURFACE_SIDE_STYLE('',(#427));
#409=SURFACE_SIDE_STYLE('',(#428));
#410=SURFACE_SIDE_STYLE('',(#429));
#411=SURFACE_SIDE_STYLE('',(#430));
#412=SURFACE_SIDE_STYLE('',(#431));
#413=SURFACE_SIDE_STYLE('',(#432));
#414=SURFACE_SIDE_STYLE('',(#433));
#415=SURFACE_SIDE_STYLE('',(#434));
#416=SURFACE_SIDE_STYLE('',(#435));
#417=SURFACE_STYLE_FILL_AREA(#436);
#418=SURFACE_STYLE_FILL_AREA(#437);
#419=SURFACE_STYLE_FILL_AREA(#438);
#420=SURFACE_STYLE_FILL_AREA(#439);
#421=SURFACE_STYLE_FILL_AREA(#440);
#422=SURFACE_STYLE_FILL_AREA(#441);
#423=SURFACE_STYLE_FILL_AREA(#442);
#424=SURFACE_STYLE_FILL_AREA(#443);
#425=SURFACE_STYLE_FILL_AREA(#444);
#426=SURFACE_STYLE_FILL_AREA(#445);
#427=SURFACE_STYLE_FILL_AREA(#446);
#428=SURFACE_STYLE_FILL_AREA(#447);
#429=SURFACE_STYLE_FILL_AREA(#448);
#430=SURFACE_STYLE_FILL_AREA(#449);
#431=SURFACE_STYLE_FILL_AREA(#450);
#432=SURFACE_STYLE_FILL_AREA(#451);
#433=SURFACE_STYLE_FILL_AREA(#452);
#434=SURFACE_STYLE_FILL_AREA(#453);
#435=SURFACE_STYLE_FILL_AREA(#454);
#436=FILL_AREA_STYLE('',(#455));
#437=FILL_AREA_STYLE('',(#456));
#438=FILL_AREA_STYLE('',(#457));
#439=FILL_AREA_STYLE('',(#458));
#440=FILL_AREA_STYLE('',(#459));
#441=FILL_AREA_STYLE('',(#460));
#442=FILL_AREA_STYLE('',(#461));
#443=FILL_AREA_STYLE('',(#462));
#444=FILL_AREA_STYLE('',(#463));
#445=FILL_AREA_STYLE('',(#464));
#446=FILL_AREA_STYLE('',(#465));
#447=FILL_AREA_STYLE('',(#466));
#448=FILL_AREA_STYLE('',(#467));
#449=FILL_AREA_STYLE('',(#468));
#450=FILL_AREA_STYLE('',(#469));
#451=FILL_AREA_STYLE('',(#470));
#452=FILL_AREA_STYLE('',(#471));
#453=FILL_AREA_STYLE('',(#472));
#454=FILL_AREA_STYLE('',(#473));
#455=FILL_AREA_STYLE_COLOUR('',#474);
#456=FILL_AREA_STYLE_COLOUR('',#475);
#457=FILL_AREA_STYLE_COLOUR('',#475);
#458=FILL_AREA_STYLE_COLOUR('',#475);
#459=FILL_AREA_STYLE_COLOUR('',#475);
#460=FILL_AREA_STYLE_COLOUR('',#475);
#461=FILL_AREA_STYLE_COLOUR('',#475);
#462=FILL_AREA_STYLE_COLOUR('',#475);
#463=FILL_AREA_STYLE_COLOUR('',#475);
#464=FILL_AREA_STYLE_COLOUR('',#475);
#465=FILL_AREA_STYLE_COLOUR('',#475);
#466=FILL_AREA_STYLE_COLOUR('',#475);
#467=FILL_AREA_STYLE_COLOUR('',#475);
#468=FILL_AREA_STYLE_COLOUR('',#475);
#469=FILL_AREA_STYLE_COLOUR('',#475);
#470=FILL_AREA_STYLE_COLOUR('',#475);
#471=FILL_AREA_STYLE_COLOUR('',#475);
#472=FILL_AREA_STYLE_COLOUR('',#475);
#473=FILL_AREA_STYLE_COLOUR('',#475);
#474=COLOUR_RGB('',0.647058823529412,0.619607843137255,0.588235294117647);
#475=COLOUR_RGB('',0.870588235294118,0.674509803921569,0.0784313725490196);
#476=MANIFOLD_SOLID_BREP('OLED TFT 0.96 inch 64x128 monochrome',#358);
#477=SHAPE_DEFINITION_REPRESENTATION(#721,#478);
#478=SHAPE_REPRESENTATION('OLED TFT 0.96 inch 64x128 monochrome',(#479),
#716);
#479=AXIS2_PLACEMENT_3D('',#616,#514,#515);
#480=AXIS2_PLACEMENT_3D('',#617,#516,#517);
#481=AXIS2_PLACEMENT_3D('',#626,#522,#523);
#482=AXIS2_PLACEMENT_3D('',#630,#525,#526);
#483=AXIS2_PLACEMENT_3D('',#634,#528,#529);
#484=AXIS2_PLACEMENT_3D('',#635,#530,#531);
#485=AXIS2_PLACEMENT_3D('',#636,#532,#533);
#486=AXIS2_PLACEMENT_3D('',#641,#535,#536);
#487=AXIS2_PLACEMENT_3D('',#644,#538,#539);
#488=AXIS2_PLACEMENT_3D('',#645,#540,#541);
#489=AXIS2_PLACEMENT_3D('',#646,#542,#543);
#490=AXIS2_PLACEMENT_3D('',#647,#544,#545);
#491=AXIS2_PLACEMENT_3D('',#648,#546,#547);
#492=AXIS2_PLACEMENT_3D('',#649,#548,#549);
#493=AXIS2_PLACEMENT_3D('',#650,#550,#551);
#494=AXIS2_PLACEMENT_3D('',#654,#553,#554);
#495=AXIS2_PLACEMENT_3D('',#659,#557,#558);
#496=AXIS2_PLACEMENT_3D('',#663,#560,#561);
#497=AXIS2_PLACEMENT_3D('',#671,#565,#566);
#498=AXIS2_PLACEMENT_3D('',#672,#567,#568);
#499=AXIS2_PLACEMENT_3D('',#676,#570,#571);
#500=AXIS2_PLACEMENT_3D('',#684,#575,#576);
#501=AXIS2_PLACEMENT_3D('',#688,#578,#579);
#502=AXIS2_PLACEMENT_3D('',#693,#582,#583);
#503=AXIS2_PLACEMENT_3D('',#694,#584,#585);
#504=AXIS2_PLACEMENT_3D('',#697,#588,#589);
#505=AXIS2_PLACEMENT_3D('',#698,#590,#591);
#506=AXIS2_PLACEMENT_3D('',#700,#593,#594);
#507=AXIS2_PLACEMENT_3D('',#702,#596,#597);
#508=AXIS2_PLACEMENT_3D('',#704,#599,#600);
#509=AXIS2_PLACEMENT_3D('',#706,#602,#603);
#510=AXIS2_PLACEMENT_3D('',#708,#605,#606);
#511=AXIS2_PLACEMENT_3D('',#710,#608,#609);
#512=AXIS2_PLACEMENT_3D('',#712,#611,#612);
#513=AXIS2_PLACEMENT_3D('',#714,#614,#615);
#514=DIRECTION('',(0.,0.,1.));
#515=DIRECTION('',(1.,0.,0.));
#516=DIRECTION('',(0.,0.,-1.));
#517=DIRECTION('',(1.,-9.78187522474055E-29,0.));
#518=DIRECTION('',(-9.70915211004049E-29,1.,-2.94209101525667E-15));
#519=DIRECTION('',(1.,-9.78187522474055E-29,-6.63787178945674E-14));
#520=DIRECTION('',(9.70915211004049E-29,-1.,2.94209101525667E-15));
#521=DIRECTION('',(-1.,9.78187522474055E-29,6.63787178945674E-14));
#522=DIRECTION('',(1.,0.,0.));
#523=DIRECTION('',(0.,0.,-1.));
#524=DIRECTION('',(-1.,-6.11806153852952E-15,6.58099486161172E-14));
#525=DIRECTION('',(1.,0.,-3.31893589472837E-14));
#526=DIRECTION('',(-3.35379872022182E-14,0.,-1.));
#527=DIRECTION('',(-1.,0.,0.));
#528=DIRECTION('',(1.,0.,-3.31893589472837E-14));
#529=DIRECTION('',(-3.35379872022182E-14,0.,-1.));
#530=DIRECTION('',(1.,0.,0.));
#531=DIRECTION('',(0.,0.,-1.));
#532=DIRECTION('',(1.,0.,-3.31893589472837E-14));
#533=DIRECTION('',(-3.36102673470507E-14,0.,-1.));
#534=DIRECTION('',(1.,6.11806153852952E-15,-6.58099486161172E-14));
#535=DIRECTION('',(1.,0.,-3.31893589472837E-14));
#536=DIRECTION('',(-3.36102673470507E-14,0.,-1.));
#537=DIRECTION('',(-1.,0.,0.));
#538=DIRECTION('',(-1.,0.,0.));
#539=DIRECTION('',(0.,0.,1.));
#540=DIRECTION('',(-1.,0.,3.31893589472837E-14));
#541=DIRECTION('',(3.32104395681368E-14,0.,1.));
#542=DIRECTION('',(-1.,0.,3.31893589472837E-14));
#543=DIRECTION('',(3.32104395681368E-14,0.,1.));
#544=DIRECTION('',(-1.,0.,0.));
#545=DIRECTION('',(0.,0.,1.));
#546=DIRECTION('',(-1.,0.,3.31893589472837E-14));
#547=DIRECTION('',(3.31671114042788E-14,0.,1.));
#548=DIRECTION('',(-1.,0.,3.31893589472837E-14));
#549=DIRECTION('',(3.31671114042788E-14,0.,1.));
#550=DIRECTION('',(0.,-1.,0.));
#551=DIRECTION('',(0.,0.,-1.));
#552=DIRECTION('',(0.866006754529783,0.,0.500032300065498));
#553=DIRECTION('',(0.,1.,0.));
#554=DIRECTION('',(1.30104260698261E-14,0.,-1.));
#555=DIRECTION('',(0.,0.,1.));
#556=DIRECTION('',(0.,0.,1.));
#557=DIRECTION('',(0.,-1.,0.));
#558=DIRECTION('',(0.,0.,-1.));
#559=DIRECTION('',(-0.866006754529784,0.,0.500032300065497));
#560=DIRECTION('',(0.,1.,0.));
#561=DIRECTION('',(0.,0.,-1.));
#562=DIRECTION('',(0.,0.,1.));
#563=DIRECTION('',(-1.,0.,-1.5770213417971E-16));
#564=DIRECTION('',(0.,0.,1.));
#565=DIRECTION('',(0.,-1.,0.));
#566=DIRECTION('',(0.,0.,-1.));
#567=DIRECTION('',(0.,-1.,0.));
#568=DIRECTION('',(0.,0.,-1.));
#569=DIRECTION('',(0.866006754529783,0.,0.500032300065498));
#570=DIRECTION('',(0.,-1.,0.));
#571=DIRECTION('',(0.,0.,-1.));
#572=DIRECTION('',(0.,0.,1.));
#573=DIRECTION('',(-1.,0.,-1.5770213417971E-16));
#574=DIRECTION('',(0.,0.,1.));
#575=DIRECTION('',(0.,1.,0.));
#576=DIRECTION('',(0.,0.,-1.));
#577=DIRECTION('',(-0.866006754529784,0.,0.500032300065497));
#578=DIRECTION('',(0.,-1.,0.));
#579=DIRECTION('',(0.,0.,-1.));
#580=DIRECTION('',(0.,0.,1.));
#581=DIRECTION('',(0.,0.,1.));
#582=DIRECTION('',(0.,1.,0.));
#583=DIRECTION('',(1.30104260698261E-14,0.,-1.));
#584=DIRECTION('',(0.,1.,0.));
#585=DIRECTION('',(0.,0.,1.));
#586=DIRECTION('',(0.,1.,0.));
#587=DIRECTION('',(0.,1.,0.));
#588=DIRECTION('',(-1.,0.,0.));
#589=DIRECTION('',(0.,0.,1.));
#590=DIRECTION('',(-1.,0.,0.));
#591=DIRECTION('',(0.,0.,1.));
#592=DIRECTION('',(0.,1.,0.));
#593=DIRECTION('',(0.,1.,0.));
#594=DIRECTION('',(0.,0.,1.));
#595=DIRECTION('',(0.,1.,0.));
#596=DIRECTION('',(-0.500032300065497,0.,-0.866006754529784));
#597=DIRECTION('',(-0.866006754529784,0.,0.500032300065497));
#598=DIRECTION('',(0.,1.,0.));
#599=DIRECTION('',(0.,1.,0.));
#600=DIRECTION('',(0.,0.,1.));
#601=DIRECTION('',(0.,1.,0.));
#602=DIRECTION('',(-1.,0.,0.));
#603=DIRECTION('',(0.,0.,1.));
#604=DIRECTION('',(0.,1.,0.));
#605=DIRECTION('',(0.,0.,-1.));
#606=DIRECTION('',(-1.,0.,0.));
#607=DIRECTION('',(0.,1.,0.));
#608=DIRECTION('',(-1.,0.,0.));
#609=DIRECTION('',(0.,0.,1.));
#610=DIRECTION('',(0.,1.,0.));
#611=DIRECTION('',(0.,1.,0.));
#612=DIRECTION('',(0.,0.,1.));
#613=DIRECTION('',(0.,1.,0.));
#614=DIRECTION('',(-0.500032300065498,0.,0.866006754529783));
#615=DIRECTION('',(0.866006754529783,0.,0.500032300065498));
#616=CARTESIAN_POINT('',(0.,0.,0.));
#617=CARTESIAN_POINT('',(-1.06396768759821E-16,0.0018,0.0236799999999996));
#618=CARTESIAN_POINT('',(-0.00600000000000011,0.0018,0.02368));
#619=CARTESIAN_POINT('',(-0.00600000000000011,0.0018,0.02368));
#620=CARTESIAN_POINT('',(-0.00600000000000011,0.00185,0.02368));
#621=CARTESIAN_POINT('',(-0.00600000000000012,0.00185,0.02368));
#622=CARTESIAN_POINT('',(0.00599999999999989,0.00185,0.0236799999999992));
#623=CARTESIAN_POINT('',(0.00599999999999989,0.0018,0.0236799999999992));
#624=CARTESIAN_POINT('',(0.00599999999999989,0.0018,0.0236799999999992));
#625=CARTESIAN_POINT('',(-0.00600000000000011,0.0018,0.02368));
#626=CARTESIAN_POINT('',(-0.00599999999999911,0.00075,0.026907));
#627=CARTESIAN_POINT('',(-0.006,0.00148714717691549,0.0270452535336457));
#628=CARTESIAN_POINT('',(0.006,0.00148714717691553,0.0270452535336451));
#629=CARTESIAN_POINT('',(-0.006,0.00148714717691549,0.0270452535336457));
#630=CARTESIAN_POINT('',(0.006,0.00075,0.0269069999999996));
#631=CARTESIAN_POINT('',(0.006,0.,0.026907));
#632=CARTESIAN_POINT('',(0.,0.,0.026907));
#633=CARTESIAN_POINT('',(-0.006,-2.16840434497101E-19,0.026907));
#634=CARTESIAN_POINT('',(-0.006,0.00075,0.026907));
#635=CARTESIAN_POINT('',(-0.00599999999999911,0.00075,0.026907));
#636=CARTESIAN_POINT('',(0.006,0.00075,0.0269069999999996));
#637=CARTESIAN_POINT('',(0.006,0.00153629032204322,0.0270544704358882));
#638=CARTESIAN_POINT('',(0.006,-5.E-5,0.026907));
#639=CARTESIAN_POINT('',(-0.006,0.00153629032204319,0.0270544704358887));
#640=CARTESIAN_POINT('',(-0.006,0.0015362903220432,0.0270544704358887));
#641=CARTESIAN_POINT('',(-0.006,0.00075,0.026907));
#642=CARTESIAN_POINT('',(-0.006,-5.E-5,0.026907));
#643=CARTESIAN_POINT('',(0.,-5.E-5,0.026907));
#644=CARTESIAN_POINT('',(-0.00599999999999922,-0.0164558816666668,0.02368));
#645=CARTESIAN_POINT('',(-0.00600000000000011,-0.0164558816666668,0.02368));
#646=CARTESIAN_POINT('',(0.00599999999999989,-0.0164558816666668,0.0236799999999996));
#647=CARTESIAN_POINT('',(-0.00599999999999922,-0.0164558816666668,0.02368));
#648=CARTESIAN_POINT('',(0.00599999999999989,-0.0164558816666668,0.0236799999999996));
#649=CARTESIAN_POINT('',(-0.00600000000000011,-0.0164558816666668,0.02368));
#650=CARTESIAN_POINT('',(0.,0.,0.));
#651=CARTESIAN_POINT('',(-0.0130565014264836,0.,0.0226125760763484));
#652=CARTESIAN_POINT('',(-0.0109000064600131,0.,0.0238577362699884));
#653=CARTESIAN_POINT('',(-0.00609999353998691,0.,0.0266292637300115));
#654=CARTESIAN_POINT('',(-0.0062,0.,0.0268024650809176));
#655=CARTESIAN_POINT('',(-0.006,0.,0.0268024650809176));
#656=CARTESIAN_POINT('',(-0.006,0.,0.));
#657=CARTESIAN_POINT('',(0.006,0.,0.));
#658=CARTESIAN_POINT('',(0.006,0.,0.0268024650809176));
#659=CARTESIAN_POINT('',(0.0062,0.,0.0268024650809176));
#660=CARTESIAN_POINT('',(0.0060999935399869,0.,0.0266292637300115));
#661=CARTESIAN_POINT('',(0.0130565014264836,0.,0.0226125760763484));
#662=CARTESIAN_POINT('',(0.0109000064600131,0.,0.0238577362699884));
#663=CARTESIAN_POINT('',(0.0108,0.,0.0236845349190825));
#664=CARTESIAN_POINT('',(0.011,0.,0.0236845349190825));
#665=CARTESIAN_POINT('',(0.011,0.,0.));
#666=CARTESIAN_POINT('',(0.011,0.,0.0198));
#667=CARTESIAN_POINT('',(-3.12250225675825E-18,0.,0.0198));
#668=CARTESIAN_POINT('',(-0.011,0.,0.0198));
#669=CARTESIAN_POINT('',(-0.011,0.,0.));
#670=CARTESIAN_POINT('',(-0.011,0.,0.0236845349190825));
#671=CARTESIAN_POINT('',(-0.0108,0.,0.0236845349190825));
#672=CARTESIAN_POINT('',(0.,-5.E-5,0.));
#673=CARTESIAN_POINT('',(-0.0130565014264836,-5.E-5,0.0226125760763484));
#674=CARTESIAN_POINT('',(-0.0109000064600131,-5.E-5,0.0238577362699884));
#675=CARTESIAN_POINT('',(-0.00609999353998691,-5.E-5,0.0266292637300115));
#676=CARTESIAN_POINT('',(-0.0108,-5.E-5,0.0236845349190825));
#677=CARTESIAN_POINT('',(-0.011,-5.E-5,0.0236845349190825));
#678=CARTESIAN_POINT('',(-0.011,-5.E-5,0.));
#679=CARTESIAN_POINT('',(-0.011,-5.E-5,0.0198));
#680=CARTESIAN_POINT('',(-3.12250225675825E-18,-5.E-5,0.0198));
#681=CARTESIAN_POINT('',(0.011,-5.E-5,0.0198));
#682=CARTESIAN_POINT('',(0.011,-5.E-5,0.));
#683=CARTESIAN_POINT('',(0.011,-5.E-5,0.0236845349190825));
#684=CARTESIAN_POINT('',(0.0108,-5.E-5,0.0236845349190825));
#685=CARTESIAN_POINT('',(0.0109000064600131,-5.E-5,0.0238577362699884));
#686=CARTESIAN_POINT('',(0.0130565014264836,-5.E-5,0.0226125760763484));
#687=CARTESIAN_POINT('',(0.0060999935399869,-5.E-5,0.0266292637300115));
#688=CARTESIAN_POINT('',(0.0062,-5.E-5,0.0268024650809176));
#689=CARTESIAN_POINT('',(0.006,-5.E-5,0.0268024650809176));
#690=CARTESIAN_POINT('',(0.006,-5.E-5,0.));
#691=CARTESIAN_POINT('',(-0.006,-5.E-5,0.));
#692=CARTESIAN_POINT('',(-0.006,-5.E-5,0.0268024650809176));
#693=CARTESIAN_POINT('',(-0.0062,-5.E-5,0.0268024650809176));
#694=CARTESIAN_POINT('',(-0.0062,-5.E-5,0.0268024650809176));
#695=CARTESIAN_POINT('',(-0.00609999353998691,-5.E-5,0.0266292637300115));
#696=CARTESIAN_POINT('',(-0.006,-5.E-5,0.0268024650809176));
#697=CARTESIAN_POINT('',(-0.006,-5.E-5,0.));
#698=CARTESIAN_POINT('',(0.006,-5.E-5,0.));
#699=CARTESIAN_POINT('',(0.006,-5.E-5,0.0268024650809176));
#700=CARTESIAN_POINT('',(0.0062,-5.E-5,0.0268024650809176));
#701=CARTESIAN_POINT('',(0.0060999935399869,-5.E-5,0.0266292637300115));
#702=CARTESIAN_POINT('',(0.0130565014264836,-5.E-5,0.0226125760763484));
#703=CARTESIAN_POINT('',(0.0109000064600131,-5.E-5,0.0238577362699884));
#704=CARTESIAN_POINT('',(0.0108,-5.E-5,0.0236845349190825));
#705=CARTESIAN_POINT('',(0.011,-5.E-5,0.0236845349190825));
#706=CARTESIAN_POINT('',(0.011,-5.E-5,0.));
#707=CARTESIAN_POINT('',(0.011,-5.E-5,0.0198));
#708=CARTESIAN_POINT('',(-3.12250225675825E-18,-5.E-5,0.0198));
#709=CARTESIAN_POINT('',(-0.011,-5.E-5,0.0198));
#710=CARTESIAN_POINT('',(-0.011,-5.E-5,0.));
#711=CARTESIAN_POINT('',(-0.011,-5.E-5,0.0236845349190825));
#712=CARTESIAN_POINT('',(-0.0108,-5.E-5,0.0236845349190825));
#713=CARTESIAN_POINT('',(-0.0109000064600131,-5.E-5,0.0238577362699884));
#714=CARTESIAN_POINT('',(-0.0130565014264836,-5.E-5,0.0226125760763484));
#715=MECHANICAL_DESIGN_GEOMETRIC_PRESENTATION_REPRESENTATION('',(#359,#322,
#323,#324,#325,#326,#327,#328,#329,#330,#331,#332,#333,#334,#335,#336,#337,
#338,#339),#716);
#716=(
GEOMETRIC_REPRESENTATION_CONTEXT(3)
GLOBAL_UNCERTAINTY_ASSIGNED_CONTEXT((#717))
GLOBAL_UNIT_ASSIGNED_CONTEXT((#720,#719,#718))
REPRESENTATION_CONTEXT('OLED TFT 0.96 inch 64x128 monochrome',
'TOP_LEVEL_ASSEMBLY_PART')
);
#717=UNCERTAINTY_MEASURE_WITH_UNIT(LENGTH_MEASURE(1.E-6),#720,
'DISTANCE_ACCURACY_VALUE','Maximum Tolerance applied to model');
#718=(
NAMED_UNIT(*)
SI_UNIT($,.STERADIAN.)
SOLID_ANGLE_UNIT()
);
#719=(
NAMED_UNIT(*)
PLANE_ANGLE_UNIT()
SI_UNIT($,.RADIAN.)
);
#720=(
LENGTH_UNIT()
NAMED_UNIT(*)
SI_UNIT($,.METRE.)
);
#721=PRODUCT_DEFINITION_SHAPE('','',#722);
#722=PRODUCT_DEFINITION('','',#724,#723);
#723=PRODUCT_DEFINITION_CONTEXT('',#730,'design');
#724=PRODUCT_DEFINITION_FORMATION_WITH_SPECIFIED_SOURCE('','',#726,
 .NOT_KNOWN.);
#725=PRODUCT_RELATED_PRODUCT_CATEGORY('','',(#726));
#726=PRODUCT('OLED TFT 0.96 inch 64x128 monochrome',
'OLED TFT 0.96 inch 64x128 monochrome',
'OLED TFT 0.96 inch 64x128 monochrome',(#728));
#727=PRODUCT_CATEGORY('','');
#728=PRODUCT_CONTEXT('',#730,'mechanical');
#729=APPLICATION_PROTOCOL_DEFINITION('international standard',
'ap242_managed_model_based_3d_engineering',2020,#730);
#730=APPLICATION_CONTEXT('managed model based 3d engineering');
ENDSEC;
END-ISO-10303-21;
