ISO-10303-21;
HEADER;
/* Generated by software containing ST-Developer
 * from STEP Tools, Inc. (www.steptools.com) 
 */
/* OPTION: using custom renumber hook */

FILE_DESCRIPTION(
/* description */ ('STEP AP242 Edition 2',
'CAx-IF Rec.Pracs.---Representation and Presentation of Product Manufa
cturing Information (PMI)---4.0---2014-10-13',
'CAx-IF Rec.Pracs.---3D Tessellated Geometry---0.4---2014-09-14','2;1',
'CAx-IF Rec.Pracs.---User Defined Attributes---1.5---2016-08-15'),
/* implementation_level */ '2;1');

FILE_NAME(
/* name */ 'Assembly 2 - Part 3',
/* time_stamp */ '2026-07-06T02:05:31Z',
/* author */ (''),
/* organization */ (''),
/* preprocessor_version */ 'ST-DEVELOPER v20',
/* originating_system */ 'ONSHAPE BY PTC INC, 1.217',
/* authorisation */ '  ');

FILE_SCHEMA (('AP242_MANAGED_MODEL_BASED_3D_ENGINEERING_MIM_LF { 1 0 10303 442 3 1 4 }'));
ENDSEC;

DATA;
#10=SHAPE_REPRESENTATION_RELATIONSHIP('','',#78,#11);
#11=ADVANCED_BREP_SHAPE_REPRESENTATION('',(#76),#513);
#12=B_SPLINE_SURFACE_WITH_KNOTS('',3,3,((#170,#171,#172,#173,#174,#175,
#176,#177,#178,#179,#180,#181,#182,#183,#184,#185,#186,#187,#188),(#189,
#190,#191,#192,#193,#194,#195,#196,#197,#198,#199,#200,#201,#202,#203,#204,
#205,#206,#207),(#208,#209,#210,#211,#212,#213,#214,#215,#216,#217,#218,
#219,#220,#221,#222,#223,#224,#225,#226),(#227,#228,#229,#230,#231,#232,
#233,#234,#235,#236,#237,#238,#239,#240,#241,#242,#243,#244,#245),(#246,
#247,#248,#249,#250,#251,#252,#253,#254,#255,#256,#257,#258,#259,#260,#261,
#262,#263,#264),(#265,#266,#267,#268,#269,#270,#271,#272,#273,#274,#275,
#276,#277,#278,#279,#280,#281,#282,#283),(#284,#285,#286,#287,#288,#289,
#290,#291,#292,#293,#294,#295,#296,#297,#298,#299,#300,#301,#302),(#303,
#304,#305,#306,#307,#308,#309,#310,#311,#312,#313,#314,#315,#316,#317,#318,
#319,#320,#321),(#322,#323,#324,#325,#326,#327,#328,#329,#330,#331,#332,
#333,#334,#335,#336,#337,#338,#339,#340),(#341,#342,#343,#344,#345,#346,
#347,#348,#349,#350,#351,#352,#353,#354,#355,#356,#357,#358,#359),(#360,
#361,#362,#363,#364,#365,#366,#367,#368,#369,#370,#371,#372,#373,#374,#375,
#376,#377,#378),(#379,#380,#381,#382,#383,#384,#385,#386,#387,#388,#389,
#390,#391,#392,#393,#394,#395,#396,#397),(#398,#399,#400,#401,#402,#403,
#404,#405,#406,#407,#408,#409,#410,#411,#412,#413,#414,#415,#416),(#417,
#418,#419,#420,#421,#422,#423,#424,#425,#426,#427,#428,#429,#430,#431,#432,
#433,#434,#435),(#436,#437,#438,#439,#440,#441,#442,#443,#444,#445,#446,
#447,#448,#449,#450,#451,#452,#453,#454),(#455,#456,#457,#458,#459,#460,
#461,#462,#463,#464,#465,#466,#467,#468,#469,#470,#471,#472,#473),(#474,
#475,#476,#477,#478,#479,#480,#481,#482,#483,#484,#485,#486,#487,#488,#489,
#490,#491,#492),(#493,#494,#495,#496,#497,#498,#499,#500,#501,#502,#503,
#504,#505,#506,#507,#508,#509,#510,#511)),.UNSPECIFIED.,.F.,.T.,.F.,(4,
2,2,2,2,2,2,2,4),(4,1,1,1,1,1,1,1,1,1,1,1,1,1,1,1,4),(0.,0.125,0.25,0.375,
0.5,0.625,0.75,0.875,1.),(0.,0.392699081698724,0.785398163397449,1.17809724509617,
1.5707963267949,1.96349540849362,2.35619449019235,2.74889357189107,3.1415926535898,
3.53429173528852,3.92699081698724,4.31968989868597,4.71238898038469,5.10508806208342,
5.49778714378214,5.89048622548087,6.28318530717959),.UNSPECIFIED.);
#13=PLANE('',#82);
#14=PLANE('',#84);
#15=CIRCLE('',#81,0.0295);
#16=CIRCLE('',#83,0.0032);
#17=CIRCLE('',#85,0.0032);
#18=ORIENTED_EDGE('',*,*,#28,.T.);
#19=ORIENTED_EDGE('',*,*,#29,.F.);
#20=ORIENTED_EDGE('',*,*,#30,.F.);
#21=ORIENTED_EDGE('',*,*,#29,.T.);
#22=ORIENTED_EDGE('',*,*,#31,.T.);
#23=ORIENTED_EDGE('',*,*,#32,.T.);
#24=ORIENTED_EDGE('',*,*,#30,.T.);
#25=ORIENTED_EDGE('',*,*,#32,.F.);
#26=ORIENTED_EDGE('',*,*,#31,.F.);
#27=ORIENTED_EDGE('',*,*,#28,.F.);
#28=EDGE_CURVE('',#33,#33,#38,.T.);
#29=EDGE_CURVE('',#34,#34,#15,.T.);
#30=EDGE_CURVE('',#35,#35,#16,.T.);
#31=EDGE_CURVE('',#36,#36,#39,.T.);
#32=EDGE_CURVE('',#37,#37,#17,.T.);
#33=VERTEX_POINT('',#124);
#34=VERTEX_POINT('',#126);
#35=VERTEX_POINT('',#129);
#36=VERTEX_POINT('',#166);
#37=VERTEX_POINT('',#168);
#38=B_SPLINE_CURVE_WITH_KNOTS('',3,(#105,#106,#107,#108,#109,#110,#111,
#112,#113,#114,#115,#116,#117,#118,#119,#120,#121,#122,#123),
 .UNSPECIFIED.,.T.,.F.,(1,1,1,1,1,1,1,1,1,1,1,1,1,1,1,1,1,1,1,1,1,1,1),
(-0.1875,-0.125,-0.0625,0.,0.0625,0.125,0.1875,0.25,0.3125,0.375,0.4375,
0.5,0.5625,0.625,0.6875,0.75,0.8125,0.875,0.9375,1.,1.0625,1.125,1.1875),
 .UNSPECIFIED.);
#39=B_SPLINE_CURVE_WITH_KNOTS('',3,(#131,#132,#133,#134,#135,#136,#137,
#138,#139,#140,#141,#142,#143,#144,#145,#146,#147,#148,#149,#150,#151,#152,
#153,#154,#155,#156,#157,#158,#159,#160,#161,#162,#163,#164,#165),
 .UNSPECIFIED.,.T.,.F.,(1,1,1,1,1,1,1,1,1,1,1,1,1,1,1,1,1,1,1,1,1,1,1,1,
1,1,1,1,1,1,1,1,1,1,1,1,1,1,1),(-0.0953947368421053,-0.0641447368421053,
-0.0328947368421053,0.,0.0296875,0.060859375,0.09210546875,0.1233552734375,
0.154605263671875,0.185855263183594,0.21710526315918,0.248355263157959,
0.279605263157898,0.310855263157895,0.342105263157895,0.373355263157895,
0.404605263157895,0.435855263157895,0.467105263157895,0.498355263157895,
0.529605263157895,0.560855263157895,0.592105263157895,0.623355263157895,
0.654605263157895,0.685855263157895,0.717105263157895,0.748355263157895,
0.779605263157895,0.810855263157895,0.842105263157895,0.873355263157895,
0.904605263157895,0.935855263157895,0.967105263157895,1.,1.0296875,1.060859375,
1.09210546875),.UNSPECIFIED.);
#40=EDGE_LOOP('',(#18));
#41=EDGE_LOOP('',(#19));
#42=EDGE_LOOP('',(#20));
#43=EDGE_LOOP('',(#21));
#44=EDGE_LOOP('',(#22));
#45=EDGE_LOOP('',(#23));
#46=EDGE_LOOP('',(#24));
#47=EDGE_LOOP('',(#25));
#48=EDGE_LOOP('',(#26));
#49=EDGE_LOOP('',(#27));
#50=FACE_BOUND('',#40,.T.);
#51=FACE_BOUND('',#41,.T.);
#52=FACE_BOUND('',#42,.T.);
#53=FACE_BOUND('',#43,.T.);
#54=FACE_BOUND('',#44,.T.);
#55=FACE_BOUND('',#45,.T.);
#56=FACE_BOUND('',#46,.T.);
#57=FACE_BOUND('',#47,.T.);
#58=FACE_BOUND('',#48,.T.);
#59=FACE_BOUND('',#49,.T.);
#60=CYLINDRICAL_SURFACE('',#80,0.0295);
#61=CYLINDRICAL_SURFACE('',#86,0.0032);
#62=ADVANCED_FACE('',(#50,#51),#60,.T.);
#63=ADVANCED_FACE('',(#52,#53),#13,.T.);
#64=ADVANCED_FACE('',(#54,#55),#14,.F.);
#65=ADVANCED_FACE('',(#56,#57),#61,.F.);
#66=ADVANCED_FACE('',(#58,#59),#12,.T.);
#67=CLOSED_SHELL('',(#62,#63,#64,#65,#66));
#68=STYLED_ITEM('',(#69),#76);
#69=PRESENTATION_STYLE_ASSIGNMENT((#70));
#70=SURFACE_STYLE_USAGE(.BOTH.,#71);
#71=SURFACE_SIDE_STYLE('',(#72));
#72=SURFACE_STYLE_FILL_AREA(#73);
#73=FILL_AREA_STYLE('',(#74));
#74=FILL_AREA_STYLE_COLOUR('',#75);
#75=COLOUR_RGB('',0.231372549019608,0.380392156862745,0.705882352941177);
#76=MANIFOLD_SOLID_BREP('Part 3',#67);
#77=SHAPE_DEFINITION_REPRESENTATION(#518,#78);
#78=SHAPE_REPRESENTATION('Part 3',(#79),#513);
#79=AXIS2_PLACEMENT_3D('',#103,#87,#88);
#80=AXIS2_PLACEMENT_3D('',#104,#89,#90);
#81=AXIS2_PLACEMENT_3D('',#125,#91,#92);
#82=AXIS2_PLACEMENT_3D('',#127,#93,#94);
#83=AXIS2_PLACEMENT_3D('',#128,#95,#96);
#84=AXIS2_PLACEMENT_3D('',#130,#97,#98);
#85=AXIS2_PLACEMENT_3D('',#167,#99,#100);
#86=AXIS2_PLACEMENT_3D('',#169,#101,#102);
#87=DIRECTION('',(0.,0.,1.));
#88=DIRECTION('',(1.,0.,0.));
#89=DIRECTION('',(0.,0.,-1.));
#90=DIRECTION('',(-1.,0.,0.));
#91=DIRECTION('',(0.,0.,1.));
#92=DIRECTION('',(1.,0.,0.));
#93=DIRECTION('',(0.,0.,1.));
#94=DIRECTION('',(1.,0.,0.));
#95=DIRECTION('',(0.,0.,1.));
#96=DIRECTION('',(1.,0.,0.));
#97=DIRECTION('',(0.,0.,1.));
#98=DIRECTION('',(1.,0.,0.));
#99=DIRECTION('',(0.,0.,1.));
#100=DIRECTION('',(1.,0.,0.));
#101=DIRECTION('',(0.,0.,-1.));
#102=DIRECTION('',(-1.,0.,0.));
#103=CARTESIAN_POINT('',(0.,0.,0.));
#104=CARTESIAN_POINT('',(0.,1.80635402874235E-18,0.0054));
#105=CARTESIAN_POINT('',(0.0279639902116704,-0.0115830640037422,0.0041));
#106=CARTESIAN_POINT('',(0.0302680048941648,-1.04950770296597E-16,0.0041));
#107=CARTESIAN_POINT('',(0.0279639902116704,0.0115830640037423,0.0041));
#108=CARTESIAN_POINT('',(0.0214027115136516,0.0214027115136515,0.0041));
#109=CARTESIAN_POINT('',(0.0115830640037424,0.0279639902116703,0.0041));
#110=CARTESIAN_POINT('',(4.01696904905879E-17,0.0302680048941648,0.0041));
#111=CARTESIAN_POINT('',(-0.0115830640037423,0.0279639902116704,0.0041));
#112=CARTESIAN_POINT('',(-0.0214027115136516,0.0214027115136516,0.0041));
#113=CARTESIAN_POINT('',(-0.0279639902116703,0.0115830640037423,0.0041));
#114=CARTESIAN_POINT('',(-0.0302680048941648,2.83397371816588E-18,0.0041));
#115=CARTESIAN_POINT('',(-0.0279639902116703,-0.0115830640037423,0.0041));
#116=CARTESIAN_POINT('',(-0.0214027115136516,-0.0214027115136516,0.0041));
#117=CARTESIAN_POINT('',(-0.0115830640037423,-0.0279639902116703,0.0041));
#118=CARTESIAN_POINT('',(3.94378540241602E-17,-0.0302680048941648,0.0041));
#119=CARTESIAN_POINT('',(0.0115830640037424,-0.0279639902116703,0.0041));
#120=CARTESIAN_POINT('',(0.0214027115136516,-0.0214027115136515,0.0041));
#121=CARTESIAN_POINT('',(0.0279639902116704,-0.0115830640037422,0.0041));
#122=CARTESIAN_POINT('',(0.0302680048941648,-1.04950770296597E-16,0.0041));
#123=CARTESIAN_POINT('',(0.0279639902116704,0.0115830640037423,0.0041));
#124=CARTESIAN_POINT('',(0.0295,5.41906208622704E-18,0.0041));
#125=CARTESIAN_POINT('',(0.,1.80635402874235E-18,0.0054));
#126=CARTESIAN_POINT('',(0.0295,1.80635402874235E-18,0.0054));
#127=CARTESIAN_POINT('',(0.,0.,0.0054));
#128=CARTESIAN_POINT('',(0.,-1.95943487863576E-19,0.0054));
#129=CARTESIAN_POINT('',(0.0032,-1.95943487863576E-19,0.0054));
#130=CARTESIAN_POINT('',(0.,0.,0.0036));
#131=CARTESIAN_POINT('',(0.0285915550734294,0.00589673642508927,0.0036));
#132=CARTESIAN_POINT('',(0.0291887327436179,0.000193038553126872,0.0036));
#133=CARTESIAN_POINT('',(0.0286513552956458,-0.00549551606191623,0.0036));
#134=CARTESIAN_POINT('',(0.0270777436362625,-0.0108971884100769,0.0036));
#135=CARTESIAN_POINT('',(0.0244331398392343,-0.0159588676469876,0.0036));
#136=CARTESIAN_POINT('',(0.0208503766766248,-0.0204265144566997,0.0036));
#137=CARTESIAN_POINT('',(0.0164663264432091,-0.0240940951561764,0.0036));
#138=CARTESIAN_POINT('',(0.011446356845836,-0.0268507298518853,0.0036));
#139=CARTESIAN_POINT('',(0.00599249247958835,-0.0285614312091805,0.0036));
#140=CARTESIAN_POINT('',(0.000299725146968675,-0.0291871709805951,0.0036));
#141=CARTESIAN_POINT('',(-0.00539364531285369,-0.0286805492751897,0.0036));
#142=CARTESIAN_POINT('',(-0.0108925368601229,-0.0270801297367385,0.0036));
#143=CARTESIAN_POINT('',(-0.0159586495443716,-0.02443331375315,0.0036));
#144=CARTESIAN_POINT('',(-0.0204265088599576,-0.0208503842092901,0.0036));
#145=CARTESIAN_POINT('',(-0.0240940940513542,-0.0164663277042532,0.0036));
#146=CARTESIAN_POINT('',(-0.0268507300518096,-0.0114463566942256,0.0036));
#147=CARTESIAN_POINT('',(-0.0285614311527334,-0.00599249253027432,0.0036));
#148=CARTESIAN_POINT('',(-0.0291871709956778,-0.00029972513390704,0.0036));
#149=CARTESIAN_POINT('',(-0.0286805492711496,0.00539364530933751,0.0036));
#150=CARTESIAN_POINT('',(-0.0270801297378231,0.0108925368610705,0.0036));
#151=CARTESIAN_POINT('',(-0.0244333137528454,0.0159586495441098,0.0036));
#152=CARTESIAN_POINT('',(-0.0208503842094242,0.0204265088600592,0.0036));
#153=CARTESIAN_POINT('',(-0.0164663277040336,0.0240940940511894,0.0036));
#154=CARTESIAN_POINT('',(-0.0114463566950185,0.0268507300523263,0.0036));
#155=CARTESIAN_POINT('',(-0.00599249252738296,0.0285614311507985,0.0036));
#156=CARTESIAN_POINT('',(-0.000299725144731977,0.0291871710028859,0.0036));
#157=CARTESIAN_POINT('',(0.00539364534974578,0.0286805492442562,0.0036));
#158=CARTESIAN_POINT('',(0.0108925367102416,0.0270801298381852,0.0036));
#159=CARTESIAN_POINT('',(0.0159586501069789,0.0244333133783061,0.0036));
#160=CARTESIAN_POINT('',(0.0204265067594008,0.0208503856072236,0.0036));
#161=CARTESIAN_POINT('',(0.0240941018909461,0.0164663224873834,0.0036));
#162=CARTESIAN_POINT('',(0.0268507007939701,0.0114463761638077,0.0036));
#163=CARTESIAN_POINT('',(0.0285915550734294,0.00589673642508927,0.0036));
#164=CARTESIAN_POINT('',(0.0291887327436179,0.000193038553126872,0.0036));
#165=CARTESIAN_POINT('',(0.0286513552956458,-0.00549551606191623,0.0036));
#166=CARTESIAN_POINT('',(0.029,-2.16840434497101E-18,0.0036));
#167=CARTESIAN_POINT('',(0.,-1.95943487863576E-19,0.0036));
#168=CARTESIAN_POINT('',(0.0032,-1.95943487863576E-19,0.0036));
#169=CARTESIAN_POINT('',(0.,-1.95943487863576E-19,0.0839325833730111));
#170=CARTESIAN_POINT('',(0.0295,3.46944695195361E-18,0.0041));
#171=CARTESIAN_POINT('',(0.0295,0.00386102133458079,0.0041));
#172=CARTESIAN_POINT('',(0.0279639902116703,0.0115830640037423,0.0041));
#173=CARTESIAN_POINT('',(0.0214027115136515,0.0214027115136516,0.0041));
#174=CARTESIAN_POINT('',(0.0115830640037423,0.0279639902116704,0.0041));
#175=CARTESIAN_POINT('',(-4.5102810375397E-17,0.0302680048941649,0.0041));
#176=CARTESIAN_POINT('',(-0.0115830640037424,0.0279639902116703,0.0041));
#177=CARTESIAN_POINT('',(-0.0214027115136516,0.0214027115136515,0.0041));
#178=CARTESIAN_POINT('',(-0.0279639902116703,0.0115830640037424,0.0041));
#179=CARTESIAN_POINT('',(-0.0302680048941648,-4.42354486374086E-17,0.0041));
#180=CARTESIAN_POINT('',(-0.0279639902116704,-0.0115830640037423,0.0041));
#181=CARTESIAN_POINT('',(-0.0214027115136515,-0.0214027115136517,0.0041));
#182=CARTESIAN_POINT('',(-0.0115830640037423,-0.0279639902116703,0.0041));
#183=CARTESIAN_POINT('',(2.73652628335341E-16,-0.0302680048941649,0.0041));
#184=CARTESIAN_POINT('',(0.0115830640037424,-0.0279639902116703,0.0041));
#185=CARTESIAN_POINT('',(0.0214027115136516,-0.0214027115136515,0.0041));
#186=CARTESIAN_POINT('',(0.0279639902116704,-0.0115830640037422,0.0041));
#187=CARTESIAN_POINT('',(0.0295,-0.00386102133458078,0.0041));
#188=CARTESIAN_POINT('',(0.0295,3.46944695195361E-18,0.0041));
#189=CARTESIAN_POINT('',(0.0295,3.46944695195361E-18,0.00406875));
#190=CARTESIAN_POINT('',(0.0295,0.00386102133458079,0.00406875));
#191=CARTESIAN_POINT('',(0.0279639902116703,0.0115830640037423,0.00406875));
#192=CARTESIAN_POINT('',(0.0214027115136515,0.0214027115136516,0.00406875));
#193=CARTESIAN_POINT('',(0.0115830640037423,0.0279639902116704,0.00406875));
#194=CARTESIAN_POINT('',(-4.5102810375397E-17,0.0302680048941649,0.00406875));
#195=CARTESIAN_POINT('',(-0.0115830640037424,0.0279639902116703,0.00406875));
#196=CARTESIAN_POINT('',(-0.0214027115136516,0.0214027115136515,0.00406875));
#197=CARTESIAN_POINT('',(-0.0279639902116703,0.0115830640037424,0.00406875));
#198=CARTESIAN_POINT('',(-0.0302680048941648,-4.42354486374086E-17,0.00406875));
#199=CARTESIAN_POINT('',(-0.0279639902116704,-0.0115830640037423,0.00406875));
#200=CARTESIAN_POINT('',(-0.0214027115136515,-0.0214027115136517,0.00406875));
#201=CARTESIAN_POINT('',(-0.0115830640037423,-0.0279639902116703,0.00406875));
#202=CARTESIAN_POINT('',(2.73652628335341E-16,-0.0302680048941649,0.00406875));
#203=CARTESIAN_POINT('',(0.0115830640037424,-0.0279639902116703,0.00406875));
#204=CARTESIAN_POINT('',(0.0214027115136516,-0.0214027115136515,0.00406875));
#205=CARTESIAN_POINT('',(0.0279639902116704,-0.0115830640037422,0.00406875));
#206=CARTESIAN_POINT('',(0.0295,-0.00386102133458078,0.00406875));
#207=CARTESIAN_POINT('',(0.0295,3.46944695195361E-18,0.00406875));
#208=CARTESIAN_POINT('',(0.0294998101128472,3.48141129233358E-18,0.00403722873263889));
#209=CARTESIAN_POINT('',(0.0294998101128472,0.00386099648175543,0.00403722873263889));
#210=CARTESIAN_POINT('',(0.0279638102115862,0.0115829894452663,0.00403722873263889));
#211=CARTESIAN_POINT('',(0.0214025737475515,0.0214025737475515,0.00403722873263889));
#212=CARTESIAN_POINT('',(0.0115829894452662,0.0279638102115862,0.00403722873263889));
#213=CARTESIAN_POINT('',(-4.16333634234434E-17,0.0302678100634777,0.00403722873263889));
#214=CARTESIAN_POINT('',(-0.0115829894452663,0.0279638102115862,0.00403722873263889));
#215=CARTESIAN_POINT('',(-0.0214025737475516,0.0214025737475514,0.00403722873263889));
#216=CARTESIAN_POINT('',(-0.0279638102115862,0.0115829894452663,0.00403722873263889));
#217=CARTESIAN_POINT('',(-0.0302678100634777,-4.59701721133854E-17,0.00403722873263889));
#218=CARTESIAN_POINT('',(-0.0279638102115863,-0.0115829894452662,0.00403722873263889));
#219=CARTESIAN_POINT('',(-0.0214025737475514,-0.0214025737475516,0.00403722873263889));
#220=CARTESIAN_POINT('',(-0.0115829894452662,-0.0279638102115862,0.00403722873263889));
#221=CARTESIAN_POINT('',(2.71917904859365E-16,-0.0302678100634778,0.00403722873263889));
#222=CARTESIAN_POINT('',(0.0115829894452663,-0.0279638102115862,0.00403722873263889));
#223=CARTESIAN_POINT('',(0.0214025737475516,-0.0214025737475515,0.00403722873263889));
#224=CARTESIAN_POINT('',(0.0279638102115863,-0.0115829894452661,0.00403722873263889));
#225=CARTESIAN_POINT('',(0.0294998101128472,-0.00386099648175542,0.00403722873263889));
#226=CARTESIAN_POINT('',(0.0294998101128472,3.48141129233358E-18,0.00403722873263889));
#227=CARTESIAN_POINT('',(0.0294935980902778,3.472411567269E-18,0.00397185329861111));
#228=CARTESIAN_POINT('',(0.0294935980902778,0.00386018343932589,0.00397185329861111));
#229=CARTESIAN_POINT('',(0.0279579216374057,0.0115805503179776,0.00397185329861111));
#230=CARTESIAN_POINT('',(0.0213980668279932,0.0213980668279932,0.00397185329861111));
#231=CARTESIAN_POINT('',(0.0115805503179776,0.0279579216374057,0.00397185329861111));
#232=CARTESIAN_POINT('',(-4.38017677684144E-17,0.0302614363167139,0.00397185329861111));
#233=CARTESIAN_POINT('',(-0.0115805503179777,0.0279579216374056,0.00397185329861111));
#234=CARTESIAN_POINT('',(-0.0213980668279933,0.0213980668279931,0.00397185329861111));
#235=CARTESIAN_POINT('',(-0.0279579216374056,0.0115805503179777,0.00397185329861111));
#236=CARTESIAN_POINT('',(-0.0302614363167138,-4.46691295064028E-17,0.00397185329861111));
#237=CARTESIAN_POINT('',(-0.0279579216374057,-0.0115805503179776,0.00397185329861111));
#238=CARTESIAN_POINT('',(-0.0213980668279931,-0.0213980668279933,0.00397185329861111));
#239=CARTESIAN_POINT('',(-0.0115805503179776,-0.0279579216374056,0.00397185329861111));
#240=CARTESIAN_POINT('',(2.7148422399037E-16,-0.0302614363167139,0.00397185329861111));
#241=CARTESIAN_POINT('',(0.0115805503179777,-0.0279579216374056,0.00397185329861111));
#242=CARTESIAN_POINT('',(0.0213980668279933,-0.0213980668279932,0.00397185329861111));
#243=CARTESIAN_POINT('',(0.0279579216374057,-0.0115805503179775,0.00397185329861111));
#244=CARTESIAN_POINT('',(0.0294935980902778,-0.00386018343932587,0.00397185329861111));
#245=CARTESIAN_POINT('',(0.0294935980902778,3.472411567269E-18,0.00397185329861111));
#246=CARTESIAN_POINT('',(0.0294876302083334,3.44149486469422E-18,0.00393810763888889));
#247=CARTESIAN_POINT('',(0.0294876302083334,0.00385940235052895,0.00393810763888889));
#248=CARTESIAN_POINT('',(0.0279522644919047,0.0115782070515868,0.00393810763888889));
#249=CARTESIAN_POINT('',(0.0213937370362778,0.0213937370362778,0.00393810763888889));
#250=CARTESIAN_POINT('',(0.0115782070515867,0.0279522644919047,0.00393810763888889));
#251=CARTESIAN_POINT('',(-4.46691295064028E-17,0.0302553130665477,0.00393810763888889));
#252=CARTESIAN_POINT('',(-0.0115782070515869,0.0279522644919047,0.00393810763888889));
#253=CARTESIAN_POINT('',(-0.0213937370362779,0.0213937370362777,0.00393810763888889));
#254=CARTESIAN_POINT('',(-0.0279522644919046,0.0115782070515869,0.00393810763888889));
#255=CARTESIAN_POINT('',(-0.0302553130665476,-4.42354486374086E-17,0.00393810763888889));
#256=CARTESIAN_POINT('',(-0.0279522644919047,-0.0115782070515868,0.00393810763888889));
#257=CARTESIAN_POINT('',(-0.0213937370362777,-0.0213937370362779,0.00393810763888889));
#258=CARTESIAN_POINT('',(-0.0115782070515868,-0.0279522644919047,0.00393810763888889));
#259=CARTESIAN_POINT('',(2.72785266597353E-16,-0.0302553130665477,0.00393810763888889));
#260=CARTESIAN_POINT('',(0.0115782070515869,-0.0279522644919046,0.00393810763888889));
#261=CARTESIAN_POINT('',(0.0213937370362779,-0.0213937370362778,0.00393810763888889));
#262=CARTESIAN_POINT('',(0.0279522644919047,-0.0115782070515867,0.00393810763888889));
#263=CARTESIAN_POINT('',(0.0294876302083334,-0.00385940235052893,0.00393810763888889));
#264=CARTESIAN_POINT('',(0.0294876302083334,3.44149486469422E-18,0.00393810763888889));
#265=CARTESIAN_POINT('',(0.0294680989583334,3.1619739921003E-18,0.00387126736111111));
#266=CARTESIAN_POINT('',(0.0294680989583334,0.00385684605992078,0.00387126736111111));
#267=CARTESIAN_POINT('',(0.0279337501975378,0.0115705381797623,0.00387126736111111));
#268=CARTESIAN_POINT('',(0.0213795668088456,0.0213795668088456,0.00387126736111111));
#269=CARTESIAN_POINT('',(0.0115705381797622,0.0279337501975379,0.00387126736111111));
#270=CARTESIAN_POINT('',(-4.33680868994202E-17,0.0302352733387311,0.00387126736111111));
#271=CARTESIAN_POINT('',(-0.0115705381797624,0.0279337501975378,0.00387126736111111));
#272=CARTESIAN_POINT('',(-0.0213795668088457,0.0213795668088455,0.00387126736111111));
#273=CARTESIAN_POINT('',(-0.0279337501975378,0.0115705381797623,0.00387126736111111));
#274=CARTESIAN_POINT('',(-0.0302352733387311,-4.38017677684144E-17,0.00387126736111111));
#275=CARTESIAN_POINT('',(-0.0279337501975379,-0.0115705381797622,0.00387126736111111));
#276=CARTESIAN_POINT('',(-0.0213795668088455,-0.0213795668088457,0.00387126736111111));
#277=CARTESIAN_POINT('',(-0.0115705381797623,-0.0279337501975378,0.00387126736111111));
#278=CARTESIAN_POINT('',(2.73218947466347E-16,-0.0302352733387311,0.00387126736111111));
#279=CARTESIAN_POINT('',(0.0115705381797623,-0.0279337501975378,0.00387126736111111));
#280=CARTESIAN_POINT('',(0.0213795668088456,-0.0213795668088455,0.00387126736111111));
#281=CARTESIAN_POINT('',(0.0279337501975379,-0.0115705381797622,0.00387126736111111));
#282=CARTESIAN_POINT('',(0.0294680989583334,-0.00385684605992076,0.00387126736111111));
#283=CARTESIAN_POINT('',(0.0294680989583334,3.1619739921003E-18,0.00387126736111111));
#284=CARTESIAN_POINT('',(0.02945458984375,2.90341718495093E-18,0.00383828125));
#285=CARTESIAN_POINT('',(0.02945458984375,0.00385507795891679,0.00383828125));
#286=CARTESIAN_POINT('',(0.0279209444772674,0.0115652338767504,0.00383828125));
#287=CARTESIAN_POINT('',(0.0213697657348716,0.0213697657348716,0.00383828125));
#288=CARTESIAN_POINT('',(0.0115652338767503,0.0279209444772675,0.00383828125));
#289=CARTESIAN_POINT('',(-4.5102810375397E-17,0.0302214125269913,0.00383828125));
#290=CARTESIAN_POINT('',(-0.0115652338767504,0.0279209444772674,0.00383828125));
#291=CARTESIAN_POINT('',(-0.0213697657348717,0.0213697657348715,0.00383828125));
#292=CARTESIAN_POINT('',(-0.0279209444772674,0.0115652338767504,0.00383828125));
#293=CARTESIAN_POINT('',(-0.0302214125269912,-4.7271214720368E-17,0.00383828125));
#294=CARTESIAN_POINT('',(-0.0279209444772675,-0.0115652338767503,0.00383828125));
#295=CARTESIAN_POINT('',(-0.0213697657348715,-0.0213697657348717,0.00383828125));
#296=CARTESIAN_POINT('',(-0.0115652338767503,-0.0279209444772675,0.00383828125));
#297=CARTESIAN_POINT('',(2.72351585728359E-16,-0.0302214125269913,0.00383828125));
#298=CARTESIAN_POINT('',(0.0115652338767504,-0.0279209444772674,0.00383828125));
#299=CARTESIAN_POINT('',(0.0213697657348717,-0.0213697657348716,0.00383828125));
#300=CARTESIAN_POINT('',(0.0279209444772675,-0.0115652338767502,0.00383828125));
#301=CARTESIAN_POINT('',(0.02945458984375,-0.00385507795891678,0.00383828125));
#302=CARTESIAN_POINT('',(0.02945458984375,2.90341718495093E-18,0.00383828125));
#303=CARTESIAN_POINT('',(0.029420166015625,2.1744394547202E-18,0.00377724609375));
#304=CARTESIAN_POINT('',(0.029420166015625,0.00385057249671989,0.00377724609375));
#305=CARTESIAN_POINT('',(0.0278883130334459,0.0115517174901597,0.00377724609375));
#306=CARTESIAN_POINT('',(0.0213447907090223,0.0213447907090223,0.00377724609375));
#307=CARTESIAN_POINT('',(0.0115517174901596,0.0278883130334459,0.00377724609375));
#308=CARTESIAN_POINT('',(-4.77048955893622E-17,0.0301860925067146,0.00377724609375));
#309=CARTESIAN_POINT('',(-0.0115517174901597,0.0278883130334459,0.00377724609375));
#310=CARTESIAN_POINT('',(-0.0213447907090224,0.0213447907090222,0.00377724609375));
#311=CARTESIAN_POINT('',(-0.0278883130334459,0.0115517174901597,0.00377724609375));
#312=CARTESIAN_POINT('',(-0.0301860925067145,-4.77048955893622E-17,0.00377724609375));
#313=CARTESIAN_POINT('',(-0.027888313033446,-0.0115517174901596,0.00377724609375));
#314=CARTESIAN_POINT('',(-0.0213447907090222,-0.0213447907090224,0.00377724609375));
#315=CARTESIAN_POINT('',(-0.0115517174901596,-0.0278883130334459,0.00377724609375));
#316=CARTESIAN_POINT('',(2.71917904859365E-16,-0.0301860925067146,0.00377724609375));
#317=CARTESIAN_POINT('',(0.0115517174901597,-0.0278883130334459,0.00377724609375));
#318=CARTESIAN_POINT('',(0.0213447907090224,-0.0213447907090222,0.00377724609375));
#319=CARTESIAN_POINT('',(0.0278883130334459,-0.0115517174901595,0.00377724609375));
#320=CARTESIAN_POINT('',(0.029420166015625,-0.00385057249671988,0.00377724609375));
#321=CARTESIAN_POINT('',(0.029420166015625,2.1744394547202E-18,0.00377724609375));
#322=CARTESIAN_POINT('',(0.0293993055555556,1.6940658945086E-18,0.00374930555555556));
#323=CARTESIAN_POINT('',(0.0293993055555556,0.00384784223633422,0.00374930555555556));
#324=CARTESIAN_POINT('',(0.0278685387384902,0.0115435267090026,0.00374930555555556));
#325=CARTESIAN_POINT('',(0.0213296561188898,0.0213296561188898,0.00374930555555556));
#326=CARTESIAN_POINT('',(0.0115435267090026,0.0278685387384902,0.00374930555555555));
#327=CARTESIAN_POINT('',(-4.42354486374086E-17,0.0301646889640883,0.00374930555555556));
#328=CARTESIAN_POINT('',(-0.0115435267090027,0.0278685387384902,0.00374930555555556));
#329=CARTESIAN_POINT('',(-0.0213296561188899,0.0213296561188897,0.00374930555555555));
#330=CARTESIAN_POINT('',(-0.0278685387384902,0.0115435267090027,0.00374930555555556));
#331=CARTESIAN_POINT('',(-0.0301646889640882,-4.2934406030426E-17,0.00374930555555556));
#332=CARTESIAN_POINT('',(-0.0278685387384902,-0.0115435267090026,0.00374930555555556));
#333=CARTESIAN_POINT('',(-0.0213296561188897,-0.0213296561188899,0.00374930555555556));
#334=CARTESIAN_POINT('',(-0.0115435267090026,-0.0278685387384902,0.00374930555555555));
#335=CARTESIAN_POINT('',(2.71917904859365E-16,-0.0301646889640883,0.00374930555555556));
#336=CARTESIAN_POINT('',(0.0115435267090027,-0.0278685387384902,0.00374930555555556));
#337=CARTESIAN_POINT('',(0.0213296561188899,-0.0213296561188897,0.00374930555555556));
#338=CARTESIAN_POINT('',(0.0278685387384902,-0.0115435267090025,0.00374930555555556));
#339=CARTESIAN_POINT('',(0.0293993055555556,-0.00384784223633421,0.00374930555555556));
#340=CARTESIAN_POINT('',(0.0293993055555556,1.6940658945086E-18,0.00374930555555556));
#341=CARTESIAN_POINT('',(0.0293506944444445,1.01643953670516E-18,0.00370069444444444));
#342=CARTESIAN_POINT('',(0.0293506944444445,0.00384147991304277,0.00370069444444444));
#343=CARTESIAN_POINT('',(0.027822458716955,0.0115244397391283,0.00370069444444445));
#344=CARTESIAN_POINT('',(0.0212943879972807,0.0212943879972807,0.00370069444444444));
#345=CARTESIAN_POINT('',(0.0115244397391282,0.027822458716955,0.00370069444444444));
#346=CARTESIAN_POINT('',(-4.59701721133854E-17,0.0301148123081892,0.00370069444444444));
#347=CARTESIAN_POINT('',(-0.0115244397391284,0.027822458716955,0.00370069444444445));
#348=CARTESIAN_POINT('',(-0.0212943879972807,0.0212943879972806,0.00370069444444444));
#349=CARTESIAN_POINT('',(-0.027822458716955,0.0115244397391283,0.00370069444444445));
#350=CARTESIAN_POINT('',(-0.0301148123081892,-4.38017677684144E-17,0.00370069444444444));
#351=CARTESIAN_POINT('',(-0.027822458716955,-0.0115244397391282,0.00370069444444445));
#352=CARTESIAN_POINT('',(-0.0212943879972806,-0.0212943879972808,0.00370069444444444));
#353=CARTESIAN_POINT('',(-0.0115244397391283,-0.027822458716955,0.00370069444444444));
#354=CARTESIAN_POINT('',(2.7148422399037E-16,-0.0301148123081892,0.00370069444444445));
#355=CARTESIAN_POINT('',(0.0115244397391283,-0.0278224587169549,0.00370069444444444));
#356=CARTESIAN_POINT('',(0.0212943879972808,-0.0212943879972806,0.00370069444444445));
#357=CARTESIAN_POINT('',(0.027822458716955,-0.0115244397391282,0.00370069444444444));
#358=CARTESIAN_POINT('',(0.0293506944444445,-0.00384147991304276,0.00370069444444444));
#359=CARTESIAN_POINT('',(0.0293506944444445,1.01643953670516E-18,0.00370069444444444));
#360=CARTESIAN_POINT('',(0.02932275390625,9.12007432916599E-19,0.003679833984375));
#361=CARTESIAN_POINT('',(0.02932275390625,0.00383782299731164,0.003679833984375));
#362=CARTESIAN_POINT('',(0.0277959729902913,0.0115134689919349,0.003679833984375));
#363=CARTESIAN_POINT('',(0.021274116699704,0.021274116699704,0.003679833984375));
#364=CARTESIAN_POINT('',(0.0115134689919348,0.0277959729902913,0.003679833984375));
#365=CARTESIAN_POINT('',(-4.03323208164608E-17,0.0300861443642294,0.003679833984375));
#366=CARTESIAN_POINT('',(-0.011513468991935,0.0277959729902913,0.003679833984375));
#367=CARTESIAN_POINT('',(-0.0212741166997041,0.0212741166997039,0.003679833984375));
#368=CARTESIAN_POINT('',(-0.0277959729902913,0.0115134689919349,0.003679833984375));
#369=CARTESIAN_POINT('',(-0.0300861443642294,-4.2934406030426E-17,0.003679833984375));
#370=CARTESIAN_POINT('',(-0.0277959729902913,-0.0115134689919348,0.003679833984375));
#371=CARTESIAN_POINT('',(-0.0212741166997039,-0.0212741166997041,0.003679833984375));
#372=CARTESIAN_POINT('',(-0.0115134689919349,-0.0277959729902913,0.003679833984375));
#373=CARTESIAN_POINT('',(2.65846372693446E-16,-0.0300861443642294,0.003679833984375));
#374=CARTESIAN_POINT('',(0.0115134689919349,-0.0277959729902913,0.003679833984375));
#375=CARTESIAN_POINT('',(0.0212741166997041,-0.021274116699704,0.003679833984375));
#376=CARTESIAN_POINT('',(0.0277959729902913,-0.0115134689919348,0.003679833984375));
#377=CARTESIAN_POINT('',(0.02932275390625,-0.00383782299731163,0.003679833984375));
#378=CARTESIAN_POINT('',(0.02932275390625,9.12007432916599E-19,0.003679833984375));
#379=CARTESIAN_POINT('',(0.02926171875,1.18535202360346E-18,0.00364541015625));
#380=CARTESIAN_POINT('',(0.02926171875,0.00382983458916111,0.00364541015625));
#381=CARTESIAN_POINT('',(0.0277381158203949,0.0114895037674833,0.00364541015625));
#382=CARTESIAN_POINT('',(0.0212298347389782,0.0212298347389783,0.00364541015625));
#383=CARTESIAN_POINT('',(0.0114895037674832,0.027738115820395,0.00364541015625));
#384=CARTESIAN_POINT('',(-4.42354486374086E-17,0.0300235202148026,0.00364541015625));
#385=CARTESIAN_POINT('',(-0.0114895037674834,0.0277381158203949,0.00364541015625));
#386=CARTESIAN_POINT('',(-0.0212298347389783,0.0212298347389782,0.00364541015625));
#387=CARTESIAN_POINT('',(-0.0277381158203949,0.0114895037674833,0.00364541015625));
#388=CARTESIAN_POINT('',(-0.0300235202148025,-4.55364912443912E-17,0.00364541015625));
#389=CARTESIAN_POINT('',(-0.027738115820395,-0.0114895037674832,0.00364541015625));
#390=CARTESIAN_POINT('',(-0.0212298347389782,-0.0212298347389784,0.00364541015625));
#391=CARTESIAN_POINT('',(-0.0114895037674833,-0.0277381158203949,0.00364541015625));
#392=CARTESIAN_POINT('',(2.69749500514394E-16,-0.0300235202148026,0.00364541015625));
#393=CARTESIAN_POINT('',(0.0114895037674833,-0.0277381158203949,0.00364541015625));
#394=CARTESIAN_POINT('',(0.0212298347389783,-0.0212298347389782,0.00364541015625));
#395=CARTESIAN_POINT('',(0.027738115820395,-0.0114895037674832,0.00364541015625));
#396=CARTESIAN_POINT('',(0.02926171875,-0.0038298345891611,0.00364541015625));
#397=CARTESIAN_POINT('',(0.02926171875,1.18535202360346E-18,0.00364541015625));
#398=CARTESIAN_POINT('',(0.0292287326388889,1.51590663126945E-18,0.00363190104166667));
#399=CARTESIAN_POINT('',(0.0292287326388889,0.0038255172983562,0.00363190104166667));
#400=CARTESIAN_POINT('',(0.0277068472343532,0.0114765518950686,0.00363190104166667));
#401=CARTESIAN_POINT('',(0.0212059027993149,0.0212059027993149,0.00363190104166667));
#402=CARTESIAN_POINT('',(0.0114765518950685,0.0277068472343532,0.00363190104166667));
#403=CARTESIAN_POINT('',(-4.90059381963448E-17,0.0299896753411568,0.00363190104166667));
#404=CARTESIAN_POINT('',(-0.0114765518950686,0.0277068472343532,0.00363190104166667));
#405=CARTESIAN_POINT('',(-0.021205902799315,0.0212059027993148,0.00363190104166667));
#406=CARTESIAN_POINT('',(-0.0277068472343532,0.0114765518950686,0.00363190104166667));
#407=CARTESIAN_POINT('',(-0.0299896753411568,-4.2934406030426E-17,0.00363190104166667));
#408=CARTESIAN_POINT('',(-0.0277068472343532,-0.0114765518950685,0.00363190104166667));
#409=CARTESIAN_POINT('',(-0.0212059027993148,-0.021205902799315,0.00363190104166667));
#410=CARTESIAN_POINT('',(-0.0114765518950685,-0.0277068472343532,0.00363190104166667));
#411=CARTESIAN_POINT('',(2.68882138776405E-16,-0.0299896753411568,0.00363190104166667));
#412=CARTESIAN_POINT('',(0.0114765518950686,-0.0277068472343531,0.00363190104166667));
#413=CARTESIAN_POINT('',(0.021205902799315,-0.0212059027993149,0.00363190104166667));
#414=CARTESIAN_POINT('',(0.0277068472343532,-0.0114765518950684,0.00363190104166667));
#415=CARTESIAN_POINT('',(0.0292287326388889,-0.00382551729835619,0.00363190104166667));
#416=CARTESIAN_POINT('',(0.0292287326388889,1.51590663126945E-18,0.00363190104166667));
#417=CARTESIAN_POINT('',(0.0291618923611111,1.86883702595874E-18,0.00361236979166667));
#418=CARTESIAN_POINT('',(0.0291618923611111,0.00381676910383046,0.00361236979166667));
#419=CARTESIAN_POINT('',(0.0276434872047422,0.0114503073114914,0.00361236979166667));
#420=CARTESIAN_POINT('',(0.0211574091321024,0.0211574091321024,0.00361236979166667));
#421=CARTESIAN_POINT('',(0.0114503073114913,0.0276434872047423,0.00361236979166667));
#422=CARTESIAN_POINT('',(-4.7271214720368E-17,0.0299210949392956,0.00361236979166667));
#423=CARTESIAN_POINT('',(-0.0114503073114914,0.0276434872047422,0.00361236979166667));
#424=CARTESIAN_POINT('',(-0.0211574091321024,0.0211574091321023,0.00361236979166667));
#425=CARTESIAN_POINT('',(-0.0276434872047422,0.0114503073114914,0.00361236979166667));
#426=CARTESIAN_POINT('',(-0.0299210949392956,-4.59701721133854E-17,0.00361236979166667));
#427=CARTESIAN_POINT('',(-0.0276434872047422,-0.0114503073114913,0.00361236979166667));
#428=CARTESIAN_POINT('',(-0.0211574091321023,-0.0211574091321025,0.00361236979166667));
#429=CARTESIAN_POINT('',(-0.0114503073114913,-0.0276434872047422,0.00361236979166667));
#430=CARTESIAN_POINT('',(2.68448457907411E-16,-0.0299210949392956,0.00361236979166667));
#431=CARTESIAN_POINT('',(0.0114503073114914,-0.0276434872047422,0.00361236979166667));
#432=CARTESIAN_POINT('',(0.0211574091321025,-0.0211574091321023,0.00361236979166667));
#433=CARTESIAN_POINT('',(0.0276434872047422,-0.0114503073114912,0.00361236979166667));
#434=CARTESIAN_POINT('',(0.0291618923611111,-0.00381676910383045,0.00361236979166667));
#435=CARTESIAN_POINT('',(0.0291618923611111,1.86883702595874E-18,0.00361236979166667));
#436=CARTESIAN_POINT('',(0.0291281467013889,1.84399072617261E-18,0.00360640190972222));
#437=CARTESIAN_POINT('',(0.0291281467013889,0.00381235240172412,0.00360640190972222));
#438=CARTESIAN_POINT('',(0.027611498618364,0.0114370572051723,0.00360640190972222));
#439=CARTESIAN_POINT('',(0.0211329261280389,0.0211329261280389,0.00360640190972222));
#440=CARTESIAN_POINT('',(0.0114370572051723,0.027611498618364,0.00360640190972222));
#441=CARTESIAN_POINT('',(-4.77048955893622E-17,0.0298864707429014,0.00360640190972222));
#442=CARTESIAN_POINT('',(-0.0114370572051724,0.027611498618364,0.00360640190972222));
#443=CARTESIAN_POINT('',(-0.021132926128039,0.0211329261280388,0.00360640190972222));
#444=CARTESIAN_POINT('',(-0.0276114986183639,0.0114370572051724,0.00360640190972222));
#445=CARTESIAN_POINT('',(-0.0298864707429014,-4.59701721133854E-17,0.00360640190972222));
#446=CARTESIAN_POINT('',(-0.027611498618364,-0.0114370572051723,0.00360640190972222));
#447=CARTESIAN_POINT('',(-0.0211329261280388,-0.021132926128039,0.00360640190972222));
#448=CARTESIAN_POINT('',(-0.0114370572051723,-0.027611498618364,0.00360640190972222));
#449=CARTESIAN_POINT('',(2.69749500514394E-16,-0.0298864707429014,0.00360640190972222));
#450=CARTESIAN_POINT('',(0.0114370572051724,-0.0276114986183639,0.00360640190972222));
#451=CARTESIAN_POINT('',(0.021132926128039,-0.0211329261280389,0.00360640190972222));
#452=CARTESIAN_POINT('',(0.027611498618364,-0.0114370572051722,0.00360640190972222));
#453=CARTESIAN_POINT('',(0.0291281467013889,-0.00381235240172411,0.00360640190972222));
#454=CARTESIAN_POINT('',(0.0291281467013889,1.84399072617261E-18,0.00360640190972222));
#455=CARTESIAN_POINT('',(0.0290627712673611,1.40300419800834E-18,0.00360018988715278));
#456=CARTESIAN_POINT('',(0.0290627712673611,0.00380379592899399,0.00360018988715278));
#457=CARTESIAN_POINT('',(0.0275495271608305,0.011411387786982,0.00360018988715278));
#458=CARTESIAN_POINT('',(0.0210854952278838,0.0210854952278838,0.00360018988715278));
#459=CARTESIAN_POINT('',(0.0114113877869819,0.0275495271608306,0.00360018988715278));
#460=CARTESIAN_POINT('',(-4.90059381963448E-17,0.0298193933206264,0.00360018988715278));
#461=CARTESIAN_POINT('',(-0.011411387786982,0.0275495271608305,0.00360018988715278));
#462=CARTESIAN_POINT('',(-0.0210854952278838,0.0210854952278837,0.00360018988715278));
#463=CARTESIAN_POINT('',(-0.0275495271608305,0.011411387786982,0.00360018988715278));
#464=CARTESIAN_POINT('',(-0.0298193933206264,-4.85722573273506E-17,0.00360018988715278));
#465=CARTESIAN_POINT('',(-0.0275495271608305,-0.0114113877869819,0.00360018988715278));
#466=CARTESIAN_POINT('',(-0.0210854952278837,-0.0210854952278839,0.00360018988715278));
#467=CARTESIAN_POINT('',(-0.0114113877869819,-0.0275495271608305,0.00360018988715278));
#468=CARTESIAN_POINT('',(2.69315819645399E-16,-0.0298193933206264,0.00360018988715278));
#469=CARTESIAN_POINT('',(0.011411387786982,-0.0275495271608305,0.00360018988715278));
#470=CARTESIAN_POINT('',(0.0210854952278838,-0.0210854952278837,0.00360018988715278));
#471=CARTESIAN_POINT('',(0.0275495271608305,-0.0114113877869818,0.00360018988715278));
#472=CARTESIAN_POINT('',(0.0290627712673611,-0.00380379592899398,0.00360018988715278));
#473=CARTESIAN_POINT('',(0.0290627712673611,1.40300419800834E-18,0.00360018988715278));
#474=CARTESIAN_POINT('',(0.02903125,9.39641882820771E-19,0.0036));
#475=CARTESIAN_POINT('',(0.02903125,0.0037996703599847,0.0036));
#476=CARTESIAN_POINT('',(0.0275196471468662,0.0113990110799541,0.0036));
#477=CARTESIAN_POINT('',(0.0210626260552779,0.0210626260552779,0.0036));
#478=CARTESIAN_POINT('',(0.011399011079954,0.0275196471468663,0.0036));
#479=CARTESIAN_POINT('',(-4.77048955893622E-17,0.0297870514265669,0.0036));
#480=CARTESIAN_POINT('',(-0.0113990110799541,0.0275196471468663,0.0036));
#481=CARTESIAN_POINT('',(-0.0210626260552779,0.0210626260552778,0.0036));
#482=CARTESIAN_POINT('',(-0.0275196471468662,0.0113990110799541,0.0036));
#483=CARTESIAN_POINT('',(-0.0297870514265669,-4.59701721133854E-17,0.0036));
#484=CARTESIAN_POINT('',(-0.0275196471468663,-0.011399011079954,0.0036));
#485=CARTESIAN_POINT('',(-0.0210626260552778,-0.021062626055278,0.0036));
#486=CARTESIAN_POINT('',(-0.011399011079954,-0.0275196471468663,0.0036));
#487=CARTESIAN_POINT('',(2.68014777038417E-16,-0.0297870514265669,0.0036));
#488=CARTESIAN_POINT('',(0.0113990110799541,-0.0275196471468662,0.0036));
#489=CARTESIAN_POINT('',(0.0210626260552779,-0.0210626260552778,0.0036));
#490=CARTESIAN_POINT('',(0.0275196471468663,-0.0113990110799539,0.0036));
#491=CARTESIAN_POINT('',(0.02903125,-0.00379967035998469,0.0036));
#492=CARTESIAN_POINT('',(0.02903125,9.39641882820771E-19,0.0036));
#493=CARTESIAN_POINT('',(0.029,1.30104260698261E-18,0.0036));
#494=CARTESIAN_POINT('',(0.029,0.00379558029501162,0.0036));
#495=CARTESIAN_POINT('',(0.0274900242758793,0.0113867408850349,0.0036));
#496=CARTESIAN_POINT('',(0.0210399536913863,0.0210399536913863,0.0036));
#497=CARTESIAN_POINT('',(0.0113867408850348,0.0274900242758794,0.0036));
#498=CARTESIAN_POINT('',(-4.77048955893622E-17,0.0297549878620603,0.0036));
#499=CARTESIAN_POINT('',(-0.0113867408850349,0.0274900242758793,0.0036));
#500=CARTESIAN_POINT('',(-0.0210399536913863,0.0210399536913862,0.0036));
#501=CARTESIAN_POINT('',(-0.0274900242758793,0.0113867408850349,0.0036));
#502=CARTESIAN_POINT('',(-0.0297549878620603,-4.46691295064028E-17,0.0036));
#503=CARTESIAN_POINT('',(-0.0274900242758794,-0.0113867408850348,0.0036));
#504=CARTESIAN_POINT('',(-0.0210399536913862,-0.0210399536913864,0.0036));
#505=CARTESIAN_POINT('',(-0.0113867408850348,-0.0274900242758793,0.0036));
#506=CARTESIAN_POINT('',(2.67581096169422E-16,-0.0297549878620604,0.0036));
#507=CARTESIAN_POINT('',(0.0113867408850349,-0.0274900242758793,0.0036));
#508=CARTESIAN_POINT('',(0.0210399536913864,-0.0210399536913862,0.0036));
#509=CARTESIAN_POINT('',(0.0274900242758793,-0.0113867408850347,0.0036));
#510=CARTESIAN_POINT('',(0.029,-0.00379558029501161,0.0036));
#511=CARTESIAN_POINT('',(0.029,1.30104260698261E-18,0.0036));
#512=MECHANICAL_DESIGN_GEOMETRIC_PRESENTATION_REPRESENTATION('',(#68),#513);
#513=(
GEOMETRIC_REPRESENTATION_CONTEXT(3)
GLOBAL_UNCERTAINTY_ASSIGNED_CONTEXT((#514))
GLOBAL_UNIT_ASSIGNED_CONTEXT((#517,#516,#515))
REPRESENTATION_CONTEXT('Part 3','TOP_LEVEL_ASSEMBLY_PART')
);
#514=UNCERTAINTY_MEASURE_WITH_UNIT(LENGTH_MEASURE(2.E-5),#517,
'DISTANCE_ACCURACY_VALUE','Maximum Tolerance applied to model');
#515=(
NAMED_UNIT(*)
SI_UNIT($,.STERADIAN.)
SOLID_ANGLE_UNIT()
);
#516=(
NAMED_UNIT(*)
PLANE_ANGLE_UNIT()
SI_UNIT($,.RADIAN.)
);
#517=(
LENGTH_UNIT()
NAMED_UNIT(*)
SI_UNIT($,.METRE.)
);
#518=PRODUCT_DEFINITION_SHAPE('','',#519);
#519=PRODUCT_DEFINITION('','',#521,#520);
#520=PRODUCT_DEFINITION_CONTEXT('',#527,'design');
#521=PRODUCT_DEFINITION_FORMATION_WITH_SPECIFIED_SOURCE('','',#523,
 .NOT_KNOWN.);
#522=PRODUCT_RELATED_PRODUCT_CATEGORY('','',(#523));
#523=PRODUCT('Part 3','Part 3','Part 3',(#525));
#524=PRODUCT_CATEGORY('','');
#525=PRODUCT_CONTEXT('',#527,'mechanical');
#526=APPLICATION_PROTOCOL_DEFINITION('international standard',
'ap242_managed_model_based_3d_engineering',2020,#527);
#527=APPLICATION_CONTEXT('managed model based 3d engineering');
ENDSEC;
END-ISO-10303-21;
