ISO-10303-21;
HEADER;
/* Generated by software containing ST-Developer
 * from STEP Tools, Inc. (www.steptools.com) 
 */
/* OPTION: using custom renumber hook */

FILE_DESCRIPTION(
/* description */ ('STEP AP242 Edition 2',
'CAx-IF Rec.Pracs.---Representation and Presentation of Product Manufa
cturing Information (PMI)---4.0---2014-10-13',
'CAx-IF Rec.Pracs.---3D Tessellated Geometry---0.4---2014-09-14','2;1',
'CAx-IF Rec.Pracs.---User Defined Attributes---1.5---2016-08-15'),
/* implementation_level */ '2;1');

FILE_NAME(
/* name */ 'Assembly 2 - Part 2 (1)',
/* time_stamp */ '2026-07-06T02:05:31Z',
/* author */ (''),
/* organization */ (''),
/* preprocessor_version */ 'ST-DEVELOPER v20',
/* originating_system */ 'ONSHAPE BY PTC INC, 1.217',
/* authorisation */ '  ');

FILE_SCHEMA (('AP242_MANAGED_MODEL_BASED_3D_ENGINEERING_MIM_LF { 1 0 10303 442 3 1 4 }'));
ENDSEC;

DATA;
#10=SHAPE_REPRESENTATION_RELATIONSHIP('','',#111,#11);
#11=ADVANCED_BREP_SHAPE_REPRESENTATION('',(#109),#957);
#12=B_SPLINE_SURFACE_WITH_KNOTS('',3,3,((#272,#273,#274,#275,#276,#277,
#278,#279,#280,#281,#282,#283,#284,#285,#286,#287,#288,#289,#290),(#291,
#292,#293,#294,#295,#296,#297,#298,#299,#300,#301,#302,#303,#304,#305,#306,
#307,#308,#309),(#310,#311,#312,#313,#314,#315,#316,#317,#318,#319,#320,
#321,#322,#323,#324,#325,#326,#327,#328),(#329,#330,#331,#332,#333,#334,
#335,#336,#337,#338,#339,#340,#341,#342,#343,#344,#345,#346,#347),(#348,
#349,#350,#351,#352,#353,#354,#355,#356,#357,#358,#359,#360,#361,#362,#363,
#364,#365,#366),(#367,#368,#369,#370,#371,#372,#373,#374,#375,#376,#377,
#378,#379,#380,#381,#382,#383,#384,#385),(#386,#387,#388,#389,#390,#391,
#392,#393,#394,#395,#396,#397,#398,#399,#400,#401,#402,#403,#404),(#405,
#406,#407,#408,#409,#410,#411,#412,#413,#414,#415,#416,#417,#418,#419,#420,
#421,#422,#423),(#424,#425,#426,#427,#428,#429,#430,#431,#432,#433,#434,
#435,#436,#437,#438,#439,#440,#441,#442),(#443,#444,#445,#446,#447,#448,
#449,#450,#451,#452,#453,#454,#455,#456,#457,#458,#459,#460,#461),(#462,
#463,#464,#465,#466,#467,#468,#469,#470,#471,#472,#473,#474,#475,#476,#477,
#478,#479,#480),(#481,#482,#483,#484,#485,#486,#487,#488,#489,#490,#491,
#492,#493,#494,#495,#496,#497,#498,#499),(#500,#501,#502,#503,#504,#505,
#506,#507,#508,#509,#510,#511,#512,#513,#514,#515,#516,#517,#518),(#519,
#520,#521,#522,#523,#524,#525,#526,#527,#528,#529,#530,#531,#532,#533,#534,
#535,#536,#537),(#538,#539,#540,#541,#542,#543,#544,#545,#546,#547,#548,
#549,#550,#551,#552,#553,#554,#555,#556),(#557,#558,#559,#560,#561,#562,
#563,#564,#565,#566,#567,#568,#569,#570,#571,#572,#573,#574,#575),(#576,
#577,#578,#579,#580,#581,#582,#583,#584,#585,#586,#587,#588,#589,#590,#591,
#592,#593,#594),(#595,#596,#597,#598,#599,#600,#601,#602,#603,#604,#605,
#606,#607,#608,#609,#610,#611,#612,#613)),.UNSPECIFIED.,.F.,.T.,.F.,(4,
2,2,2,2,2,2,2,4),(4,1,1,1,1,1,1,1,1,1,1,1,1,1,1,1,4),(0.,0.125,0.25,0.375,
0.5,0.625,0.75,0.875,1.),(0.,0.392699081698724,0.785398163397449,1.17809724509617,
1.5707963267949,1.96349540849362,2.35619449019235,2.74889357189107,3.1415926535898,
3.53429173528852,3.92699081698724,4.31968989868597,4.71238898038469,5.10508806208342,
5.49778714378214,5.89048622548087,6.28318530717959),.UNSPECIFIED.);
#13=B_SPLINE_SURFACE_WITH_KNOTS('',3,3,((#614,#615,#616,#617,#618,#619,
#620,#621,#622,#623,#624,#625,#626,#627,#628,#629,#630,#631,#632),(#633,
#634,#635,#636,#637,#638,#639,#640,#641,#642,#643,#644,#645,#646,#647,#648,
#649,#650,#651),(#652,#653,#654,#655,#656,#657,#658,#659,#660,#661,#662,
#663,#664,#665,#666,#667,#668,#669,#670),(#671,#672,#673,#674,#675,#676,
#677,#678,#679,#680,#681,#682,#683,#684,#685,#686,#687,#688,#689),(#690,
#691,#692,#693,#694,#695,#696,#697,#698,#699,#700,#701,#702,#703,#704,#705,
#706,#707,#708),(#709,#710,#711,#712,#713,#714,#715,#716,#717,#718,#719,
#720,#721,#722,#723,#724,#725,#726,#727),(#728,#729,#730,#731,#732,#733,
#734,#735,#736,#737,#738,#739,#740,#741,#742,#743,#744,#745,#746),(#747,
#748,#749,#750,#751,#752,#753,#754,#755,#756,#757,#758,#759,#760,#761,#762,
#763,#764,#765),(#766,#767,#768,#769,#770,#771,#772,#773,#774,#775,#776,
#777,#778,#779,#780,#781,#782,#783,#784),(#785,#786,#787,#788,#789,#790,
#791,#792,#793,#794,#795,#796,#797,#798,#799,#800,#801,#802,#803),(#804,
#805,#806,#807,#808,#809,#810,#811,#812,#813,#814,#815,#816,#817,#818,#819,
#820,#821,#822),(#823,#824,#825,#826,#827,#828,#829,#830,#831,#832,#833,
#834,#835,#836,#837,#838,#839,#840,#841),(#842,#843,#844,#845,#846,#847,
#848,#849,#850,#851,#852,#853,#854,#855,#856,#857,#858,#859,#860),(#861,
#862,#863,#864,#865,#866,#867,#868,#869,#870,#871,#872,#873,#874,#875,#876,
#877,#878,#879),(#880,#881,#882,#883,#884,#885,#886,#887,#888,#889,#890,
#891,#892,#893,#894,#895,#896,#897,#898),(#899,#900,#901,#902,#903,#904,
#905,#906,#907,#908,#909,#910,#911,#912,#913,#914,#915,#916,#917),(#918,
#919,#920,#921,#922,#923,#924,#925,#926,#927,#928,#929,#930,#931,#932,#933,
#934,#935,#936),(#937,#938,#939,#940,#941,#942,#943,#944,#945,#946,#947,
#948,#949,#950,#951,#952,#953,#954,#955)),.UNSPECIFIED.,.F.,.T.,.F.,(4,
2,2,2,2,2,2,2,4),(4,1,1,1,1,1,1,1,1,1,1,1,1,1,1,1,4),(0.,0.125,0.25,0.375,
0.5,0.625,0.75,0.875,1.),(0.,0.392699081698724,0.785398163397449,1.17809724509617,
1.5707963267949,1.96349540849362,2.35619449019235,2.74889357189107,3.1415926535898,
3.53429173528852,3.92699081698724,4.31968989868597,4.71238898038469,5.10508806208342,
5.49778714378214,5.89048622548087,6.28318530717959),.UNSPECIFIED.);
#14=B_SPLINE_CURVE_WITH_KNOTS('',3,(#155,#156,#157,#158,#159,#160,#161,
#162,#163,#164,#165,#166,#167,#168,#169,#170,#171,#172,#173),
 .UNSPECIFIED.,.T.,.F.,(1,1,1,1,1,1,1,1,1,1,1,1,1,1,1,1,1,1,1,1,1,1,1),
(-0.1875,-0.125,-0.0625,0.,0.0625,0.125,0.1875,0.25,0.3125,0.375,0.4375,
0.5,0.5625,0.625,0.6875,0.75,0.8125,0.875,0.9375,1.,1.0625,1.125,1.1875),
 .UNSPECIFIED.);
#15=B_SPLINE_CURVE_WITH_KNOTS('',3,(#175,#176,#177,#178,#179,#180,#181,
#182,#183,#184,#185,#186,#187,#188,#189,#190,#191,#192,#193),
 .UNSPECIFIED.,.T.,.F.,(1,1,1,1,1,1,1,1,1,1,1,1,1,1,1,1,1,1,1,1,1,1,1),
(-0.1875,-0.125,-0.0625,0.,0.0625,0.125,0.1875,0.25,0.3125,0.375,0.4375,
0.5,0.5625,0.625,0.6875,0.75,0.8125,0.875,0.9375,1.,1.0625,1.125,1.1875),
 .UNSPECIFIED.);
#16=B_SPLINE_CURVE_WITH_KNOTS('',3,(#196,#197,#198,#199,#200,#201,#202,
#203,#204,#205,#206,#207,#208,#209,#210,#211,#212,#213,#214,#215,#216,#217,
#218,#219,#220,#221,#222,#223,#224,#225,#226,#227,#228,#229,#230),
 .UNSPECIFIED.,.T.,.F.,(1,1,1,1,1,1,1,1,1,1,1,1,1,1,1,1,1,1,1,1,1,1,1,1,
1,1,1,1,1,1,1,1,1,1,1,1,1,1,1),(-0.0953947368421053,-0.0641447368421053,
-0.0328947368421053,0.,0.0296875,0.060859375,0.09210546875,0.1233552734375,
0.154605263671875,0.185855263183594,0.21710526315918,0.248355263157959,
0.279605263157898,0.310855263157895,0.342105263157895,0.373355263157895,
0.404605263157895,0.435855263157895,0.467105263157895,0.498355263157895,
0.529605263157895,0.560855263157895,0.592105263157895,0.623355263157895,
0.654605263157895,0.685855263157895,0.717105263157895,0.748355263157895,
0.779605263157895,0.810855263157895,0.842105263157895,0.873355263157895,
0.904605263157895,0.935855263157895,0.967105263157895,1.,1.0296875,1.060859375,
1.09210546875),.UNSPECIFIED.);
#17=B_SPLINE_CURVE_WITH_KNOTS('',3,(#235,#236,#237,#238,#239,#240,#241,
#242,#243,#244,#245,#246,#247,#248,#249,#250,#251,#252,#253,#254,#255,#256,
#257,#258,#259,#260,#261,#262,#263,#264,#265,#266,#267,#268,#269),
 .UNSPECIFIED.,.T.,.F.,(1,1,1,1,1,1,1,1,1,1,1,1,1,1,1,1,1,1,1,1,1,1,1,1,
1,1,1,1,1,1,1,1,1,1,1,1,1,1,1),(-0.0953947368421053,-0.0641447368421053,
-0.0328947368421053,0.,0.0296875,0.060859375,0.09210546875,0.1233552734375,
0.154605263671875,0.185855263183594,0.21710526315918,0.248355263157959,
0.279605263157898,0.310855263157895,0.342105263157895,0.373355263157895,
0.404605263157895,0.435855263157895,0.467105263157895,0.498355263157895,
0.529605263157895,0.560855263157895,0.592105263157895,0.623355263157895,
0.654605263157895,0.685855263157895,0.717105263157895,0.748355263157895,
0.779605263157895,0.810855263157895,0.842105263157895,0.873355263157895,
0.904605263157895,0.935855263157895,0.967105263157895,1.,1.0296875,1.060859375,
1.09210546875),.UNSPECIFIED.);
#18=PLANE('',#116);
#19=PLANE('',#119);
#20=PLANE('',#121);
#21=ORIENTED_EDGE('',*,*,#37,.F.);
#22=ORIENTED_EDGE('',*,*,#38,.T.);
#23=ORIENTED_EDGE('',*,*,#38,.F.);
#24=ORIENTED_EDGE('',*,*,#39,.T.);
#25=ORIENTED_EDGE('',*,*,#40,.T.);
#26=ORIENTED_EDGE('',*,*,#41,.T.);
#27=ORIENTED_EDGE('',*,*,#42,.T.);
#28=ORIENTED_EDGE('',*,*,#43,.F.);
#29=ORIENTED_EDGE('',*,*,#44,.T.);
#30=ORIENTED_EDGE('',*,*,#37,.T.);
#31=ORIENTED_EDGE('',*,*,#43,.T.);
#32=ORIENTED_EDGE('',*,*,#39,.F.);
#33=ORIENTED_EDGE('',*,*,#40,.F.);
#34=ORIENTED_EDGE('',*,*,#42,.F.);
#35=ORIENTED_EDGE('',*,*,#44,.F.);
#36=ORIENTED_EDGE('',*,*,#41,.F.);
#37=EDGE_CURVE('',#45,#45,#53,.T.);
#38=EDGE_CURVE('',#46,#46,#54,.T.);
#39=EDGE_CURVE('',#47,#47,#55,.T.);
#40=EDGE_CURVE('',#48,#48,#14,.T.);
#41=EDGE_CURVE('',#49,#49,#15,.T.);
#42=EDGE_CURVE('',#50,#50,#16,.T.);
#43=EDGE_CURVE('',#51,#51,#56,.T.);
#44=EDGE_CURVE('',#52,#52,#17,.T.);
#45=VERTEX_POINT('',#148);
#46=VERTEX_POINT('',#150);
#47=VERTEX_POINT('',#153);
#48=VERTEX_POINT('',#174);
#49=VERTEX_POINT('',#194);
#50=VERTEX_POINT('',#231);
#51=VERTEX_POINT('',#233);
#52=VERTEX_POINT('',#270);
#53=CIRCLE('',#114,0.0275);
#54=CIRCLE('',#115,0.0275);
#55=CIRCLE('',#117,0.00318);
#56=CIRCLE('',#120,0.00318);
#57=EDGE_LOOP('',(#21));
#58=EDGE_LOOP('',(#22));
#59=EDGE_LOOP('',(#23));
#60=EDGE_LOOP('',(#24));
#61=EDGE_LOOP('',(#25));
#62=EDGE_LOOP('',(#26));
#63=EDGE_LOOP('',(#27));
#64=EDGE_LOOP('',(#28));
#65=EDGE_LOOP('',(#29));
#66=EDGE_LOOP('',(#30));
#67=EDGE_LOOP('',(#31));
#68=EDGE_LOOP('',(#32));
#69=EDGE_LOOP('',(#33));
#70=EDGE_LOOP('',(#34));
#71=EDGE_LOOP('',(#35));
#72=EDGE_LOOP('',(#36));
#73=FACE_BOUND('',#57,.T.);
#74=FACE_BOUND('',#58,.T.);
#75=FACE_BOUND('',#59,.T.);
#76=FACE_BOUND('',#60,.T.);
#77=FACE_BOUND('',#61,.T.);
#78=FACE_BOUND('',#62,.T.);
#79=FACE_BOUND('',#63,.T.);
#80=FACE_BOUND('',#64,.T.);
#81=FACE_BOUND('',#65,.T.);
#82=FACE_BOUND('',#66,.T.);
#83=FACE_BOUND('',#67,.T.);
#84=FACE_BOUND('',#68,.T.);
#85=FACE_BOUND('',#69,.T.);
#86=FACE_BOUND('',#70,.T.);
#87=FACE_BOUND('',#71,.T.);
#88=FACE_BOUND('',#72,.T.);
#89=CYLINDRICAL_SURFACE('',#113,0.0275);
#90=CYLINDRICAL_SURFACE('',#118,0.0295);
#91=CYLINDRICAL_SURFACE('',#122,0.00318);
#92=ADVANCED_FACE('',(#73,#74),#89,.T.);
#93=ADVANCED_FACE('',(#75,#76),#18,.F.);
#94=ADVANCED_FACE('',(#77,#78),#90,.T.);
#95=ADVANCED_FACE('',(#79,#80),#19,.T.);
#96=ADVANCED_FACE('',(#81,#82),#20,.F.);
#97=ADVANCED_FACE('',(#83,#84),#91,.F.);
#98=ADVANCED_FACE('',(#85,#86),#12,.T.);
#99=ADVANCED_FACE('',(#87,#88),#13,.T.);
#100=CLOSED_SHELL('',(#92,#93,#94,#95,#96,#97,#98,#99));
#101=STYLED_ITEM('',(#102),#109);
#102=PRESENTATION_STYLE_ASSIGNMENT((#103));
#103=SURFACE_STYLE_USAGE(.BOTH.,#104);
#104=SURFACE_SIDE_STYLE('',(#105));
#105=SURFACE_STYLE_FILL_AREA(#106);
#106=FILL_AREA_STYLE('',(#107));
#107=FILL_AREA_STYLE_COLOUR('',#108);
#108=COLOUR_RGB('',0.647058823529412,0.647058823529412,0.647058823529412);
#109=MANIFOLD_SOLID_BREP('Part 2',#100);
#110=SHAPE_DEFINITION_REPRESENTATION(#962,#111);
#111=SHAPE_REPRESENTATION('Part 2',(#112),#957);
#112=AXIS2_PLACEMENT_3D('',#145,#123,#124);
#113=AXIS2_PLACEMENT_3D('',#146,#125,#126);
#114=AXIS2_PLACEMENT_3D('',#147,#127,#128);
#115=AXIS2_PLACEMENT_3D('',#149,#129,#130);
#116=AXIS2_PLACEMENT_3D('',#151,#131,#132);
#117=AXIS2_PLACEMENT_3D('',#152,#133,#134);
#118=AXIS2_PLACEMENT_3D('',#154,#135,#136);
#119=AXIS2_PLACEMENT_3D('',#195,#137,#138);
#120=AXIS2_PLACEMENT_3D('',#232,#139,#140);
#121=AXIS2_PLACEMENT_3D('',#234,#141,#142);
#122=AXIS2_PLACEMENT_3D('',#271,#143,#144);
#123=DIRECTION('',(0.,0.,1.));
#124=DIRECTION('',(1.,0.,0.));
#125=DIRECTION('',(0.,0.,1.));
#126=DIRECTION('',(1.,0.,0.));
#127=DIRECTION('',(0.,0.,-1.));
#128=DIRECTION('',(-1.,0.,0.));
#129=DIRECTION('',(0.,0.,-1.));
#130=DIRECTION('',(-1.,0.,0.));
#131=DIRECTION('',(0.,0.,-1.));
#132=DIRECTION('',(1.,0.,0.));
#133=DIRECTION('',(0.,0.,-1.));
#134=DIRECTION('',(-1.,0.,0.));
#135=DIRECTION('',(0.,0.,1.));
#136=DIRECTION('',(1.,0.,0.));
#137=DIRECTION('',(0.,0.,-1.));
#138=DIRECTION('',(1.,0.,0.));
#139=DIRECTION('',(0.,0.,-1.));
#140=DIRECTION('',(-1.,0.,0.));
#141=DIRECTION('',(0.,0.,-1.));
#142=DIRECTION('',(1.,0.,0.));
#143=DIRECTION('',(0.,0.,-1.));
#144=DIRECTION('',(-1.,0.,0.));
#145=CARTESIAN_POINT('',(0.,0.,0.));
#146=CARTESIAN_POINT('',(0.,-1.68388934882761E-18,-0.0018));
#147=CARTESIAN_POINT('',(0.,-1.68388934882761E-18,-0.0018));
#148=CARTESIAN_POINT('',(-0.0275,-1.68388934882761E-18,-0.0018));
#149=CARTESIAN_POINT('',(0.,-1.68388934882761E-18,0.));
#150=CARTESIAN_POINT('',(-0.0275,-1.68388934882761E-18,0.));
#151=CARTESIAN_POINT('',(0.,3.46944695195361E-18,0.));
#152=CARTESIAN_POINT('',(0.,-2.17199529275528E-18,0.));
#153=CARTESIAN_POINT('',(-0.00318,-2.17199529275528E-18,0.));
#154=CARTESIAN_POINT('',(0.,-1.80635402874235E-18,-0.0036));
#155=CARTESIAN_POINT('',(-0.0279639902116703,0.0115830640037424,-0.0031));
#156=CARTESIAN_POINT('',(-0.0302680048941648,-9.86623976961809E-17,-0.0031));
#157=CARTESIAN_POINT('',(-0.0279639902116703,-0.0115830640037424,-0.0031));
#158=CARTESIAN_POINT('',(-0.0214027115136515,-0.0214027115136516,-0.0031));
#159=CARTESIAN_POINT('',(-0.0115830640037423,-0.0279639902116704,-0.0031));
#160=CARTESIAN_POINT('',(4.54687286086108E-17,-0.0302680048941648,-0.0031));
#161=CARTESIAN_POINT('',(0.0115830640037424,-0.0279639902116703,-0.0031));
#162=CARTESIAN_POINT('',(0.0214027115136516,-0.0214027115136516,-0.0031));
#163=CARTESIAN_POINT('',(0.0279639902116704,-0.0115830640037423,-0.0031));
#164=CARTESIAN_POINT('',(0.0302680048941648,1.49358775427229E-17,-0.0031));
#165=CARTESIAN_POINT('',(0.0279639902116703,0.0115830640037423,-0.0031));
#166=CARTESIAN_POINT('',(0.0214027115136516,0.0214027115136516,-0.0031));
#167=CARTESIAN_POINT('',(0.0115830640037423,0.0279639902116704,-0.0031));
#168=CARTESIAN_POINT('',(-1.76860479386698E-17,0.0302680048941648,-0.0031));
#169=CARTESIAN_POINT('',(-0.0115830640037423,0.0279639902116704,-0.0031));
#170=CARTESIAN_POINT('',(-0.0214027115136516,0.0214027115136515,-0.0031));
#171=CARTESIAN_POINT('',(-0.0279639902116703,0.0115830640037424,-0.0031));
#172=CARTESIAN_POINT('',(-0.0302680048941648,-9.86623976961809E-17,-0.0031));
#173=CARTESIAN_POINT('',(-0.0279639902116703,-0.0115830640037424,-0.0031));
#174=CARTESIAN_POINT('',(-0.0295,1.80635402874235E-18,-0.0031));
#175=CARTESIAN_POINT('',(-0.0279639902116704,-0.0115830640037422,-0.0023));
#176=CARTESIAN_POINT('',(-0.0302680048941648,-1.09721259855533E-16,-0.0023));
#177=CARTESIAN_POINT('',(-0.0279639902116704,0.0115830640037423,-0.0023));
#178=CARTESIAN_POINT('',(-0.0214027115136516,0.0214027115136515,-0.0023));
#179=CARTESIAN_POINT('',(-0.0115830640037424,0.0279639902116703,-0.0023));
#180=CARTESIAN_POINT('',(-4.01696904905879E-17,0.0302680048941648,-0.0023));
#181=CARTESIAN_POINT('',(0.0115830640037423,0.0279639902116704,-0.0023));
#182=CARTESIAN_POINT('',(0.0214027115136516,0.0214027115136516,-0.0023));
#183=CARTESIAN_POINT('',(0.0279639902116703,0.0115830640037423,-0.0023));
#184=CARTESIAN_POINT('',(0.0302680048941648,-1.00092824585857E-18,-0.0023));
#185=CARTESIAN_POINT('',(0.0279639902116703,-0.0115830640037424,-0.0023));
#186=CARTESIAN_POINT('',(0.0214027115136516,-0.0214027115136516,-0.0023));
#187=CARTESIAN_POINT('',(0.0115830640037423,-0.0279639902116704,-0.0023));
#188=CARTESIAN_POINT('',(-3.94378540241602E-17,-0.0302680048941648,-0.0023));
#189=CARTESIAN_POINT('',(-0.0115830640037424,-0.0279639902116703,-0.0023));
#190=CARTESIAN_POINT('',(-0.0214027115136516,-0.0214027115136516,-0.0023));
#191=CARTESIAN_POINT('',(-0.0279639902116704,-0.0115830640037422,-0.0023));
#192=CARTESIAN_POINT('',(-0.0302680048941648,-1.09721259855533E-16,-0.0023));
#193=CARTESIAN_POINT('',(-0.0279639902116704,0.0115830640037423,-0.0023));
#194=CARTESIAN_POINT('',(-0.0295,1.80635402874235E-18,-0.0023));
#195=CARTESIAN_POINT('',(0.,0.,-0.0036));
#196=CARTESIAN_POINT('',(-0.0285915550734273,-0.00589673642509342,-0.0036));
#197=CARTESIAN_POINT('',(-0.0291887327436182,-0.000193038553127379,-0.0036));
#198=CARTESIAN_POINT('',(-0.0286513552956463,0.00549551606192142,-0.0036));
#199=CARTESIAN_POINT('',(-0.0270777436362599,0.0108971884100777,-0.0036));
#200=CARTESIAN_POINT('',(-0.0244331398392398,0.015958867646977,-0.0036));
#201=CARTESIAN_POINT('',(-0.0208503766766293,0.0204265144566953,-0.0036));
#202=CARTESIAN_POINT('',(-0.0164663264432142,0.0240940951561718,-0.0036));
#203=CARTESIAN_POINT('',(-0.0114463568458359,0.0268507298518873,-0.0036));
#204=CARTESIAN_POINT('',(-0.00599249247958395,0.0285614312091807,-0.0036));
#205=CARTESIAN_POINT('',(-0.000299725146966697,0.0291871709805963,-0.0036));
#206=CARTESIAN_POINT('',(0.00539364531286283,0.0286805492751888,-0.0036));
#207=CARTESIAN_POINT('',(0.010892536860124,0.0270801297367368,-0.0036));
#208=CARTESIAN_POINT('',(0.0159586495443682,0.0244333137531519,-0.0036));
#209=CARTESIAN_POINT('',(0.0204265088599528,0.0208503842092931,-0.0036));
#210=CARTESIAN_POINT('',(0.0240940940513446,0.0164663277042634,-0.0036));
#211=CARTESIAN_POINT('',(0.0268507300518042,0.0114463566942387,-0.0036));
#212=CARTESIAN_POINT('',(0.0285614311527383,0.00599249253026759,-0.0036));
#213=CARTESIAN_POINT('',(0.0291871709956766,0.000299725133896571,-0.0036));
#214=CARTESIAN_POINT('',(0.0286805492711493,-0.0053936453093316,-0.0036));
#215=CARTESIAN_POINT('',(0.0270801297378257,-0.0108925368610621,-0.0036));
#216=CARTESIAN_POINT('',(0.0244333137528483,-0.0159586495441065,-0.0036));
#217=CARTESIAN_POINT('',(0.0208503842094228,-0.0204265088600618,-0.0036));
#218=CARTESIAN_POINT('',(0.016466327704028,-0.024094094051195,-0.0036));
#219=CARTESIAN_POINT('',(0.0114463566950057,-0.0268507300523339,-0.0036));
#220=CARTESIAN_POINT('',(0.0059924925273698,-0.0285614311508014,-0.0036));
#221=CARTESIAN_POINT('',(0.000299725144733546,-0.0291871710028837,-0.0036));
#222=CARTESIAN_POINT('',(-0.00539364534973932,-0.0286805492442579,-0.0036));
#223=CARTESIAN_POINT('',(-0.010892536710247,-0.0270801298381845,-0.0036));
#224=CARTESIAN_POINT('',(-0.0159586501069767,-0.0244333133783054,-0.0036));
#225=CARTESIAN_POINT('',(-0.0204265067594008,-0.0208503856072257,-0.0036));
#226=CARTESIAN_POINT('',(-0.0240941018909479,-0.0164663224873802,-0.0036));
#227=CARTESIAN_POINT('',(-0.0268507007939708,-0.0114463761638068,-0.0036));
#228=CARTESIAN_POINT('',(-0.0285915550734273,-0.00589673642509342,-0.0036));
#229=CARTESIAN_POINT('',(-0.0291887327436182,-0.000193038553127379,-0.0036));
#230=CARTESIAN_POINT('',(-0.0286513552956463,0.00549551606192142,-0.0036));
#231=CARTESIAN_POINT('',(-0.029,-1.7347234759768E-18,-0.0036));
#232=CARTESIAN_POINT('',(0.,-2.17199529275528E-18,-0.0036));
#233=CARTESIAN_POINT('',(-0.00318,-2.17199529275528E-18,-0.0036));
#234=CARTESIAN_POINT('',(0.,0.,-0.0018));
#235=CARTESIAN_POINT('',(-0.0285915550734298,0.00589673642508807,-0.0018));
#236=CARTESIAN_POINT('',(-0.0291887327436178,0.000193038553127158,-0.0018));
#237=CARTESIAN_POINT('',(-0.0286513552956458,-0.00549551606191631,-0.0018));
#238=CARTESIAN_POINT('',(-0.0270777436362625,-0.0108971884100769,-0.0018));
#239=CARTESIAN_POINT('',(-0.0244331398392343,-0.0159588676469876,-0.0018));
#240=CARTESIAN_POINT('',(-0.0208503766766248,-0.0204265144566996,-0.0018));
#241=CARTESIAN_POINT('',(-0.0164663264432091,-0.0240940951561764,-0.0018));
#242=CARTESIAN_POINT('',(-0.0114463568458359,-0.0268507298518853,-0.0018));
#243=CARTESIAN_POINT('',(-0.00599249247958848,-0.0285614312091805,-0.0018));
#244=CARTESIAN_POINT('',(-0.000299725146968164,-0.0291871709805951,-0.0018));
#245=CARTESIAN_POINT('',(0.00539364531285177,-0.0286805492751897,-0.0018));
#246=CARTESIAN_POINT('',(0.0108925368601301,-0.0270801297367384,-0.0018));
#247=CARTESIAN_POINT('',(0.0159586495443823,-0.0244333137531432,-0.0018));
#248=CARTESIAN_POINT('',(0.0204265088599554,-0.02085038420929,-0.0018));
#249=CARTESIAN_POINT('',(0.0240940940513526,-0.0164663277042565,-0.0018));
#250=CARTESIAN_POINT('',(0.02685073005181,-0.0114463566942247,-0.0018));
#251=CARTESIAN_POINT('',(0.0285614311527331,-0.00599249253027475,-0.0018));
#252=CARTESIAN_POINT('',(0.0291871709956779,-0.000299725133907188,-0.0018));
#253=CARTESIAN_POINT('',(0.0286805492711496,0.0053936453093375,-0.0018));
#254=CARTESIAN_POINT('',(0.0270801297378233,0.0108925368610706,-0.0018));
#255=CARTESIAN_POINT('',(0.0244333137528439,0.0159586495441131,-0.0018));
#256=CARTESIAN_POINT('',(0.0208503842094231,0.0204265088600597,-0.0018));
#257=CARTESIAN_POINT('',(0.0164663277040313,0.0240940940511923,-0.0018));
#258=CARTESIAN_POINT('',(0.0114463566950168,0.0268507300523265,-0.0018));
#259=CARTESIAN_POINT('',(0.00599249252737615,0.0285614311508018,-0.0018));
#260=CARTESIAN_POINT('',(0.000299725144742148,0.0291871710028806,-0.0018));
#261=CARTESIAN_POINT('',(-0.00539364534973938,0.028680549244262,-0.0018));
#262=CARTESIAN_POINT('',(-0.0108925367102575,0.0270801298381791,-0.0018));
#263=CARTESIAN_POINT('',(-0.0159586501069781,0.0244333133783054,-0.0018));
#264=CARTESIAN_POINT('',(-0.0204265067594042,0.0208503856072222,-0.0018));
#265=CARTESIAN_POINT('',(-0.0240941018909455,0.016466322487382,-0.0018));
#266=CARTESIAN_POINT('',(-0.0268507007939691,0.011446376163811,-0.0018));
#267=CARTESIAN_POINT('',(-0.0285915550734298,0.00589673642508807,-0.0018));
#268=CARTESIAN_POINT('',(-0.0291887327436178,0.000193038553127158,-0.0018));
#269=CARTESIAN_POINT('',(-0.0286513552956458,-0.00549551606191631,-0.0018));
#270=CARTESIAN_POINT('',(-0.029,-5.42101086242752E-18,-0.0018));
#271=CARTESIAN_POINT('',(0.,-2.17199529275528E-18,0.0803325833730111));
#272=CARTESIAN_POINT('',(-0.029,-3.46944695195361E-18,-0.0036));
#273=CARTESIAN_POINT('',(-0.029,0.00379558029501161,-0.0036));
#274=CARTESIAN_POINT('',(-0.0274900242758793,0.0113867408850348,-0.0036));
#275=CARTESIAN_POINT('',(-0.0210399536913863,0.0210399536913863,-0.0036));
#276=CARTESIAN_POINT('',(-0.0113867408850348,0.0274900242758794,-0.0036));
#277=CARTESIAN_POINT('',(4.77048955893622E-17,0.0297549878620603,-0.0036));
#278=CARTESIAN_POINT('',(0.0113867408850349,0.0274900242758793,-0.0036));
#279=CARTESIAN_POINT('',(0.0210399536913863,0.0210399536913862,-0.0036));
#280=CARTESIAN_POINT('',(0.0274900242758793,0.0113867408850349,-0.0036));
#281=CARTESIAN_POINT('',(0.0297549878620603,-5.07406616723216E-17,-0.0036));
#282=CARTESIAN_POINT('',(0.0274900242758794,-0.0113867408850348,-0.0036));
#283=CARTESIAN_POINT('',(0.0210399536913862,-0.0210399536913864,-0.0036));
#284=CARTESIAN_POINT('',(0.0113867408850348,-0.0274900242758793,-0.0036));
#285=CARTESIAN_POINT('',(-2.67581096169422E-16,-0.0297549878620604,-0.0036));
#286=CARTESIAN_POINT('',(-0.0113867408850349,-0.0274900242758793,-0.0036));
#287=CARTESIAN_POINT('',(-0.0210399536913864,-0.0210399536913862,-0.0036));
#288=CARTESIAN_POINT('',(-0.0274900242758793,-0.0113867408850347,-0.0036));
#289=CARTESIAN_POINT('',(-0.029,-0.00379558029501161,-0.0036));
#290=CARTESIAN_POINT('',(-0.029,-3.46944695195361E-18,-0.0036));
#291=CARTESIAN_POINT('',(-0.02903125,-2.74664550362994E-18,-0.0036));
#292=CARTESIAN_POINT('',(-0.02903125,0.00379967035998469,-0.0036));
#293=CARTESIAN_POINT('',(-0.0275196471468662,0.0113990110799541,-0.0036));
#294=CARTESIAN_POINT('',(-0.0210626260552779,0.0210626260552779,-0.0036));
#295=CARTESIAN_POINT('',(-0.011399011079954,0.0275196471468663,-0.0036));
#296=CARTESIAN_POINT('',(4.7271214720368E-17,0.0297870514265669,-0.0036));
#297=CARTESIAN_POINT('',(0.0113990110799541,0.0275196471468663,-0.0036));
#298=CARTESIAN_POINT('',(0.0210626260552779,0.0210626260552777,-0.0036));
#299=CARTESIAN_POINT('',(0.0275196471468662,0.0113990110799541,-0.0036));
#300=CARTESIAN_POINT('',(0.0297870514265669,-5.11743425413158E-17,-0.0036));
#301=CARTESIAN_POINT('',(0.0275196471468663,-0.011399011079954,-0.0036));
#302=CARTESIAN_POINT('',(0.0210626260552778,-0.021062626055278,-0.0036));
#303=CARTESIAN_POINT('',(0.011399011079954,-0.0275196471468663,-0.0036));
#304=CARTESIAN_POINT('',(-2.69749500514394E-16,-0.0297870514265669,-0.0036));
#305=CARTESIAN_POINT('',(-0.0113990110799541,-0.0275196471468662,-0.0036));
#306=CARTESIAN_POINT('',(-0.0210626260552779,-0.0210626260552778,-0.0036));
#307=CARTESIAN_POINT('',(-0.0275196471468663,-0.0113990110799539,-0.0036));
#308=CARTESIAN_POINT('',(-0.02903125,-0.00379967035998469,-0.0036));
#309=CARTESIAN_POINT('',(-0.02903125,-2.74664550362994E-18,-0.0036));
#310=CARTESIAN_POINT('',(-0.0290627712673611,-2.16282804473492E-18,-0.00359981011284722));
#311=CARTESIAN_POINT('',(-0.0290627712673611,0.00380379592899399,-0.00359981011284722));
#312=CARTESIAN_POINT('',(-0.0275495271608305,0.0114113877869819,-0.00359981011284722));
#313=CARTESIAN_POINT('',(-0.0210854952278838,0.0210854952278838,-0.00359981011284722));
#314=CARTESIAN_POINT('',(-0.0114113877869819,0.0275495271608306,-0.00359981011284722));
#315=CARTESIAN_POINT('',(4.85722573273506E-17,0.0298193933206264,-0.00359981011284722));
#316=CARTESIAN_POINT('',(0.011411387786982,0.0275495271608305,-0.00359981011284722));
#317=CARTESIAN_POINT('',(0.0210854952278838,0.0210854952278837,-0.00359981011284722));
#318=CARTESIAN_POINT('',(0.0275495271608305,0.011411387786982,-0.00359981011284722));
#319=CARTESIAN_POINT('',(0.0298193933206264,-4.85722573273506E-17,-0.00359981011284722));
#320=CARTESIAN_POINT('',(0.0275495271608306,-0.0114113877869819,-0.00359981011284722));
#321=CARTESIAN_POINT('',(0.0210854952278837,-0.0210854952278839,-0.00359981011284722));
#322=CARTESIAN_POINT('',(0.0114113877869819,-0.0275495271608305,-0.00359981011284722));
#323=CARTESIAN_POINT('',(-2.72785266597353E-16,-0.0298193933206264,-0.00359981011284722));
#324=CARTESIAN_POINT('',(-0.011411387786982,-0.0275495271608305,-0.00359981011284722));
#325=CARTESIAN_POINT('',(-0.0210854952278838,-0.0210854952278837,-0.00359981011284722));
#326=CARTESIAN_POINT('',(-0.0275495271608305,-0.0114113877869818,-0.00359981011284722));
#327=CARTESIAN_POINT('',(-0.0290627712673611,-0.00380379592899399,-0.00359981011284722));
#328=CARTESIAN_POINT('',(-0.0290627712673611,-2.16282804473492E-18,-0.00359981011284722));
#329=CARTESIAN_POINT('',(-0.0291281467013889,-1.67190186572211E-18,-0.00359359809027778));
#330=CARTESIAN_POINT('',(-0.0291281467013889,0.00381235240172411,-0.00359359809027778));
#331=CARTESIAN_POINT('',(-0.027611498618364,0.0114370572051723,-0.00359359809027778));
#332=CARTESIAN_POINT('',(-0.0211329261280389,0.0211329261280389,-0.00359359809027778));
#333=CARTESIAN_POINT('',(-0.0114370572051723,0.027611498618364,-0.00359359809027778));
#334=CARTESIAN_POINT('',(4.64038529823796E-17,0.0298864707429014,-0.00359359809027778));
#335=CARTESIAN_POINT('',(0.0114370572051724,0.0276114986183639,-0.00359359809027778));
#336=CARTESIAN_POINT('',(0.021132926128039,0.0211329261280388,-0.00359359809027778));
#337=CARTESIAN_POINT('',(0.0276114986183639,0.0114370572051724,-0.00359359809027778));
#338=CARTESIAN_POINT('',(0.0298864707429013,-4.85722573273506E-17,-0.00359359809027778));
#339=CARTESIAN_POINT('',(0.027611498618364,-0.0114370572051723,-0.00359359809027778));
#340=CARTESIAN_POINT('',(0.0211329261280388,-0.021132926128039,-0.00359359809027778));
#341=CARTESIAN_POINT('',(0.0114370572051723,-0.027611498618364,-0.00359359809027778));
#342=CARTESIAN_POINT('',(-2.73652628335341E-16,-0.0298864707429014,-0.00359359809027778));
#343=CARTESIAN_POINT('',(-0.0114370572051724,-0.0276114986183639,-0.00359359809027778));
#344=CARTESIAN_POINT('',(-0.021132926128039,-0.0211329261280389,-0.00359359809027778));
#345=CARTESIAN_POINT('',(-0.027611498618364,-0.0114370572051722,-0.00359359809027778));
#346=CARTESIAN_POINT('',(-0.0291281467013889,-0.00381235240172411,-0.00359359809027778));
#347=CARTESIAN_POINT('',(-0.0291281467013889,-1.67190186572211E-18,-0.00359359809027778));
#348=CARTESIAN_POINT('',(-0.0291618923611111,-1.74206442818634E-18,-0.00358763020833333));
#349=CARTESIAN_POINT('',(-0.0291618923611111,0.00381676910383045,-0.00358763020833333));
#350=CARTESIAN_POINT('',(-0.0276434872047422,0.0114503073114913,-0.00358763020833333));
#351=CARTESIAN_POINT('',(-0.0211574091321024,0.0211574091321024,-0.00358763020833333));
#352=CARTESIAN_POINT('',(-0.0114503073114913,0.0276434872047422,-0.00358763020833333));
#353=CARTESIAN_POINT('',(4.68375338513738E-17,0.0299210949392956,-0.00358763020833333));
#354=CARTESIAN_POINT('',(0.0114503073114914,0.0276434872047422,-0.00358763020833333));
#355=CARTESIAN_POINT('',(0.0211574091321024,0.0211574091321023,-0.00358763020833333));
#356=CARTESIAN_POINT('',(0.0276434872047422,0.0114503073114914,-0.00358763020833333));
#357=CARTESIAN_POINT('',(0.0299210949392956,-4.9439619065339E-17,-0.00358763020833333));
#358=CARTESIAN_POINT('',(0.0276434872047423,-0.0114503073114913,-0.00358763020833333));
#359=CARTESIAN_POINT('',(0.0211574091321023,-0.0211574091321025,-0.00358763020833333));
#360=CARTESIAN_POINT('',(0.0114503073114913,-0.0276434872047422,-0.00358763020833333));
#361=CARTESIAN_POINT('',(-2.7148422399037E-16,-0.0299210949392956,-0.00358763020833333));
#362=CARTESIAN_POINT('',(-0.0114503073114914,-0.0276434872047422,-0.00358763020833333));
#363=CARTESIAN_POINT('',(-0.0211574091321024,-0.0211574091321023,-0.00358763020833333));
#364=CARTESIAN_POINT('',(-0.0276434872047423,-0.0114503073114912,-0.00358763020833333));
#365=CARTESIAN_POINT('',(-0.0291618923611111,-0.00381676910383045,-0.00358763020833333));
#366=CARTESIAN_POINT('',(-0.0291618923611111,-1.74206442818634E-18,-0.00358763020833333));
#367=CARTESIAN_POINT('',(-0.0292287326388889,-2.15428712918344E-18,-0.00356809895833333));
#368=CARTESIAN_POINT('',(-0.0292287326388889,0.00382551729835619,-0.00356809895833333));
#369=CARTESIAN_POINT('',(-0.0277068472343532,0.0114765518950686,-0.00356809895833333));
#370=CARTESIAN_POINT('',(-0.0212059027993149,0.0212059027993149,-0.00356809895833334));
#371=CARTESIAN_POINT('',(-0.0114765518950685,0.0277068472343532,-0.00356809895833333));
#372=CARTESIAN_POINT('',(4.7271214720368E-17,0.0299896753411568,-0.00356809895833333));
#373=CARTESIAN_POINT('',(0.0114765518950686,0.0277068472343531,-0.00356809895833333));
#374=CARTESIAN_POINT('',(0.021205902799315,0.0212059027993148,-0.00356809895833333));
#375=CARTESIAN_POINT('',(0.0277068472343531,0.0114765518950686,-0.00356809895833333));
#376=CARTESIAN_POINT('',(0.0299896753411568,-4.81385764583564E-17,-0.00356809895833333));
#377=CARTESIAN_POINT('',(0.0277068472343532,-0.0114765518950685,-0.00356809895833333));
#378=CARTESIAN_POINT('',(0.0212059027993148,-0.021205902799315,-0.00356809895833333));
#379=CARTESIAN_POINT('',(0.0114765518950685,-0.0277068472343532,-0.00356809895833334));
#380=CARTESIAN_POINT('',(-2.69749500514394E-16,-0.0299896753411568,-0.00356809895833333));
#381=CARTESIAN_POINT('',(-0.0114765518950686,-0.0277068472343531,-0.00356809895833333));
#382=CARTESIAN_POINT('',(-0.021205902799315,-0.0212059027993149,-0.00356809895833333));
#383=CARTESIAN_POINT('',(-0.0277068472343532,-0.0114765518950684,-0.00356809895833333));
#384=CARTESIAN_POINT('',(-0.0292287326388889,-0.00382551729835619,-0.00356809895833333));
#385=CARTESIAN_POINT('',(-0.0292287326388889,-2.15428712918344E-18,-0.00356809895833333));
#386=CARTESIAN_POINT('',(-0.02926171875,-2.47361855029831E-18,-0.00355458984375));
#387=CARTESIAN_POINT('',(-0.02926171875,0.0038298345891611,-0.00355458984375));
#388=CARTESIAN_POINT('',(-0.0277381158203949,0.0114895037674833,-0.00355458984375));
#389=CARTESIAN_POINT('',(-0.0212298347389782,0.0212298347389783,-0.00355458984375));
#390=CARTESIAN_POINT('',(-0.0114895037674832,0.027738115820395,-0.00355458984375));
#391=CARTESIAN_POINT('',(4.2934406030426E-17,0.0300235202148025,-0.00355458984375));
#392=CARTESIAN_POINT('',(0.0114895037674834,0.0277381158203949,-0.00355458984375));
#393=CARTESIAN_POINT('',(0.0212298347389783,0.0212298347389782,-0.00355458984375));
#394=CARTESIAN_POINT('',(0.0277381158203949,0.0114895037674833,-0.00355458984375));
#395=CARTESIAN_POINT('',(0.0300235202148025,-4.90059381963448E-17,-0.00355458984375));
#396=CARTESIAN_POINT('',(0.027738115820395,-0.0114895037674832,-0.00355458984375));
#397=CARTESIAN_POINT('',(0.0212298347389782,-0.0212298347389784,-0.00355458984375));
#398=CARTESIAN_POINT('',(0.0114895037674833,-0.0277381158203949,-0.00355458984375));
#399=CARTESIAN_POINT('',(-2.72351585728359E-16,-0.0300235202148026,-0.00355458984375));
#400=CARTESIAN_POINT('',(-0.0114895037674833,-0.0277381158203949,-0.00355458984375));
#401=CARTESIAN_POINT('',(-0.0212298347389783,-0.0212298347389782,-0.00355458984375));
#402=CARTESIAN_POINT('',(-0.027738115820395,-0.0114895037674832,-0.00355458984375));
#403=CARTESIAN_POINT('',(-0.02926171875,-0.0038298345891611,-0.00355458984375));
#404=CARTESIAN_POINT('',(-0.02926171875,-2.47361855029831E-18,-0.00355458984375));
#405=CARTESIAN_POINT('',(-0.02932275390625,-2.90313484063518E-18,-0.003520166015625));
#406=CARTESIAN_POINT('',(-0.02932275390625,0.00383782299731163,-0.003520166015625));
#407=CARTESIAN_POINT('',(-0.0277959729902913,0.0115134689919349,-0.003520166015625));
#408=CARTESIAN_POINT('',(-0.021274116699704,0.021274116699704,-0.003520166015625));
#409=CARTESIAN_POINT('',(-0.0115134689919348,0.0277959729902913,-0.003520166015625));
#410=CARTESIAN_POINT('',(3.94649590784724E-17,0.0300861443642294,-0.003520166015625));
#411=CARTESIAN_POINT('',(0.011513468991935,0.0277959729902913,-0.003520166015625));
#412=CARTESIAN_POINT('',(0.0212741166997041,0.0212741166997039,-0.003520166015625));
#413=CARTESIAN_POINT('',(0.0277959729902913,0.0115134689919349,-0.003520166015625));
#414=CARTESIAN_POINT('',(0.0300861443642293,-4.59701721133854E-17,-0.003520166015625));
#415=CARTESIAN_POINT('',(0.0277959729902914,-0.0115134689919349,-0.003520166015625));
#416=CARTESIAN_POINT('',(0.0212741166997039,-0.0212741166997041,-0.003520166015625));
#417=CARTESIAN_POINT('',(0.0115134689919349,-0.0277959729902913,-0.003520166015625));
#418=CARTESIAN_POINT('',(-2.68448457907411E-16,-0.0300861443642294,-0.003520166015625));
#419=CARTESIAN_POINT('',(-0.0115134689919349,-0.0277959729902913,-0.003520166015625));
#420=CARTESIAN_POINT('',(-0.0212741166997041,-0.0212741166997039,-0.003520166015625));
#421=CARTESIAN_POINT('',(-0.0277959729902913,-0.0115134689919348,-0.003520166015625));
#422=CARTESIAN_POINT('',(-0.02932275390625,-0.00383782299731163,-0.003520166015625));
#423=CARTESIAN_POINT('',(-0.02932275390625,-2.90313484063518E-18,-0.003520166015625));
#424=CARTESIAN_POINT('',(-0.0293506944444445,-2.99059099243918E-18,-0.00349930555555556));
#425=CARTESIAN_POINT('',(-0.0293506944444445,0.00384147991304277,-0.00349930555555556));
#426=CARTESIAN_POINT('',(-0.027822458716955,0.0115244397391283,-0.00349930555555555));
#427=CARTESIAN_POINT('',(-0.0212943879972807,0.0212943879972807,-0.00349930555555556));
#428=CARTESIAN_POINT('',(-0.0115244397391282,0.027822458716955,-0.00349930555555555));
#429=CARTESIAN_POINT('',(4.5102810375397E-17,0.0301148123081892,-0.00349930555555556));
#430=CARTESIAN_POINT('',(0.0115244397391284,0.027822458716955,-0.00349930555555555));
#431=CARTESIAN_POINT('',(0.0212943879972807,0.0212943879972806,-0.00349930555555556));
#432=CARTESIAN_POINT('',(0.027822458716955,0.0115244397391283,-0.00349930555555556));
#433=CARTESIAN_POINT('',(0.0301148123081892,-4.64038529823796E-17,-0.00349930555555556));
#434=CARTESIAN_POINT('',(0.027822458716955,-0.0115244397391282,-0.00349930555555556));
#435=CARTESIAN_POINT('',(0.0212943879972806,-0.0212943879972808,-0.00349930555555555));
#436=CARTESIAN_POINT('',(0.0115244397391283,-0.027822458716955,-0.00349930555555556));
#437=CARTESIAN_POINT('',(-2.74953670942324E-16,-0.0301148123081892,-0.00349930555555556));
#438=CARTESIAN_POINT('',(-0.0115244397391283,-0.0278224587169549,-0.00349930555555556));
#439=CARTESIAN_POINT('',(-0.0212943879972808,-0.0212943879972806,-0.00349930555555556));
#440=CARTESIAN_POINT('',(-0.027822458716955,-0.0115244397391282,-0.00349930555555556));
#441=CARTESIAN_POINT('',(-0.0293506944444445,-0.00384147991304277,-0.00349930555555556));
#442=CARTESIAN_POINT('',(-0.0293506944444445,-2.99059099243918E-18,-0.00349930555555556));
#443=CARTESIAN_POINT('',(-0.0293993055555556,-3.08094117347964E-18,-0.00345069444444445));
#444=CARTESIAN_POINT('',(-0.0293993055555556,0.00384784223633422,-0.00345069444444444));
#445=CARTESIAN_POINT('',(-0.0278685387384902,0.0115435267090026,-0.00345069444444444));
#446=CARTESIAN_POINT('',(-0.0213296561188898,0.0213296561188898,-0.00345069444444445));
#447=CARTESIAN_POINT('',(-0.0115435267090026,0.0278685387384902,-0.00345069444444445));
#448=CARTESIAN_POINT('',(4.38017677684144E-17,0.0301646889640882,-0.00345069444444445));
#449=CARTESIAN_POINT('',(0.0115435267090027,0.0278685387384902,-0.00345069444444445));
#450=CARTESIAN_POINT('',(0.0213296561188899,0.0213296561188897,-0.00345069444444445));
#451=CARTESIAN_POINT('',(0.0278685387384902,0.0115435267090027,-0.00345069444444445));
#452=CARTESIAN_POINT('',(0.0301646889640882,-4.85722573273506E-17,-0.00345069444444444));
#453=CARTESIAN_POINT('',(0.0278685387384903,-0.0115435267090026,-0.00345069444444445));
#454=CARTESIAN_POINT('',(0.0213296561188897,-0.0213296561188899,-0.00345069444444444));
#455=CARTESIAN_POINT('',(0.0115435267090026,-0.0278685387384902,-0.00345069444444445));
#456=CARTESIAN_POINT('',(-2.7451999007333E-16,-0.0301646889640883,-0.00345069444444444));
#457=CARTESIAN_POINT('',(-0.0115435267090027,-0.0278685387384902,-0.00345069444444445));
#458=CARTESIAN_POINT('',(-0.0213296561188899,-0.0213296561188898,-0.00345069444444445));
#459=CARTESIAN_POINT('',(-0.0278685387384902,-0.0115435267090025,-0.00345069444444445));
#460=CARTESIAN_POINT('',(-0.0293993055555556,-0.00384784223633421,-0.00345069444444445));
#461=CARTESIAN_POINT('',(-0.0293993055555556,-3.08094117347964E-18,-0.00345069444444445));
#462=CARTESIAN_POINT('',(-0.029420166015625,-3.16218575033712E-18,-0.00342275390625));
#463=CARTESIAN_POINT('',(-0.029420166015625,0.00385057249671989,-0.00342275390625));
#464=CARTESIAN_POINT('',(-0.0278883130334459,0.0115517174901596,-0.00342275390625));
#465=CARTESIAN_POINT('',(-0.0213447907090223,0.0213447907090223,-0.00342275390625));
#466=CARTESIAN_POINT('',(-0.0115517174901596,0.0278883130334459,-0.00342275390625));
#467=CARTESIAN_POINT('',(4.7271214720368E-17,0.0301860925067146,-0.00342275390625));
#468=CARTESIAN_POINT('',(0.0115517174901597,0.0278883130334459,-0.00342275390625));
#469=CARTESIAN_POINT('',(0.0213447907090224,0.0213447907090222,-0.00342275390625));
#470=CARTESIAN_POINT('',(0.0278883130334459,0.0115517174901597,-0.00342275390625));
#471=CARTESIAN_POINT('',(0.0301860925067145,-4.46691295064028E-17,-0.00342275390625));
#472=CARTESIAN_POINT('',(0.027888313033446,-0.0115517174901596,-0.00342275390625));
#473=CARTESIAN_POINT('',(0.0213447907090222,-0.0213447907090224,-0.00342275390625));
#474=CARTESIAN_POINT('',(0.0115517174901596,-0.0278883130334459,-0.00342275390625));
#475=CARTESIAN_POINT('',(-2.74086309204336E-16,-0.0301860925067146,-0.00342275390625));
#476=CARTESIAN_POINT('',(-0.0115517174901597,-0.0278883130334459,-0.00342275390625));
#477=CARTESIAN_POINT('',(-0.0213447907090224,-0.0213447907090222,-0.00342275390625));
#478=CARTESIAN_POINT('',(-0.0278883130334459,-0.0115517174901595,-0.00342275390625));
#479=CARTESIAN_POINT('',(-0.029420166015625,-0.00385057249671988,-0.00342275390625));
#480=CARTESIAN_POINT('',(-0.029420166015625,-3.16218575033712E-18,-0.00342275390625));
#481=CARTESIAN_POINT('',(-0.02945458984375,-3.64817090382427E-18,-0.00336171875));
#482=CARTESIAN_POINT('',(-0.02945458984375,0.00385507795891679,-0.00336171875));
#483=CARTESIAN_POINT('',(-0.0279209444772674,0.0115652338767503,-0.00336171875));
#484=CARTESIAN_POINT('',(-0.0213697657348716,0.0213697657348716,-0.00336171875));
#485=CARTESIAN_POINT('',(-0.0115652338767503,0.0279209444772675,-0.00336171875));
#486=CARTESIAN_POINT('',(4.5102810375397E-17,0.0302214125269913,-0.00336171875));
#487=CARTESIAN_POINT('',(0.0115652338767504,0.0279209444772674,-0.00336171875));
#488=CARTESIAN_POINT('',(0.0213697657348717,0.0213697657348715,-0.00336171875));
#489=CARTESIAN_POINT('',(0.0279209444772674,0.0115652338767504,-0.00336171875));
#490=CARTESIAN_POINT('',(0.0302214125269912,-4.64038529823796E-17,-0.00336171875));
#491=CARTESIAN_POINT('',(0.0279209444772675,-0.0115652338767503,-0.00336171875));
#492=CARTESIAN_POINT('',(0.0213697657348715,-0.0213697657348717,-0.00336171875));
#493=CARTESIAN_POINT('',(0.0115652338767503,-0.0279209444772674,-0.00336171875));
#494=CARTESIAN_POINT('',(-2.74086309204336E-16,-0.0302214125269913,-0.00336171875));
#495=CARTESIAN_POINT('',(-0.0115652338767504,-0.0279209444772674,-0.00336171875));
#496=CARTESIAN_POINT('',(-0.0213697657348717,-0.0213697657348716,-0.00336171875));
#497=CARTESIAN_POINT('',(-0.0279209444772675,-0.0115652338767502,-0.00336171875));
#498=CARTESIAN_POINT('',(-0.02945458984375,-0.00385507795891679,-0.00336171875));
#499=CARTESIAN_POINT('',(-0.02945458984375,-3.64817090382427E-18,-0.00336171875));
#500=CARTESIAN_POINT('',(-0.0294680989583334,-4.03470027208798E-18,-0.00332873263888889));
#501=CARTESIAN_POINT('',(-0.0294680989583334,0.00385684605992077,-0.00332873263888889));
#502=CARTESIAN_POINT('',(-0.0279337501975378,0.0115705381797623,-0.00332873263888889));
#503=CARTESIAN_POINT('',(-0.0213795668088456,0.0213795668088456,-0.00332873263888889));
#504=CARTESIAN_POINT('',(-0.0115705381797622,0.0279337501975379,-0.00332873263888889));
#505=CARTESIAN_POINT('',(4.42354486374086E-17,0.0302352733387311,-0.00332873263888889));
#506=CARTESIAN_POINT('',(0.0115705381797624,0.0279337501975378,-0.00332873263888889));
#507=CARTESIAN_POINT('',(0.0213795668088456,0.0213795668088455,-0.00332873263888889));
#508=CARTESIAN_POINT('',(0.0279337501975378,0.0115705381797624,-0.00332873263888889));
#509=CARTESIAN_POINT('',(0.0302352733387311,-5.07406616723216E-17,-0.00332873263888889));
#510=CARTESIAN_POINT('',(0.0279337501975379,-0.0115705381797622,-0.00332873263888889));
#511=CARTESIAN_POINT('',(0.0213795668088455,-0.0213795668088457,-0.00332873263888889));
#512=CARTESIAN_POINT('',(0.0115705381797623,-0.0279337501975378,-0.00332873263888889));
#513=CARTESIAN_POINT('',(-2.73652628335341E-16,-0.0302352733387311,-0.00332873263888889));
#514=CARTESIAN_POINT('',(-0.0115705381797623,-0.0279337501975378,-0.00332873263888889));
#515=CARTESIAN_POINT('',(-0.0213795668088456,-0.0213795668088455,-0.00332873263888889));
#516=CARTESIAN_POINT('',(-0.0279337501975379,-0.0115705381797622,-0.00332873263888889));
#517=CARTESIAN_POINT('',(-0.0294680989583334,-0.00385684605992077,-0.00332873263888889));
#518=CARTESIAN_POINT('',(-0.0294680989583334,-4.03470027208798E-18,-0.00332873263888889));
#519=CARTESIAN_POINT('',(-0.0294876302083334,-4.80832369724691E-18,-0.00326189236111111));
#520=CARTESIAN_POINT('',(-0.0294876302083334,0.00385940235052894,-0.00326189236111111));
#521=CARTESIAN_POINT('',(-0.0279522644919047,0.0115782070515868,-0.00326189236111111));
#522=CARTESIAN_POINT('',(-0.0213937370362778,0.0213937370362778,-0.00326189236111111));
#523=CARTESIAN_POINT('',(-0.0115782070515867,0.0279522644919047,-0.00326189236111111));
#524=CARTESIAN_POINT('',(4.20670442924376E-17,0.0302553130665476,-0.00326189236111111));
#525=CARTESIAN_POINT('',(0.0115782070515869,0.0279522644919047,-0.00326189236111111));
#526=CARTESIAN_POINT('',(0.0213937370362779,0.0213937370362777,-0.00326189236111111));
#527=CARTESIAN_POINT('',(0.0279522644919046,0.0115782070515869,-0.00326189236111111));
#528=CARTESIAN_POINT('',(0.0302553130665476,-4.90059381963448E-17,-0.00326189236111111));
#529=CARTESIAN_POINT('',(0.0279522644919047,-0.0115782070515868,-0.00326189236111111));
#530=CARTESIAN_POINT('',(0.0213937370362777,-0.0213937370362779,-0.00326189236111111));
#531=CARTESIAN_POINT('',(0.0115782070515868,-0.0279522644919047,-0.00326189236111111));
#532=CARTESIAN_POINT('',(-2.74086309204336E-16,-0.0302553130665477,-0.00326189236111111));
#533=CARTESIAN_POINT('',(-0.0115782070515869,-0.0279522644919046,-0.00326189236111111));
#534=CARTESIAN_POINT('',(-0.0213937370362779,-0.0213937370362778,-0.00326189236111111));
#535=CARTESIAN_POINT('',(-0.0279522644919047,-0.0115782070515867,-0.00326189236111111));
#536=CARTESIAN_POINT('',(-0.0294876302083334,-0.00385940235052894,-0.00326189236111111));
#537=CARTESIAN_POINT('',(-0.0294876302083334,-4.80832369724691E-18,-0.00326189236111111));
#538=CARTESIAN_POINT('',(-0.0294935980902778,-5.17720654577616E-18,-0.00322814670138889));
#539=CARTESIAN_POINT('',(-0.0294935980902778,0.00386018343932588,-0.00322814670138889));
#540=CARTESIAN_POINT('',(-0.0279579216374057,0.0115805503179776,-0.00322814670138889));
#541=CARTESIAN_POINT('',(-0.0213980668279932,0.0213980668279932,-0.00322814670138889));
#542=CARTESIAN_POINT('',(-0.0115805503179776,0.0279579216374057,-0.00322814670138889));
#543=CARTESIAN_POINT('',(4.42354486374086E-17,0.0302614363167138,-0.00322814670138889));
#544=CARTESIAN_POINT('',(0.0115805503179777,0.0279579216374056,-0.00322814670138889));
#545=CARTESIAN_POINT('',(0.0213980668279933,0.0213980668279931,-0.00322814670138889));
#546=CARTESIAN_POINT('',(0.0279579216374056,0.0115805503179777,-0.00322814670138889));
#547=CARTESIAN_POINT('',(0.0302614363167138,-4.98732999343332E-17,-0.00322814670138889));
#548=CARTESIAN_POINT('',(0.0279579216374057,-0.0115805503179776,-0.00322814670138889));
#549=CARTESIAN_POINT('',(0.0213980668279931,-0.0213980668279933,-0.00322814670138889));
#550=CARTESIAN_POINT('',(0.0115805503179776,-0.0279579216374056,-0.00322814670138889));
#551=CARTESIAN_POINT('',(-2.72785266597353E-16,-0.0302614363167139,-0.00322814670138889));
#552=CARTESIAN_POINT('',(-0.0115805503179777,-0.0279579216374056,-0.00322814670138889));
#553=CARTESIAN_POINT('',(-0.0213980668279933,-0.0213980668279932,-0.00322814670138889));
#554=CARTESIAN_POINT('',(-0.0279579216374057,-0.0115805503179775,-0.00322814670138889));
#555=CARTESIAN_POINT('',(-0.0294935980902778,-0.00386018343932588,-0.00322814670138889));
#556=CARTESIAN_POINT('',(-0.0294935980902778,-5.17720654577616E-18,-0.00322814670138889));
#557=CARTESIAN_POINT('',(-0.0294998101128472,-5.601075949798E-18,-0.00316277126736111));
#558=CARTESIAN_POINT('',(-0.0294998101128472,0.00386099648175542,-0.00316277126736111));
#559=CARTESIAN_POINT('',(-0.0279638102115862,0.0115829894452663,-0.00316277126736111));
#560=CARTESIAN_POINT('',(-0.0214025737475515,0.0214025737475515,-0.00316277126736111));
#561=CARTESIAN_POINT('',(-0.0115829894452662,0.0279638102115862,-0.00316277126736111));
#562=CARTESIAN_POINT('',(4.16333634234434E-17,0.0302678100634777,-0.00316277126736111));
#563=CARTESIAN_POINT('',(0.0115829894452663,0.0279638102115862,-0.00316277126736111));
#564=CARTESIAN_POINT('',(0.0214025737475516,0.0214025737475514,-0.00316277126736111));
#565=CARTESIAN_POINT('',(0.0279638102115862,0.0115829894452663,-0.00316277126736111));
#566=CARTESIAN_POINT('',(0.0302678100634777,-5.07406616723216E-17,-0.00316277126736111));
#567=CARTESIAN_POINT('',(0.0279638102115863,-0.0115829894452662,-0.00316277126736111));
#568=CARTESIAN_POINT('',(0.0214025737475514,-0.0214025737475516,-0.00316277126736111));
#569=CARTESIAN_POINT('',(0.0115829894452662,-0.0279638102115862,-0.00316277126736111));
#570=CARTESIAN_POINT('',(-2.71917904859365E-16,-0.0302678100634778,-0.00316277126736111));
#571=CARTESIAN_POINT('',(-0.0115829894452663,-0.0279638102115862,-0.00316277126736111));
#572=CARTESIAN_POINT('',(-0.0214025737475516,-0.0214025737475515,-0.00316277126736111));
#573=CARTESIAN_POINT('',(-0.0279638102115863,-0.0115829894452661,-0.00316277126736111));
#574=CARTESIAN_POINT('',(-0.0294998101128472,-0.00386099648175543,-0.00316277126736111));
#575=CARTESIAN_POINT('',(-0.0294998101128472,-5.601075949798E-18,-0.00316277126736111));
#576=CARTESIAN_POINT('',(-0.0295,-5.63785129692462E-18,-0.00313125));
#577=CARTESIAN_POINT('',(-0.0295,0.00386102133458078,-0.00313125));
#578=CARTESIAN_POINT('',(-0.0279639902116703,0.0115830640037423,-0.00313125));
#579=CARTESIAN_POINT('',(-0.0214027115136515,0.0214027115136516,-0.00313125));
#580=CARTESIAN_POINT('',(-0.0115830640037423,0.0279639902116704,-0.00313125));
#581=CARTESIAN_POINT('',(4.5102810375397E-17,0.0302680048941648,-0.00313125));
#582=CARTESIAN_POINT('',(0.0115830640037424,0.0279639902116703,-0.00313125));
#583=CARTESIAN_POINT('',(0.0214027115136516,0.0214027115136515,-0.00313125));
#584=CARTESIAN_POINT('',(0.0279639902116703,0.0115830640037424,-0.00313125));
#585=CARTESIAN_POINT('',(0.0302680048941648,-5.07406616723216E-17,-0.00313125));
#586=CARTESIAN_POINT('',(0.0279639902116704,-0.0115830640037423,-0.00313125));
#587=CARTESIAN_POINT('',(0.0214027115136515,-0.0214027115136517,-0.00313125));
#588=CARTESIAN_POINT('',(0.0115830640037423,-0.0279639902116703,-0.00313125));
#589=CARTESIAN_POINT('',(-2.73652628335341E-16,-0.0302680048941649,-0.00313125));
#590=CARTESIAN_POINT('',(-0.0115830640037424,-0.0279639902116703,-0.00313125));
#591=CARTESIAN_POINT('',(-0.0214027115136516,-0.0214027115136515,-0.00313125));
#592=CARTESIAN_POINT('',(-0.0279639902116704,-0.0115830640037422,-0.00313125));
#593=CARTESIAN_POINT('',(-0.0295,-0.00386102133458078,-0.00313125));
#594=CARTESIAN_POINT('',(-0.0295,-5.63785129692462E-18,-0.00313125));
#595=CARTESIAN_POINT('',(-0.0295,-5.63785129692462E-18,-0.0031));
#596=CARTESIAN_POINT('',(-0.0295,0.00386102133458078,-0.0031));
#597=CARTESIAN_POINT('',(-0.0279639902116703,0.0115830640037423,-0.0031));
#598=CARTESIAN_POINT('',(-0.0214027115136515,0.0214027115136516,-0.0031));
#599=CARTESIAN_POINT('',(-0.0115830640037423,0.0279639902116704,-0.0031));
#600=CARTESIAN_POINT('',(4.5102810375397E-17,0.0302680048941648,-0.0031));
#601=CARTESIAN_POINT('',(0.0115830640037424,0.0279639902116703,-0.0031));
#602=CARTESIAN_POINT('',(0.0214027115136516,0.0214027115136515,-0.0031));
#603=CARTESIAN_POINT('',(0.0279639902116703,0.0115830640037424,-0.0031));
#604=CARTESIAN_POINT('',(0.0302680048941648,-5.07406616723216E-17,-0.0031));
#605=CARTESIAN_POINT('',(0.0279639902116704,-0.0115830640037423,-0.0031));
#606=CARTESIAN_POINT('',(0.0214027115136515,-0.0214027115136517,-0.0031));
#607=CARTESIAN_POINT('',(0.0115830640037423,-0.0279639902116703,-0.0031));
#608=CARTESIAN_POINT('',(-2.73652628335341E-16,-0.0302680048941649,-0.0031));
#609=CARTESIAN_POINT('',(-0.0115830640037424,-0.0279639902116703,-0.0031));
#610=CARTESIAN_POINT('',(-0.0214027115136516,-0.0214027115136515,-0.0031));
#611=CARTESIAN_POINT('',(-0.0279639902116704,-0.0115830640037422,-0.0031));
#612=CARTESIAN_POINT('',(-0.0295,-0.00386102133458078,-0.0031));
#613=CARTESIAN_POINT('',(-0.0295,-5.63785129692462E-18,-0.0031));
#614=CARTESIAN_POINT('',(-0.0295,-5.63785129692462E-18,-0.0023));
#615=CARTESIAN_POINT('',(-0.0295,0.00386102133458078,-0.0023));
#616=CARTESIAN_POINT('',(-0.0279639902116703,0.0115830640037423,-0.0023));
#617=CARTESIAN_POINT('',(-0.0214027115136515,0.0214027115136516,-0.0023));
#618=CARTESIAN_POINT('',(-0.0115830640037423,0.0279639902116704,-0.0023));
#619=CARTESIAN_POINT('',(4.5102810375397E-17,0.0302680048941648,-0.0023));
#620=CARTESIAN_POINT('',(0.0115830640037424,0.0279639902116703,-0.0023));
#621=CARTESIAN_POINT('',(0.0214027115136516,0.0214027115136515,-0.0023));
#622=CARTESIAN_POINT('',(0.0279639902116703,0.0115830640037424,-0.0023));
#623=CARTESIAN_POINT('',(0.0302680048941648,-5.07406616723216E-17,-0.0023));
#624=CARTESIAN_POINT('',(0.0279639902116704,-0.0115830640037423,-0.0023));
#625=CARTESIAN_POINT('',(0.0214027115136515,-0.0214027115136517,-0.0023));
#626=CARTESIAN_POINT('',(0.0115830640037423,-0.0279639902116703,-0.0023));
#627=CARTESIAN_POINT('',(-2.73652628335341E-16,-0.0302680048941649,-0.0023));
#628=CARTESIAN_POINT('',(-0.0115830640037424,-0.0279639902116703,-0.0023));
#629=CARTESIAN_POINT('',(-0.0214027115136516,-0.0214027115136515,-0.0023));
#630=CARTESIAN_POINT('',(-0.0279639902116704,-0.0115830640037422,-0.0023));
#631=CARTESIAN_POINT('',(-0.0295,-0.00386102133458078,-0.0023));
#632=CARTESIAN_POINT('',(-0.0295,-5.63785129692462E-18,-0.0023));
#633=CARTESIAN_POINT('',(-0.0295,-5.63785129692462E-18,-0.00226875));
#634=CARTESIAN_POINT('',(-0.0295,0.00386102133458078,-0.00226875));
#635=CARTESIAN_POINT('',(-0.0279639902116703,0.0115830640037423,-0.00226875));
#636=CARTESIAN_POINT('',(-0.0214027115136515,0.0214027115136516,-0.00226875));
#637=CARTESIAN_POINT('',(-0.0115830640037423,0.0279639902116704,-0.00226875));
#638=CARTESIAN_POINT('',(4.5102810375397E-17,0.0302680048941648,-0.00226875));
#639=CARTESIAN_POINT('',(0.0115830640037424,0.0279639902116703,-0.00226875));
#640=CARTESIAN_POINT('',(0.0214027115136516,0.0214027115136515,-0.00226875));
#641=CARTESIAN_POINT('',(0.0279639902116703,0.0115830640037424,-0.00226875));
#642=CARTESIAN_POINT('',(0.0302680048941648,-5.07406616723216E-17,-0.00226875));
#643=CARTESIAN_POINT('',(0.0279639902116704,-0.0115830640037423,-0.00226875));
#644=CARTESIAN_POINT('',(0.0214027115136515,-0.0214027115136517,-0.00226875));
#645=CARTESIAN_POINT('',(0.0115830640037423,-0.0279639902116703,-0.00226875));
#646=CARTESIAN_POINT('',(-2.73652628335341E-16,-0.0302680048941649,-0.00226875));
#647=CARTESIAN_POINT('',(-0.0115830640037424,-0.0279639902116703,-0.00226875));
#648=CARTESIAN_POINT('',(-0.0214027115136516,-0.0214027115136515,-0.00226875));
#649=CARTESIAN_POINT('',(-0.0279639902116704,-0.0115830640037422,-0.00226875));
#650=CARTESIAN_POINT('',(-0.0295,-0.00386102133458078,-0.00226875));
#651=CARTESIAN_POINT('',(-0.0295,-5.63785129692462E-18,-0.00226875));
#652=CARTESIAN_POINT('',(-0.0294998101128472,-5.601075949798E-18,-0.00223722873263889));
#653=CARTESIAN_POINT('',(-0.0294998101128472,0.00386099648175542,-0.00223722873263889));
#654=CARTESIAN_POINT('',(-0.0279638102115862,0.0115829894452663,-0.00223722873263889));
#655=CARTESIAN_POINT('',(-0.0214025737475515,0.0214025737475515,-0.00223722873263889));
#656=CARTESIAN_POINT('',(-0.0115829894452662,0.0279638102115862,-0.00223722873263889));
#657=CARTESIAN_POINT('',(4.16333634234434E-17,0.0302678100634777,-0.00223722873263889));
#658=CARTESIAN_POINT('',(0.0115829894452663,0.0279638102115862,-0.00223722873263889));
#659=CARTESIAN_POINT('',(0.0214025737475516,0.0214025737475514,-0.00223722873263889));
#660=CARTESIAN_POINT('',(0.0279638102115862,0.0115829894452663,-0.00223722873263889));
#661=CARTESIAN_POINT('',(0.0302678100634777,-5.07406616723216E-17,-0.00223722873263889));
#662=CARTESIAN_POINT('',(0.0279638102115863,-0.0115829894452662,-0.00223722873263889));
#663=CARTESIAN_POINT('',(0.0214025737475514,-0.0214025737475516,-0.00223722873263889));
#664=CARTESIAN_POINT('',(0.0115829894452662,-0.0279638102115862,-0.00223722873263889));
#665=CARTESIAN_POINT('',(-2.71917904859365E-16,-0.0302678100634778,-0.00223722873263889));
#666=CARTESIAN_POINT('',(-0.0115829894452663,-0.0279638102115862,-0.00223722873263889));
#667=CARTESIAN_POINT('',(-0.0214025737475516,-0.0214025737475515,-0.00223722873263889));
#668=CARTESIAN_POINT('',(-0.0279638102115863,-0.0115829894452661,-0.00223722873263889));
#669=CARTESIAN_POINT('',(-0.0294998101128472,-0.00386099648175543,-0.00223722873263889));
#670=CARTESIAN_POINT('',(-0.0294998101128472,-5.601075949798E-18,-0.00223722873263889));
#671=CARTESIAN_POINT('',(-0.0294935980902778,-5.17720654577616E-18,-0.00217185329861111));
#672=CARTESIAN_POINT('',(-0.0294935980902778,0.00386018343932588,-0.00217185329861111));
#673=CARTESIAN_POINT('',(-0.0279579216374057,0.0115805503179776,-0.00217185329861111));
#674=CARTESIAN_POINT('',(-0.0213980668279932,0.0213980668279932,-0.00217185329861111));
#675=CARTESIAN_POINT('',(-0.0115805503179776,0.0279579216374057,-0.00217185329861111));
#676=CARTESIAN_POINT('',(4.38017677684144E-17,0.0302614363167138,-0.00217185329861111));
#677=CARTESIAN_POINT('',(0.0115805503179777,0.0279579216374056,-0.00217185329861111));
#678=CARTESIAN_POINT('',(0.0213980668279933,0.0213980668279931,-0.00217185329861111));
#679=CARTESIAN_POINT('',(0.0279579216374056,0.0115805503179777,-0.00217185329861111));
#680=CARTESIAN_POINT('',(0.0302614363167138,-4.98732999343332E-17,-0.00217185329861111));
#681=CARTESIAN_POINT('',(0.0279579216374057,-0.0115805503179776,-0.00217185329861111));
#682=CARTESIAN_POINT('',(0.0213980668279931,-0.0213980668279933,-0.00217185329861111));
#683=CARTESIAN_POINT('',(0.0115805503179776,-0.0279579216374056,-0.00217185329861111));
#684=CARTESIAN_POINT('',(-2.71917904859365E-16,-0.0302614363167139,-0.00217185329861111));
#685=CARTESIAN_POINT('',(-0.0115805503179777,-0.0279579216374056,-0.00217185329861111));
#686=CARTESIAN_POINT('',(-0.0213980668279933,-0.0213980668279932,-0.00217185329861111));
#687=CARTESIAN_POINT('',(-0.0279579216374057,-0.0115805503179775,-0.00217185329861111));
#688=CARTESIAN_POINT('',(-0.0294935980902778,-0.00386018343932588,-0.00217185329861111));
#689=CARTESIAN_POINT('',(-0.0294935980902778,-5.17720654577616E-18,-0.00217185329861111));
#690=CARTESIAN_POINT('',(-0.0294876302083334,-4.80832369724691E-18,-0.00213810763888889));
#691=CARTESIAN_POINT('',(-0.0294876302083334,0.00385940235052894,-0.00213810763888889));
#692=CARTESIAN_POINT('',(-0.0279522644919047,0.0115782070515868,-0.00213810763888889));
#693=CARTESIAN_POINT('',(-0.0213937370362778,0.0213937370362778,-0.00213810763888889));
#694=CARTESIAN_POINT('',(-0.0115782070515867,0.0279522644919047,-0.00213810763888889));
#695=CARTESIAN_POINT('',(4.46691295064028E-17,0.0302553130665476,-0.00213810763888889));
#696=CARTESIAN_POINT('',(0.0115782070515869,0.0279522644919047,-0.00213810763888889));
#697=CARTESIAN_POINT('',(0.0213937370362779,0.0213937370362777,-0.00213810763888889));
#698=CARTESIAN_POINT('',(0.0279522644919046,0.0115782070515869,-0.00213810763888889));
#699=CARTESIAN_POINT('',(0.0302553130665476,-4.98732999343332E-17,-0.00213810763888889));
#700=CARTESIAN_POINT('',(0.0279522644919047,-0.0115782070515868,-0.00213810763888889));
#701=CARTESIAN_POINT('',(0.0213937370362777,-0.0213937370362779,-0.00213810763888889));
#702=CARTESIAN_POINT('',(0.0115782070515868,-0.0279522644919047,-0.00213810763888889));
#703=CARTESIAN_POINT('',(-2.73218947466347E-16,-0.0302553130665477,-0.00213810763888889));
#704=CARTESIAN_POINT('',(-0.0115782070515869,-0.0279522644919046,-0.00213810763888889));
#705=CARTESIAN_POINT('',(-0.0213937370362779,-0.0213937370362778,-0.00213810763888889));
#706=CARTESIAN_POINT('',(-0.0279522644919047,-0.0115782070515867,-0.00213810763888889));
#707=CARTESIAN_POINT('',(-0.0294876302083334,-0.00385940235052894,-0.00213810763888889));
#708=CARTESIAN_POINT('',(-0.0294876302083334,-4.80832369724691E-18,-0.00213810763888889));
#709=CARTESIAN_POINT('',(-0.0294680989583334,-4.03470027208798E-18,-0.00207126736111111));
#710=CARTESIAN_POINT('',(-0.0294680989583334,0.00385684605992077,-0.00207126736111111));
#711=CARTESIAN_POINT('',(-0.0279337501975378,0.0115705381797623,-0.00207126736111111));
#712=CARTESIAN_POINT('',(-0.0213795668088456,0.0213795668088456,-0.00207126736111111));
#713=CARTESIAN_POINT('',(-0.0115705381797622,0.0279337501975379,-0.00207126736111111));
#714=CARTESIAN_POINT('',(4.25007251614318E-17,0.0302352733387311,-0.00207126736111111));
#715=CARTESIAN_POINT('',(0.0115705381797624,0.0279337501975378,-0.00207126736111111));
#716=CARTESIAN_POINT('',(0.0213795668088457,0.0213795668088455,-0.00207126736111111));
#717=CARTESIAN_POINT('',(0.0279337501975378,0.0115705381797624,-0.00207126736111111));
#718=CARTESIAN_POINT('',(0.0302352733387311,-4.9439619065339E-17,-0.00207126736111111));
#719=CARTESIAN_POINT('',(0.0279337501975379,-0.0115705381797622,-0.00207126736111111));
#720=CARTESIAN_POINT('',(0.0213795668088455,-0.0213795668088457,-0.00207126736111111));
#721=CARTESIAN_POINT('',(0.0115705381797623,-0.0279337501975378,-0.00207126736111111));
#722=CARTESIAN_POINT('',(-2.7451999007333E-16,-0.0302352733387311,-0.00207126736111111));
#723=CARTESIAN_POINT('',(-0.0115705381797623,-0.0279337501975378,-0.00207126736111111));
#724=CARTESIAN_POINT('',(-0.0213795668088456,-0.0213795668088455,-0.00207126736111111));
#725=CARTESIAN_POINT('',(-0.0279337501975379,-0.0115705381797622,-0.00207126736111111));
#726=CARTESIAN_POINT('',(-0.0294680989583334,-0.00385684605992077,-0.00207126736111111));
#727=CARTESIAN_POINT('',(-0.0294680989583334,-4.03470027208798E-18,-0.00207126736111111));
#728=CARTESIAN_POINT('',(-0.02945458984375,-3.64817090382427E-18,-0.00203828125));
#729=CARTESIAN_POINT('',(-0.02945458984375,0.00385507795891679,-0.00203828125));
#730=CARTESIAN_POINT('',(-0.0279209444772674,0.0115652338767503,-0.00203828125));
#731=CARTESIAN_POINT('',(-0.0213697657348716,0.0213697657348716,-0.00203828125));
#732=CARTESIAN_POINT('',(-0.0115652338767503,0.0279209444772675,-0.00203828125));
#733=CARTESIAN_POINT('',(4.46691295064028E-17,0.0302214125269913,-0.00203828125));
#734=CARTESIAN_POINT('',(0.0115652338767504,0.0279209444772674,-0.00203828125));
#735=CARTESIAN_POINT('',(0.0213697657348717,0.0213697657348715,-0.00203828125));
#736=CARTESIAN_POINT('',(0.0279209444772674,0.0115652338767504,-0.00203828125));
#737=CARTESIAN_POINT('',(0.0302214125269912,-4.68375338513738E-17,-0.00203828125));
#738=CARTESIAN_POINT('',(0.0279209444772675,-0.0115652338767503,-0.00203828125));
#739=CARTESIAN_POINT('',(0.0213697657348715,-0.0213697657348717,-0.00203828125));
#740=CARTESIAN_POINT('',(0.0115652338767503,-0.0279209444772674,-0.00203828125));
#741=CARTESIAN_POINT('',(-2.74086309204336E-16,-0.0302214125269913,-0.00203828125));
#742=CARTESIAN_POINT('',(-0.0115652338767504,-0.0279209444772674,-0.00203828125));
#743=CARTESIAN_POINT('',(-0.0213697657348717,-0.0213697657348716,-0.00203828125));
#744=CARTESIAN_POINT('',(-0.0279209444772675,-0.0115652338767502,-0.00203828125));
#745=CARTESIAN_POINT('',(-0.02945458984375,-0.00385507795891679,-0.00203828125));
#746=CARTESIAN_POINT('',(-0.02945458984375,-3.64817090382427E-18,-0.00203828125));
#747=CARTESIAN_POINT('',(-0.029420166015625,-3.16218575033712E-18,-0.00197724609375));
#748=CARTESIAN_POINT('',(-0.029420166015625,0.00385057249671989,-0.00197724609375));
#749=CARTESIAN_POINT('',(-0.0278883130334459,0.0115517174901596,-0.00197724609375));
#750=CARTESIAN_POINT('',(-0.0213447907090223,0.0213447907090223,-0.00197724609375));
#751=CARTESIAN_POINT('',(-0.0115517174901596,0.0278883130334459,-0.00197724609375));
#752=CARTESIAN_POINT('',(4.68375338513738E-17,0.0301860925067146,-0.00197724609375));
#753=CARTESIAN_POINT('',(0.0115517174901597,0.0278883130334459,-0.00197724609375));
#754=CARTESIAN_POINT('',(0.0213447907090224,0.0213447907090222,-0.00197724609375));
#755=CARTESIAN_POINT('',(0.0278883130334459,0.0115517174901597,-0.00197724609375));
#756=CARTESIAN_POINT('',(0.0301860925067145,-4.46691295064028E-17,-0.00197724609375));
#757=CARTESIAN_POINT('',(0.027888313033446,-0.0115517174901596,-0.00197724609375));
#758=CARTESIAN_POINT('',(0.0213447907090222,-0.0213447907090224,-0.00197724609375));
#759=CARTESIAN_POINT('',(0.0115517174901596,-0.0278883130334459,-0.00197724609375));
#760=CARTESIAN_POINT('',(-2.74086309204336E-16,-0.0301860925067146,-0.00197724609375));
#761=CARTESIAN_POINT('',(-0.0115517174901597,-0.0278883130334459,-0.00197724609375));
#762=CARTESIAN_POINT('',(-0.0213447907090224,-0.0213447907090222,-0.00197724609375));
#763=CARTESIAN_POINT('',(-0.0278883130334459,-0.0115517174901595,-0.00197724609375));
#764=CARTESIAN_POINT('',(-0.029420166015625,-0.00385057249671988,-0.00197724609375));
#765=CARTESIAN_POINT('',(-0.029420166015625,-3.16218575033712E-18,-0.00197724609375));
#766=CARTESIAN_POINT('',(-0.0293993055555556,-3.08094117347964E-18,-0.00194930555555556));
#767=CARTESIAN_POINT('',(-0.0293993055555556,0.00384784223633422,-0.00194930555555556));
#768=CARTESIAN_POINT('',(-0.0278685387384902,0.0115435267090026,-0.00194930555555556));
#769=CARTESIAN_POINT('',(-0.0213296561188898,0.0213296561188898,-0.00194930555555556));
#770=CARTESIAN_POINT('',(-0.0115435267090026,0.0278685387384902,-0.00194930555555555));
#771=CARTESIAN_POINT('',(4.33680868994202E-17,0.0301646889640882,-0.00194930555555556));
#772=CARTESIAN_POINT('',(0.0115435267090027,0.0278685387384902,-0.00194930555555555));
#773=CARTESIAN_POINT('',(0.0213296561188899,0.0213296561188897,-0.00194930555555555));
#774=CARTESIAN_POINT('',(0.0278685387384902,0.0115435267090027,-0.00194930555555555));
#775=CARTESIAN_POINT('',(0.0301646889640882,-4.85722573273506E-17,-0.00194930555555556));
#776=CARTESIAN_POINT('',(0.0278685387384903,-0.0115435267090026,-0.00194930555555555));
#777=CARTESIAN_POINT('',(0.0213296561188897,-0.0213296561188899,-0.00194930555555556));
#778=CARTESIAN_POINT('',(0.0115435267090026,-0.0278685387384902,-0.00194930555555555));
#779=CARTESIAN_POINT('',(-2.74086309204336E-16,-0.0301646889640883,-0.00194930555555555));
#780=CARTESIAN_POINT('',(-0.0115435267090027,-0.0278685387384902,-0.00194930555555556));
#781=CARTESIAN_POINT('',(-0.0213296561188899,-0.0213296561188898,-0.00194930555555555));
#782=CARTESIAN_POINT('',(-0.0278685387384902,-0.0115435267090025,-0.00194930555555555));
#783=CARTESIAN_POINT('',(-0.0293993055555556,-0.00384784223633421,-0.00194930555555556));
#784=CARTESIAN_POINT('',(-0.0293993055555556,-3.08094117347964E-18,-0.00194930555555556));
#785=CARTESIAN_POINT('',(-0.0293506944444445,-2.99059099243918E-18,-0.00190069444444444));
#786=CARTESIAN_POINT('',(-0.0293506944444445,0.00384147991304277,-0.00190069444444444));
#787=CARTESIAN_POINT('',(-0.027822458716955,0.0115244397391283,-0.00190069444444444));
#788=CARTESIAN_POINT('',(-0.0212943879972807,0.0212943879972807,-0.00190069444444444));
#789=CARTESIAN_POINT('',(-0.0115244397391282,0.027822458716955,-0.00190069444444444));
#790=CARTESIAN_POINT('',(4.55364912443912E-17,0.0301148123081892,-0.00190069444444445));
#791=CARTESIAN_POINT('',(0.0115244397391284,0.027822458716955,-0.00190069444444444));
#792=CARTESIAN_POINT('',(0.0212943879972807,0.0212943879972806,-0.00190069444444444));
#793=CARTESIAN_POINT('',(0.027822458716955,0.0115244397391283,-0.00190069444444444));
#794=CARTESIAN_POINT('',(0.0301148123081892,-4.68375338513738E-17,-0.00190069444444445));
#795=CARTESIAN_POINT('',(0.027822458716955,-0.0115244397391282,-0.00190069444444444));
#796=CARTESIAN_POINT('',(0.0212943879972806,-0.0212943879972808,-0.00190069444444444));
#797=CARTESIAN_POINT('',(0.0115244397391283,-0.027822458716955,-0.00190069444444444));
#798=CARTESIAN_POINT('',(-2.74086309204336E-16,-0.0301148123081892,-0.00190069444444444));
#799=CARTESIAN_POINT('',(-0.0115244397391283,-0.0278224587169549,-0.00190069444444444));
#800=CARTESIAN_POINT('',(-0.0212943879972808,-0.0212943879972806,-0.00190069444444444));
#801=CARTESIAN_POINT('',(-0.027822458716955,-0.0115244397391282,-0.00190069444444444));
#802=CARTESIAN_POINT('',(-0.0293506944444445,-0.00384147991304277,-0.00190069444444444));
#803=CARTESIAN_POINT('',(-0.0293506944444445,-2.99059099243918E-18,-0.00190069444444444));
#804=CARTESIAN_POINT('',(-0.02932275390625,-2.90313484063518E-18,-0.001879833984375));
#805=CARTESIAN_POINT('',(-0.02932275390625,0.00383782299731163,-0.001879833984375));
#806=CARTESIAN_POINT('',(-0.0277959729902913,0.0115134689919349,-0.001879833984375));
#807=CARTESIAN_POINT('',(-0.021274116699704,0.021274116699704,-0.001879833984375));
#808=CARTESIAN_POINT('',(-0.0115134689919348,0.0277959729902913,-0.001879833984375));
#809=CARTESIAN_POINT('',(3.94649590784724E-17,0.0300861443642294,-0.001879833984375));
#810=CARTESIAN_POINT('',(0.011513468991935,0.0277959729902913,-0.001879833984375));
#811=CARTESIAN_POINT('',(0.0212741166997041,0.0212741166997039,-0.001879833984375));
#812=CARTESIAN_POINT('',(0.0277959729902913,0.0115134689919349,-0.001879833984375));
#813=CARTESIAN_POINT('',(0.0300861443642293,-4.55364912443912E-17,-0.001879833984375));
#814=CARTESIAN_POINT('',(0.0277959729902914,-0.0115134689919349,-0.001879833984375));
#815=CARTESIAN_POINT('',(0.0212741166997039,-0.0212741166997041,-0.001879833984375));
#816=CARTESIAN_POINT('',(0.0115134689919349,-0.0277959729902913,-0.001879833984375));
#817=CARTESIAN_POINT('',(-2.68882138776405E-16,-0.0300861443642294,-0.001879833984375));
#818=CARTESIAN_POINT('',(-0.0115134689919349,-0.0277959729902913,-0.001879833984375));
#819=CARTESIAN_POINT('',(-0.0212741166997041,-0.0212741166997039,-0.001879833984375));
#820=CARTESIAN_POINT('',(-0.0277959729902913,-0.0115134689919348,-0.001879833984375));
#821=CARTESIAN_POINT('',(-0.02932275390625,-0.00383782299731163,-0.001879833984375));
#822=CARTESIAN_POINT('',(-0.02932275390625,-2.90313484063518E-18,-0.001879833984375));
#823=CARTESIAN_POINT('',(-0.02926171875,-2.47361855029831E-18,-0.00184541015625));
#824=CARTESIAN_POINT('',(-0.02926171875,0.0038298345891611,-0.00184541015625));
#825=CARTESIAN_POINT('',(-0.0277381158203949,0.0114895037674833,-0.00184541015625));
#826=CARTESIAN_POINT('',(-0.0212298347389782,0.0212298347389783,-0.00184541015625));
#827=CARTESIAN_POINT('',(-0.0114895037674832,0.027738115820395,-0.00184541015625));
#828=CARTESIAN_POINT('',(4.33680868994202E-17,0.0300235202148025,-0.00184541015625));
#829=CARTESIAN_POINT('',(0.0114895037674834,0.0277381158203949,-0.00184541015625));
#830=CARTESIAN_POINT('',(0.0212298347389783,0.0212298347389782,-0.00184541015625));
#831=CARTESIAN_POINT('',(0.0277381158203949,0.0114895037674833,-0.00184541015625));
#832=CARTESIAN_POINT('',(0.0300235202148025,-4.90059381963448E-17,-0.00184541015625));
#833=CARTESIAN_POINT('',(0.027738115820395,-0.0114895037674832,-0.00184541015625));
#834=CARTESIAN_POINT('',(0.0212298347389782,-0.0212298347389784,-0.00184541015625));
#835=CARTESIAN_POINT('',(0.0114895037674833,-0.0277381158203949,-0.00184541015625));
#836=CARTESIAN_POINT('',(-2.73218947466347E-16,-0.0300235202148026,-0.00184541015625));
#837=CARTESIAN_POINT('',(-0.0114895037674833,-0.0277381158203949,-0.00184541015625));
#838=CARTESIAN_POINT('',(-0.0212298347389783,-0.0212298347389782,-0.00184541015625));
#839=CARTESIAN_POINT('',(-0.027738115820395,-0.0114895037674832,-0.00184541015625));
#840=CARTESIAN_POINT('',(-0.02926171875,-0.0038298345891611,-0.00184541015625));
#841=CARTESIAN_POINT('',(-0.02926171875,-2.47361855029831E-18,-0.00184541015625));
#842=CARTESIAN_POINT('',(-0.0292287326388889,-2.15428712918344E-18,-0.00183190104166667));
#843=CARTESIAN_POINT('',(-0.0292287326388889,0.00382551729835619,-0.00183190104166667));
#844=CARTESIAN_POINT('',(-0.0277068472343532,0.0114765518950686,-0.00183190104166667));
#845=CARTESIAN_POINT('',(-0.0212059027993149,0.0212059027993149,-0.00183190104166667));
#846=CARTESIAN_POINT('',(-0.0114765518950685,0.0277068472343532,-0.00183190104166667));
#847=CARTESIAN_POINT('',(4.81385764583564E-17,0.0299896753411568,-0.00183190104166667));
#848=CARTESIAN_POINT('',(0.0114765518950686,0.0277068472343531,-0.00183190104166667));
#849=CARTESIAN_POINT('',(0.021205902799315,0.0212059027993148,-0.00183190104166667));
#850=CARTESIAN_POINT('',(0.0277068472343532,0.0114765518950686,-0.00183190104166667));
#851=CARTESIAN_POINT('',(0.0299896753411567,-5.07406616723216E-17,-0.00183190104166667));
#852=CARTESIAN_POINT('',(0.0277068472343532,-0.0114765518950685,-0.00183190104166667));
#853=CARTESIAN_POINT('',(0.0212059027993148,-0.021205902799315,-0.00183190104166667));
#854=CARTESIAN_POINT('',(0.0114765518950685,-0.0277068472343532,-0.00183190104166667));
#855=CARTESIAN_POINT('',(-2.7148422399037E-16,-0.0299896753411568,-0.00183190104166667));
#856=CARTESIAN_POINT('',(-0.0114765518950686,-0.0277068472343531,-0.00183190104166667));
#857=CARTESIAN_POINT('',(-0.021205902799315,-0.0212059027993149,-0.00183190104166667));
#858=CARTESIAN_POINT('',(-0.0277068472343532,-0.0114765518950684,-0.00183190104166667));
#859=CARTESIAN_POINT('',(-0.0292287326388889,-0.00382551729835619,-0.00183190104166667));
#860=CARTESIAN_POINT('',(-0.0292287326388889,-2.15428712918344E-18,-0.00183190104166667));
#861=CARTESIAN_POINT('',(-0.0291618923611111,-1.74206442818634E-18,-0.00181236979166667));
#862=CARTESIAN_POINT('',(-0.0291618923611111,0.00381676910383045,-0.00181236979166667));
#863=CARTESIAN_POINT('',(-0.0276434872047422,0.0114503073114914,-0.00181236979166667));
#864=CARTESIAN_POINT('',(-0.0211574091321024,0.0211574091321024,-0.00181236979166667));
#865=CARTESIAN_POINT('',(-0.0114503073114913,0.0276434872047422,-0.00181236979166667));
#866=CARTESIAN_POINT('',(4.59701721133854E-17,0.0299210949392956,-0.00181236979166667));
#867=CARTESIAN_POINT('',(0.0114503073114914,0.0276434872047422,-0.00181236979166667));
#868=CARTESIAN_POINT('',(0.0211574091321024,0.0211574091321023,-0.00181236979166667));
#869=CARTESIAN_POINT('',(0.0276434872047422,0.0114503073114914,-0.00181236979166667));
#870=CARTESIAN_POINT('',(0.0299210949392956,-4.7271214720368E-17,-0.00181236979166667));
#871=CARTESIAN_POINT('',(0.0276434872047423,-0.0114503073114913,-0.00181236979166667));
#872=CARTESIAN_POINT('',(0.0211574091321023,-0.0211574091321025,-0.00181236979166667));
#873=CARTESIAN_POINT('',(0.0114503073114913,-0.0276434872047422,-0.00181236979166667));
#874=CARTESIAN_POINT('',(-2.69749500514394E-16,-0.0299210949392956,-0.00181236979166667));
#875=CARTESIAN_POINT('',(-0.0114503073114914,-0.0276434872047422,-0.00181236979166667));
#876=CARTESIAN_POINT('',(-0.0211574091321024,-0.0211574091321023,-0.00181236979166667));
#877=CARTESIAN_POINT('',(-0.0276434872047423,-0.0114503073114912,-0.00181236979166667));
#878=CARTESIAN_POINT('',(-0.0291618923611111,-0.00381676910383045,-0.00181236979166667));
#879=CARTESIAN_POINT('',(-0.0291618923611111,-1.74206442818634E-18,-0.00181236979166667));
#880=CARTESIAN_POINT('',(-0.0291281467013889,-1.67190186572211E-18,-0.00180640190972222));
#881=CARTESIAN_POINT('',(-0.0291281467013889,0.00381235240172411,-0.00180640190972222));
#882=CARTESIAN_POINT('',(-0.027611498618364,0.0114370572051723,-0.00180640190972222));
#883=CARTESIAN_POINT('',(-0.0211329261280389,0.0211329261280389,-0.00180640190972222));
#884=CARTESIAN_POINT('',(-0.0114370572051723,0.027611498618364,-0.00180640190972222));
#885=CARTESIAN_POINT('',(4.55364912443912E-17,0.0298864707429014,-0.00180640190972222));
#886=CARTESIAN_POINT('',(0.0114370572051724,0.0276114986183639,-0.00180640190972222));
#887=CARTESIAN_POINT('',(0.021132926128039,0.0211329261280388,-0.00180640190972222));
#888=CARTESIAN_POINT('',(0.0276114986183639,0.0114370572051724,-0.00180640190972222));
#889=CARTESIAN_POINT('',(0.0298864707429013,-4.81385764583564E-17,-0.00180640190972222));
#890=CARTESIAN_POINT('',(0.027611498618364,-0.0114370572051723,-0.00180640190972222));
#891=CARTESIAN_POINT('',(0.0211329261280388,-0.021132926128039,-0.00180640190972222));
#892=CARTESIAN_POINT('',(0.0114370572051723,-0.027611498618364,-0.00180640190972222));
#893=CARTESIAN_POINT('',(-2.73652628335341E-16,-0.0298864707429014,-0.00180640190972222));
#894=CARTESIAN_POINT('',(-0.0114370572051724,-0.0276114986183639,-0.00180640190972222));
#895=CARTESIAN_POINT('',(-0.021132926128039,-0.0211329261280389,-0.00180640190972222));
#896=CARTESIAN_POINT('',(-0.027611498618364,-0.0114370572051722,-0.00180640190972222));
#897=CARTESIAN_POINT('',(-0.0291281467013889,-0.00381235240172411,-0.00180640190972222));
#898=CARTESIAN_POINT('',(-0.0291281467013889,-1.67190186572211E-18,-0.00180640190972222));
#899=CARTESIAN_POINT('',(-0.0290627712673611,-2.16282804473492E-18,-0.00180018988715278));
#900=CARTESIAN_POINT('',(-0.0290627712673611,0.00380379592899399,-0.00180018988715278));
#901=CARTESIAN_POINT('',(-0.0275495271608305,0.0114113877869819,-0.00180018988715278));
#902=CARTESIAN_POINT('',(-0.0210854952278838,0.0210854952278838,-0.00180018988715278));
#903=CARTESIAN_POINT('',(-0.0114113877869819,0.0275495271608306,-0.00180018988715278));
#904=CARTESIAN_POINT('',(4.81385764583564E-17,0.0298193933206264,-0.00180018988715278));
#905=CARTESIAN_POINT('',(0.011411387786982,0.0275495271608305,-0.00180018988715278));
#906=CARTESIAN_POINT('',(0.0210854952278838,0.0210854952278837,-0.00180018988715278));
#907=CARTESIAN_POINT('',(0.0275495271608305,0.011411387786982,-0.00180018988715278));
#908=CARTESIAN_POINT('',(0.0298193933206264,-4.85722573273506E-17,-0.00180018988715278));
#909=CARTESIAN_POINT('',(0.0275495271608306,-0.0114113877869819,-0.00180018988715278));
#910=CARTESIAN_POINT('',(0.0210854952278837,-0.0210854952278839,-0.00180018988715278));
#911=CARTESIAN_POINT('',(0.0114113877869819,-0.0275495271608305,-0.00180018988715278));
#912=CARTESIAN_POINT('',(-2.72785266597353E-16,-0.0298193933206264,-0.00180018988715278));
#913=CARTESIAN_POINT('',(-0.011411387786982,-0.0275495271608305,-0.00180018988715278));
#914=CARTESIAN_POINT('',(-0.0210854952278838,-0.0210854952278837,-0.00180018988715278));
#915=CARTESIAN_POINT('',(-0.0275495271608305,-0.0114113877869818,-0.00180018988715278));
#916=CARTESIAN_POINT('',(-0.0290627712673611,-0.00380379592899399,-0.00180018988715278));
#917=CARTESIAN_POINT('',(-0.0290627712673611,-2.16282804473492E-18,-0.00180018988715278));
#918=CARTESIAN_POINT('',(-0.02903125,-2.74664550362994E-18,-0.0018));
#919=CARTESIAN_POINT('',(-0.02903125,0.00379967035998469,-0.0018));
#920=CARTESIAN_POINT('',(-0.0275196471468662,0.0113990110799541,-0.0018));
#921=CARTESIAN_POINT('',(-0.0210626260552779,0.0210626260552779,-0.0018));
#922=CARTESIAN_POINT('',(-0.011399011079954,0.0275196471468663,-0.0018));
#923=CARTESIAN_POINT('',(4.7271214720368E-17,0.0297870514265669,-0.0018));
#924=CARTESIAN_POINT('',(0.0113990110799541,0.0275196471468663,-0.0018));
#925=CARTESIAN_POINT('',(0.0210626260552779,0.0210626260552777,-0.0018));
#926=CARTESIAN_POINT('',(0.0275196471468662,0.0113990110799541,-0.0018));
#927=CARTESIAN_POINT('',(0.0297870514265669,-5.11743425413158E-17,-0.0018));
#928=CARTESIAN_POINT('',(0.0275196471468663,-0.011399011079954,-0.0018));
#929=CARTESIAN_POINT('',(0.0210626260552778,-0.021062626055278,-0.0018));
#930=CARTESIAN_POINT('',(0.011399011079954,-0.0275196471468663,-0.0018));
#931=CARTESIAN_POINT('',(-2.69749500514394E-16,-0.0297870514265669,-0.0018));
#932=CARTESIAN_POINT('',(-0.0113990110799541,-0.0275196471468662,-0.0018));
#933=CARTESIAN_POINT('',(-0.0210626260552779,-0.0210626260552778,-0.0018));
#934=CARTESIAN_POINT('',(-0.0275196471468663,-0.0113990110799539,-0.0018));
#935=CARTESIAN_POINT('',(-0.02903125,-0.00379967035998469,-0.0018));
#936=CARTESIAN_POINT('',(-0.02903125,-2.74664550362994E-18,-0.0018));
#937=CARTESIAN_POINT('',(-0.029,-3.46944695195361E-18,-0.0018));
#938=CARTESIAN_POINT('',(-0.029,0.00379558029501161,-0.0018));
#939=CARTESIAN_POINT('',(-0.0274900242758793,0.0113867408850348,-0.0018));
#940=CARTESIAN_POINT('',(-0.0210399536913863,0.0210399536913863,-0.0018));
#941=CARTESIAN_POINT('',(-0.0113867408850348,0.0274900242758794,-0.0018));
#942=CARTESIAN_POINT('',(4.77048955893622E-17,0.0297549878620603,-0.0018));
#943=CARTESIAN_POINT('',(0.0113867408850349,0.0274900242758793,-0.0018));
#944=CARTESIAN_POINT('',(0.0210399536913863,0.0210399536913862,-0.0018));
#945=CARTESIAN_POINT('',(0.0274900242758793,0.0113867408850349,-0.0018));
#946=CARTESIAN_POINT('',(0.0297549878620603,-5.07406616723216E-17,-0.0018));
#947=CARTESIAN_POINT('',(0.0274900242758794,-0.0113867408850348,-0.0018));
#948=CARTESIAN_POINT('',(0.0210399536913862,-0.0210399536913864,-0.0018));
#949=CARTESIAN_POINT('',(0.0113867408850348,-0.0274900242758793,-0.0018));
#950=CARTESIAN_POINT('',(-2.67581096169422E-16,-0.0297549878620604,-0.0018));
#951=CARTESIAN_POINT('',(-0.0113867408850349,-0.0274900242758793,-0.0018));
#952=CARTESIAN_POINT('',(-0.0210399536913864,-0.0210399536913862,-0.0018));
#953=CARTESIAN_POINT('',(-0.0274900242758793,-0.0113867408850347,-0.0018));
#954=CARTESIAN_POINT('',(-0.029,-0.00379558029501161,-0.0018));
#955=CARTESIAN_POINT('',(-0.029,-3.46944695195361E-18,-0.0018));
#956=MECHANICAL_DESIGN_GEOMETRIC_PRESENTATION_REPRESENTATION('',(#101),
#957);
#957=(
GEOMETRIC_REPRESENTATION_CONTEXT(3)
GLOBAL_UNCERTAINTY_ASSIGNED_CONTEXT((#958))
GLOBAL_UNIT_ASSIGNED_CONTEXT((#961,#960,#959))
REPRESENTATION_CONTEXT('Part 2','TOP_LEVEL_ASSEMBLY_PART')
);
#958=UNCERTAINTY_MEASURE_WITH_UNIT(LENGTH_MEASURE(2.E-5),#961,
'DISTANCE_ACCURACY_VALUE','Maximum Tolerance applied to model');
#959=(
NAMED_UNIT(*)
SI_UNIT($,.STERADIAN.)
SOLID_ANGLE_UNIT()
);
#960=(
NAMED_UNIT(*)
PLANE_ANGLE_UNIT()
SI_UNIT($,.RADIAN.)
);
#961=(
LENGTH_UNIT()
NAMED_UNIT(*)
SI_UNIT($,.METRE.)
);
#962=PRODUCT_DEFINITION_SHAPE('','',#963);
#963=PRODUCT_DEFINITION('','',#965,#964);
#964=PRODUCT_DEFINITION_CONTEXT('',#971,'design');
#965=PRODUCT_DEFINITION_FORMATION_WITH_SPECIFIED_SOURCE('','',#967,
 .NOT_KNOWN.);
#966=PRODUCT_RELATED_PRODUCT_CATEGORY('','',(#967));
#967=PRODUCT('Part 2','Part 2','Part 2',(#969));
#968=PRODUCT_CATEGORY('','');
#969=PRODUCT_CONTEXT('',#971,'mechanical');
#970=APPLICATION_PROTOCOL_DEFINITION('international standard',
'ap242_managed_model_based_3d_engineering',2020,#971);
#971=APPLICATION_CONTEXT('managed model based 3d engineering');
ENDSEC;
END-ISO-10303-21;
